<svg xmlns="http://www.w3.org/2000/svg" width="200" height="200" viewBox="0 0 200 200">
<path fill="#FFFFFF" d="M141.3,66.4c0,10.6,0,21.2,0,31.9c0,1.1,0.4,2.1,1.1,2.9c0.5,0.6,1.1,1.2,1.6,1.8c0.1,0.1,0.1,0.2,0.2,0.4
	c-0.3,0-0.4,0-0.6,0c-3.7,0-7.5,0-11.2,0c-1.4,0-2.2-0.7-2.6-2c-0.1-0.3-0.2-0.5-0.2-0.8c0-0.1,0-0.1-0.1-0.2
	c-0.1,0.1-0.2,0.2-0.2,0.3c-0.9,1.2-2.1,1.9-3.5,2.4c-1.2,0.4-2.5,0.5-3.7,0.5c-2,0.1-4,0-6-0.6c-2.2-0.6-3.9-1.8-5.1-3.8
	c0,0-0.1-0.1-0.1-0.1c-0.5,0.5-0.9,1.1-1.5,1.5c-1.3,1.1-2.8,1.7-4.5,2.1c-2.2,0.5-4.4,0.6-6.6,0.6c-5.2,0-10.4,0-15.7,0
	c-0.1,0-0.2,0-0.4,0c-0.6-2.3-1.1-4.5-1.7-6.8c-3.7,0-7.3,0-11,0c-0.5,2.3-1.1,4.5-1.7,6.8c-3.8,0-7.5,0-11.3,0
	c0-0.2,0.1-0.4,0.1-0.6c2.5-10.1,5.1-20.3,7.6-30.4c0.4-1.5,0.1-2.9-1-4.1c-0.4-0.5-0.9-1-1.3-1.4c-0.1-0.1-0.3-0.3,0-0.4
	c7.3,0,14.6,0,21.8,0c0.1,0,0.1,0.1,0.2,0.1c1,0.2,1.7,0.8,2,1.9c0.3,1.4,0.7,2.7,1,4.1c0,0.1,0.1,0.2,0.1,0.3
	c0-0.1,0.1-0.1,0.1-0.1c0.9-2.2,2.5-3.7,4.7-4.6c2-0.9,4.1-1.2,6.3-1.4c0.7-0.1,1.4-0.1,2.1-0.2c7.3,0,14.6,0,21.8,0
	c0,0.2,0,0.4,0,0.5c0,8.3,0,16.6,0,24.9c0,0.3,0,0.6,0,0.9c0.1,1,0.6,1.8,1.6,2.2c0.8,0.3,1.5,0.3,2.3,0.2c1.4-0.3,2.9-1.2,2.8-3.4
	c0-8.3,0-16.7,0-25c0-0.1,0-0.2,0-0.4C133.1,66.4,137.2,66.4,141.3,66.4z M112.6,80.3C112.6,80.3,112.6,80.3,112.6,80.3
	c0.9-0.6,1.7-1.2,2.6-1.7c1.1-0.7,2.2-1.4,3.3-2.2c0.1-0.1,0.2-0.2,0.1-0.3c-0.1-0.1-0.2-0.2-0.3-0.2c-0.1,0-0.2,0-0.3,0.1
	c-1.9,0.7-3.7,1.5-5.6,2.2c-0.3,0.1-0.6,0.2-1,0.4c0,0,0-0.1-0.1-0.1c0.2-0.2,0.3-0.3,0.5-0.5c0.9-0.8,1.7-1.6,2.6-2.4
	c0.6-0.6,1.3-1.2,1.9-1.8c0.1-0.1,0.3-0.2,0.1-0.4c-0.2-0.2-0.3-0.2-0.5-0.1c-0.2,0.1-0.4,0.3-0.6,0.4c-1.5,0.9-3,1.8-4.5,2.7
	c-0.3,0.2-0.7,0.4-1.1,0.6c0.3-0.5,0.6-0.9,0.9-1.3c1.1-1.4,2.1-2.8,3.2-4.2c0.2-0.2,0.1-0.4-0.2-0.4c-0.1,0-0.3,0.1-0.4,0.2
	c-0.6,0.5-1.1,1-1.7,1.5c-0.8,0.7-1.5,1.3-2.3,2c-0.4,0.4-0.9,0.7-1.3,1.1c0-0.1,0-0.2,0.1-0.3c1-2,2-3.9,2.9-5.9
	c0.1-0.2,0.1-0.3,0-0.4c-0.1-0.1-0.3,0-0.5,0c-0.1,0-0.1,0.1-0.2,0.2c-0.1,0.2-0.2,0.3-0.4,0.5c0-0.2,0-0.3,0-0.4c0,0,0,0-0.1,0
	c-1.3,1.6-2.6,3.2-3.9,4.8c-0.1,0-0.1,0-0.1,0c-1.3-0.6-2.7-0.8-4.1-0.9c-0.6,0-1.2,0-1.8,0.1c-0.9,0.1-1.8,0.4-2.6,0.9
	c-1.1,0.7-1.4,2.4-0.7,3.4c0.6,0.8,1.4,1.4,2.2,1.8c1.7,0.7,3.4,1.4,5.1,2.1c1.6,0.6,3.1,1.3,4.5,2.2c1.1,0.7,2.1,1.6,2.8,2.7
	c0.6,0.9,1,1.8,1.3,2.9c0,0.2,0.2,0.3,0.4,0.4c0.4,0.1,0.9,0.2,1.3,0.3c1.8,0.4,3.7,0.8,5.5,1.2c0.3,0.1,0.4,0,0.4-0.2
	c0.1-0.2-0.1-0.4-0.3-0.4c-0.2-0.1-0.4-0.1-0.7-0.2c-0.8-0.3-1.6-0.7-2.3-1c-1.1-0.5-2.2-1-3.4-1.5c0,0,0-0.1,0-0.1
	c0.4,0,0.8,0.1,1.3,0.1c1,0.1,2.1,0.1,3.1,0.2c0.1,0,0.2,0,0.3,0c0.8,0.1,1.7,0.1,2.5,0.2c0.1,0,0.3-0.2,0.4-0.3
	c0-0.2-0.1-0.3-0.3-0.3c-0.1,0-0.2,0-0.3,0c-0.9-0.2-1.9-0.5-2.8-0.7c-1.3-0.3-2.5-0.7-3.8-1c0.4-0.1,0.7-0.1,1.1-0.1
	c0.4,0,0.7,0,1.1-0.1c1-0.1,2-0.2,3.1-0.3c0.7-0.1,1.4-0.1,2.1-0.2c0.1,0,0.2-0.1,0.2-0.2c0.1-0.2-0.3-0.5-0.5-0.5
	c-0.3,0-0.6,0-0.9,0c-1-0.1-2-0.2-2.9-0.3c-0.7-0.1-1.5-0.1-2.2-0.2c-0.3,0-0.6,0-0.9-0.1c-0.1,0-0.1-0.1-0.3-0.1
	c1.7-0.4,3.4-0.9,5-1.3c0.7-0.2,1.3-0.3,2-0.5c0.1,0,0.3-0.2,0.3-0.3c0-0.1-0.2-0.3-0.3-0.3c-0.3,0-0.6,0-0.9,0.1
	c-0.9,0.1-1.8,0.1-2.7,0.2c-0.6,0-1.2,0.1-1.8,0.1c-0.1,0-0.1,0-0.2,0c-0.6,0-1.1,0.1-1.7,0.1c0-0.1,0.1-0.1,0.2-0.2
	c0.7-0.3,1.4-0.6,2.1-0.9c0.8-0.3,1.5-0.7,2.3-1c0.6-0.3,1.3-0.5,1.9-0.8c0.1,0,0.2-0.2,0.2-0.3c0-0.1-0.2-0.2-0.3-0.3
	c-0.1,0-0.2,0-0.3,0c-1.1,0.2-2.2,0.5-3.3,0.7C115,79.8,113.8,80,112.6,80.3z M92.4,94C92.5,94,92.5,94,92.4,94c0,0.1,0,0.2,0,0.3
	c-0.4,0.8-0.8,1.6-1.2,2.4c-0.6,1.1-1.1,2.2-1.7,3.4c-0.1,0.2-0.1,0.3,0,0.4c0.1,0.1,0.3,0.1,0.4,0.1c0.1-0.1,0.2-0.2,0.3-0.4
	c0.5-0.6,0.9-1.1,1.4-1.7c0.5-0.6,1-1.3,1.5-1.9c0.4-0.5,0.8-1,1.2-1.5c0.2-0.2,0.3-0.2,0.6-0.1c0.7,0.3,1.5,0.5,2.2,0.6
	c0.9,0.1,1.8,0,2.7-0.1c0.8-0.2,1.6-0.5,2.2-0.9c0.2-0.1,0.3-0.2,0.5-0.2c0.4,0,0.7-0.2,0.9-0.6c0.2-0.8,0.1-1.6-0.4-2.4
	c-0.6-0.8-1.3-1.3-2.2-1.7c-1.5-0.7-3-1.2-4.5-1.8c-1.7-0.6-3.4-1.2-5-2.2c-1.3-0.8-2.5-1.7-3.3-3c-0.3-0.4-0.5-0.7-1-0.7
	c-1,0-1.9-0.1-2.9-0.2c-0.6,0-1.2,0-1.7-0.1c-0.5,0-1-0.1-1.4-0.1c-0.3,0-0.6,0-0.9,0c-0.1,0-0.2,0.2-0.3,0.3c0,0.1,0.1,0.2,0.2,0.3
	c0.6,0.2,1.1,0.3,1.7,0.4c1.8,0.5,3.6,0.9,5.4,1.4c-0.2,0-0.3,0.1-0.5,0.1c-1,0.1-2.1,0.2-3.1,0.2c-0.3,0-0.6,0.1-1,0.1
	c-0.9,0.1-1.8,0.2-2.7,0.2c-0.2,0-0.3,0.1-0.3,0.3c0,0.3,0.2,0.3,0.4,0.3c0.2,0,0.5,0,0.7,0c0.7,0,1.5,0.1,2.2,0.2
	c0.3,0,0.7,0.1,1,0.1c0.7,0.1,1.5,0.2,2.2,0.2c0.3,0,0.7,0.1,1.1,0.1c-0.7,0.2-1.3,0.4-2,0.5c-1,0.3-2,0.5-3,0.8
	c-0.7,0.2-1.5,0.3-2.2,0.5c-0.2,0-0.3,0.2-0.3,0.3c0,0.1,0.2,0.3,0.3,0.3c0.4,0,0.8,0,1.2-0.1c1-0.1,1.9-0.2,2.9-0.2
	c0.6,0,1.3-0.1,1.9-0.1c0.1,0,0.1,0,0.2,0c0.3,0,0.6,0,1-0.1c-0.2,0.2-0.5,0.3-0.7,0.4c-1.2,0.5-2.5,1.1-3.7,1.6
	c-0.7,0.3-1.4,0.6-2,0.8c-0.2,0.1-0.2,0.2-0.2,0.4c0,0.2,0.1,0.3,0.4,0.3c0.6-0.2,1.3-0.3,1.9-0.4c1.4-0.3,2.8-0.6,4.2-0.9
	c0.3-0.1,0.7-0.1,1-0.2c0,0.1,0,0.1,0,0.1c-1.3,0.8-2.5,1.6-3.8,2.5c-0.7,0.5-1.5,0.9-2.2,1.4c-0.1,0.1-0.1,0.2-0.1,0.4
	c0,0,0.2,0.1,0.3,0.1c0.1,0,0.2,0,0.3-0.1c1.5-0.6,2.9-1.2,4.4-1.7c0.7-0.3,1.5-0.6,2.2-0.9c0,0,0,0,0,0.1c-0.1,0.1-0.3,0.2-0.4,0.3
	c-0.9,0.9-1.9,1.8-2.8,2.7c-0.6,0.5-1.2,1-1.8,1.5c-0.2,0.1-0.2,0.3-0.1,0.5c0.1,0.2,0.3,0.2,0.5,0c0.3-0.2,0.6-0.4,0.9-0.6
	c1.3-0.8,2.6-1.6,3.9-2.4c0.4-0.3,0.9-0.5,1.3-0.8c0,0.1,0,0.2-0.1,0.3c-0.5,0.7-1.1,1.4-1.6,2.1c-0.8,1.1-1.6,2.1-2.4,3.2
	c-0.2,0.2-0.2,0.4,0.1,0.4c0.1,0,0.3,0,0.4-0.1c0.8-0.7,1.7-1.4,2.5-2.1c0.7-0.6,1.3-1.2,2-1.8C91.9,94.4,92.2,94.2,92.4,94z
	 M75.1,74.8C75.1,74.9,75.1,74.9,75.1,74.8c-1.3,5-2.6,10-3.8,15c2.5,0,5,0,7.6,0C77.6,84.8,76.4,79.8,75.1,74.8z M87.3,81.8
	c0-0.1,0-0.3,0-0.3c-0.2-0.5-0.3-1-0.5-1.5c-0.1-0.2-0.2-0.3-0.5-0.4c-1.5-0.3-2.9-0.7-4.4-1c-0.3-0.1-0.6-0.1-1-0.2
	c-0.1,0-0.3,0.1-0.3,0.2c0,0.1,0.1,0.3,0.2,0.3c0.8,0.4,1.6,0.7,2.4,1.1C84.6,80.6,85.9,81.2,87.3,81.8z M112.4,90.1
	c0,0.6,0,1.2,0,1.9c0,0.1,0.2,0.3,0.3,0.3c0.5,0.2,1,0.4,1.5,0.6c1.1,0.4,2.1,0.9,3.2,1.3c0.2,0.1,0.4,0.2,0.6,0.2
	c0.1,0,0.3-0.1,0.4-0.2c0.1-0.1,0-0.2-0.2-0.3c-0.7-0.5-1.4-0.9-2.1-1.4C114.8,91.7,113.6,90.9,112.4,90.1z M112.4,93.1
	c-0.1,0.6-0.1,1.1-0.2,1.6c0,0.2,0,0.3,0.2,0.4c1.1,0.7,2.2,1.3,3.4,2c0.3,0.2,0.4,0.1,0.6-0.2C115,95.6,113.7,94.4,112.4,93.1z
	 M86.6,77.2c-1.2-0.5-2.4-1-3.6-1.5c-0.1-0.1-0.3-0.1-0.4-0.2c-0.2,0-0.3,0.1-0.4,0.2c-0.1,0.2,0,0.2,0.1,0.3c0.8,0.5,1.5,1,2.3,1.5
	c0.6,0.4,1.3,0.8,1.9,1.3C86.6,78.3,86.6,77.8,86.6,77.2z M111.8,96.4c-0.1,0.5-0.2,0.9-0.4,1.3c0,0,0,0,0,0c0.5,0.5,1.1,1,1.6,1.5
	c0.3,0.3,0.5,0.2,0.7-0.2C113.1,98.2,112.6,97.2,111.8,96.4z M86.6,75.6c0.1-0.5,0.2-0.9,0.3-1.4c-0.7-0.4-1.4-0.8-2.2-1.3
	c-0.1,0-0.1-0.1-0.2,0c-0.3,0.1-0.3,0.3-0.1,0.5c0.6,0.6,1.2,1.1,1.7,1.7C86.3,75.3,86.4,75.4,86.6,75.6z M5.1,121.4
	c0.5,0,0.8-0.2,1.1-0.6c0.2-0.3,0.4-0.7,0.5-1.1c0.9-2.7,1.8-5.5,2.6-8.2c0-0.1,0.1-0.2,0.1-0.3c0.1-0.4,0-0.7-0.4-0.8
	c-0.2-0.1-0.4-0.1-0.5-0.2c0.9,0,1.8,0,2.8,0c0.1,0.4,0.3,0.7,0.4,1.1c0.9,2.7,1.9,5.5,2.8,8.2c0.1,0.4,0.3,0.7,0.5,1.1
	c0.2,0.5,0.6,0.8,1.2,0.8c0.1,0,0.1,0,0.2,0.1c-1.5,0-2.9,0-4.4,0c0,0,0,0,0-0.1c0.1,0,0.2,0,0.4,0c0.6-0.1,0.9-0.4,0.8-1
	c-0.1-0.3-0.2-0.7-0.3-1c-0.2-0.7-0.5-1.4-0.7-2.1c-0.1-0.2-0.2-0.3-0.4-0.3c-1,0-2.1,0-3.1,0c-0.2,0-0.3,0-0.3,0.2
	c-0.3,1-0.6,2-0.9,3.1c-0.1,0.3-0.1,0.7,0.1,0.9c0.2,0.2,0.5,0.3,0.8,0.5c-1,0-2,0-3,0C5.1,121.5,5.1,121.4,5.1,121.4z M8.3,116.4
	c1.1,0,2.2,0,3.3,0c-0.6-1.6-1.1-3.3-1.6-4.9c0,0-0.1,0-0.1,0C9.4,113.1,8.9,114.7,8.3,116.4z M119.8,110.2c0.1,0,0.1,0.1,0.2,0.1
	c0.7,0.1,1,0.5,1.1,1.3c0,2.1,0,4.2,0,6.3c0,1.1-0.5,2-1.5,2.6c-1.6,0.9-3.6,0.3-4.2-1.4c-0.2-0.5-0.2-1.1-0.3-1.7
	c0-1.9,0-3.7,0-5.6c0-0.2,0-0.4,0.1-0.5c0.1-0.5,0.4-0.7,0.8-0.8c0.1,0,0.2-0.1,0.4-0.1c0,0,0,0,0-0.1c-1.4,0-2.7,0-4.2,0
	c0.1,0.1,0.1,0.1,0.1,0.1c0.1,0,0.2,0,0.3,0.1c0.6,0.1,0.8,0.4,0.9,1c0,0.2,0,0.3,0,0.5c0,1.8,0,3.6,0,5.4c0,0.4,0,0.8,0.1,1.2
	c0.1,0.9,0.5,1.7,1.1,2.3c1.7,1.6,4.6,1.3,6-0.6c0.1-0.1,0.2-0.3,0.3-0.4c0,0,0.1,0,0.1,0c0,0.6,0,1.2,0,1.7c1,0,2,0,2.9,0
	c-0.1-0.1-0.1-0.1-0.2-0.1c-0.7-0.1-1-0.4-1-1.1c0-0.1,0-0.3,0-0.4c0-2.7,0-5.3,0-8c0-0.2,0-0.3,0-0.5c0-0.6,0.3-0.9,0.9-1.1
	c0.1,0,0.2-0.1,0.3-0.1c0,0,0,0,0-0.1C122.6,110.1,121.2,110.1,119.8,110.2C119.8,110.1,119.8,110.2,119.8,110.2z M76.2,110
	c-0.2,0.4-0.6,0.4-0.9,0.3c-0.6-0.2-1.3-0.3-2-0.2c-1.3,0.1-2.3,0.6-2.8,1.8c-0.5,1.2-0.3,2.4,0.5,3.4c0.3,0.3,0.7,0.6,1,0.9
	c0.6,0.4,1.2,0.7,1.7,1.2c0.4,0.3,0.8,0.6,1.1,1c0.9,1.1,0.4,2.8-1.1,3.2c-1.4,0.4-3-0.6-3.4-2c0-0.2-0.1-0.3-0.1-0.5
	c0,0-0.1,0-0.1,0c0,0.9-0.1,1.9-0.1,2.8c0.3-0.4,0.4-0.5,0.9-0.3c0.1,0,0.1,0.1,0.2,0.1c0.8,0.4,1.7,0.5,2.7,0.4
	c1.3-0.2,2.2-0.9,2.7-2.1c0.5-1.2,0.3-2.4-0.7-3.3c-0.3-0.3-0.7-0.6-1.1-0.8c-0.7-0.5-1.4-0.9-2.1-1.5c-0.4-0.3-0.7-0.7-0.9-1.1
	c-0.6-1.1,0.1-2.4,1.3-2.6c1.3-0.2,2.3,0.4,2.8,1.6c0.1,0.2,0.1,0.4,0.2,0.5c0,0,0.1,0,0.1,0C76.2,111.7,76.3,110.9,76.2,110
	C76.3,110,76.2,110,76.2,110z M25.4,121.4c-0.7,0-1.3,0-2,0c-0.1,0-0.2-0.2-0.3-0.3c-0.6-0.9-1.2-1.8-1.8-2.6
	c-0.2-0.3-0.4-0.5-0.6-0.8c-0.4-0.4-0.8-0.6-1.5-0.5c0,0,0,0.1,0,0.1c0,1,0,2,0,3c0,0.6,0.2,0.8,0.8,0.9c0,0,0.1,0,0.1,0.1
	c-1.1,0-2.2,0-3.3,0c0,0,0,0,0-0.1c0.1,0,0.2,0,0.3-0.1c0.4-0.1,0.7-0.3,0.7-0.8c0-0.1,0-0.3,0-0.4c0-2,0-4.1,0-6.1
	c0-0.1,0-0.2,0-0.4c0-0.5-0.2-0.8-0.8-0.9c-0.1,0-0.1,0-0.2-0.1c0,0,0.1,0,0.1,0c1.3,0,2.6,0,4,0.1c0.3,0,0.5,0.1,0.8,0.2
	c1,0.3,1.6,1.1,1.6,2.1c0,1-0.6,1.7-1.6,2c-0.1,0-0.2,0.1-0.4,0.1c0.9,0.4,1.3,1.2,1.8,1.9c0.3,0.4,0.5,0.8,0.8,1.2
	c0.4,0.5,0.8,1,1.5,1.2C25.4,121.4,25.4,121.4,25.4,121.4z M19.2,116.9c1.2,0.1,2.1-0.2,2.5-1c0.4-0.8,0.2-1.9-0.4-2.5
	c-0.5-0.5-1.5-0.7-2.1-0.4C19.2,114.3,19.2,115.6,19.2,116.9z M156.8,112.6c0,0,0.1,0,0.1,0c1.3,0,2.7,0,4,0.1
	c0.3,0,0.6,0.1,0.8,0.2c0.9,0.3,1.5,1.1,1.6,2.1c0,0.9-0.5,1.7-1.5,2c-0.1,0-0.3,0.1-0.5,0.1c0.9,0.4,1.3,1.2,1.8,1.9
	c0.3,0.4,0.5,0.7,0.7,1.1c0.4,0.6,0.8,1.1,1.5,1.4c-0.1,0-0.2,0-0.2,0c-0.5,0-1,0-1.5,0c-0.2,0-0.4-0.1-0.5-0.3
	c-0.6-0.9-1.2-1.8-1.8-2.6c-0.2-0.3-0.4-0.6-0.6-0.8c-0.4-0.4-0.9-0.6-1.6-0.5c0,0.3,0,0.6,0,0.9c0,0.7,0,1.3,0,2
	c0,0.7,0.2,1.1,0.9,1.1c0,0,0,0,0.1,0.1c-1.2,0-2.3,0-3.4,0c0,0,0,0,0,0c0.1,0,0.2-0.1,0.3-0.1c0.4-0.1,0.7-0.3,0.7-0.8
	c0-0.1,0-0.2,0-0.3c0-2.1,0-4.3,0-6.4c0-0.1,0-0.2,0-0.4c-0.1-0.4-0.3-0.6-0.7-0.7C157,112.7,156.9,112.7,156.8,112.6
	C156.8,112.7,156.8,112.6,156.8,112.6z M159.2,116.9c1,0,1.9,0,2.4-0.9c0.4-0.8,0.4-1.7-0.2-2.5c-0.6-0.7-1.4-0.7-2.2-0.6
	C159.2,114.3,159.2,115.6,159.2,116.9z M48.1,117.1c0,2.7-2,4.7-4.7,4.7c-2.7,0-4.8-2.1-4.8-4.7c0-2.7,2.2-4.8,4.8-4.7
	C46.1,112.4,48.2,114.5,48.1,117.1z M40.3,116.9c0,1,0.1,2,0.6,2.9c0.6,1.1,1.5,1.8,2.8,1.7c1.3-0.1,2-0.8,2.4-1.9
	c0.5-1.2,0.5-2.4,0.3-3.6c-0.2-0.8-0.5-1.6-1.1-2.3c-1.5-1.6-3.9-1.2-4.7,0.8C40.4,115.3,40.3,116.1,40.3,116.9z M56.6,119.4
	c-0.1-0.1-0.1-0.2-0.2-0.2c-1.9-2.1-3.8-4.2-5.6-6.3c-0.2-0.2-0.3-0.3-0.6-0.3c-0.5,0-1.1,0-1.6,0c-0.1,0-0.2,0-0.2,0
	c0.1,0.1,0.1,0.1,0.2,0.1c0.7,0.1,1.3,0.9,1.3,1.6c0,1.7,0,3.5,0,5.2c0,0.3,0,0.7,0,1c0,0.5-0.3,0.8-0.8,0.9c-0.1,0-0.1,0-0.2,0
	c0,0,0,0.1,0,0.1c0.8,0,1.6,0,2.4,0c-0.1-0.1-0.1-0.1-0.2-0.1c-0.5-0.1-0.7-0.3-0.8-0.9c0-0.1,0-0.2,0-0.3c0-1.8,0-3.6,0-5.5
	c0-0.1,0-0.2,0-0.3c0,0,0.1,0,0.1,0c0.3,0.3,0.6,0.6,0.8,0.9c0.3,0.3,0.6,0.6,0.8,0.9s0.6,0.6,0.8,0.9c0.3,0.3,0.5,0.6,0.8,0.9
	c0.3,0.3,0.6,0.6,0.8,0.9c0.3,0.3,0.6,0.6,0.8,0.9c0.3,0.3,0.6,0.6,0.8,0.9c0.3,0.3,0.5,0.6,0.8,0.9c0,0,0.1,0,0.1-0.1
	c0-0.1,0-0.3,0-0.4c0-2.3,0-4.6,0-6.9c0-0.3,0-0.6,0-0.9c0-0.5,0.3-0.8,0.8-0.9c0.1,0,0.1,0,0.2-0.1c0,0,0-0.1,0-0.1
	c-0.8,0-1.6,0-2.4,0c1,0.4,1,0.4,1,1.5c0,1.6,0,3.1,0,4.7C56.7,119,56.7,119.2,56.6,119.4C56.6,119.3,56.6,119.3,56.6,119.4z
	 M127,114.4c2.2,2.5,4.4,4.9,6.7,7.4c0,0,0.1,0,0.1,0c0-0.1,0-0.3,0-0.4c0-2.5,0-4.9,0-7.4c0-0.2,0-0.3,0-0.5
	c0.1-0.5,0.3-0.7,0.8-0.8c0.1,0,0.1,0,0.2-0.1c0,0,0,0,0,0c-0.8,0-1.6,0-2.4,0c0.1,0.1,0.2,0.1,0.3,0.2c0.4,0.1,0.6,0.4,0.7,0.8
	c0,0.1,0,0.3,0,0.4c0,1.6,0,3.3,0,4.9c0,0.1,0,0.3,0,0.4c0,0-0.1,0-0.1,0c-0.1-0.1-0.1-0.2-0.2-0.3c-1.9-2.1-3.7-4.2-5.6-6.2
	c-0.1-0.1-0.2-0.3-0.5-0.3c-0.6,0-1.2,0-1.7,0c-0.1,0-0.1,0-0.2,0.1c0.6,0.1,1,0.5,1.3,0.9c0.1,0.1,0.2,0.3,0.2,0.5
	c0,2.1,0,4.2,0,6.2c0,0.7-0.2,1-0.9,1.1c0,0,0,0-0.1,0.1c0.8,0,1.6,0,2.4,0c-0.1-0.1-0.2-0.1-0.2-0.1c-0.5-0.1-0.7-0.3-0.7-0.8
	c0-0.1,0-0.3,0-0.4c0-1.8,0-3.5,0-5.3C126.9,114.7,126.9,114.6,127,114.4C126.9,114.5,127,114.4,127,114.4z M38.1,112.6
	c-2.6,0-5.2,0-7.8,0c0,0.6,0,1.1,0,1.6c0,0,0.1,0,0.1,0c0,0,0.1-0.1,0.1-0.1c0.1-0.6,0.5-0.9,1.2-1c0.2,0,0.3,0,0.5,0
	c1.3,0,2.6,0,3.9,0c0.1,0,0.1,0,0.3,0c-2,2.8-4.1,5.6-6.1,8.4c0,0,0,0.1,0.1,0.1c2.6,0,5.2,0,7.8,0c0.1-0.6,0.2-1.2,0.2-1.9
	c-0.1,0.1-0.1,0.1-0.1,0.1c-0.3,0.9-1,1.3-2,1.4c-1.3,0.1-2.5,0-3.8,0.1c-0.1,0-0.2,0-0.4,0C34.1,118.3,36.1,115.5,38.1,112.6z
	 M90.7,121.5c0.1,0,0.2,0,0.3,0c0.4-0.1,0.6-0.3,0.6-0.8c0-0.1,0-0.1,0-0.2c-0.3-0.8-0.6-1.7-0.9-2.5c-1,0-1.9,0-2.9,0
	c-0.2,0.8-0.5,1.6-0.7,2.3c0,0.1,0,0.3,0,0.4c0,0.5,0.1,0.6,0.6,0.7c0,0,0.1,0,0.1,0.1c-0.8,0-1.5,0-2.3,0c0.8-0.2,1.1-0.9,1.4-1.6
	c0.7-2.3,1.5-4.7,2.2-7c0-0.1,0.1-0.3,0.2-0.4c0.4,0,0.7,0,1.1,0c0.3,0.9,0.6,1.8,0.9,2.6c0.5,1.6,1.1,3.2,1.6,4.8
	c0,0.1,0,0.1,0.1,0.2c0.3,0.9,0.5,1,1.3,1.5C93,121.5,91.8,121.5,90.7,121.5C90.7,121.5,90.7,121.5,90.7,121.5z M90.5,117.5
	c-0.4-1.3-0.9-2.5-1.3-3.8c0,0-0.1,0-0.1,0c-0.4,1.2-0.8,2.5-1.2,3.8C88.9,117.5,89.7,117.5,90.5,117.5z M61.7,112.5
	c0.4,0,0.7,0,1.1,0c0.1,0.2,0.1,0.3,0.2,0.5c0.8,2.3,1.5,4.6,2.3,6.9c0.2,0.7,0.5,1.4,1.4,1.6c0,0,0,0,0,0.1c-1.1,0-2.3,0-3.4,0
	c0,0,0,0,0-0.1c0.1,0,0.2,0,0.2-0.1c0.5-0.1,0.7-0.3,0.6-0.8c0-0.1,0-0.3-0.1-0.4c-0.3-0.8-0.5-1.5-0.8-2.3c-1,0-1.9,0-2.9,0
	c-0.2,0.8-0.5,1.6-0.7,2.5c-0.2,0.7,0,0.9,0.7,1.1c-0.8,0-1.5,0-2.3,0c0.8-0.2,1.1-0.9,1.4-1.6c0.7-2.3,1.5-4.7,2.2-7
	C61.6,112.8,61.7,112.6,61.7,112.5z M63,117.4c-0.4-1.3-0.9-2.5-1.3-3.8c0,0,0,0-0.1,0c-0.4,1.2-0.8,2.5-1.2,3.8
	C61.3,117.4,62.1,117.4,63,117.4z M181.1,113.3c0,2.4,0,4.8,0,7.2c0,0.6-0.2,0.9-0.8,1c-0.1,0-0.1,0-0.2,0c0,0,0,0,0,0.1
	c1.1,0,2.2,0,3.3,0c-0.1-0.1-0.2-0.1-0.3-0.1c-0.4-0.1-0.6-0.3-0.6-0.7c0-0.1,0-0.3,0-0.4c0-2.3,0-4.6,0-6.9c0-0.1,0-0.2,0-0.3
	c0.7,0,1.3,0,2,0c0.7,0,1,0.4,1.2,1c0,0.1,0.1,0.1,0.1,0.2c0-0.7,0-1.4,0-2.2c0,0-0.1,0-0.1,0c-0.2,0.4-0.5,0.4-0.9,0.4
	c-1.9,0-3.8,0-5.7,0c-0.5,0-1,0-1.4-0.4c0,0.7,0,1.4,0,2.1c0,0,0.1,0,0.1,0c0-0.1,0.1-0.1,0.1-0.2c0.1-0.6,0.5-0.9,1.1-1
	c0.7,0,1.4,0,2.1,0C181.1,113.2,181.1,113.2,181.1,113.3z M100.6,113.2c0.6,0,1,0.4,1.1,0.9c0,0.1,0.1,0.1,0.1,0.3
	c0-0.8,0-1.5,0-2.2c-0.3,0.3-0.6,0.4-0.9,0.4c-1.9,0-3.8,0-5.7,0c-0.5,0-1,0-1.4-0.3c0,0.7,0,1.4,0,2.1c0.1-0.1,0.1-0.1,0.1-0.2
	c0.1-0.5,0.5-0.9,1-0.9c0.7-0.1,1.4,0,2.2,0c0,0.1,0,0.2,0,0.2c0,2.3,0,4.6,0,7c0,0.8-0.2,1-0.9,1.1c0,0,0,0,0,0.1
	c1.1,0,2.2,0,3.3,0c-0.1-0.1-0.1-0.1-0.2-0.1c-0.6-0.1-0.8-0.3-0.8-0.9c0-2.4,0-4.9,0-7.3c0,0,0,0,0-0.1
	C99.2,113.1,99.9,113.1,100.6,113.2z M155.3,120.1c0,0-0.1,0.1-0.1,0.1c-0.2,0.7-0.6,0.9-1.3,0.9c-0.4,0-0.9,0-1.3,0
	c-0.7,0-0.9-0.3-0.9-1c0-0.9,0-1.8,0-2.7c0-0.1,0-0.2,0-0.3c0.6,0,1.1,0,1.7,0c0.6,0,1.1,0.1,1.2,0.9c0,0,0,0,0.1,0
	c0.1-0.4,0.1-1.9,0-2.1c-0.1,0.5-0.3,0.8-0.8,0.8c-0.7,0-1.4,0-2.1,0c0-1.3,0-2.6,0-3.9c0.7,0,1.4,0,2.1,0c0.9,0,1.1,0.4,1.2,1
	c0,0,0,0,0,0c0-0.4,0-0.9,0-1.3c-1.9,0-3.9,0-5.8,0c0.1,0.1,0.1,0.1,0.2,0.1c0.4,0,0.6,0.3,0.7,0.7c0,0.2,0,0.4,0,0.5
	c0,2.1,0,4.1,0,6.2c0,1-0.1,1.1-1,1.4c1.9,0,3.9,0,5.8,0C155.3,121,155.3,120.6,155.3,120.1C155.4,120.1,155.4,120.1,155.3,120.1z
	 M102.9,112.7c0.8,0.2,1,0.4,1,1.2c0,2.1,0,4.3,0,6.4c0,0.9-0.3,1.1-1,1.1c0,0,0,0-0.1,0.1c0.2,0,0.3,0,0.4,0c1.6,0,3.1,0,4.7,0
	c0.7,0,0.7,0,0.8-0.7c0-0.1,0.1-0.3,0.1-0.4c0-0.1,0-0.3,0-0.5c-0.1,0.1-0.1,0.1-0.1,0.1c0,0,0,0.1-0.1,0.1
	c-0.2,0.6-0.5,0.8-1.1,0.9c-0.6,0-1.1,0-1.7,0c-0.5,0-0.8-0.3-0.8-0.8c0-1,0-2,0-3c0,0,0-0.1,0-0.2c0.5,0,1.1,0,1.6,0
	c0.8,0,1,0.1,1.3,0.9c0,0,0,0,0.1,0.1c0-0.7,0-1.4,0-2.1c-0.2,0.4-0.4,0.8-0.8,0.8c-0.7,0-1.4,0-2.2,0c0-1.3,0-2.6,0-3.9
	c0.3,0,0.6,0,0.8,0c0.5,0,1.1,0,1.6,0c0.5,0,0.8,0.3,0.8,0.8c0,0.1,0,0.2,0.1,0.3c0,0,0,0,0.1,0c0-0.5,0-0.9,0-1.4
	C107.6,112.5,103.1,112.6,102.9,112.7z M84.5,113.2c0.6,0,1,0.4,1.1,1c0,0.1,0.1,0.1,0.1,0.2c0-0.8,0-1.5,0-2.3
	c-0.2,0.4-0.6,0.5-0.9,0.5c-1.6,0-3.2,0-4.8,0c-0.8,0-1.6,0.1-2.3-0.3c0,0.7,0,1.4,0,2.1c0.1-0.1,0.1-0.1,0.1-0.2
	c0.1-0.5,0.5-0.9,1-0.9c0.7-0.1,1.5,0,2.2,0c0,0.1,0,0.3,0,0.4c0,2.2,0,4.4,0,6.6c0,0.9-0.1,1.1-1,1.3c0,0,0,0,0,0
	c0.4,0.1,3,0.1,3.3,0c-0.1,0-0.2,0-0.3,0c-0.5-0.1-0.7-0.3-0.8-0.8c0-0.1,0-0.3,0-0.4c0-2.2,0-4.4,0-6.6c0-0.1,0-0.3,0-0.4
	C83.1,113.1,83.8,113.1,84.5,113.2z M167.2,121.5c0.6,0.2,1.2,0.4,1.8,0.4c1.2,0,2.3-0.9,2.5-2c0.2-1.1-0.1-2-1-2.6
	c-0.6-0.4-1.2-0.8-1.8-1.2c-0.4-0.3-0.8-0.6-1.1-1c-0.6-0.9-0.1-2.1,1.1-2.3c1-0.1,1.8,0.4,2.1,1.3c0,0.1,0.1,0.3,0.1,0.4
	c0,0,0.1,0,0.1,0c0-0.7,0.1-1.3,0.1-2c0,0,0,0-0.1-0.1c-0.2,0.4-0.5,0.3-0.8,0.2c-0.5-0.2-1.1-0.2-1.7-0.2c-0.9,0.1-1.7,0.5-2,1.4
	c-0.4,0.9-0.2,1.8,0.4,2.6c0.3,0.3,0.6,0.6,0.9,0.8c0.4,0.3,0.9,0.6,1.3,0.9c0.3,0.3,0.7,0.5,0.9,0.9c0.4,0.5,0.4,1.1,0.1,1.6
	c-0.3,0.6-0.8,0.8-1.4,0.9c-1.1,0-2-0.6-2.3-1.7c0-0.1-0.1-0.2-0.1-0.3c0,0-0.1,0-0.1,0c0,0.7-0.1,1.5-0.1,2.3
	C166.6,121.2,166.6,121.2,167.2,121.5z M144.7,119.2c-0.6-1.5-1.2-3.1-1.8-4.6c-0.1-0.3-0.2-0.6-0.3-0.9c-0.1-0.5,0.1-0.8,0.6-0.9
	c0.1,0,0.2,0,0.2-0.1c0,0,0-0.1,0-0.1c-1.2,0-2.4,0-3.6,0c0.4,0.2,0.8,0.3,1,0.7c0.1,0.3,0.3,0.5,0.4,0.8c1,2.4,2,4.9,2.9,7.3
	c0,0.1,0.1,0.2,0.2,0.3c0.1-0.1,0.2-0.2,0.2-0.4c0.8-2.2,1.5-4.5,2.4-6.7c0.3-0.8,0.5-1.8,1.6-2.1c-0.8,0-1.7,0-2.5,0
	c0,0.1,0.1,0.1,0.2,0.1c0.5,0.1,0.7,0.3,0.6,0.8c0,0.2-0.1,0.4-0.1,0.7c-0.2,0.5-0.4,1-0.5,1.5c-0.4,1.2-0.8,2.4-1.3,3.7
	C144.8,119.3,144.8,119.2,144.7,119.2z M189.3,113.6C189.3,113.5,189.3,113.5,189.3,113.6c-0.2-0.5,0-0.7,0.4-0.8
	c0.1,0,0.1,0,0.2-0.1c0,0,0,0,0,0c-1.1,0-2.3,0-3.4,0c0,0,0,0.1,0,0.1c0,0,0,0,0.1,0c0.5,0.1,0.9,0.4,1.2,0.8
	c0.7,1.1,1.4,2.2,2.1,3.3c0.1,0.1,0.1,0.2,0.1,0.3c0,1.1,0,2.3,0,3.4c0,0.5-0.3,0.7-0.8,0.8c-0.1,0-0.1,0-0.2,0c0,0,0,0.1,0,0.1
	c1.1,0,2.2,0,3.3-0.1c-0.1-0.1-0.2-0.1-0.3-0.1c-0.5-0.1-0.7-0.2-0.7-0.7c0-0.1,0-0.2,0-0.4c0-1.1,0-2.1,0-3.2
	c0-0.2,0.1-0.4,0.2-0.5c0.5-0.8,1.1-1.7,1.6-2.5c0.5-0.7,0.9-1.4,2-1.5c-0.5-0.1-2.5-0.1-2.8,0c0.1,0,0.2,0,0.2,0
	c0.5,0.1,0.7,0.3,0.5,0.8c-0.1,0.3-0.3,0.6-0.5,0.8c-0.4,0.7-0.9,1.4-1.4,2.1C190.5,115.4,189.9,114.5,189.3,113.6z M176.5,121.5
	c-0.8-0.2-1-0.4-1-1.1c0-2.2,0-4.4,0-6.6c0-0.7,0.2-0.9,0.9-1.1c0,0,0.1,0,0.1-0.1c-1.1,0-2.2,0-3.3,0c0.1,0.1,0.2,0.1,0.4,0.2
	c0.4,0.1,0.6,0.3,0.6,0.8c0,0.2,0,0.3,0,0.5c0,1.7,0,3.4,0,5.1c0,0.5,0,0.9,0,1.4c0,0.5-0.3,0.7-0.7,0.8c-0.1,0-0.2,0-0.3,0
	C173.7,121.6,176.3,121.6,176.5,121.5z M135.9,112.7c0.1,0,0.2,0.1,0.3,0.1c0.4,0.1,0.6,0.3,0.6,0.7c0,0.1,0,0.2,0,0.4
	c0,2.2,0,4.3,0,6.5c0,0.1,0,0.2,0,0.3c-0.1,0.5-0.3,0.7-0.8,0.8c-0.1,0-0.2,0-0.2,0.1c0,0,0,0,0,0.1c1.1,0,2.2,0,3.3,0
	c0,0,0,0,0-0.1c-0.1,0-0.2,0-0.3-0.1c-0.4-0.1-0.6-0.3-0.7-0.7c0-0.1,0-0.3,0-0.4c0-2.1,0-4.3,0-6.4c0-0.1,0-0.2,0-0.3
	c0.1-0.5,0.3-0.8,0.8-0.9c0.1,0,0.1,0,0.2-0.1c0,0,0,0,0-0.1C138.1,112.6,137,112.6,135.9,112.7
	C135.9,112.6,135.9,112.7,135.9,112.7z M27,114.1c0,2.1,0,4.1,0,6.2c0,0.8-0.2,1-1,1.2c0,0,0,0,0,0.1c1.1,0,2.2,0,3.3,0
	c-0.1-0.1-0.1-0.1-0.2-0.1c-0.6-0.1-0.8-0.3-0.8-0.9c0-2.3,0-4.6,0-6.9c0-0.6,0.3-0.8,0.8-0.9c0.1,0,0.1,0,0.2-0.1c0,0,0,0,0-0.1
	c-1.1,0-2.2,0-3.3,0C26.9,113,27,113.1,27,114.1z"/>
</svg>