<svg xmlns="http://www.w3.org/2000/svg" width="310" height="215" viewBox="0 0 310 215" opacity="0.5">
	<style type="text/css">
		.st0{opacity:0.5;fill:#74D7E7;}
		.st1{opacity:0.5;}
		.st2{fill:#DFF6F9;}
		.st3{opacity:0.5;fill:#FFFFFF;}
	</style>
	<path class="st0" d="M310,23.36H0V9.34h310V23.36z M310,205.66H0v-14.02h310V205.66z"/>
	<path class="st0" d="M284.61,107.5L154.5,29.44L24.39,107.5l62.14,37.28c-0.01,0.24-0.03,0.48-0.03,0.72
		c0,22.07,30.39,39.96,67.89,40l0.11,0.07l0.11-0.07c37.5-0.04,67.89-17.93,67.89-40c0-0.24-0.02-0.48-0.03-0.72L284.61,107.5z"/>
	<g class="st1">
		<polygon class="st2" points="265.63,99.33 251.8,91.16 237.97,99.33 251.8,107.5 237.97,115.67 251.79,123.84 265.62,115.67 
			279.45,107.5 	"/>
		<polygon class="st2" points="72.03,99.33 58.2,91.16 44.38,99.33 30.55,107.5 44.38,115.67 58.21,123.84 72.04,115.67 58.21,107.5 
				"/>
		<path class="st2" d="M210.32,115.67l13.82-8.17l-13.83-8.17l13.83-8.17l-13.83-8.17l13.83-8.17l-13.83-8.17l-13.83,8.17
			l-13.82-8.17l-13.83,8.17L155,66.65l-13.82,8.17l-13.83-8.17l-13.83,8.17l-13.83-8.17l-13.83,8.17l13.83,8.17l-13.83,8.17
			l13.83,8.17l-13.83,8.17l13.83,8.17l-13.82,8.17l13.82,8.17l-13.83,8.17l13.83,8.17l13.83-8.17l13.83,8.17l13.82-8.17l13.83,8.17
			l13.83-8.17l13.83,8.17l13.83-8.17l13.82,8.17l13.83-8.17l-13.82-8.17l13.83-8.17L210.32,115.67z M182.66,132.01l-13.83-8.17
			L155,132.01l-13.83-8.17l-13.83,8.17l-13.83-8.17l13.83-8.17l-13.82-8.17l13.83-8.17l-13.83-8.17l13.83-8.17l13.83,8.17l13.83-8.17
			l13.82,8.17l13.82-8.17l13.83,8.17l-13.82,8.17l13.83,8.17l-13.83,8.17l13.83,8.17L182.66,132.01z"/>
		<polygon class="st2" points="155,50.3 168.83,58.47 182.66,50.3 168.83,42.13 155,33.96 141.17,42.13 127.34,50.3 141.17,58.47 	
			"/>
		<polygon class="st2" points="155.01,164.7 141.18,156.53 127.35,164.7 141.18,172.87 155,181.04 168.83,172.86 182.65,164.7 
			168.83,156.53 	"/>
		<polygon class="st2" points="141.17,107.5 155,115.67 168.83,107.5 155,99.33 	"/>
	</g>
	<path class="st3" d="M285.58,107.5L154.76,29.01l-0.26-0.15L23.42,107.5l62.6,37.56c-0.01,0.15-0.02,0.29-0.02,0.44
		c0,22.28,30.59,40.42,68.25,40.5l0.25,0.15l0.25-0.15c37.66-0.08,68.25-18.21,68.25-40.5c0-0.15-0.01-0.29-0.02-0.44L285.58,107.5z
		M154.5,30.02l129.14,77.48L154.5,184.98L25.36,107.5L154.5,30.02z M87.01,145.65l65.52,39.31
		C116.31,184.35,87.14,166.97,87.01,145.65z M156.48,184.96l65.52-39.31C221.86,166.97,192.69,184.35,156.48,184.96z"/>
	<path class="st3" d="M86.83,144.9c7.5-3.7,68.79-34.13,68.64-39.83c-0.01-0.26-0.12-0.75-0.76-1.03
		c-7.06-3.02-62.22,35.63-68.49,40.05l0.2,0.34l-0.3-0.24c-0.2,0.25-18.91,24.3,4.96,49.57c-0.36,0.49-0.57,1.09-0.57,1.75
		c0,1.66,1.34,3,3,3c0.67,0,1.28-0.22,1.77-0.59l1.23,1.66l4,0.93l11,10c0,0,5,1,8-6s-3.3-11-3.3-11l-13.01,1l-3.69-1l-3.17,1.06
		c-0.4-1.19-1.51-2.06-2.83-2.06c-0.64,0-1.23,0.2-1.72,0.55C69.24,169.16,85.65,146.45,86.83,144.9z M153.52,104.83
		c0.31,0,0.57,0.04,0.78,0.13c0.16,0.07,0.16,0.11,0.16,0.13c0.09,3.55-35.84,22.78-62.13,35.95
		C111.12,128.05,146.25,104.83,153.52,104.83z"/>
</svg>

