<svg xmlns="http://www.w3.org/2000/svg" width="200" height="200" viewBox="0 0 200 200">
    <polygon fill="#00833E" points="170,78.1 170,94.4 185.2,120.3 195,120.3 	"/>
	<path fill="#FFFFFF" d="M170,94.4v25.9h-15.3L170,94.4z M20.8,87c0-1.2-0.2-2.3-0.6-3.3c-0.4-1-0.9-1.9-1.6-2.7
		c-0.7-0.8-1.5-1.4-2.5-1.8c-0.9-0.4-2-0.7-3.1-0.7H5.2l1.8,1.8v13.4l-1.8,1.8h7.8c1.1,0,2.2-0.2,3.1-0.7c0.9-0.4,1.8-1,2.5-1.8
		c0.7-0.8,1.2-1.7,1.6-2.7C20.7,89.3,20.8,88.2,20.8,87 M16.7,87c0,0.9-0.1,1.7-0.2,2.5c-0.2,0.8-0.4,1.5-0.7,2.2
		c-0.3,0.6-0.8,1.1-1.3,1.5c-0.5,0.4-1.2,0.6-2,0.6h-1.8V80.3h1.8c0.8,0,1.4,0.2,2,0.6c0.5,0.4,1,0.9,1.3,1.5
		c0.3,0.6,0.6,1.4,0.7,2.2C16.6,85.4,16.7,86.2,16.7,87 M35.4,95.6v-4.1l-2.3,2.3h-4.3v-6.4h3l1.8,1.8v-5.4l-1.8,1.8h-3v-5.3h4.3
		l2.3,2.3v-4.1h-12l1.8,1.8v13.4l-1.8,1.8H35.4z M49.7,95.6v-4.1l-2.3,2.3h-4.1V80.4l1.8-1.8h-7.2l1.8,1.8v13.4l-1.8,1.8H49.7z
		 M63.2,82.6v-4.1H50.2v4.1l2.3-2.3h2.4v13.4l-1.8,1.8h7.2l-1.8-1.8V80.3h2.4L63.2,82.6z M79.4,95.6l-1.9-1.9l-5.3-15.2h-2.2
		l-5.4,15.2l-1.9,1.9h5.8l-1.8-1.8l1-2.9h5.1l0.9,2.9L72,95.6H79.4z M72.3,89.1h-3.9l2-5.8L72.3,89.1z M100.2,90.7
		c0-0.5-0.1-1-0.2-1.4c-0.1-0.4-0.3-0.8-0.5-1.1c-0.2-0.3-0.5-0.6-0.7-0.8c-0.3-0.2-0.5-0.4-0.7-0.6l-3.6-2.5
		c-0.6-0.4-1-0.8-1.2-1.2c-0.2-0.4-0.4-0.8-0.4-1.2c0-0.5,0.2-1,0.6-1.4c0.4-0.4,0.9-0.6,1.6-0.6c0.2,0,0.5,0,0.7,0.1
		c0.2,0.1,0.5,0.2,0.7,0.3l2,2.1l1.8-3.2l-3.7-0.6c-0.3,0-0.6-0.1-0.8-0.1c-0.3,0-0.5,0-0.7,0c-0.9,0-1.7,0.1-2.4,0.4
		c-0.7,0.3-1.2,0.6-1.6,1.1c-0.4,0.4-0.7,1-0.9,1.5c-0.2,0.6-0.3,1.1-0.3,1.7c0,0.7,0.2,1.4,0.5,2.2c0.4,0.7,1.1,1.5,2.1,2.2
		l3.6,2.5c0.2,0.2,0.4,0.4,0.7,0.7c0.2,0.3,0.3,0.7,0.3,1.3c0,0.5-0.1,0.9-0.2,1.2c-0.1,0.3-0.3,0.6-0.6,0.8
		c-0.2,0.2-0.5,0.4-0.8,0.5c-0.3,0.1-0.6,0.2-0.9,0.2c-0.3,0-0.6,0-0.9-0.1c-0.3-0.1-0.6-0.2-0.8-0.4l-2.1-2.4l-1.8,3.5l3.9,0.6
		c0.6,0.1,1.2,0.1,1.8,0.1c1,0,1.9-0.1,2.6-0.4c0.7-0.3,1.3-0.7,1.8-1.2c0.5-0.5,0.8-1,1-1.7C100.1,91.9,100.2,91.3,100.2,90.7
		 M115.5,82.6v-4.1h-12.9v4.1l2.3-2.3h2.4v13.4l-1.8,1.8h7.2l-1.8-1.8V80.3h2.4L115.5,82.6z M131.7,95.6l-1.9-1.9l-5.3-15.2h-2.2
		l-5.4,15.2l-1.9,1.9h5.8l-1.8-1.8l1-2.9h5.1l0.9,2.9l-1.8,1.8H131.7z M124.6,89.1h-3.9l2-5.8L124.6,89.1z M144.5,82.6v-4.1h-12.9
		v4.1l2.3-2.3h2.4v13.4l-1.8,1.8h7.2l-1.8-1.8V80.3h2.4L144.5,82.6z M158.5,95.6v-4.1l-2.3,2.3h-4.3v-6.4h3l1.8,1.8v-5.4l-1.8,1.8
		h-3v-5.3h4.3l2.3,2.3v-4.1h-12l1.8,1.8v13.4l-1.8,1.8H158.5z M20.6,103.3h-5.8l1.8,1.8v10.4c0,0.5-0.1,1-0.3,1.4
		c-0.2,0.4-0.4,0.8-0.7,1.1c-0.3,0.3-0.6,0.5-1,0.7c-0.4,0.2-0.8,0.2-1.2,0.2c-0.4,0-0.8-0.1-1.2-0.2c-0.4-0.2-0.7-0.4-1-0.7
		c-0.3-0.3-0.5-0.6-0.7-1.1c-0.2-0.4-0.3-0.9-0.3-1.4v-10.4l1.8-1.8H5l1.8,1.8v10.4c0,0.9,0.2,1.7,0.5,2.3c0.4,0.7,0.8,1.2,1.4,1.6
		c0.6,0.4,1.2,0.8,1.9,1c0.7,0.2,1.4,0.3,2.2,0.3c0.8,0,1.5-0.1,2.3-0.3c0.7-0.2,1.4-0.6,1.9-1c0.6-0.4,1-1,1.3-1.7
		c0.3-0.7,0.5-1.4,0.5-2.2v-10.4L20.6,103.3z M38.3,103.3h-5.7l1.8,1.8v8.1l-6.9-9.9h-4.9l1.8,1.8v13.4l-1.8,1.8h5.7l-1.8-1.8V108
		l10,14v-16.8L38.3,103.3z M47.6,120.3l-1.8-1.8v-13.4l1.8-1.8h-7.2l1.8,1.8v13.4l-1.8,1.8H47.6z M64.8,103.3h-5.8l1.8,1.8
		l-3.1,10.2l-3-10.2l1.8-1.8h-7.4l1.9,1.9l4.8,15.2H58l4.9-15.2L64.8,103.3z M77.9,120.3v-4.1l-2.3,2.3h-4.3v-6.4h3l1.8,1.8v-5.4
		l-1.8,1.8h-3v-5.3h4.3l2.3,2.3v-4.1h-12l1.8,1.8v13.4l-1.8,1.8H77.9z M96.1,120.3l-1.8-1.8l-3.6-6.5c0.3-0.1,0.7-0.3,1.1-0.5
		c0.4-0.2,0.7-0.5,1-0.8c0.3-0.3,0.6-0.7,0.8-1.2c0.2-0.4,0.3-1,0.3-1.5c0-0.9-0.2-1.6-0.6-2.2c-0.4-0.6-0.9-1.1-1.5-1.4
		c-0.6-0.4-1.3-0.6-2.1-0.8c-0.8-0.2-1.6-0.2-2.4-0.2h-7l1.8,1.8v13.4l-1.8,1.8h7.2l-1.8-1.8v-5.9h1.6l3.8,7.7H96.1z M90,108
		c0,0.4-0.1,0.8-0.2,1.1c-0.1,0.4-0.3,0.7-0.6,0.9c-0.2,0.3-0.5,0.5-0.8,0.6c-0.3,0.2-0.7,0.2-1.1,0.2h-1.6v-5.8h1.6
		c0.8,0,1.4,0.2,1.9,0.7C89.7,106.3,90,107,90,108 M107.7,115.4c0-0.5-0.1-1-0.2-1.4c-0.1-0.4-0.3-0.8-0.5-1.1
		c-0.2-0.3-0.5-0.6-0.7-0.8c-0.3-0.2-0.5-0.4-0.7-0.6l-3.6-2.5c-0.6-0.4-1-0.8-1.2-1.2c-0.2-0.4-0.4-0.8-0.4-1.2
		c0-0.5,0.2-1,0.6-1.4c0.4-0.4,0.9-0.6,1.6-0.6c0.2,0,0.5,0,0.7,0.1c0.2,0.1,0.5,0.2,0.7,0.3l2,2.1l1.8-3.2l-3.7-0.6
		c-0.3,0-0.6-0.1-0.8-0.1c-0.3,0-0.5,0-0.7,0c-0.9,0-1.7,0.1-2.4,0.4c-0.7,0.3-1.2,0.6-1.6,1.1c-0.4,0.4-0.7,1-0.9,1.5
		c-0.2,0.6-0.3,1.1-0.3,1.7c0,0.7,0.2,1.4,0.5,2.2c0.4,0.7,1.1,1.5,2.1,2.2l3.6,2.5c0.2,0.2,0.4,0.4,0.7,0.7
		c0.2,0.3,0.3,0.7,0.3,1.3c0,0.5-0.1,0.9-0.2,1.2c-0.1,0.3-0.3,0.6-0.6,0.8c-0.2,0.2-0.5,0.4-0.8,0.5c-0.3,0.1-0.6,0.2-0.9,0.2
		c-0.3,0-0.6,0-0.9-0.1c-0.3-0.1-0.6-0.2-0.8-0.4l-2.1-2.4l-1.8,3.5l3.9,0.6c0.6,0.1,1.2,0.1,1.8,0.1c1,0,1.9-0.1,2.6-0.4
		c0.7-0.3,1.3-0.7,1.8-1.2c0.5-0.5,0.8-1,1-1.7C107.6,116.7,107.7,116.1,107.7,115.4 M117.9,120.3l-1.8-1.8v-13.4l1.8-1.8h-7.2
		l1.8,1.8v13.4l-1.8,1.8H117.9z M133.3,107.4v-4.1h-12.9v4.1l2.3-2.3h2.4v13.4l-1.8,1.8h7.2l-1.8-1.8v-13.4h2.4L133.3,107.4z
		 M150.3,103.3h-5.7l1.8,1.8l-3,5.5l-3-5.5l1.8-1.8h-7.7l1.9,1.9l4.3,7.5v5.8l-1.8,1.8h7.2l-1.8-1.8v-5.8l4.2-7.5L150.3,103.3z"/>
</svg>