<svg xmlns="http://www.w3.org/2000/svg" width="200" height="200" viewBox="0 0 200 200">
    <path fill="#F6BE02" d="M93.1,43.8c6.4,0,12.9,0,19.3,0c0.2,0,0.5,0,0.7,0c0.2,0.1,0.6,0.1,0.6,0.3c0.1,0.2,0,0.5-0.2,0.7
        c-1.6,1.6-3.1,3.2-4.7,4.7c-0.3,0.3-0.9,0.3-1.4,0.3c-7.9,0-15.8,0-23.7,0c-1.5,0-3.1,0-4.6,0c-0.6,0-0.8,0.2-0.8,0.8
        c0,2.5-0.1,4.9,0.1,7.4c0.3,4.8,2.2,8.9,5.5,12.3c4.8,4.8,9.6,9.6,14.4,14.4c0.7,0.7,0.7,0.7,1.5-0.1c8.1-8.1,16.3-16.3,24.4-24.4
        c0.3-0.3,0.9-0.8,1.2-0.7c0.6,0.2,0.3,0.9,0.3,1.5c-0.2,4.6-2.2,8.5-5.4,11.7c-6.8,6.7-13.6,13.5-20.3,20.3c-0.9,0.9-0.9,0.9-1.9,0
        c-6.7-6.7-13.3-13.3-20-20c-3.9-3.9-5.9-8.6-5.9-14.2c0-4.6,0-9.2,0-13.8c0-1.3,0-1.3,1.2-1.3C80.1,43.8,86.6,43.8,93.1,43.8z"/>
    <path fill="#FFFFFF" d="M97.4,155.1c-16.2,0-32.4,0-48.6,0c-3.8,0-7-2.4-7.6-6.2c-0.4-2.4-0.6-4.8,0.4-7.2c1.2-3,3.9-4.8,7.1-4.8
	c32.4,0,64.8,0,97.2,0c4.4,0,7.8,3.3,7.8,7.7c0,1.4,0.1,2.9-0.2,4.3c-0.7,3.7-3.9,6.1-7.6,6.1C129.8,155.1,113.6,155.1,97.4,155.1z
	 M136.7,141.7c1.1,0.2,1.2,0.2,1.2,1.3c0,1.9,0,3.7,0,5.6c0,1.4,0,1.4-1.4,1.6c0,0.2,0,0.5,0.1,0.7c2.8,0,5.5,0,8.3,0
	c0.1-1.1,0.1-2.2,0.2-3.3c-0.7,0-0.7,0-0.9,0.5c-0.7,2.1-1.6,2.1-3.8,2c-0.2,0-0.5-0.3-0.5-0.5c-0.1-1.1,0-2.2,0-3.4
	c1.7-0.2,1.7-0.2,2,1.4c0.4,0.1,0.7,0.1,0.7-0.5c0-1,0-2.1,0-3.1c-0.2,0-0.3-0.1-0.5,0c-0.1,0-0.2,0.1-0.3,0.1
	c-0.1,1.4-0.3,1.5-1.9,1.2c0-1.1,0-2.2,0-3.3c0.3,0,0.6,0,0.9,0c1.3-0.1,2.4,0.1,2.7,1.7c0,0.2,0.4,0.3,0.8,0.5
	c-0.1-1.2-0.2-2.1-0.3-3c-2.3,0-4.5,0-6.7,0C136.6,141,136.6,141.2,136.7,141.7z M64.6,145.9c0,3,2.2,5.1,5.3,5.1
	c3.3,0,5.5-2,5.5-5.1c0-3-2.2-5-5.4-5C66.8,140.9,64.6,142.9,64.6,145.9z M107.5,150.8c2.8,0,5.6,0,8.4,0c0.1-1.1,0.2-2.2,0.2-3.3
	c-0.5-0.3-0.8-0.1-0.9,0.4c-0.7,2.3-1.9,2.1-3.7,2.1c-0.4,0-0.7-0.3-0.7-0.7c0-1.1,0-2.1,0-3.2c1.7-0.2,1.7-0.2,2.1,1.4
	c0.4,0,0.7,0.1,0.7-0.5c0-1,0-2.1,0-3.2c-0.3,0-0.6,0-0.8,0c-0.1,1.4-0.4,1.6-1.9,1.2c0-1.1,0-2.2,0-3.3c0.3,0,0.5,0,0.7,0
	c1.3-0.1,2.6,0,2.9,1.7c0,0.2,0.4,0.2,0.8,0.4c-0.1-1.1-0.2-2-0.3-2.9c-0.3,0-0.4,0-0.6,0c-2,0-4.1,0-6.1,0c-0.6,0-0.7,0.3-0.5,0.8
	c1.1,0.2,1.2,0.2,1.2,1.2c0,2,0,4,0,6c0,1-0.1,1.1-1.2,1.1c-0.1,0-0.2,0.1-0.3,0.1C107.5,150.4,107.5,150.6,107.5,150.8z
	 M129.6,141.9c-2.3-1.5-4.7-1.4-6.4,0.1c-1.7,1.6-2.2,4.4-1.2,6.4c1.1,2,3.5,3,5.9,2.4c0.9-0.2,1.8-0.5,2.8-0.7c0-0.6,0-1.2,0-1.8
	c0-1,0.1-1,1-1.1c0.1,0,0.2-0.1,0.2-0.1c0-0.2,0-0.5,0-0.7c-1.5,0-3,0-4.5,0c0,0.3,0,0.5,0,0.6c0.5,0.2,1.1,0.3,1.2,0.6
	c0.5,1.1-0.2,2.3-1.4,2.5c-1.7,0.3-3.2-0.5-3.5-2.2c-0.2-1.4-0.2-2.9,0-4.3c0.2-1.3,1.3-2,2.6-2.1c1.7-0.1,2.7,0.7,3.2,2.4
	c0.1,0.5,0.2,0.9,0.9,0.6c0-1.1,0-2.3,0-3.4C129.8,140.9,129.7,141.5,129.6,141.9z M57.9,141.9c-2.5-1.5-5.1-1.4-6.7,0.4
	c-1.6,1.8-1.9,5-0.5,6.8c0.7,0.9,1.5,1.5,2.6,1.8c1.7,0.4,3.2,0.1,4.6-1.1c0.2,0.5,0.3,1.1,0.9,0.7c0-1.2,0-2.4,0-3.6
	c-0.8-0.2-0.7,0.3-0.8,0.7c-0.4,1.7-1.5,2.5-3.1,2.5c-1.4,0-2.5-1-2.9-2.6c-0.3-1.3-0.2-2.7,0.2-4c0.5-1.4,1.6-2.1,3-1.9
	c1.5,0.1,2.4,1,2.8,2.7c0.1,0.4,0.2,0.9,0.8,0.6c0-1.3,0-2.6,0-3.9C58,140.7,58.3,141.6,57.9,141.9z M94.1,141.8
	c0.2,0,0.4,0.1,0.6,0c0.6,0,0.8,0.2,0.8,0.8c0,2.2,0,4.4,0,6.7c0,0.5-0.2,0.8-0.8,0.8c-0.2,0-0.4,0-0.7,0.1
	c-0.3,0.8,0.2,0.8,0.7,0.8c2.4,0,4.8,0,7.2,0c0.2,0,0.4-0.1,0.6-0.1c0-1.1,0-2.1,0-3.1c-0.6-0.2-0.7,0.1-0.9,0.6
	c-0.5,1.6-0.9,1.8-2.6,1.8c-0.2,0-0.5,0-0.7,0c-1,0-1.1-0.1-1.1-1.1c0-1.9,0-3.7,0-5.6c0-1.5,0-1.5,1.5-1.6c0.1,0,0.1-0.1,0.2-0.1
	c0.1-0.4,0.1-0.7-0.5-0.7c-1.3,0-2.7,0-4,0C93.9,141,93.9,141.3,94.1,141.8z M80.6,150.1c-0.2,0.7,0.1,0.8,0.6,0.8
	c1.5,0,3.1,0,4.6,0c1.1,0,2.1,0,3.3,0c0-1.1,0-2.2,0-3.2c-0.6-0.3-0.7,0.2-0.9,0.6c-0.6,1.5-0.9,1.8-2.5,1.8c-0.2,0-0.4,0-0.6,0
	c-1.2,0-1.2-0.1-1.2-1.2c0-1.7,0-3.5,0-5.2c0-1.7,0-1.7,1.6-2c0.1-0.4,0.2-0.7-0.4-0.7c-1.5,0-3,0-4.6,0c0,0.3,0,0.5,0,0.8
	c1.4,0.1,1.4,0.1,1.4,1.5c0,1.8,0,3.5,0,5.3C82,150,82,150,80.6,150.1z M98.8,68.2c-1.8-1.8-3.7-3.6-5.5-5.5
	c-0.2-0.2-0.3-0.5-0.2-0.7c0.1-0.2,0.4-0.2,0.7-0.3c0.9,0,1.9,0,2.8,0c0.4,0,1-0.2,1.3-0.5c1.4-1.4,2.9-2.8,4.2-4.2
	c0.2-0.2,0.3-0.7,0.5-1c-0.3-0.1-0.6-0.3-1-0.3c-5.6,0-11.2,0-16.9,0c-1,0-1.1,0.1-1,1.1c0.2,3.3,1.3,6.2,3.6,8.6
	c3.7,3.7,7.4,7.4,11.1,11.1c0.5,0.5,0.9,0.5,1.4,0c1.5-1.5,2.9-3,4.4-4.5c6.3-6.3,12.5-12.6,18.8-18.8c1.9-1.9,2.8-4.2,2.8-6.8
	c0-2.5,0-5.1,0-7.7c0-0.6,0.2-1,0.6-1.5c1.3-1.3,2.6-2.6,3.9-3.9c0.3-0.3,0.5-0.8,0.7-1.2c-0.4-0.1-0.9-0.3-1.3-0.3
	c-11.6,0-23.2,0-34.8,0c-8.9,0-17.9,0-26.8,0c-0.4,0-0.7,0.2-1.1,0.3c0.2,0.4,0.3,0.8,0.5,1.1c1.2,1.3,2.5,2.5,3.7,3.7
	c0.7,0.7,1.3,1,2.3,1c14.9,0,29.9,0,44.8,0c1.3,0,1.3,0,1.3,1.3c0,1.6,0,3.2,0,4.8c0,2.6-0.9,4.8-2.8,6.7c-5.7,5.6-11.3,11.3-17,17
	c-0.3,0.3-0.6,0.5-0.8,0.8C99,68.3,98.9,68.3,98.8,68.2z M187.4,103.9c-0.3-0.4-0.6-0.7-0.9-1.1c-2.2-2.7-5.1-4.2-8.6-4.6
	c-4.3-0.4-7.9,0.8-10.7,4.1c-2.6,3-3.5,6.6-3.3,10.5c0.3,5.4,2.4,9.8,7,12.8c1.8,1.2,3.7,2.3,5.6,3.3c3,1.6,6.1,3.1,8.8,5.1
	c3.7,2.8,5.2,6.5,4.4,11c-0.6,3.5-2.4,6.4-5.8,7.9c-3.9,1.7-9.5,1.2-13-2.9c-2.4-2.7-3.7-5.9-4.6-9.3c-0.4-1.4-0.7-2.9-1-4.4
	c-0.6,0-1.1,0-1.7,0c0,6,0,11.9,0,17.9c0.6,0,1.1,0,1.6,0c0.5-1.8,1.1-3.5,1.6-5.4c0.4,0.4,0.6,0.6,0.7,0.8
	c3.5,4.3,7.9,6.5,13.5,6.2c5.1-0.3,9-2.6,11.7-7c2-3.3,2.4-6.9,2.2-10.7c-0.4-5.4-2.5-9.8-7.3-12.6c-2.8-1.6-5.6-3.2-8.3-4.7
	c-2.8-1.6-5.5-3.1-7.8-5.4c-2.5-2.5-3.3-5.4-2.6-8.8c0.6-2.8,2-5.1,5-6c3.3-0.9,6.3-0.4,9,1.7c2.8,2.2,4.5,5.2,5.5,8.5
	c0.3,0.9,0.5,1.9,0.8,2.7c0.6,0,1.1,0,1.6,0c0-4.9,0-9.7,0-14.5c-0.5,0-1,0-1.6,0C189,101,188.4,102.5,187.4,103.9z M22.2,100.1
	c1.6,0.2,2.2,0.9,2.4,2.5c0.2,1.5,0.3,3,0.3,4.5c0,10.7,0,21.4,0,32.2c0,2.6-0.1,5.2-0.3,7.8c-0.4,5.1-3.7,8.6-8.5,9.1
	c-1.3,0.1-2.7,0.1-3.9-0.5c-1.2-0.5-1.4-1.3-1-2.5c0.1-0.4,0.3-0.8,0.4-1.2c0.4-1.6-0.4-3.2-1.9-3.8c-1.5-0.6-3.2-0.1-4.1,1.2
	c-0.9,1.4-0.8,3.4,0.2,4.9c1.1,1.5,2.6,2.4,4.4,2.9c3.9,1,7.8,0.9,11.6-0.4c5.2-1.8,8.3-5.4,9.1-10.8c0.4-2.6,0.4-5.2,0.4-7.8
	c0-10.5,0-20.9,0-31.4c0-1.2,0.1-2.5,0.2-3.7c0.3-2.3,1.1-3,3.4-3.2c1.1-0.1,2.1-0.1,3.2-0.2c0-0.3,0-0.5,0-0.7c0-0.2,0-0.5-0.1-0.7
	c-6.8,0-13.5,0-20.2,0c0,0.5,0,0.9,0,1.4C19.5,99.8,20.9,99.9,22.2,100.1z M42.4,114.7c-0.1-10.3,7.3-15.5,13.8-16.6
	c4.9-0.8,9.6-0.4,14,2.2c5,2.9,7.6,7.4,7.9,13.1c0.2,3.4-0.2,6.7-1.9,9.7c-2,3.7-5,6.3-9.1,7.6c-5.2,1.7-10.4,1.7-15.4-0.7
	c-5.8-2.7-8.9-7.5-9.4-13.9C42.5,115.7,42.5,115.2,42.4,114.7z M48.1,114.8c-0.1,0-0.1,0-0.2,0c0.3,2.2,0.5,4.3,0.9,6.5
	c0.5,2.5,1.6,4.8,3.6,6.6c2.4,2.1,5.2,2.7,8.3,2.8c5.6,0.1,9.3-3.3,10.7-7.7c1.7-5.1,1.7-10.2,0.3-15.3c-1.1-4-3.5-7-7.8-8.1
	c-1.7-0.4-3.4-0.5-5.1-0.4c-4.2,0.4-7.2,2.5-8.9,6.4C48.4,108.4,48.1,111.6,48.1,114.8z M113.8,123.6c-0.1-0.1-0.3-0.3-0.4-0.4
	c-6.1-8-12.2-16-18.2-24.1c-0.4-0.5-0.8-0.8-1.4-0.7c-2.1,0-4.1,0-6.2,0c-0.9,0-1.7,0-2.6,0c0,0.5,0,0.8,0,1.2c0.7,0,1.3,0.1,2,0.1
	c1.6,0.1,2.3,0.6,2.5,2.2c0.2,1.3,0.3,2.5,0.3,3.8c0,6.8,0,13.7-0.1,20.5c0,2-0.7,2.8-2.6,3.4c-0.8,0.2-1.6,0.4-2.5,0.5
	c0,0.3,0,0.7,0,1.1c4.1,0,8.2,0,12.3,0c0-0.4,0-0.8,0-1.1c-1.1-0.2-2.1-0.3-3.1-0.6c-1.8-0.5-2.4-1.4-2.6-3.2c0-0.5-0.1-0.9-0.1-1.4
	c0-7.4,0-14.8,0-22.3c0-0.3,0-0.6,0-0.9c0.3,0.1,0.5,0.3,0.7,0.5c0.9,1.2,1.9,2.5,2.8,3.8c6.4,8.4,12.8,16.9,19.2,25.3
	c0.4,0.6,0.8,0.9,1.6,0.5c0-0.4,0-0.7,0-1.1c0-8.7,0-17.5,0-26.2c0-0.4,0-0.8,0-1.2c0.1-1.9,0.8-2.8,2.6-3.4
	c0.7-0.2,1.5-0.3,2.3-0.5c0-0.4,0-0.8,0-1.1c-4,0-7.8,0-11.7,0c0,0.4,0,0.8,0,1c1.2,0.3,2.3,0.4,3.4,0.8c1.1,0.3,1.8,1.1,1.9,2.3
	c0,0.7,0.1,1.4,0.1,2c0,6,0,12,0,18.1c0,0.3,0,0.6,0,0.9C113.9,123.6,113.8,123.6,113.8,123.6z M154.5,122c-0.5,1.8-1.2,3.6-2.4,5.1
	c-1.2,1.5-2.6,2.6-4.5,2.7c-2,0.1-4.1,0.2-6.2,0.2c-2.4,0-3.1-0.7-3.2-3.2c-0.1-3.2-0.2-6.4-0.2-9.6c0-0.9,0-1.7,0-2.7
	c0.3,0,0.5,0,0.7,0c1.6,0,3.3,0.1,4.9,0.2c1.4,0.1,2,0.7,2.3,2c0.2,0.9,0.2,1.9,0.3,2.9c0.4,0,0.8,0,1.1,0c0-3.8,0-7.4,0-11.2
	c-0.4,0-0.8,0-1.3,0c0,0.8,0,1.6,0,2.3c-0.1,1.3-0.7,2.2-2,2.3c-2,0.2-4,0.3-6,0.4c0-4.7,0-9.2,0-13.6c2.7,0,5.3-0.1,7.9,0
	c2.5,0.1,4.1,1.5,4.9,3.7c0.4,1,0.7,2.1,1,3.1c0.4,0,0.7,0,1.1,0c-0.3-2.8-0.5-5.5-0.8-8.2c-7.9,0-15.6,0-23.3,0c0,0.4,0,0.7,0,1.1
	c0.7,0.1,1.3,0.1,1.9,0.2c1.3,0.2,1.9,0.8,2.1,2.1c0.1,0.9,0.2,1.8,0.2,2.6c0,6.3,0,12.7,0,19c0,1.3,0,2.5-0.2,3.8
	c-0.2,1.8-1,2.6-2.9,2.7c-0.6,0-1.2,0-1.9,0c0,0.5,0,0.8,0,1.2c9,0,18,0,27,0c0.2-3.4,0.5-6.8,0.7-10.2c-0.5,0-0.8,0-1.2,0
	C154.7,121.4,154.6,121.7,154.5,122z M78.2,168.1c0-0.3,0-0.6,0-0.9c0-1.7,0-3.4,0-5.1c0-0.7,0.2-1.1,0.9-1.2c0.1,0,0.2-0.1,0.3-0.2
	c-0.9,0-1.8,0-2.5,0c0.3,0.3,0.9,0.7,0.9,1.1c0.1,1.4,0,2.8,0,4.2c-1.3-1.4-2.4-2.9-3.5-4.4c-0.8-1.1-1.6-1.3-3.2-0.7
	c1.1,0,1.2,0.7,1.2,1.4c0,1.1,0,2.2,0,3.3c0,0.9,0.3,2-1.1,2.4c0.9,0,1.8,0,2.7,0c-1.3-0.6-1.3-0.6-1.3-2.1c0-0.9,0-1.8,0-2.7
	c0-0.5,0-1,0-1.5c0.1,0,0.1,0,0.2,0c1.7,2.2,3.3,4.4,5,6.6C78,168.2,78.1,168.2,78.2,168.1z M98.8,168c0.8,0,1.7,0,2.5,0
	c0-0.1,0-0.2,0-0.3c-0.2-0.2-0.6-0.4-0.6-0.6c-0.1-0.9,0-1.8,0-2.7c1-0.3,1.7-0.1,2,1c0-0.9,0-1.7,0-2.6c-0.6,1.2-0.8,1.3-2,1
	c0-0.9,0-1.8,0-2.8c0.7,0,1.4-0.2,1.9,0.1c0.5,0.2,0.9,0.9,1.4,1.4c-0.1-0.6-0.1-1.2-0.2-1.8c-1.8,0-3.5,0-5.2,0
	c0.7,0.2,0.8,0.8,0.8,1.4c0,1.6,0,3.1,0,4.7c0,0.5-0.1,0.8-0.6,0.9C98.8,167.8,98.8,167.9,98.8,168z M89,160.4
	c-1.7,0.1-2.8,1-3.3,2.6c-0.5,1.7,0,3.5,1.2,4.4c1.4,1,2.9,1,4.7-0.2c0.2,0.2,0.3,0.4,0.6,0.7c0-1,0-1.9,0-2.7
	c-0.2,0.2-0.3,0.4-0.4,0.6c-0.5,1.4-1.4,2-2.7,1.9c-1.1-0.1-2-1-2.2-2.3c-0.1-0.7-0.1-1.5,0-2.2c0.1-1.2,0.8-2.1,2-2.4
	C89,160.6,89,160.5,89,160.4z M129,164.8c-1.7,0.8-2.6,0.6-3.3-0.3c-0.7-0.9-0.6-2.2,0.1-3.1c0.9-1.1,2.5-1.1,3.4,0
	c1.2,1.5,0.9,4.8-0.4,6.1c-0.7,0.7-1.9,0.9-2.7,0.4c-0.2-0.1-0.3-0.4-0.5-0.7c0,0,0.2-0.3,0.2-0.3c0.2,0.1,0.5,0.2,0.6,0.4
	c0.7,0.7,1.6,0.7,2-0.3C128.7,166.4,128.8,165.7,129,164.8z M126.2,162.8c0,0.5,0,0.8,0.1,1.1c0.1,0.6,0.5,1,1.1,1.1
	c0.7,0.1,1.2-0.3,1.3-0.9c0.1-0.8,0-1.6-0.2-2.4c-0.1-0.3-0.7-0.7-1-0.7c-0.3,0-0.8,0.4-1,0.7C126.3,162.1,126.3,162.5,126.2,162.8z
	 M52.1,160.4c-1.5,0.4-2.2,1.8-1.3,3c0.3,0.4,0.9,0.8,1.4,1.1c0.6,0.3,1.2,0.5,1.7,0.9c0.3,0.3,0.6,0.8,0.5,1.2
	c-0.1,0.4-0.5,0.9-0.9,1c-1,0.5-2-0.1-2.5-1.3c-0.1-0.3-0.2-0.6-0.4-0.9c-0.1,0-0.1,0-0.2,0.1c0,0.8,0,1.6,0,2.3
	c0.1,0,0.1,0.1,0.2,0.1c0.1-0.2,0.3-0.4,0.4-0.6c0.3,0.2,0.5,0.3,0.8,0.5c1.3,0.6,2.8,0.2,3.3-0.9c0.6-1.2,0.1-2.4-1.3-3.1
	c-0.6-0.3-1.2-0.5-1.7-0.9c-1.1-0.7-1.1-1.5,0-2.2C52.1,160.6,52.1,160.5,52.1,160.4z M61.8,167.9c1.1,0,2.2,0,3.6,0
	c-1.3-0.5-1.3-0.5-1.3-1.8c0-1.3,0-2.5,0-3.8c0-0.8,0.1-1.4,1.1-1.5c0,0,0-0.1,0-0.2c-1.1,0-2.2,0-3.3,0c1.2,0.2,1.1,1.1,1.1,1.9
	c0,1.2,0,2.5,0,3.7c0,0.8,0,1.5-1.2,1.4C61.7,167.8,61.7,167.8,61.8,167.9z M117.9,161.3c0.8,0,0.9,0.4,0.9,1.1c0,1.2,0,2.4,0,3.6
	c0,0.7,0.3,1.6-1,2c1.1,0,1.9,0,2.7,0c0.1-0.1,0.1-0.2,0.2-0.2c-1.1,0.1-1-0.6-1-1.2c0-1.1,0-2.1,0-3.2c0-0.9,0-1.7,0-2.7
	c-0.7,0.2-1.2,0.4-1.7,0.5C118,161.1,118,161.2,117.9,161.3z M137.4,167.8c-1.1,0-0.9-0.8-0.9-1.4c0-1.5,0-3,0-4.5
	c0-0.4,0-0.9,0-1.4c-0.7,0.2-1.2,0.4-1.7,0.6c0.7,0.2,0.8,0.6,0.8,1.3c0,1.4,0,2.9,0,4.3c0,0.6-0.1,1-0.8,1.2
	C135.6,168,136.4,168.1,137.4,167.8z M143.9,162.4c0,1.3,0,2.6,0,3.9c0,0.6,0.2,1.3-0.7,1.6c0.8,0,1.6,0,2.4,0
	c-1-0.2-0.8-0.9-0.8-1.5c0-1.9,0-3.8,0-5.8c-0.6,0.2-1.1,0.3-1.8,0.6C143.9,161.5,143.9,161.5,143.9,162.4z M112,163
	c-0.7,0-1.4,0.6-1.4,1.3c0,0.8,0.5,1.5,1.3,1.5c0.8,0,1.4-0.6,1.4-1.4C113.4,163.6,112.8,163,112,163z M92.1,163.5
	c0.1-0.1,0.1-0.1,0.2-0.2c0-0.9,0-1.8,0-2.8c-0.1,0-0.1,0-0.2,0c-0.1,0.2-0.3,0.5-0.4,0.7c-0.8-0.6-1.6-1-2.6-0.9c0,0.1,0,0.2,0,0.3
	C90.8,160.7,91.7,161.7,92.1,163.5z M104.6,168c0-0.8,0.1-1.5,0.1-2.3c-0.1,0-0.2,0-0.3,0c-0.1,0.2-0.2,0.4-0.3,0.7
	c-0.3,0.9-1,1.4-2,1.3c-0.3,0-0.5,0-0.8,0c0,0.1,0,0.2,0,0.3C102.4,168,103.4,168,104.6,168z M54.5,162.6c0.1,0,0.1-0.1,0.2-0.1
	c0-0.6,0-1.3,0-2.1c-0.3,0.3-0.4,0.4-0.5,0.6c0-0.1,0-0.1,0-0.2c-0.7-0.1-1.4-0.2-2-0.4c0,0.1,0,0.2,0,0.3
	C53.5,160.6,54.1,161.5,54.5,162.6z M98.5,167.8c0.1,0,0.2,0.1,0.4,0.1c0-0.1,0-0.2,0-0.3C98.7,167.7,98.6,167.8,98.5,167.8z
	 M67,147.9c0.4,1.6,1.4,2.3,3.1,2.3c1.6,0,2.6-0.7,3.1-2.2c0.4-1.4,0.4-2.8,0-4.2c-0.4-1.4-1.4-2.1-2.9-2.1c-2-0.1-3.1,0.8-3.4,2.8
	c-0.1,0.5-0.1,1-0.2,1.6C66.7,146.6,66.8,147.3,67,147.9z"/>
</svg>