<svg xmlns="http://www.w3.org/2000/svg" width="200" height="200" viewBox="0 0 200 200">
<path fill="#FFFFFF" d="M72.8,79.4v13.9c8.3-4.2,18.1-6.5,27.2-6.5c9.1,0,18.9,2.3,27.2,6.5V79.4c-8.3-4.3-18.1-6.7-27.2-6.7
	C90.9,72.7,81.1,75.1,72.8,79.4z M84.3,79.2c-0.7,0.2-1.4,0.4-2.1,0.6v-0.7l-3,1.1v2.3c0,0,2.8-1,3.9-1.3l1.2,0.8v3.3l-1.7,2.2
	c-1.3,0.4-2.6,0.9-3.9,1.4c-0.5-0.3-1-0.6-1.5-0.9v-1.2c0.7-0.3,1.4-0.6,2.1-0.8v1.2l0.3-0.1c0.8-0.3,2.7-1,2.7-1v-2.9
	c0,0-2.8,1-4,1.4l-1.1-0.7v-2.7l1.7-2.3c1.3-0.5,2.6-1,3.9-1.4c0.5,0.3,1.1,0.7,1.6,1.1V79.2z M91.3,77v6.6c0,0,0.9-0.1,0.9-0.1v1.7
	c-1.3,0.2-2.6,0.4-3.9,0.6v-1.7l0.8-0.2c0,0,0-6.6,0-6.6l-1.8,0.4v1.2c-0.6,0.1-1.1,0.3-1.7,0.4v-2.9c3-0.8,6.1-1.3,9.2-1.5v2.9
	c-0.6,0-1.1,0.1-1.7,0.2v-1.2L91.3,77z M114.4,84.9l0.9,0.2c0,0,0-6.6,0-6.6c0,0-0.9-0.2-0.9-0.2v-1.7c2.7,0.7,5.4,1.6,8,2.7v2.3
	c-0.7-0.3-1.4-0.6-2.1-0.8v-0.6c0,0-3-1-3-1v2.5c0,0,2,0.7,2.8,1v1.5c-0.8-0.3-2.8-1-2.8-1v2.6l3,1.1V86c0.7,0.3,1.4,0.5,2.1,0.8
	v2.5c-2.6-1.1-5.3-2-8-2.7V84.9z M103.7,74.7c3.1,0.2,6.2,0.7,9.2,1.4V79c-0.6-0.1-1.1-0.2-1.7-0.4v-1.2l-1.8-0.3v6.6
	c0,0,0.9,0.2,0.9,0.2v1.7c-1.3-0.2-2.6-0.4-3.9-0.6v-1.7l0.9,0.1c0,0,0-6.6,0-6.6l-1.8-0.2v1.2c-0.6-0.1-1.1-0.1-1.7-0.1V74.7z
	 M103.4,83.1c0,0,0.6,0,0.9,0.1v1.7c-1.2-0.1-2.5-0.2-3.7-0.2V83l0.8,0c0,0-0.5-1.6-0.5-1.6l-3.3,0L96.9,83c0,0,0.8,0,0.8,0v1.7
	c-1.2,0-2.3,0.1-3.5,0.2v-1.7l0.8-0.1c0,0,3-8.5,3-8.5c0.8,0,1.6,0,2.4,0L103.4,83.1z M134.6,84.1l3-6.6c-4.9-3.7-12.3-6.7-12.3-6.7
	l2.6-4.2v-7.3H109l-6.4,10c-0.8,0-1.7-0.1-2.5-0.1c-0.8,0-1.7,0-2.5,0.1l-6.4-10H72.2v7.3l2.6,4.2c0,0-7.4,3-12.3,6.7l3,6.6
	l-4.4,13.9c0,0,3.8-2.6,8.4-5.4v6.1c0,0,2.5-1.6,4.9-2.8l-2.2,3.3v7.5h20.7V91.4l7.1,11.3l7.1-11.3v15.4h20.7v-7.5l-2.2-3.3
	c2.4,1.2,4.9,2.8,4.9,2.8v-6.1c4.7,2.8,8.4,5.4,8.4,5.4L134.6,84.1z M129.1,90.4l0,5.9c-1.7-1-3.5-1.9-5.4-2.8v2.5l2.6,4v5.4h-17.5
	v-16c-0.6-0.1-1.3-0.2-1.9-0.2L100,99.8L93.2,89c-0.6,0.1-1.3,0.2-1.9,0.2v16H73.8v-5.4l2.6-4v-2.5c-1.9,0.8-3.7,1.8-5.4,2.8v-5.9
	c-2.3,1.1-4.9,2.6-7.3,4.3L66.9,84l-2.7-6c3.8-2.5,7.9-4.6,12.2-6.2v-1.3l-2.6-4.2V61h16.4l6.4,9.9c1.2-0.1,2.3-0.1,3.5-0.1
	c1.2,0,2.3,0,3.5,0.1l6.4-9.9h16.4v5.3l-2.6,4.2v1.3c4.3,1.6,8.4,3.8,12.2,6.2l-2.7,6l3.3,10.7C133.9,93,131.4,91.5,129.1,90.4z
	 M76.4,73.6c-3.6,1.4-6.9,3-10,5l2.4,5.2l-2.1,6.8c1.4-0.8,2.8-1.6,4.3-2.3V78.3c1.6-0.8,4-2,5.4-2.6V73.6z M98.1,79.9l2.2,0
	l-1.1-3.1C99.2,76.7,98.1,79.9,98.1,79.9z M131.2,83.8l2.4-5.2c-3.1-1.9-6.4-3.6-10-5v2c1.4,0.5,3.8,1.7,5.4,2.6v10.1
	c1.4,0.7,2.9,1.5,4.3,2.3L131.2,83.8z M15.2,124.8v-6.6l-3.1,5.8L9,118.2v6.6l1,0.7v1.9H5v-1.9l1-0.7v-9.3l-1-0.7v-1.9h4.3l2.8,5.1
	l2.9-5.1h4.3v1.9l-1,0.7v9.3l1,0.7v1.9h-5v-1.9L15.2,124.8z M27.3,127.4H22v-1.9l1-0.7v-9.3l-1-0.7v-2h5.3v1.9l-1,0.7v9.3l1,0.7
	V127.4z M39.4,115l0.2,0.2v1.6h-3.3v-0.7l-0.4-0.4h-2.3l-0.4,0.4v2.1l0.1,0.1h4.5l1.5,1.6l0.2,0.2v4.7l-2.2,2.5h-5.2l-2-2.3
	l-0.2-0.2v-2h3.3v1.1l0.4,0.5h2.2l0.4-0.5v-2.8l-0.1-0.1h-4.6l-1.6-2v-3.9l2-2.2l0.2-0.2h5.2L39.4,115z M51.8,115l0.2,0.2v1.6h-3.3
	v-0.7l-0.4-0.4H46l-0.4,0.4v2.1l0.1,0.1h4.5l1.5,1.6l0.2,0.2v4.7l-2.2,2.5h-5.2l-2-2.3l-0.2-0.2v-2h3.3v1.1l0.4,0.5h2.2l0.4-0.5
	v-2.8l-0.1-0.1H44l-1.6-2v-3.9l2-2.2l0.2-0.2h5.2L51.8,115z M60,127.4h-5.3v-1.9l1-0.7v-9.3l-1-0.7v-2H60v1.9l-1,0.7v9.3l1,0.7
	V127.4z M72.2,115l0.2,0.2v1.6h-3.3v-0.7l-0.4-0.4h-2.3l-0.4,0.4v2.1l0.1,0.1h4.5l1.5,1.6l0.2,0.2v4.7l-2.2,2.5H65l-2-2.3l-0.2-0.2
	v-2H66v1.1l0.4,0.5h2.2l0.4-0.5v-2.8l-0.1-0.1h-4.6l-1.6-2v-3.9l2-2.2l0.2-0.2h5.2L72.2,115z M84.5,115l0.2,0.2v1.6h-3.3v-0.7
	l-0.4-0.4h-2.3l-0.4,0.4v2.1l0.1,0.1H83l1.5,1.6l0.2,0.2v4.7l-2.2,2.5h-5.2l-2-2.3l-0.2-0.2v-2h3.3v1.1l0.4,0.5H81l0.4-0.5v-2.8
	l-0.1-0.1h-4.6l-1.6-2v-3.9l2-2.2l0.2-0.2h5.2L84.5,115z M92.8,127.4h-5.3v-1.9l1-0.7v-9.3l-1-0.7v-2h5.3v1.9l-1,0.7v9.3l1,0.7
	V127.4z M105.8,115.1l0.2,0.2v4.7l-2,2.1l-0.2,0.2h-3.9v2.4l1.1,0.7v1.9h-5.4v-1.9l1-0.7v-9.3l-1-0.7v-2h8.2L105.8,115.1z
	 M102.7,116.2l-0.4-0.4h-2.5v3.6h2.5l0.4-0.4V116.2z M118.6,115.1l0.2,0.2v4.7l-2,2.1l-0.2,0.2h-3.9v2.4l1.1,0.7v1.9h-5.4v-1.9
	l1-0.7v-9.3l-1-0.7v-2h8.2L118.6,115.1z M115.5,116.2l-0.4-0.4h-2.5v3.6h2.5l0.4-0.4V116.2z M126.4,127.4h-5.3v-1.9l1-0.7v-9.3
	l-1-0.7v-2h5.3v1.9l-1,0.7v9.3l1,0.7V127.4z M145.6,115l0.2,0.2v1.6h-3.3v-0.7l-0.4-0.4h-2.3l-0.4,0.4v2.1l0.1,0.1h4.5l1.5,1.6
	l0.2,0.2v4.7l-2.2,2.5h-5.2l-2-2.3l-0.2-0.2v-2h3.3v1.1l0.4,0.5h2.2l0.4-0.5v-2.8l-0.1-0.1h-4.6l-1.6-2v-3.9l2-2.2l0.2-0.2h5.2
	L145.6,115z M147.9,112.8h11.7v4.6h-2.7v-1.6h-1.5v8.9l1,0.7v1.9h-5.3v-1.9l1-0.7v-8.9h-1.5v1.6h-2.7V112.8z M171.4,125.5v1.9h-5.1
	v-1.9l1-0.6l-0.6-2h-3.4l-0.6,2l1,0.6v1.9h-4.8v-1.9l0.9-0.8l3.5-11.4l0.2-0.5h3.4l3.5,11.9L171.4,125.5z M166.1,120.7l-1-3.4
	l-1.1,3.4H166.1z M170.6,112.8h11.7v4.6h-2.7v-1.6h-1.5v8.9l1,0.7v1.9h-5.3v-1.9l1-0.7v-8.9h-1.5v1.6h-2.7V112.8z M184.4,112.8H195
	v4.6h-3.3v-1.5h-3v2.8h3.5v2.7h-3.5v3.1h3v-1.1h3.3v4h-10.6v-1.9l1-0.7v-9.3l-1-0.7V112.8z M49.4,133.3v3.8c0,0.2,0,0.4,0,0.5
	c0,0.1,0,0.3,0,0.3c0,0.2,0.1,0.3,0.2,0.5c0.2,0.3,0.5,0.4,1,0.4c0.4,0,0.8-0.2,1-0.5c0.1-0.1,0.2-0.3,0.2-0.5c0-0.1,0-0.2,0-0.3
	c0-0.1,0-0.3,0-0.5v-3.8h1.8v4.1c0,0.6-0.1,1-0.2,1.4c-0.1,0.4-0.4,0.7-0.7,1c-0.6,0.5-1.3,0.8-2.3,0.8c-1,0-1.8-0.3-2.3-0.8
	c-0.3-0.3-0.4-0.6-0.5-0.9c-0.1-0.4-0.2-0.8-0.2-1.4v-4.1H49.4z M60.2,140.4v-7.1H62l3.4,4.3v-4.3h1.8v7.1h-1.8L62,136v4.3H60.2z
	 M75.6,133.3v7.1h-1.8v-7.1H75.6z M83.4,133.3l1.7,4.3l1.7-4.3h2l-3,7.1h-1.4l-3-7.1H83.4z M98.6,134.8h-2.2v1.2h2.1v1.6h-2.1v1.2
	h2.2v1.6h-4v-7.1h4V134.8z M108.4,137.5l2.2,2.9h-2.3l-1.8-2.7v2.7h-1.8v-7.1h2.9c0.8,0,1.4,0.3,1.8,0.8c0.3,0.4,0.5,0.9,0.5,1.4
	c0,0.5-0.1,1-0.4,1.3C109.3,137.1,108.9,137.3,108.4,137.5z M106.6,136.5h0.3c0.4,0,0.6-0.1,0.8-0.2c0.2-0.2,0.3-0.4,0.3-0.6
	c0-0.3-0.1-0.5-0.3-0.6c-0.2-0.2-0.5-0.2-0.8-0.2h-0.3V136.5z M121,133.7l-0.7,1.4c-0.4-0.3-0.8-0.5-1.2-0.5c-0.2,0-0.4,0.1-0.6,0.2
	c-0.1,0.1-0.2,0.3-0.2,0.4c0,0.2,0.1,0.3,0.3,0.5c0.1,0.1,0.4,0.2,0.9,0.3c0.6,0.2,1.1,0.4,1.3,0.7c0.3,0.3,0.4,0.7,0.4,1.2
	c0,0.8-0.2,1.4-0.7,1.9c-0.5,0.4-1.2,0.7-2,0.7c-0.9,0-1.7-0.3-2.5-0.8l0.8-1.5c0.5,0.5,1.1,0.7,1.6,0.7c0.1,0,0.3,0,0.4-0.1
	c0.1,0,0.2-0.1,0.3-0.1c0.1-0.1,0.1-0.1,0.2-0.2c0-0.1,0.1-0.2,0.1-0.3c0-0.2-0.1-0.3-0.2-0.5c-0.2-0.1-0.4-0.2-0.9-0.4
	c-0.7-0.2-1.1-0.4-1.3-0.6c-0.4-0.3-0.6-0.8-0.6-1.4c0-0.7,0.2-1.3,0.7-1.7c0.4-0.4,1-0.7,1.7-0.7
	C119.5,133.1,120.3,133.3,121,133.7z M129.3,133.3v7.1h-1.8v-7.1H129.3z M138.5,134.8v5.5h-1.8v-5.5h-1.5v-1.6h4.9v1.6H138.5z
	 M148,137l-2.6-3.7h2.2l1.3,1.9l1.3-1.9h2.2l-2.7,3.7v3.4H148V137z M155.9,137.8v0.4h-0.8v2.1h-0.5v-2.1h-0.8v-0.4H155.9z
	 M158.6,140.3l-0.1-1.5c0-0.2,0-0.4,0-0.7h0c-0.1,0.2-0.1,0.5-0.2,0.7l-0.4,1.4h-0.5l-0.4-1.4c0-0.2-0.1-0.5-0.2-0.7h0
	c0,0.2,0,0.5,0,0.7l-0.1,1.5h-0.5l0.2-2.5h0.7l0.4,1.2c0.1,0.2,0.1,0.4,0.2,0.6h0c0.1-0.2,0.1-0.4,0.2-0.6l0.4-1.2h0.7l0.2,2.5
	H158.6z"/>
</svg>
