<svg xmlns="http://www.w3.org/2000/svg" width="200" height="200" viewBox="0 0 200 200">
<path fill="#ffffff" d="M33.6,90.8v33.8c20.3-10.2,44-15.9,66.4-15.9s46.1,5.7,66.4,15.9V90.8c-20.2-10.5-44.1-16.4-66.4-16.4S53.9,80.3,33.6,90.8z
	 M61.6,90.3c-1.7,0.5-3.5,1-5.1,1.5V90l-7.4,2.6v5.5c0,0,6.8-2.5,9.6-3.3l3,2v7.9l-4.2,5.3c-3.2,1-6.5,2.1-9.6,3.3
	c-1.3-0.8-2.5-1.6-3.7-2.3v-2.9c1.6-0.7,3.3-1.4,5-2v2.9l0.7-0.3c2-0.8,6.7-2.3,6.7-2.3v-7.1c0,0-6.9,2.3-9.7,3.5l-2.7-1.8v-6.5
	l4-5.7c3.1-1.2,6.3-2.4,9.6-3.3c1.3,0.8,2.6,1.7,3.9,2.6L61.6,90.3L61.6,90.3z M78.7,84.9V101l2.1-0.3v4.2c-3.1,0.4-6.3,1-9.4,1.6
	v-4.2l2.1-0.4V85.8L69,86.6v2.8c-1.4,0.3-2.7,0.6-4.1,1v-7.1c7.4-1.8,14.9-3.1,22.4-3.7v7.1c-1.4,0.1-2.8,0.2-4.1,0.4v-2.8
	L78.7,84.9z M135.2,104.1l2.1,0.6V88.5l-2.1-0.6v-4.2c6.7,1.8,13.3,4,19.6,6.7v5.7c-1.7-0.7-3.3-1.4-5-2v-1.5l-7.4-2.6v6
	c0,0,4.7,1.6,6.9,2.4v3.7c-2.1-0.8-6.9-2.4-6.9-2.4v6.5l7.4,2.6V107c1.7,0.6,3.3,1.3,5,2v6c-6.4-2.7-13-4.9-19.6-6.7L135.2,104.1
	L135.2,104.1z M109,79.4c7.5,0.5,15.1,1.6,22.4,3.3v7.1c-1.4-0.3-2.7-0.6-4.1-0.9v-2.8l-4.5-0.8v16.1l2.1,0.4v4.2
	c-3.1-0.6-6.3-1-9.5-1.4v-4.2l2.1,0.2V84.5l-4.5-0.5v2.8c-1.4-0.1-2.8-0.2-4.1-0.3L109,79.4L109,79.4z M108.2,99.8
	c0,0,1.5,0.1,2.2,0.2v4.2c-3-0.2-6-0.4-9-0.4v-4.2l2,0l-1.4-3.8l-8.1,0.1l-1.4,3.9l2-0.1v4.2c-2.9,0.1-5.7,0.3-8.6,0.6v-4.2l2-0.2
	l7.4-20.8c1.9,0,3.9-0.1,5.8,0L108.2,99.8z M181.8,146.8c-0.1-0.2-0.2-0.4-0.3-1c-0.1-0.6-0.4-0.9-0.8-1v0c0.5-0.2,0.9-0.5,0.9-1
	c0-0.4-0.2-0.7-0.5-0.9s-0.7-0.3-1.6-0.3c-0.8,0-1.4,0.1-1.7,0.1v4.1h1.1v-1.6h0.4c0.4,0,0.7,0.2,0.8,0.6c0.1,0.4,0.2,0.8,0.3,1v0
	H181.8z M179.5,144.4H179v-1.1c0.1,0,0.3,0,0.5,0c0.5,0,0.8,0.2,0.8,0.6C180.3,144.2,179.9,144.4,179.5,144.4z M184.3,102.3l7.3-16
	c-12-8.9-30.1-16.3-30.1-16.3l6.3-10.1V42.2h-46l-15.7,24.4c-2-0.1-4.1-0.1-6.2-0.1s-4.1,0-6.2,0.1L78.1,42.2h-46v17.8l6.3,10.1
	c0,0-18.1,7.3-30.1,16.3l7.3,16L5,136.3c0,0,9.2-6.4,20.6-13.2v15c0,0,6-3.9,11.9-6.7l-5.3,8.2v18.2h50.4v-37.6l17.4,27.5l17.4-27.5
	v37.6h50.4v-18.2l-5.3-8.2c5.9,2.9,11.9,6.7,11.9,6.7v-15c11.4,6.7,20.6,13.2,20.6,13.2L184.3,102.3z M170.9,117.5v14.3
	c-4.2-2.5-8.6-4.7-13.2-6.8v6l6.3,9.6V154h-42.7v-39.1c-1.6-0.2-3.1-0.4-4.7-0.6L100,140.4l-16.6-26.2c-1.6,0.2-3.1,0.4-4.7,0.6V154
	H36v-13.2l6.3-9.6v-6c-4.6,2-9,4.3-13.2,6.8v-14.3c-5.5,2.8-11.8,6.4-17.9,10.4l8.1-26l-6.7-14.6c9.2-6,19.2-11.1,29.7-15.1V69
	l-6.3-10.1V46h40l15.5,24.1c2.8-0.2,5.7-0.3,8.4-0.3c2.8,0,5.6,0.1,8.4,0.3L123.9,46h40v12.8L157.6,69v3.2
	c10.6,4,20.6,9.2,29.7,15.1l-6.7,14.6l8.1,26C182.8,124,176.5,120.3,170.9,117.5z M42.3,76.8c-8.8,3.4-16.7,7.4-24.3,12.2l5.8,12.7
	l-5.2,16.7c3.4-2,6.9-3.8,10.4-5.5V88c4-2.1,9.9-5,13.2-6.3V76.8z M95.2,92l5.4-0.1L98,84.3C98,84.3,95.2,92,95.2,92z M176.1,101.6
	l5.8-12.7c-7.6-4.7-15.5-8.7-24.3-12.2v5c3.4,1.4,9.3,4.2,13.2,6.3v24.8c3.5,1.7,7,3.5,10.4,5.5L176.1,101.6z M179.6,140.3
	c-2.5,0-4.5,1.9-4.5,4.3c0,2.4,2,4.3,4.5,4.3s4.4-1.9,4.4-4.3C184,142.2,182.1,140.3,179.6,140.3z M179.6,147.9
	c-1.8,0-3.2-1.5-3.2-3.3c0-1.8,1.4-3.3,3.2-3.3c1.8,0,3.2,1.5,3.2,3.3C182.8,146.4,181.4,147.9,179.6,147.9z"/>
</svg>
