<svg xmlns="http://www.w3.org/2000/svg" width="200" height="200" viewBox="0 0 200 200">
<path fill="#FFFFFF" d="M17.3,146.8c-0.6-1.8-1.7-4-4.1-4c-1.6,0-2.8,1.2-2.8,2.9c0,1.6,1.1,2.5,3.6,3.8c3.1,1.5,5.2,3.1,5.2,6
	c0,3.3-2.8,5.9-7.1,5.9c-1.1,0-2.1-0.1-2.9-0.4c-0.8-0.2-1.4-0.5-1.8-0.6c-0.3-0.7-0.6-3.2-0.8-5l1-0.3c0.6,1.9,2.3,5.1,5.1,5.1
	c1.8,0,2.9-1.2,2.9-3.1c0-1.7-1.3-2.8-3.5-4c-3-1.5-5.1-3.1-5.1-5.9c0-3.2,2.5-5.7,6.7-5.7c1.9,0,3.5,0.6,4.1,0.8
	c0.1,1.1,0.3,2.4,0.6,4.2L17.3,146.8z M35.3,141.6c5.3,0,9.6,3.9,9.6,9.7c0,6.3-4.5,10.1-10,10.1c-5.8,0-9.9-4.3-9.9-9.9
	C25,146.6,28.6,141.6,35.3,141.6L35.3,141.6z M34.7,142.8c-2.9,0-5.2,3.1-5.2,8.2c0,5,2.2,9.2,6,9.2c2.8,0,5-2.7,5-8.1
	C40.5,146.3,38.1,142.8,34.7,142.8L34.7,142.8z M70.2,143.1c-1.6,0.1-2.3,0.7-2.5,1.7c-0.1,0.9-0.3,2-0.3,4.1v3.2
	c0,3.1-0.5,5.6-2.1,7.3c-1.3,1.4-3.3,2.1-5.4,2.1c-1.9,0-3.8-0.4-5.2-1.5c-1.7-1.3-2.4-3.4-2.4-6.9v-6.9c0-2.7-0.3-3-2.5-3.2v-1h8.8
	v1c-2.1,0.2-2.4,0.4-2.4,3.2v6.3c0,4.4,1.6,6.9,4.7,6.9c3.5,0,5-2.6,5-7.5v-3.1c0-2.1-0.1-3.2-0.3-4.1c-0.1-1-0.8-1.6-2.8-1.7v-1
	h7.3V143.1z M91.4,147.1c-0.4-1.5-0.8-2.5-1.3-3c-0.5-0.5-1.3-0.7-3-0.7h-1.3v13.8c0,2.5,0.3,2.7,2.9,2.9v1h-9.5v-1
	c2.5-0.2,2.7-0.4,2.7-2.9v-13.8h-1c-2.4,0-2.9,0.3-3.4,0.8c-0.5,0.5-0.8,1.5-1.2,2.9h-1.1c0.1-2.1,0.3-4.3,0.4-5.8h0.7
	c0.5,0.7,0.8,0.7,1.7,0.7h11.7c0.8,0,1.2-0.2,1.7-0.7h0.7c0,1.2,0.2,3.8,0.3,5.7L91.4,147.1z M119.3,143.1c-2.3,0.2-2.5,0.4-2.5,2.9
	v11.2c0,2.5,0.2,2.6,2.5,2.8v1h-8.9v-1c2.3-0.2,2.5-0.4,2.5-2.9v-5.4h-8v5.4c0,2.5,0.2,2.7,2.4,2.9v1h-8.7v-1
	c2.1-0.2,2.4-0.4,2.4-2.9v-11.2c0-2.5-0.3-2.7-2.5-2.9v-1h8.8v1c-2.1,0.2-2.3,0.4-2.3,2.9v4.3h8v-4.3c0-2.5-0.2-2.7-2.4-2.9v-1h8.8
	V143.1z M141.5,156.2c-0.2,1.3-0.8,4-1,4.8h-14.9v-1c2.5-0.2,2.8-0.4,2.8-2.9v-11.2c0-2.5-0.3-2.7-2.4-2.9v-1h13.8
	c0,0.5,0.2,2.6,0.3,4.4l-1.1,0.1c-0.3-1-0.7-2-1.2-2.5c-0.5-0.5-1.3-0.7-2.9-0.7h-1.4c-1.1,0-1.2,0.1-1.2,1v6.2h2
	c2.5,0,2.8-0.1,3.2-2.2h1v5.9h-1c-0.4-2.1-0.8-2.2-3.2-2.2h-2v5.1c0,1.4,0.1,2.1,0.7,2.4c0.5,0.2,1.5,0.3,2.6,0.3
	c1.5,0,2.5-0.2,3.2-0.9c0.6-0.6,1.1-1.6,1.6-2.9L141.5,156.2z M165.3,161.3c-0.2,0-0.5,0-0.9,0c-3.7-0.2-4.8-1-6-2.8
	c-0.8-1.2-1.5-2.8-2.4-4.3c-0.5-0.9-1-1.3-1.9-1.3h-0.6v4.3c0,2.4,0.3,2.7,2.5,2.9v1h-8.8v-1c2.2-0.2,2.5-0.5,2.5-2.9v-11.2
	c0-2.3-0.3-2.6-2.4-2.8v-1h8.2c2.5,0,4,0.3,5.2,1.1c1.2,0.8,2,2.1,2,3.9c0,2.6-1.7,3.9-3.7,4.8c0.4,0.8,1.5,2.8,2.4,4.1
	c1.1,1.6,1.7,2.5,2.2,3.2c0.6,0.7,1.1,1,1.8,1.2L165.3,161.3z M154.3,151.7c1.2,0,2.2-0.2,2.9-0.8c1-0.8,1.4-2,1.4-3.5
	c0-3.1-1.8-4.2-3.4-4.2c-0.7,0-1.1,0.1-1.3,0.3c-0.2,0.2-0.3,0.5-0.3,1.1v7.1H154.3z M190.2,143.1c-1.6,0.1-2.2,0.5-2.3,1.8
	c-0.1,0.9-0.3,2.3-0.3,4.8v11.6h-1.4l-12.1-14.5H174v6.6c0,2.6,0.1,3.9,0.2,4.7c0.1,1.3,0.6,1.8,2.8,1.9v1h-7.2v-1
	c1.6-0.1,2.3-0.6,2.4-1.8c0.1-1,0.3-2.2,0.3-4.8v-6.1c0-1.9-0.1-2.5-0.6-3.1c-0.5-0.7-1.2-0.9-2.4-1.1v-1h5.4l11.2,12.8h0.1v-5.1
	c0-2.6-0.2-3.9-0.2-4.8c-0.1-1.3-0.8-1.8-2.9-1.9v-1h7.1V143.1z M19.5,186.4v-0.9c2-0.2,2.2-0.4,2.1-2.8l-0.1-10.2h-0.1l-5.9,13.8
	h-0.7l-5.4-13.5H9.3L9,179.6c-0.1,2.2-0.1,3.4,0,4.3c0.1,1.2,0.6,1.4,2.4,1.6v0.9H5v-0.9c1.5-0.1,2-0.6,2.1-1.5
	c0.2-0.8,0.4-2.2,0.6-5l0.4-5.2c0.2-3,0-3.4-2.3-3.6v-0.9h5.5l5.1,11.6l5.2-11.6H27v0.9c-2.1,0.2-2.2,0.4-2.2,2.6l0.2,9.9
	c0.1,2.4,0.2,2.6,2.3,2.8v0.9H19.5z M32.7,186.4v-0.9c2-0.2,2.2-0.4,2.2-2.6v-10.2c0-2.3-0.2-2.4-2.2-2.6v-0.9h8v0.9
	c-2,0.2-2.2,0.4-2.2,2.6v10.2c0,2.2,0.2,2.4,2.2,2.6v0.9H32.7z M56.4,173.5c-0.6-1.7-1.5-3.6-3.7-3.6c-1.5,0-2.6,1.1-2.6,2.6
	c0,1.5,1,2.3,3.3,3.5c2.8,1.4,4.7,2.8,4.7,5.5c0,3-2.6,5.4-6.4,5.4c-1,0-1.9-0.1-2.7-0.4c-0.7-0.2-1.2-0.4-1.6-0.6
	c-0.2-0.7-0.6-2.9-0.8-4.5l0.9-0.3c0.5,1.7,2.1,4.7,4.6,4.7c1.6,0,2.7-1.1,2.7-2.8c0-1.6-1.2-2.5-3.2-3.6c-2.7-1.4-4.6-2.8-4.6-5.4
	c0-2.9,2.3-5.2,6.1-5.2c1.7,0,3.2,0.5,3.7,0.7c0.1,1,0.3,2.1,0.5,3.8L56.4,173.5z M73.6,173.5c-0.6-1.7-1.5-3.6-3.7-3.6
	c-1.5,0-2.6,1.1-2.6,2.6c0,1.5,1,2.3,3.3,3.5c2.8,1.4,4.7,2.8,4.7,5.5c0,3-2.6,5.4-6.4,5.4c-1,0-1.9-0.1-2.7-0.4
	c-0.7-0.2-1.2-0.4-1.6-0.6c-0.2-0.7-0.6-2.9-0.8-4.5l0.9-0.3c0.5,1.7,2.1,4.7,4.6,4.7c1.6,0,2.7-1.1,2.7-2.8c0-1.6-1.2-2.5-3.2-3.6
	c-2.7-1.4-4.6-2.8-4.6-5.4c0-2.9,2.3-5.2,6.1-5.2c1.7,0,3.2,0.5,3.7,0.7c0.1,1,0.3,2.1,0.5,3.8L73.6,173.5z M80.7,186.4v-0.9
	c2-0.2,2.2-0.4,2.2-2.6v-10.2c0-2.3-0.2-2.4-2.2-2.6v-0.9h8v0.9c-2,0.2-2.2,0.4-2.2,2.6v10.2c0,2.2,0.2,2.4,2.2,2.6v0.9H80.7z
	 M104.4,173.5c-0.6-1.7-1.5-3.6-3.7-3.6c-1.5,0-2.6,1.1-2.6,2.6c0,1.5,1,2.3,3.3,3.5c2.8,1.4,4.7,2.8,4.7,5.5c0,3-2.6,5.4-6.4,5.4
	c-1,0-1.9-0.1-2.7-0.4c-0.7-0.2-1.2-0.4-1.6-0.6c-0.2-0.7-0.6-2.9-0.8-4.5l0.9-0.3c0.5,1.7,2.1,4.7,4.6,4.7c1.6,0,2.7-1.1,2.7-2.8
	c0-1.6-1.2-2.5-3.2-3.6c-2.7-1.4-4.6-2.8-4.6-5.4c0-2.9,2.3-5.2,6.1-5.2c1.7,0,3.2,0.5,3.7,0.7c0.1,1,0.3,2.1,0.5,3.8L104.4,173.5z
	 M121.6,173.5c-0.6-1.7-1.5-3.6-3.7-3.6c-1.5,0-2.6,1.1-2.6,2.6c0,1.5,1,2.3,3.3,3.5c2.8,1.4,4.7,2.8,4.7,5.5c0,3-2.6,5.4-6.4,5.4
	c-1,0-1.9-0.1-2.7-0.4c-0.7-0.2-1.2-0.4-1.6-0.6c-0.2-0.7-0.6-2.9-0.8-4.5l0.9-0.3c0.5,1.7,2.1,4.7,4.6,4.7c1.6,0,2.6-1.1,2.6-2.8
	c0-1.6-1.2-2.5-3.2-3.6c-2.7-1.4-4.6-2.8-4.6-5.4c0-2.9,2.3-5.2,6.1-5.2c1.7,0,3.2,0.5,3.7,0.7c0.1,1,0.3,2.1,0.5,3.8L121.6,173.5z
	 M128.7,186.4v-0.9c2-0.2,2.2-0.4,2.2-2.6v-10.2c0-2.3-0.2-2.4-2.2-2.6v-0.9h8v0.9c-2,0.2-2.2,0.4-2.2,2.6v10.2
	c0,2.2,0.2,2.4,2.2,2.6v0.9H128.7z M150,169.2c2.1,0,3.6,0.3,4.6,1c1.2,0.8,2,2.2,2,3.9c0,3.6-2.6,5.2-5.4,5.5c-0.4,0-0.8,0-1.1,0
	l-1.8-0.4v3.6c0,2.3,0.2,2.4,2.5,2.6v0.9h-8.2v-0.9c2-0.2,2.2-0.4,2.2-2.6v-10.2c0-2.3-0.2-2.4-2.1-2.6v-0.9H150z M148.3,178.2
	c0.3,0.1,0.9,0.3,1.4,0.3c1,0,3.1-0.7,3.1-4.3c0-3-1.7-4-3.3-4c-0.5,0-0.8,0.1-1,0.3c-0.2,0.2-0.2,0.4-0.2,0.8V178.2z M169.3,169.2
	c2.1,0,3.6,0.3,4.6,1c1.3,0.8,2,2.2,2,3.9c0,3.6-2.6,5.2-5.4,5.5c-0.4,0-0.8,0-1.1,0l-1.8-0.4v3.6c0,2.3,0.2,2.4,2.5,2.6v0.9h-8.3
	v-0.9c2-0.2,2.2-0.4,2.2-2.6v-10.2c0-2.3-0.2-2.4-2.1-2.6v-0.9H169.3z M167.6,178.2c0.3,0.1,0.9,0.3,1.4,0.3c1,0,3.1-0.7,3.1-4.3
	c0-3-1.7-4-3.3-4c-0.5,0-0.8,0.1-1,0.3c-0.2,0.2-0.2,0.4-0.2,0.8V178.2z M181,186.4v-0.9c2-0.2,2.2-0.4,2.2-2.6v-10.2
	c0-2.3-0.2-2.4-2.2-2.6v-0.9h8v0.9c-2,0.2-2.2,0.4-2.2,2.6v10.2c0,2.2,0.2,2.4,2.2,2.6v0.9H181z M14.2,128.2
	c-0.2-0.8-0.3-1.1-0.5-1.3c-0.2-0.3-0.6-0.3-1.2-0.3h-0.7v5.5c0,1.2,0.1,1.3,1.3,1.4v0.6H8.5v-0.6c1.2-0.1,1.3-0.2,1.3-1.4v-5.5H9.3
	c-0.9,0-1.2,0.1-1.4,0.4c-0.2,0.2-0.4,0.6-0.5,1.2H6.8c0-1.1,0.1-2,0.2-2.6h0.4c0.2,0.3,0.3,0.3,0.8,0.3h5.4c0.4,0,0.5-0.1,0.7-0.3
	h0.4c0,0.6,0.1,1.9,0.2,2.6L14.2,128.2z M24.2,134v-0.6c1-0.1,1.1-0.2,1.1-1.4v-2h-3.5v2c0,1.2,0.1,1.3,1,1.4v0.6h-4.2v-0.6
	c1.1-0.1,1.2-0.2,1.2-1.4v-4.2c0-1.2-0.1-1.3-1.2-1.4v-0.5h4.3v0.5c-1,0.1-1.1,0.2-1.1,1.4v1.5h3.5v-1.5c0-1.2-0.1-1.3-1.1-1.4v-0.5
	h4.2v0.5c-1.1,0.1-1.2,0.2-1.2,1.5v4.2c0,1.2,0.1,1.3,1.2,1.4v0.6H24.2z M39.9,131.8c-0.1,0.6-0.4,1.9-0.5,2.2h-7.1v-0.6
	c1.2-0.1,1.3-0.2,1.3-1.4v-4.3c0-1.2-0.1-1.3-1.2-1.4v-0.6h6.7c0,0.3,0.1,1.2,0.1,2l-0.6,0c-0.2-0.5-0.3-0.8-0.5-1
	c-0.2-0.3-0.6-0.4-1.4-0.4h-0.7c-0.5,0-0.5,0-0.5,0.5v2.4h1.1c1,0,1.1-0.1,1.2-0.9h0.6v2.6h-0.6c-0.1-0.8-0.3-1-1.2-1h-1.1v1.8
	c0,0.7,0.1,1.1,0.3,1.2c0.2,0.2,0.6,0.2,1.3,0.2c0.8,0,1.2-0.1,1.5-0.5c0.2-0.2,0.5-0.6,0.7-1.2L39.9,131.8z M59.4,126.4
	c-0.8,0-1.1,0.2-1.2,0.7c0,0.4-0.1,1-0.1,2.1v1c0,1.3-0.2,2.4-1,3.1c-0.6,0.6-1.5,0.9-2.5,0.9c-0.9,0-1.7-0.2-2.4-0.7
	c-0.7-0.5-1.2-1.5-1.2-2.9v-2.9c0-1.2-0.1-1.3-1.2-1.4v-0.5h4.3v0.5c-1.1,0.1-1.2,0.2-1.2,1.4v2.5c0,2,0.8,3,2.1,3
	c1.4,0,2.1-1.1,2.1-3.1v-0.9c0-1.2-0.1-1.7-0.1-2.1c-0.1-0.5-0.4-0.7-1.4-0.7v-0.5h3.5V126.4z M72.3,126.4c-0.7,0-1.1,0.2-1.2,0.7
	c0,0.5-0.1,1.1-0.1,2.2v4.7h-0.9l-5.2-6.2l0,0v2.6c0,1.2,0.1,1.8,0.1,2.2c0.1,0.6,0.4,0.7,1.4,0.8v0.5h-3.5v-0.5
	c0.7-0.1,1.1-0.2,1.2-0.8c0.1-0.4,0.1-1,0.1-2.2v-2.3c0-1.4-0.3-1.7-1.5-1.8v-0.5h2.8l4.7,5.3h0v-1.8c0-1.2-0.1-1.7-0.1-2.2
	c-0.1-0.6-0.4-0.7-1.4-0.8v-0.5h3.5V126.4z M75.9,134v-0.6c1.1-0.1,1.2-0.2,1.2-1.3v-4.4c0-1.2-0.1-1.3-1.2-1.3v-0.6h4.3v0.6
	c-1.1,0.1-1.2,0.1-1.2,1.3v4.3c0,1.2,0.1,1.3,1.2,1.3v0.6H75.9z M93.3,126.4c-0.9,0.1-1.1,0.3-1.6,1.3c-0.6,1.1-1.8,3.9-2.8,6.5
	h-0.7c-0.9-2.3-2-4.7-2.8-6.7c-0.4-0.9-0.7-1-1.4-1.1v-0.6h4.2v0.6l-0.4,0.1c-0.5,0.1-0.5,0.2-0.3,0.9c0.5,1.2,1.2,2.8,1.8,4.4
	c0.5-1.2,1.5-3.6,1.7-4.3c0.2-0.7,0.2-0.9-0.4-1l-0.3,0v-0.6h3.2V126.4z M104.5,131.8c-0.1,0.6-0.4,1.9-0.5,2.2H97v-0.6
	c1.2-0.1,1.3-0.2,1.3-1.4v-4.3c0-1.2-0.1-1.3-1.2-1.4v-0.6h6.7c0,0.3,0.1,1.2,0.1,2l-0.6,0c-0.2-0.5-0.3-0.8-0.5-1
	c-0.2-0.3-0.6-0.4-1.4-0.4h-0.7c-0.5,0-0.5,0-0.5,0.5v2.4h1.1c1,0,1.1-0.1,1.2-0.9h0.6v2.6h-0.6c-0.1-0.8-0.3-1-1.2-1h-1.1v1.8
	c0,0.7,0.1,1.1,0.3,1.2c0.2,0.2,0.6,0.2,1.3,0.2c0.8,0,1.2-0.1,1.5-0.5c0.2-0.2,0.5-0.6,0.7-1.2L104.5,131.8z M117.1,134.1h-0.6
	c-1.8,0-2.3-0.4-2.8-1.1c-0.4-0.6-0.8-1.3-1.1-1.9c-0.2-0.4-0.4-0.6-0.9-0.6h-0.3v1.6c0,1.2,0.1,1.3,1.2,1.3v0.6h-4.3v-0.6
	c1.1-0.1,1.2-0.2,1.2-1.3v-4.4c0-1.2-0.1-1.2-1.2-1.3v-0.5h4.4c1,0,1.6,0.1,2.2,0.4c0.6,0.3,0.9,0.9,0.9,1.7c0,1.1-0.8,1.8-1.7,2.1
	c0.2,0.4,0.8,1.3,1.2,1.9c0.4,0.6,0.7,0.9,1,1.2c0.3,0.3,0.6,0.4,0.8,0.5L117.1,134.1z M111.9,129.9c0.5,0,0.9-0.1,1.3-0.3
	c0.4-0.3,0.6-0.8,0.6-1.4c0-1.3-0.8-1.8-1.7-1.8c-0.6,0-0.7,0.2-0.7,0.6v2.8H111.9z M125.9,128.2c-0.3-1.1-0.9-2-2-2
	c-0.7,0-1.2,0.5-1.2,1.2c0,0.8,0.7,1.1,1.3,1.4l0.4,0.2c1.4,0.6,2.4,1.2,2.4,2.6c0,1.6-1.4,2.6-3.3,2.6c-1.2,0-2.1-0.4-2.4-0.6
	c-0.1-0.3-0.3-1.3-0.4-2.3l0.5-0.1c0.3,1,1.2,2.4,2.5,2.4c0.8,0,1.3-0.5,1.3-1.3c0-0.7-0.5-1.1-1.3-1.5l-0.5-0.2
	c-1-0.4-2.2-1.1-2.2-2.5c0-1.5,1.1-2.6,3.2-2.6c0.8,0,1.6,0.3,2,0.4c0.1,0.5,0.2,1.1,0.3,2L125.9,128.2z M130.8,134v-0.6
	c1.1-0.1,1.2-0.2,1.2-1.3v-4.4c0-1.2-0.1-1.3-1.2-1.3v-0.6h4.3v0.6c-1.1,0.1-1.2,0.1-1.2,1.3v4.3c0,1.2,0.1,1.3,1.2,1.3v0.6H130.8z
	 M146.4,128.2c-0.2-0.8-0.3-1.1-0.5-1.3c-0.2-0.3-0.6-0.3-1.2-0.3h-0.7v5.5c0,1.2,0.1,1.3,1.3,1.4v0.6h-4.6v-0.6
	c1.2-0.1,1.3-0.2,1.3-1.4v-5.5h-0.5c-0.9,0-1.2,0.1-1.4,0.4c-0.2,0.2-0.4,0.6-0.5,1.2H139c0.1-1.1,0.1-2,0.2-2.6h0.4
	c0.2,0.3,0.3,0.3,0.8,0.3h5.4c0.4,0,0.5-0.1,0.7-0.3h0.4c0,0.6,0.1,1.9,0.2,2.6L146.4,128.2z M159.3,126.4c-0.9,0.1-1.1,0.3-1.6,1
	c-0.4,0.5-0.8,1.3-1.5,2.5c-0.2,0.3-0.2,0.5-0.2,0.8v1.4c0,1.1,0.1,1.2,1.3,1.3v0.6h-4.6v-0.6c1.2-0.1,1.3-0.2,1.3-1.3v-1.3
	c0-0.4-0.1-0.6-0.3-0.9c-0.5-0.8-0.9-1.6-1.5-2.5c-0.5-0.8-0.7-0.9-1.5-1v-0.6h4v0.6l-0.5,0.1c-0.4,0.1-0.4,0.2-0.2,0.6
	c0.5,0.9,1,1.8,1.4,2.5c0.5-0.9,1-1.9,1.3-2.4c0.2-0.5,0.2-0.7-0.3-0.7l-0.5-0.1v-0.6h3.2V126.4z M174,125.6c2.7,0,4.5,1.9,4.5,4.2
	c0,2.9-2.2,4.4-4.5,4.4c-3,0-4.5-2.1-4.5-4.1C169.4,127,171.8,125.6,174,125.6L174,125.6z M173.8,126.2c-1.1,0-2.2,1.2-2.2,3.5
	c0,2.3,1.1,3.9,2.5,3.9c1.2,0,2.2-0.9,2.2-3.4C176.3,128.2,175.4,126.2,173.8,126.2L173.8,126.2z M188.7,128
	c-0.2-0.5-0.3-0.8-0.5-1.1c-0.2-0.3-0.5-0.5-1.4-0.5H186c-0.5,0-0.5,0-0.5,0.5v2.6h1.2c1.1,0,1.2-0.1,1.4-1h0.6v2.7h-0.6
	c-0.2-1-0.3-1-1.5-1h-1.2v1.8c0,1.1,0.1,1.2,1.3,1.3v0.6h-4.4v-0.6c1.1-0.1,1.2-0.2,1.2-1.3v-4.4c0-1.2-0.1-1.3-1.2-1.3v-0.6h6.7
	c0,0.3,0.1,1.2,0.1,2.1L188.7,128z M192.7,182.3c-1.3,0-2.3,1-2.3,2.3c0,1.3,1,2.3,2.3,2.3c1.3,0,2.3-1,2.3-2.3
	C195,183.3,194,182.3,192.7,182.3z M192.7,186.5c-1.1,0-1.9-0.8-1.9-1.9c0-1.1,0.9-1.9,1.9-1.9c1.1,0,1.9,0.8,1.9,1.9
	C194.6,185.7,193.7,186.5,192.7,186.5z M193.8,184c0-0.5-0.4-0.7-0.9-0.7h-1.1v2.6h0.4v-1.2h0.5l0.7,1.2h0.4l-0.7-1.2
	C193.4,184.7,193.8,184.5,193.8,184z M192.6,184.4h-0.4v-0.6h0.6c0.3,0,0.6,0,0.6,0.4C193.4,184.4,192.9,184.4,192.6,184.4z
	 M134.3,109.3c0.5,0.1,0.9,0.2,1.4,0.2c0.2,2.6,0.5,5.2,0.7,8c-0.3,0-0.5,0-0.7,0c-3.3-0.4-6.7-0.8-10-1.2
	c-3.6-0.4-7.1-0.9-10.7-1.3c-0.4,0-0.7-0.1-1.1-0.1c-8.2,0-16.4,0-24.6,0c-2.9,0-5.8,0.2-8.7,0.6c-2.3,0.3-4.7,0.5-7,0.8
	c-2.7,0.3-5.4,0.6-8.1,0.9c-0.4,0-0.8,0.1-1.3,0.1c0.3-2.8,0.6-5.4,0.8-8.1c0.4-0.1,0.6-0.1,1-0.1c0-0.3,0-0.5,0-0.7
	c0-5.9-0.1-11.8-0.1-17.8c0-0.4-0.1-0.8-0.4-1.1c-0.8-1.1-1.5-2.2-2.3-3.4c-0.3-0.4-0.6-0.9-0.9-1.4c1.1-0.5,2.2-0.9,3.3-1.4
	c-0.9-2.1-1.8-4.2-2.7-6.3c1-0.1,1.9-0.2,2.9-0.2c0-0.3,0.1-0.6,0.1-0.9c0.3-3,1-6,2-8.9c1.9-5.7,5.1-10.5,9.5-14.6
	c3.5-3.2,7.5-5.6,11.9-7.3c0.3-0.1,0.5-0.2,0.7-0.3c-0.1-0.9-0.1-1.7-0.2-2.6c0-0.3,0.2-0.5,0.4-0.7c0.4-0.2,0.6-0.6,0.5-1.1
	c-0.3-1.5,0.3-2.8,1.3-3.9c0.2-0.3,0.3-0.6,0.3-0.9c-0.1-4-0.1-8-0.2-12c0-0.4-0.1-0.6-0.3-0.9c-0.4-0.4-0.5-0.9-0.5-1.5
	c0-0.4-0.1-0.7-0.1-1.1c0-0.6,0-0.6,0.5-0.8c0.2-0.1,0.4-0.2,0.6-0.3c0-0.4,0-0.9,0-1.3c0-0.4,0.1-0.6,0.5-0.8
	c1.2-0.6,2.3-1.2,3.5-1.8c0,0,0,0,0.1,0c0.9-0.4,1.8-0.9,2.4-1.9c0.2-0.3,0.5-0.4,0.8-0.4c1,0,1.9,0,2.9,0c0.3,0,0.5,0.1,0.7,0.3
	c0.1,0.2,0.3,0.4,0.5,0.6c0.3,0.3,0.6,0.6,1,0.8c1.4,0.8,2.7,1.5,4.1,2.3c0.4,0.2,0.6,0.4,0.5,0.9c0,0.2,0,0.3,0,0.5
	c-0.1,0.5,0,0.9,0.6,1.1c0.2,0.1,0.3,0.3,0.3,0.5c-0.1,0.7-0.1,1.4-0.2,2c0,0.3-0.2,0.5-0.4,0.7c-0.3,0.3-0.4,0.7-0.4,1.1
	c0,2.5-0.1,5-0.1,7.4c0,1.4-0.1,2.8-0.1,4.1c0,0.4,0.1,0.8,0.4,1.2c0.4,0.5,0.7,1.1,1,1.6c0.1,0.2,0.1,0.4,0.1,0.7c0,0.5,0,1,0,1.5
	c0,0.5,0.1,0.8,0.5,1.1c0.4,0.2,0.5,0.5,0.4,0.9c0,0.4,0,0.9,0,1.3c0,0.3-0.1,0.7-0.2,1.1c0.2,0.1,0.4,0.2,0.6,0.3
	c2.8,1,5.4,2.3,7.9,4c2.3,1.6,4.4,3.5,6.2,5.7c2.4,2.8,4.2,5.9,5.6,9.3c1.6,3.9,2.7,7.9,3.1,12.1c0.1,0.6,0.1,1.1,0.2,1.7
	c1,0.3,2,0.5,3.1,0.8c-0.1,0.2-0.2,0.3-0.3,0.5c-0.6,0.8-1.2,1.6-1.8,2.3c-0.4,0.4-0.6,0.9-0.5,1.5c0,0.4,0,0.8,0,1.2
	c0.9,0.2,1.7,0.3,2.6,0.5c-0.1,0.3-0.2,0.5-0.3,0.8c-0.9,2-1.7,3.9-2.6,5.9c-0.3,0.6-0.4,1.1-0.4,1.8c0,2.6,0,5.2-0.1,7.9
	c0,2.5-0.1,5-0.1,7.4C134.3,108.7,134.3,109,134.3,109.3z"/>
<path fill="#FFC627" d="M108,105.2c-0.3,0-0.7,0.1-1,0.1c-1.4,0-2.8,0-4.1,0c-0.2,0-0.5,0-0.8-0.1c0-0.3,0-0.5,0-0.8c0-3.5,0-7,0-10.4
	c0-0.4,0-0.8,0.1-1.2c1.2,0,2.2,0.5,3,1.4c0.8,0.9,1.3,1.9,1.7,3C107.7,99.8,108,102.5,108,105.2z M97.7,105.2
	c0-0.6-0.1-1.3-0.1-1.9c-0.1-1.7-0.4-3.4-0.9-5.1c-0.4-1.3-0.9-2.5-1.8-3.6c-0.8-0.9-1.8-1.7-3.1-1.8c0,0.5,0,1-0.1,1.4
	c0,3.5-0.1,7.1-0.1,10.6c0,0.1,0,0.2,0.1,0.4c2.2,0,4.4,0,6.6,0C98.1,105.3,97.9,105.2,97.7,105.2z M129,98.4
	c-0.3-0.9-0.6-1.8-1.2-2.5c-0.4-0.6-0.9-1.1-1.6-1.2c0,0.3-0.1,0.5-0.1,0.8c0,3.6,0,7.2,0,10.8c0,0.2,0,0.4,0,0.6
	c0.9,0.1,1.8,0.2,2.7,0.3c0.4,0,0.9,0,1.3,0.1C130.1,104.1,129.8,101.2,129,98.4z M121.1,96.8c-0.3-0.8-0.7-1.5-1.1-2.2
	c-0.3-0.5-0.8-1-1.4-1.2c0,0.2-0.1,0.5-0.1,0.7c0,3.7,0,7.4,0,11.1c0,0.2,0,0.4,0,0.7c1.3,0.1,2.7,0.2,4,0.3
	C122.4,103,122.2,99.9,121.1,96.8z M74.7,98.3c-0.1-0.4-0.3-0.7-0.4-1.1c-0.5-1.1-1.2-2-2.5-2.3c0,2.3,0,4.7,0,7c0,1.6,0,3.2,0,4.8
	c0,0,0,0.1,0,0.1c0,0,0,0,0,0.1c0,0,0,0,0.1,0.1c1.2-0.2,2.4-0.3,3.7-0.5C75.6,103.7,75.5,101,74.7,98.3z M82.1,97.9
	c-0.3-1-0.7-2-1.4-2.8c-0.4-0.5-0.8-0.9-1.5-0.8c0,0.1,0,0.2,0,0.3c0,3.7,0,7.5,0,11.2c0,0.2,0.1,0.3,0.1,0.5
	c1.3-0.2,2.5-0.3,3.8-0.5C83,103.1,82.8,100.4,82.1,97.9z"/>
<path fill="#060505" d="M85.7,113c-1.7,0.2-3.3,0.3-5,0.5c-2.3,0.3-4.5,0.5-6.8,0.8c-2.3,0.3-4.6,0.5-6.8,0.8c-0.3,0-0.6,0.1-1,0.1
	c0.1-1.4,0.2-2.8,0.4-4.2c0.5,0,0.9-0.1,1.3-0.1c0-0.9,0-1.9,0-2.8c0-6.1,0-12.2-0.1-18.2c0-0.4-0.1-0.8-0.4-1.2
	c-0.7-1-1.4-1.9-2.1-2.9c1-0.4,1.9-0.8,2.9-1.1c-0.8-1.9-1.6-3.8-2.4-5.7c0.6,0,1.1-0.1,1.6-0.1c0.2-1.3,0.3-2.5,0.5-3.8
	c1.2-7.2,4-13.7,8.8-19.2c3.8-4.3,8.6-7.3,14-9.3c0.8-0.3,1.6-0.5,2.5-0.8c-0.3-0.4-0.5-0.7-0.8-1.1c-0.5-0.5-0.6-1.1-0.6-1.8
	c0.3-0.2,0.5-0.4,0.9-0.6c0-0.9,0-1.7,0-2.6c0-0.7,0.6-1.5,1.3-1.8c0-0.2,0-0.4,0-0.6c0-4.6,0-9.2,0-13.8c0-0.5-0.1-1-0.5-1.4
	c-0.3-0.3-0.5-0.7-0.3-1.2c0.3-0.1,0.6-0.2,1-0.4c0-0.6,0-1.2,0-1.8c0.2-0.1,0.3-0.2,0.5-0.3c1.1-0.6,2.2-1.2,3.3-1.8
	c0.8-0.4,1.4-0.9,1.9-1.6c0.7,0,1.3,0,2,0c0.3,0,0.4,0.1,0.6,0.3c0.4,0.6,1,1,1.6,1.3c1.1,0.6,2.2,1.3,3.4,2c0,0.4,0,0.9,0,1.4
	c-1.5-2-3.5-2.9-5.9-3.3c-1.1-0.2-2.1,0.1-3,0.9c0.1,0.2,0.2,0.5,0.4,0.7c-0.3,0.6-1,0.7-1.4,1.2c0.2,0.3,0.4,0.3,0.7,0.3
	c1.1,0,2.2,0.2,3.3,0.1c1.4-0.1,2.8,0.1,4.2,0.4c0.9,0.2,1.8,0.4,2.7,0.6c0.3,0.9-0.5,1.3-0.8,1.9c-1.4-1.1-2.9-1.7-4.6-1.7
	c-0.9,0-1.8,0-2.7,0c-0.4,0-0.9,0.1-1.3,0.3c-0.5,0.2-0.8,0.7-0.8,1.3c0,4.7,0,9.4,0,14.1c0,0.1,0,0.3,0,0.4c1.4,0,2.7,0,4.1,0
	c0-0.3,0-0.5,0-0.7c0-2.1-0.1-4.2-0.1-6.3c-0.1-1.8-0.8-3.1-2.7-3.7c0-0.2,0-0.4-0.1-0.7c1.3,0,2.6,0,3.9,0c0,3.7,0,7.5,0,11.3
	c1,0.2,2,0.4,3,0.7c0-0.2,0-0.4,0-0.6c0-2,0-3.9-0.1-5.9c0-0.7-0.1-1.5-0.3-2.2c-0.2-0.9-0.6-1.4-1.3-2c0-0.2,0-0.5,0-0.9
	c0.8,0.3,1.5,0.6,2.3,0.8c0,3.6,0,7.2,0,10.9c0.8,0,1.4,0.4,1.7,1.2c0.1,0.3,0.2,0.6,0.1,1.1c-0.6-0.9-1.3-1.2-2.2-1.3
	c-0.6-0.1-1.2-0.3-1.8-0.4c-0.5-0.1-0.6,0-0.6,0.4c0,0.9,0,1.8,0,2.7c0.7,0.1,1.4,0.3,2.1,0.4c0.6,0.1,1.2,0.2,1.7,0.3
	c0.5,0.1,0.9,0.4,1.3,0.6c0,0.6,0.1,1.1-0.4,1.5c0-0.2,0-0.4,0-0.6c0-0.4-0.2-0.6-0.6-0.7c-2.8-0.7-5.7-1.3-8.6-0.9
	c-1.2,0.1-2.4,0.2-3.6,0.3c-0.2,0-0.4,0.1-0.6,0.1c-0.9,0.3-1.1,1.4-0.3,1.9c0.5,0.4,1.1,0.6,1.7,0.9c-0.4,0.1-0.8,0.2-1.3,0.3
	c-1.8,0.3-3.4,1-5,1.8c-7.8,3.9-13.1,10-16.2,18c-1.4,3.5-2.2,7.1-2.6,10.8c-0.1,0.7-0.1,1.4-0.2,2.3c0.6-0.1,1.1-0.1,1.7-0.2
	c2.7-0.4,5.4-0.7,8.1-1.1c1-0.1,1.7-0.6,2.2-1.5c0.5-0.8,0.7-1.8,0.8-2.7c0.6-6.6,2.3-12.9,5.5-18.8c1.5-2.8,3.3-5.2,5.6-7.4
	c0.1-0.1,0.2-0.2,0.3-0.2c-3,4.4-4.9,9.2-6.1,14.3c-1.2,5.1-1.5,10.3-1.1,15.6c0.2,0,0.3,0,0.5,0c7,0,14.1,0,21.1-0.1
	c0.5,0,1,0,1.5-0.1c1.1-0.2,1.7-0.9,1.8-1.9c0-0.6,0-1.2,0-1.8c-0.4-5.1-1.2-10.1-2.8-14.9c-1.3-4-3-7.8-5.4-11.2
	c0.2,0.2,0.4,0.3,0.6,0.5c0.2,0.2,0.4,0.4,0.7,0.6c3,2.9,5.2,6.4,6.7,10.3c1.5,3.8,2.4,7.7,2.9,11.7c0.2,2.3,0.3,4.7,0.5,7.1
	c0.7,0.1,1.5,0.3,2.4,0.4c3.3,0.6,6.7,1.1,10,1.7c0.6,0.1,1.1-0.1,1.2-0.7c0.1-0.5,0.2-1,0.1-1.5c-0.3-2.9-0.9-5.8-1.8-8.6
	c-1.9-5.9-5-11.2-8.9-16c-0.1-0.1-0.2-0.2-0.3-0.3c-0.1-0.1-0.1-0.2-0.2-0.3c1.2,0.5,5.1,4.5,7.4,7.8c2,3.1,3.6,6.3,4.7,9.8
	c1.1,3.5,1.6,7.1,1.7,10.7c0.7,0.1,1.3,0.3,2.1,0.4c-0.3,0.5-0.6,0.8-1.2,0.7c-5-0.7-10-1.3-15-1.9c-0.5-0.1-0.9-0.1-1.4-0.2
	c-0.8-0.1-1.4,0.2-1.8,0.9c-0.2,0.4-0.3,0.8-0.4,1.3c-0.1,0.7-0.1,1.4-0.2,2.2c6.8,1.1,13.6,2.2,20.5,3.3c-0.5,1.4-1.1,2.7-1.7,4.1
	c-0.1-0.3-0.1-0.4-0.1-0.6c0-0.2,0-0.4,0-0.6c-0.1-0.8-0.3-1.1-1.1-1.3c-1.5-0.2-3.1-0.4-4.7-0.6c-2.6-0.4-5.3-0.7-7.9-1.1
	c-1.5-0.2-3-0.4-4.5-0.6c-0.2,0-0.5,0-0.7,0c-8.5,0-17,0-25.5,0c-0.8,0-1.1,0.3-1.3,1c0,0.2-0.1,0.4-0.1,0.6
	c-0.1,7.2-0.2,14.4-0.3,21.6c0,0.1,0,0.3,0,0.5c0.2,0,0.4,0,0.6,0c5.8,0,11.6,0,17.5,0.1c2.1,0,4.3,0,6.4,0c0.1,0,0.3,0,0.4,0
	c0.9,0,1.4-0.4,1.4-1.4c0-0.8,0.1-1.7,0.1-2.5c0.2-5.1,0.3-10.1,0.5-15.2c0,0,0.1,0,0.1,0.1c0.1,1.6,0.2,3.2,0.3,4.8
	c0.2,4.6,0.4,9.2,0.6,13.8c0,0.1,0,0.3,0,0.5c6.3,0.6,12.6,1.2,18.9,1.7c0.1,1.3,0.2,2.6,0.4,3.9c-0.2,0-0.4,0-0.5,0
	c-2.5-0.3-5-0.6-7.4-0.9c-2.5-0.3-5-0.6-7.4-0.9c-1.4-0.2-2.8-0.3-4.2-0.5c-0.2,0-0.4,0-0.7,0c-9.1,0-18.3,0-27.4,0
	C86.2,113,86,113,85.7,113z M69.5,110.7c0.2,0,0.3,0,0.4,0c2.5-0.2,5-0.4,7.5-0.6c2.1-0.2,4.2-0.4,6.4-0.5c1.3-0.1,2-0.8,2.2-2
	c0.1-0.6,0.1-1.1,0.1-1.7c-0.1-6.1-0.2-12.2-0.3-18.3c0-0.2,0-0.5-0.1-0.7c-0.2-0.9-0.6-1.2-1.5-1.1c-2.5,0.4-5,0.7-7.6,1.1
	c-1.6,0.2-3.3,0.5-4.9,0.8c-0.6,0.1-1.1,0.5-1.2,1.1c-0.1,0.4-0.2,0.9-0.2,1.3c-0.1,1.9-0.1,3.7-0.2,5.6c-0.2,4.8-0.4,9.6-0.5,14.4
	C69.5,110.2,69.5,110.4,69.5,110.7z M113.5,82.9c0-0.8,0-1.6,0.1-2.4c0-0.9-0.4-1.5-1.2-1.9c-0.6-0.3-1.3-0.4-2-0.4
	c-0.8,0-1.6,0-2.5,0c-6,0-12,0-18,0c-0.9,0-1.5,0.3-1.9,1.1c-0.6,1.1-0.6,2.4-0.6,3.6C96.1,82.9,104.8,82.9,113.5,82.9z M70.2,84.5
	c5.1-0.5,10.2-1.1,15.3-1.6c0-1-0.1-1.9-0.6-2.8c-0.3-0.5-0.8-0.9-1.4-1C82.8,79,82.2,79,81.6,79c-0.9,0.1-1.7,0.2-2.6,0.4
	c-2.2,0.4-4.4,0.7-6.6,1.1c-0.9,0.2-1.5,0.7-1.9,1.5C70.3,82.8,70.1,83.6,70.2,84.5z M103.4,41.4c0-0.9,0-1.7,0-2.6
	c0-0.6-0.1-0.7-0.7-0.7c-1,0-1.9,0-2.9,0c-0.4,0-0.9,0.1-1.3,0.3c-0.5,0.2-0.8,0.6-0.8,1.1c0,0.6,0,1.2,0,1.9
	C99.6,41.4,101.4,41.4,103.4,41.4z M95.1,27.7c0,0.1,0,0.1,0,0.1c0,1.4-0.1,2.9-0.1,4.3c0,1.4-0.1,2.9-0.1,4.3c0,0.4,0,0.7,0.4,0.9
	c0.6,0.4,1.7-0.1,1.7-0.9c0-2.2-0.1-4.5-0.1-6.7c0-0.4-0.2-0.8-0.3-1.2C96.1,28,95.7,27.7,95.1,27.7z M97,41.5
	c0.1-0.9,0.2-1.6,0-2.4c-0.1-0.6-0.3-0.7-0.9-0.6c-0.4,0.1-0.8,0.2-1.2,0.3c-0.5,0.1-0.7,0.4-0.8,0.8c-0.2,0.8-0.2,1.5-0.1,2.3
	C95,41.7,95.9,41.6,97,41.5z M96.9,26c0-1,0-1.9,0-2.9c0-0.1,0-0.1,0-0.2c-0.1-0.5-0.3-0.6-0.8-0.4c-0.4,0.2-0.7,0.6-0.8,1
	c-0.3,1-0.1,2.1-0.2,3.2C95.7,26.5,96.3,26.3,96.9,26z M98.4,104.6c0-4.5,0-9,0-13.4c0-0.2,0-0.4,0-0.5c-2.3,0-4.4,0-6.6,0
	c0,0.8,0,1.5,0,2.2c1.3,0.1,2.2,0.8,3.1,1.8c0.9,1,1.4,2.3,1.8,3.6c0.5,1.7,0.8,3.4,0.9,5.1c0,0.6,0.1,1.2,0.1,1.9
	c0.3,0,0.5,0,0.7,0.1C98.4,105.1,98.4,104.8,98.4,104.6z M108.8,105.3c0-4.9,0-9.8,0-14.6c-2.2,0-4.4,0-6.6,0c0,0.8,0,1.5,0,2.2
	c1.2,0,2.2,0.5,3,1.4c0.8,0.9,1.3,1.9,1.7,3c0.9,2.6,1.1,5.3,1.2,8C108.3,105.2,108.5,105.3,108.8,105.3z M123.1,106.3
	c0-4.8,0-9.5,0-14.3c-1.5-0.2-3-0.4-4.5-0.6c0,0.7,0,1.3,0,2c0.6,0.2,1.1,0.7,1.4,1.2c0.4,0.7,0.9,1.5,1.1,2.2
	c1.1,3,1.3,6.2,1.4,9.4C122.7,106.3,122.9,106.4,123.1,106.3z M130.7,107.2c0-4.7,0-9.3,0-13.9c-1.5-0.2-3-0.4-4.6-0.6
	c0,0.7,0.1,1.3,0.1,1.9c0.7,0.1,1.2,0.7,1.6,1.2c0.6,0.8,0.9,1.6,1.2,2.5c0.9,2.8,1.1,5.8,1.1,8.7
	C130.3,107.1,130.5,107.1,130.7,107.2z M83.8,105.6c0-4.8,0-9.6,0-14.3c-1.6,0.2-3.1,0.4-4.5,0.7c0,0.8,0,1.5,0,2.2
	c0.7-0.1,1.1,0.4,1.5,0.8c0.7,0.8,1.1,1.8,1.4,2.8c0.7,2.6,0.9,5.2,0.9,7.8C83.3,105.7,83.5,105.7,83.8,105.6z M76.4,106.5
	c0-4.7,0-9.2,0-13.9c-1.6,0.3-3.1,0.4-4.6,0.7c0,0.6,0,1.2,0,1.7c1.2,0.3,2,1.2,2.5,2.3c0.2,0.4,0.3,0.7,0.4,1.1
	c0.8,2.7,1,5.4,1,8.2C75.9,106.5,76.1,106.5,76.4,106.5z"/>
</svg>