<svg xmlns="http://www.w3.org/2000/svg" width="200" height="166.67" viewBox="0 0 300 250" opacity="0.5">
	<style type="text/css">
		.st0{opacity:0.5;fill:#74D7E7;}
		.st1{opacity:0.5;}
		.st2{fill:#DFF6F9;}
		.st3{opacity:0.5;fill:#FFFFFF;}
	</style>
	<path class="st0" d="M300,234.32H0v-25h300V234.32z M300,40.68H0v-25h300V40.68z"/>
	<path class="st0" d="M279.61,125L149.5,46.94L19.39,125l62.14,37.28c-0.01,0.24-0.03,0.48-0.03,0.72c0,22.07,30.39,39.96,67.89,40
		l0.11,0.07l0.11-0.07c37.5-0.04,67.89-17.93,67.89-40c0-0.24-0.02-0.48-0.03-0.72L279.61,125z"/>
	<g class="st1">
		<polygon class="st2" points="260.63,116.83 246.8,108.66 232.97,116.83 246.8,125 232.97,133.17 246.79,141.34 260.62,133.17 
			274.45,125 	"/>
		<polygon class="st2" points="67.03,116.83 53.2,108.66 39.38,116.83 25.55,125 39.38,133.17 53.21,141.34 67.04,133.17 53.21,125 	
			"/>
		<path class="st2" d="M205.32,133.17l13.82-8.17l-13.83-8.17l13.83-8.17l-13.83-8.17l13.83-8.17l-13.83-8.17l-13.83,8.17
			l-13.82-8.17l-13.83,8.17L150,84.15l-13.82,8.17l-13.83-8.17l-13.83,8.17l-13.83-8.17l-13.83,8.17l13.83,8.17l-13.83,8.17
			l13.83,8.17L80.86,125l13.83,8.17l-13.82,8.17l13.82,8.17l-13.83,8.17l13.83,8.17l13.83-8.17l13.83,8.17l13.82-8.17l13.83,8.17
			l13.83-8.17l13.83,8.17l13.83-8.17l13.82,8.17l13.83-8.17l-13.82-8.17l13.83-8.17L205.32,133.17z M177.66,149.51l-13.83-8.17
			L150,149.51l-13.83-8.17l-13.83,8.17l-13.83-8.17l13.83-8.17L108.52,125l13.83-8.17l-13.83-8.17l13.83-8.17l13.83,8.17l13.83-8.17
			l13.82,8.17l13.82-8.17l13.83,8.17l-13.82,8.17l13.83,8.17l-13.83,8.17l13.83,8.17L177.66,149.51z"/>
		<polygon class="st2" points="150,67.8 163.83,75.97 177.66,67.8 163.83,59.63 150,51.46 136.17,59.63 122.34,67.8 136.17,75.97 	
			"/>
		<polygon class="st2" points="150.01,182.2 136.18,174.03 122.35,182.2 136.18,190.37 150,198.54 163.83,190.36 177.65,182.2 
			163.83,174.03 	"/>
		<polygon class="st2" points="136.17,125 150,133.17 163.83,125 150,116.83 	"/>
	</g>
	<path class="st3" d="M280.58,125L149.76,46.51l-0.26-0.15L18.42,125l62.6,37.56C81.01,162.71,81,162.85,81,163
		c0,22.28,30.59,40.42,68.25,40.5l0.25,0.15l0.25-0.15C187.41,203.42,218,185.28,218,163c0-0.15-0.01-0.29-0.02-0.44L280.58,125z
		M149.5,47.52L278.64,125L149.5,202.48L20.36,125L149.5,47.52z M82.01,163.15l65.52,39.31C111.31,201.85,82.14,184.47,82.01,163.15z
		M151.48,202.46l65.52-39.31C216.86,184.47,187.69,201.85,151.48,202.46z"/>
	<path class="st3" d="M81.83,162.4c7.5-3.7,68.79-34.13,68.64-39.83c-0.01-0.26-0.12-0.75-0.76-1.03
		c-7.06-3.02-62.22,35.63-68.49,40.05l0.2,0.34l-0.3-0.24c-0.2,0.25-18.91,24.3,4.96,49.57c-0.36,0.49-0.57,1.09-0.57,1.75
		c0,1.66,1.34,3,3,3c0.67,0,1.28-0.22,1.77-0.59l1.23,1.66l4,0.93l11,10c0,0,5,1,8-6s-3.3-11-3.3-11l-13.01,1l-3.69-1l-3.17,1.06
		c-0.4-1.19-1.51-2.06-2.83-2.06c-0.64,0-1.23,0.2-1.72,0.55C64.24,186.66,80.65,163.95,81.83,162.4z M148.52,122.33
		c0.31,0,0.57,0.04,0.78,0.13c0.16,0.07,0.16,0.11,0.16,0.13c0.09,3.55-35.84,22.78-62.13,35.95
		C106.12,145.55,141.25,122.33,148.52,122.33z"/>
	</svg>
