<svg xmlns="http://www.w3.org/2000/svg" width="200" height="200" viewBox="0 0 200 200">
    <path fill="#FFFFFF" d="M29.2,149.4c-2.8,0-5.4,0-8.3,0c1.6-3.9,3.2-7.7,4.7-11.4c0.7,0,1.4,0,1.8,0c2.3,5.5,4.6,10.8,6.9,16.2
		c0.9,2.2,2.6,3.1,4.7,3.1c1.2,0,2.5-0.1,3.7-0.4c1.5-0.4,2.4-1.5,2.6-3.1c0.2-1.5-0.3-2.9-1.7-3.7c-0.7-0.5-1.6-0.8-2.4-1.1
		c-1.3-0.5-2.7-1-4-1.6c-1.9-0.9-2.9-2.4-2.8-4.6c0.1-2.2,1.1-3.7,3.1-4.6c2.1-1,4.3-0.7,6.5-0.5c0.8,0.1,1.7,0.2,2.5,0.2
		c5.4,0,10.9,0,16.4,0c0,1.7,0,3.4,0,5.1c-0.4,0-0.8,0-1.2,0c-0.1-0.1-0.2-0.2-0.2-0.3c0-0.5,0-1-0.1-1.4c-0.2-1.3-0.7-1.9-2-2.1
		c-1.2-0.1-2.4,0-3.7,0c0,5.8,0,11.6,0,17.6c1,0.3,2,0.5,2.9,0.7c0,0.2-0.1,0.3-0.1,0.5c-2.8,0-5.6,0-8.4,0c0-0.3,0-0.3,2.7-1.4
		c0.1-5.7,0-11.5,0-17.5c-1.2,0-2.2-0.1-3.3,0c-1.9,0.1-2.4,0.7-2.6,2.5c0,0.4-0.1,0.8-0.1,1.4c-0.5,0-0.9,0-1.4,0
		c0-0.4-0.1-0.8-0.1-1.1c0-2.3-1.6-3.5-4.9-3.2c-2.4,0.2-3.6,1.7-3.4,3.9c0.1,1.4,0.9,2.3,2.2,2.8c1,0.4,2.1,0.7,3.2,1.2
		c0.9,0.4,1.9,0.7,2.8,1.2c2.1,1.1,3,3,2.7,5.4c-0.2,2.3-1.4,3.7-3.5,4.5c-1.9,0.7-3.9,0.7-5.8,0.7c-2.7-0.1-5.5-0.2-8.2-0.3
		c-0.4,0-0.9-0.1-1.3-0.1c0-0.1-0.1-0.3-0.1-0.4c0.4-0.2,0.8-0.4,1.2-0.5c1.5-0.4,1.7-0.7,1.2-2.1C30.7,153,30,151.3,29.2,149.4z
		 M22.8,148.2c2,0,3.9,0,6,0c-1-2.5-1.9-4.9-3-7.6C24.8,143.3,23.8,145.7,22.8,148.2z M168.9,138c0.8,0,1.4,0,2,0
		c2,5.1,3.9,10.3,5.9,15.4c0.3,0.8,0.6,1.6,1,2.3c0.4,0.5,1,1.1,1.6,1.3c1.5,0.5,2.3-0.1,2.3-1.7c0-3.4,0-6.8,0-10.2
		c0-1.4,0-2.9,0-4.3c0-1.4-0.3-1.6-1.7-1.8c-0.6-0.1-1.3,0.1-1.1-1c2.7,0,5.4,0,8.1,0c0.3,1.1-0.5,0.9-1,1c-1.4,0.2-1.7,0.4-1.7,1.8
		c0,5.3,0,10.5,0,16c2.4,0,4.7,0.2,7-0.2c1.1-0.2,1.3-1.1,1.5-2c0.2-0.7,0.2-1.5,0.3-2.3c0.5,0,1,0,1.5,0c0,1.9,0,3.7,0,5.7
		c-7.4,0-14.9,0-22.3,0c0-0.1-0.1-0.2-0.1-0.3c0.4-0.2,0.7-0.4,1.1-0.5c1.5-0.4,1.7-0.7,1.2-2.1c-0.6-1.7-1.3-3.4-2.1-5.3
		c-2.7,0-5.4,0-8.4,0C165.7,145.6,167.3,141.8,168.9,138z M169.1,140.7c-1.1,2.7-2,5.1-3,7.6c2.1,0,3.9,0,5.9,0
		C171.1,145.8,170.1,143.4,169.1,140.7z M164.5,152.3c-0.7,2-1.4,3.8-2,5.6c-1.4,0-2.8,0-4.3,0c-1.4-2.1-2.8-4.2-4.2-6.4
		c-0.6-0.8-1.2-1.6-1.8-2.5c-0.7-1-1.6-1.3-2.9-1c0,2.8,0,5.7,0,8.2c0.8,1,2.2,0.1,2.7,1.5c-1.8,0-3.5,0-5.3,0c0-6.6,0-13.2,0-19.9
		c3.2,0,6.3-0.1,9.4,0c2.3,0.1,3.2,1.2,3.5,3.4c0.4,2.6-0.5,4.5-2.4,5.4c-0.7,0.3-1.6,0.5-2.6,0.9c2.1,2.9,4.1,5.8,6.3,9
		c0.7-1.7,1.3-3,1.9-4.4C163.4,152.3,163.9,152.3,164.5,152.3z M149.3,147.1c1.6-0.1,3.1-0.1,4.5-0.3c1.9-0.3,2.8-1.4,2.9-3.3
		c0-0.7,0-1.3,0-2c-0.2-1.2-0.8-2.1-2.1-2.4c-1.8-0.4-3.5-0.2-5.3-0.1C149.3,141.8,149.3,144.3,149.3,147.1z M19.3,158
		c0.7-1.9,1.3-3.7,2-5.7c-0.7,0-1.1,0-1.6,0c-0.6,1.2-1,2.3-1.7,3.4c-0.3,0.5-1.1,1.1-1.6,1.1c-2.7,0.1-5.5,0.1-8.2,0.1
		c0-3,0-5.9,0-8.9c1.7,0.1,3.2,0.3,4.7,0.4c0.2,1.1,0.4,1.9,0.5,2.7c0.4,0,0.8,0,1.1,0c0-2.4,0-4.6,0-7c-0.4,0-0.8,0.1-1.2,0.1
		c0,0.4-0.1,0.7-0.1,0.9c-0.3,1.6-0.5,1.9-2.2,1.9c-1,0-2,0-3,0c0-2.8,0-5.3,0-8c0.7,0,1.4,0,2,0c1.5,0,3,0,4.5,0.1
		c1.6,0.1,2,0.6,2.3,2.2c0.1,0.6,0.2,1.1,0.3,1.7c0.5,0,0.9-0.1,1.3-0.1c0-1.7,0-3.4,0-5c-4.4,0-8.8,0-13.1,0c0,6.7,0,13.3,0,20.1
		C10,158,14.6,158,19.3,158z M111.9,157.3c-0.2-0.1-0.4-0.2-0.7-0.2c-1.9-0.4-1.9-0.4-1.9-2.3c0-2,0-3.9,0-5.9c0-2.4,0-4.8,0-7.2
		c0.1,0,0.2-0.1,0.3-0.1c4.2,5.5,8.3,11,12.5,16.4c0.7,0,1.3,0,1.9,0c0-6.7,0-13.3,0-20c-1.2,0-2.3,0-3.4,0c-0.7,0-0.7,0.4-0.4,0.9
		c2.4,0.2,2.5,0.3,2.5,2.7c0,3.7,0,7.4,0,11.1c0,0.4-0.1,0.9-0.1,1.6c-4.2-5.6-8.2-11-12.2-16.3c-0.8,0-1.5,0-2.3,0
		c0,6.7,0,13.3,0,19.9c1.4,0,2.7,0,4.1,0C111.9,157.5,111.9,157.3,111.9,157.3z M91.8,157.9c4.3,0,8.6,0,12.9,0c0-2,0-3.8,0-5.7
		c-0.5,0-1,0-1.4,0c-0.1,0.8-0.2,1.5-0.4,2.2c-0.3,1.7-0.8,2.2-2.4,2.3c-1.9,0.1-3.9,0-5.9,0c0-3,0-5.8,0-8.8
		c1.7,0.1,3.2,0.2,4.7,0.4c0.2,1,0.4,1.8,0.5,2.7c0.4,0,0.8-0.1,1.2-0.1c0-2.4,0-4.6,0-7c-0.5,0.1-0.9,0.1-1.2,0.1
		c-0.2,2.6-0.4,2.8-2.9,2.9c-0.8,0-1.5,0-2.3,0c0-2.8,0-5.3,0-8c2.2,0,4.4-0.1,6.5,0c1.5,0.1,1.8,0.5,2.1,2c0.1,0.6,0.2,1.3,0.3,2
		c0.5-0.1,1-0.1,1.3-0.2c0-1.7,0-3.3,0-4.9c-4.3,0-8.5,0-12.8,0C91.8,144.7,91.8,151.3,91.8,157.9z M77.4,137.8
		c-4,0.8-6.3,2.9-6.7,7c-0.3,2.4-0.1,4.9,0.2,7.3c0.5,3.3,2.6,5.5,6,5.9c1.8,0.2,3.6,0.3,5.3,0.2c1.8-0.1,3.7-0.2,5.4-1.1
		c0-0.9,0-1.7,0-2.5c0-0.8,0-1.6,0-2.5c-0.7,0-1.1,0-1.6,0c-0.1,0.3-0.1,0.5-0.2,0.7c-0.4,3.6-1.2,4.6-5.6,4.5c-0.2,0-0.4,0-0.5,0
		c-2.8-0.2-4.8-1.6-5.6-4.2c-0.9-3.1-1-6.2-0.3-9.4c0.5-2.1,1.6-3.8,3.7-4.5c1.3-0.4,2.7-0.5,4-0.5c2.9,0.1,3.9,1,4.3,3.9
		c0,0.2,0.1,0.4,0.1,0.8c0.6-0.1,1.1-0.1,1.5-0.1c0-1.6,0-3,0-4.5C84.3,137.5,80.9,137.1,77.4,137.8z M135.5,158
		c1.4,0,2.8,0.2,4.1-0.2c0-0.2,0-0.3,0.1-0.5c-0.8-0.2-1.7-0.4-2.8-0.6c-0.4-5.8-0.1-11.7-0.2-17.6c1,0,1.8,0,2.6,0
		c2.3,0.1,2.6,0.4,3.1,2.6c0.1,0.5,0.2,0.9,0.4,1.3c0.5,0,0.9,0,1.3,0c0-1.7,0-3.4,0-5c-5.9,0-11.6,0-17.4,0c0,1.7,0,3.3,0,4.9
		c0.5,0,1,0,1.4,0c1-4,1.3-4.2,5.4-3.9c0.2,0,0.3,0.1,0.5,0.1c0.4,3.5,0.2,16.1-0.2,17.4c-0.7,0.9-2,0-2.8,1.4
		C132.7,158,134.1,158,135.5,158z M11.3,170.8C11,172,10.1,173,8.4,173c-2.2,0-3.4-1.8-3.4-4c0-2.1,1.2-4,3.4-4
		c1.7,0,2.7,0.9,2.9,2.2h-0.6c-0.4-1-1-1.7-2.4-1.7c-1.9,0-2.8,1.8-2.8,3.5c0,1.7,0.8,3.4,2.8,3.4c1.3,0,1.9-0.7,2.3-1.6H11.3z
		 M24.1,168.9c0,2.1-1.1,4.1-3.5,4.1c-2.2,0-3.5-1.8-3.5-4c0-2.2,1.2-4,3.6-4C22.8,165,24.1,166.7,24.1,168.9z M17.7,168.9
		c0,1.8,1,3.5,2.9,3.5c2,0,2.9-1.6,2.9-3.5c0-1.8-1-3.4-2.8-3.4C18.6,165.5,17.7,167.2,17.7,168.9z M37.1,169.3c0-1.5,0-3,0-3.8h0
		c-0.3,1-1.9,4.9-2.9,7.3h-0.6c-0.7-1.9-2.4-6.2-2.7-7.4h0c0.1,0.9,0.1,2.7,0.1,4v3.3h-0.6v-7.8h0.9c1.1,2.7,2.4,6.2,2.7,7h0
		c0.2-0.6,1.7-4.5,2.8-7h0.9v7.8h-0.6V169.3z M51.2,169.3c0-1.5,0-3,0-3.8h0c-0.3,1-1.9,4.9-2.9,7.3h-0.6c-0.7-1.9-2.4-6.2-2.7-7.4
		h0c0.1,0.9,0.1,2.7,0.1,4v3.3h-0.6v-7.8h0.9c1.1,2.7,2.4,6.2,2.7,7h0c0.2-0.6,1.7-4.5,2.8-7h0.9v7.8h-0.6V169.3z M59.2,165.1v4.7
		c0,2.1,1.2,2.6,2.3,2.6c1.3,0,2.3-0.5,2.3-2.6v-4.7h0.6v4.7c0,2.4-1.3,3.2-2.9,3.2c-1.5,0-2.9-0.8-2.9-3.1v-4.8H59.2z M71,172.9
		v-7.8h0.9c1.2,1.9,4.1,6.2,4.6,7.1h0c-0.1-1.1-0.1-2.3-0.1-3.5v-3.5h0.6v7.8h-0.8c-1.2-1.8-4.1-6.3-4.6-7.2h0c0.1,1,0,2.2,0,3.6
		v3.6H71z M84.5,165.1v7.8h-0.6v-7.8H84.5z M92.8,165.6h-2.6v-0.6h5.9v0.6h-2.6v7.2h-0.6V165.6z M104.2,172.9v-2.9
		c0-0.1,0-0.1,0-0.2l-2.8-4.7h0.7c0.8,1.3,2.1,3.6,2.5,4.2c0.3-0.6,1.7-2.9,2.5-4.2h0.7l-2.9,4.7c0,0,0,0.1,0,0.2v2.9H104.2z
		 M126.6,170.8c-0.4,1.2-1.3,2.2-2.9,2.2c-2.2,0-3.4-1.8-3.4-4c0-2.1,1.2-4,3.4-4c1.7,0,2.7,0.9,2.9,2.2H126c-0.4-1-1-1.7-2.4-1.7
		c-1.9,0-2.8,1.8-2.8,3.5c0,1.7,0.8,3.4,2.8,3.4c1.3,0,1.9-0.7,2.3-1.6H126.6z M139.3,168.9c0,2.1-1.1,4.1-3.5,4.1
		c-2.2,0-3.5-1.8-3.5-4c0-2.2,1.2-4,3.6-4C138,165,139.3,166.7,139.3,168.9z M133,168.9c0,1.8,1,3.5,2.9,3.5c2,0,2.9-1.6,2.9-3.5
		c0-1.8-1-3.4-2.8-3.4C133.8,165.5,133,167.2,133,168.9z M145.6,165.1h0.6v7.2h4.2l-0.1,0.6h-4.7V165.1z M156.1,165.1h0.6v7.2h4.2
		l-0.1,0.6h-4.7V165.1z M171.1,169h-4v3.3h4.4l-0.1,0.6h-4.9v-7.8h4.8v0.6h-4.2v2.9h4V169z M183.5,172.9H183c0-0.1-0.1-0.5-0.1-1.2
		c-0.3,0.5-0.9,1.3-2.5,1.3c-2.2,0-3.4-1.7-3.4-3.9c0-2.3,1.2-4.1,3.5-4.1c1.7,0,2.8,0.9,3,2.3H183c-0.3-1.1-1.1-1.8-2.5-1.8
		c-1.9,0-2.8,1.5-2.8,3.5c0,1.8,0.9,3.4,2.8,3.4c1.9,0,2.5-1.3,2.5-3v-0.1h-2.5v-0.6h3.1V172.9z M194.6,169h-4v3.3h4.4l-0.1,0.6H190
		v-7.8h4.8v0.6h-4.2v2.9h4V169z"/>
	<path fill="#CCBA7F" d="M100.8,27c3.9,1.7,7.8,3.3,11.7,5c4.8,2.1,9.7,4.2,14.5,6.6c5.8,2.8,9.4,7.3,9.9,13.9c0,0.2,0.1,0.4,0.2,0.7
		c1.4,0.1,2.9,0.2,4.4,0.3c0,2.3,0,4.3,0,6.5c-0.6,0.2-1.1,0.3-1.9,0.5c0,0.7-0.1,1.4-0.1,2.1c0,18.2,0,36.5,0,54.7
		c0,0.8-0.1,1.6-0.1,2.4c-0.7,0.1-1.2,0.2-1.6,0.2c-3.8,0-7.6,0-11.4,0c-1.1,0-1.7-0.4-2.3-1.3c-4.3-6.4-8.7-12.7-13-19
		c-0.5-0.8-1.1-1-2-1c-6,0-12.1,0-18.1,0c-0.9,0-1.4,0.3-2,1.1c-4.3,6.3-8.6,12.6-12.9,18.9c-0.6,0.9-1.3,1.4-2.4,1.4
		c-3.7-0.1-7.4,0-11.1,0c-0.5,0-1-0.1-1.8-0.1c0-19.8,0-39.5,0-59.3c-0.9-0.2-1.5-0.3-2.3-0.5c0-2.1,0-4.2,0-6.6
		c1.4-0.1,2.7-0.2,4.2-0.3c0.1-0.6,0.3-1.2,0.4-1.7c0.7-6.2,4.3-10.4,9.7-12.9c7.2-3.4,14.5-6.4,21.8-9.6c1.6-0.7,3.1-1.4,4.6-2.1
		C99.6,27,100.2,27,100.8,27z M126.3,53.2c-0.1-0.8-0.1-1.4-0.3-2c-0.6-2.1-2-3.4-3.9-4.3c-7-3.1-14-6.3-21.1-9.3
		c-0.6-0.3-1.6-0.3-2.2,0c-3,1.2-5.9,2.5-8.8,3.8c-4.3,1.9-8.5,3.7-12.8,5.6c-2.5,1.2-4,3.1-4.1,6.2c1.5,0.1,2.8,0.2,4.2,0.3
		c0,2.3,0,4.4,0,6.6c-0.8,0.2-1.4,0.3-2.1,0.4c0,19,0,37.9,0,57c0.7-1.1,1.3-1.9,1.9-2.7c1.2-1.4,1.6-3,1.5-4.8
		c-0.1-13.8,0-27.7,0-41.5c0-13.2,11.6-23.2,24.7-21.2c10.1,1.6,17.8,10.4,17.9,20.6c0.1,14.3,0.1,28.7,0,43c0,2.7,2.1,4.1,3.4,6.4
		c0-19.2,0-38.1,0-56.9c-0.8-0.2-1.4-0.3-2.1-0.4c0-2.2,0-4.3,0-6.6C123.8,53.4,124.9,53.3,126.3,53.2z M73.1,118
		c0-19.3,0-38.4,0-57.5c-3.6,0-7,0-10.4,0c0,19.2,0,38.3,0,57.5C66.2,118,69.5,118,73.1,118z M137.2,118c0-19.3,0-38.4,0-57.5
		c-3.6,0-7,0-10.4,0c0,19.3,0,38.3,0,57.5C130.4,118,133.7,118,137.2,118z M115.4,103.9c0.1-0.6,0.1-0.9,0.1-1.1
		c-0.1-11.1-0.1-22.3-0.3-33.4c-0.1-4.9-1.7-9.2-5.7-12.3c-4.4-3.5-9.4-4.4-14.7-2.5c-5.5,2-9,6.1-9.8,11.9
		c-0.6,4.2-0.6,8.5-0.6,12.7c-0.1,6-0.1,12.1,0,18.1c0,2,0.2,4,0.4,6.4c1.4-2,2.6-3.7,3.7-5.5c0.3-0.5,0.3-1.2,0.3-1.7c0-4,0-8,0-12
		c0.1-4.9,0-9.9,0.3-14.8c0.5-7,7.9-11.5,14.5-9.1c4.6,1.7,7.3,5.8,7.4,11.3c0.1,8.1,0,16.3,0.1,24.4c0,0.7,0,1.5,0.4,2
		C112.6,100,113.9,101.8,115.4,103.9z M70.9,53.2c0.1-0.3,0.2-0.5,0.3-0.7c0.6-4,3-6.4,6.7-7.9c7.1-3,14.1-6.1,21.2-9.2
		c0.6-0.3,1.5-0.3,2.1,0c7.5,3.3,15.1,6.7,22.5,10.2c2.5,1.2,4.1,3.3,4.5,6.1c0.1,0.5,0.3,1,0.5,1.5c2.1,0,4.1,0,6.2,0
		c0.1-2.5-0.5-4.7-1.7-6.7c-1.9-3.2-4.8-5.4-8.1-6.8c-7.9-3.5-15.9-6.9-23.8-10.3c-1-0.4-1.8-0.4-2.7,0c-5.9,2.5-11.8,4.9-17.7,7.5
		c-3.6,1.6-7.3,3.3-10.6,5.5c-3.7,2.4-5.6,6.1-5.5,10.8C66.8,53.2,68.8,53.2,70.9,53.2z M119.7,110.2c0.1,0,0.2,0,0.3-0.1
		c0-0.3,0.1-0.6,0.1-0.9c0-12.4,0-24.9,0-37.3c0-2.3-0.1-4.7-0.5-7c-1.5-7.8-6.1-13.1-13.6-15.4c-7.5-2.4-14.2-0.5-19.9,4.9
		c-4.5,4.3-6,9.8-6,15.8c0,13,0,26,0,38.9c0,0.4,0.1,0.7,0.1,1.2c2.2-2.3,3.2-4.7,3.1-7.9c-0.1-11.6,0.1-23.2,0.3-34.7
		c0.1-4.2,1.8-7.8,4.9-10.7c4.7-4.4,10.2-5.9,16.5-4c6.1,1.9,10,6.2,11.3,12.4c0.5,2.6,0.6,5.3,0.6,7.9c0.1,10.3,0,20.7,0,31
		c0,0.7,0.1,1.6,0.4,2.2C117.9,107.8,118.8,108.9,119.7,110.2z M94.3,97.3c0-4.9,0-9.6,0-14.4c-1.6,0-3,0-4.4,0c0,4.9,0,9.5,0,14.4
		C91.5,97.3,92.8,97.3,94.3,97.3z M100.5,82.9c0,4.9,0,9.6,0,14.4c1.5,0,2.9,0,4.4,0c0-4.9,0-9.6,0-14.4
		C103.3,82.9,102,82.9,100.5,82.9z M105.8,82.9c0,4.9,0,9.6,0,14.4c1.5,0,2.8,0,4.1,0c0-4.9,0-9.6,0-14.4
		C108.5,82.9,107.2,82.9,105.8,82.9z M95,97.3c1.4,0,2.7,0,4.1,0c0-4.9,0-9.6,0-14.3c-1.5,0-2.7,0-4.1,0C95,87.8,95,92.4,95,97.3z
		 M124.4,58.3c5.3,0,10.4,0,15.5,0c0-1.1,0-2,0-3c-5.2,0-10.3,0-15.5,0C124.4,56.4,124.4,57.2,124.4,58.3z M60.2,55.3c0,1.1,0,2,0,3
		c5.2,0,10.2,0,15.3,0c0-1.1,0-2,0-3C70.4,55.3,65.4,55.3,60.2,55.3z M94.4,76.9c-1.7,0-3.2,0-4.7,0c0,1.7,0,3.2,0,4.7
		c1.7,0,3.2,0,4.7,0C94.4,80,94.4,78.5,94.4,76.9z M89.9,75.7c1.6,0,3,0,4.5,0c0-1.7,0-3.2,0-4.8c-1.5,0-2.9,0-4.5,0
		C89.9,72.6,89.9,74,89.9,75.7z M99.5,75.8c0-1.7,0-3.2,0-4.8c-1.6,0-3,0-4.4,0c0,1.7,0,3.2,0,4.8C96.6,75.8,97.9,75.8,99.5,75.8z
		 M104.8,75.7c0-1.7,0-3.3,0-4.8c-1.6,0-3,0-4.4,0c0,1.7,0,3.2,0,4.8C102,75.7,103.3,75.7,104.8,75.7z M99.5,76.9c-1.6,0-3,0-4.4,0
		c0,1.7,0,3.2,0,4.8c1.5,0,2.9,0,4.4,0C99.5,80.1,99.5,78.6,99.5,76.9z M100.4,76.9c0,1.8,0,3.3,0,4.8c1.6,0,3,0,4.4,0
		c0-1.7,0-3.2,0-4.8C103.3,76.9,101.9,76.9,100.4,76.9z M105.7,81.7c1.6,0,3,0,4.5,0c0-1.7,0-3.2,0-4.7c-1.6,0-3,0-4.5,0
		C105.7,78.6,105.7,80,105.7,81.7z M89.9,70c1.5,0,2.9,0,4.3,0c0.5-1.2,0.9-2.2,1.3-3.3c-1-0.9-1.9-1.8-2.9-2.8
		C91,65.7,90.1,67.6,89.9,70z M105.8,70.9c0,1.7,0,3.2,0,4.8c1.6,0,3,0,4.5,0c-0.1-1.7-0.2-3.2-0.3-4.8
		C108.5,70.9,107.2,70.9,105.8,70.9z M109.8,70c0-2.5-1-4.3-2.5-6c-1,0.9-1.9,1.8-2.9,2.7c0.5,1.1,1,2.2,1.4,3.3
		C107.1,70,108.3,70,109.8,70z M99.5,60.8c-2.5,0-4.5,1-6.4,2.6c1.1,1,2.1,1.8,2.9,2.6c1.3-0.6,2.4-1.1,3.5-1.6
		C99.5,63.2,99.5,62.1,99.5,60.8z M100.4,60.8c0,1.3,0,2.5,0,3.5c1.2,0.6,2.3,1.1,3.4,1.7c0.9-0.8,1.9-1.7,2.9-2.6
		C104.9,61.8,102.9,60.9,100.4,60.8z M103.4,66.7c-1.1-0.5-1.9-0.9-3-1.4c0,1.6,0,2.8,0,4.3C101.4,68.5,102.2,67.7,103.4,66.7z
		 M99.4,69.3c0-1.4,0-2.6,0-4.2c-1.1,0.6-1.9,1-2.8,1.5C97.7,67.6,98.5,68.4,99.4,69.3z M103.9,67.5c-1,0.9-1.9,1.6-2.7,2.4
		c1.2,0,2.3,0,3.7,0C104.5,68.9,104.2,68.2,103.9,67.5z M95,70c1.5,0,2.6,0,3.3,0c-0.6-0.8-1.3-1.7-2.1-2.8
		C95.7,68.2,95.4,68.9,95,70z"/>
</svg>