<svg xmlns="http://www.w3.org/2000/svg" width="200" height="200" viewBox="0 0 200 200">
<path fill="#FFFFFF" d="M36.9,70.4c0.9,0.1,1.7,0.3,2.6,0.5c0.4,0.1,1,0.2,1.3,0.5c0.3,0.3,0.2,0.8,0.3,1.2c0.3,1.9,0.6,3.7,0.8,5.6
	c0,0.2,0,0.3,0,0.5c-0.6,0.1-1.2,0.3-1.8,0.4c-0.3-0.9-0.6-1.7-0.9-2.5c-0.2-0.6-0.5-1.2-0.8-1.7c-0.9-1.6-2.2-2.4-4.1-2.3
	C32.5,72.8,31,73.4,30,75c-1,1.5-1.1,4,0.4,5.6c0.8,0.8,1.7,1.5,2.6,2.1c1.9,1.1,3.8,2.2,5.7,3.3c2.2,1.3,4.4,2.6,6.3,4.2
	c0.7,0.6,1.3,1.3,2,1.9c0-0.1,0-0.3,0-0.4c0-4.8,0-9.6,0-14.5c0-0.7-0.1-1.4-0.2-2.1c-0.2-0.9-0.7-1.5-1.6-1.7
	c-0.9-0.2-1.8-0.3-2.8-0.5c0-0.5,0-1.1,0-1.7c5.5,0,11,0,16.6,0c0,0.6,0,1.2,0,1.7c-0.8,0.1-1.7,0.3-2.5,0.4c-1,0.2-1.7,0.8-1.8,1.9
	c-0.1,0.8-0.2,1.6-0.2,2.4c0,4.9,0,9.8,0,14.7c0,2.1,0.3,4.2,1,6.2c0.8,2,2,3.7,4.1,4.6c1.4,0.7,2.9,0.8,4.5,0.7
	c1.4-0.1,2.7-0.3,3.9-1c1.8-0.9,2.9-2.4,3.6-4.2c0.6-1.6,1-3.2,1.1-4.9c0.1-4.4,0.1-8.8,0.1-13.2c0-1.6-0.3-3.2-0.5-4.7
	c-0.2-1.1-0.9-1.8-1.9-2.2c-0.9-0.4-1.9-0.5-2.9-0.6c-0.1,0-0.3,0-0.5,0c0-0.6,0-1.2,0-1.8c4.6,0,9.2,0,13.8,0c0,0.6,0,1.2,0,1.8
	c-0.6,0.1-1.2,0.2-1.8,0.3c-0.3,0.1-0.6,0.2-0.9,0.3c-1.2,0.5-1.8,1.3-2,2.6c-0.3,2.1-0.5,4.2-0.5,6.3c0,2.9,0,5.8,0,8.6
	c0,2-0.1,3.9-0.5,5.9c-0.7,3.6-2.4,6.5-5.6,8.4c-1.9,1.1-3.9,1.7-6,2c-2.8,0.3-5.6,0.1-8.4-0.8c-1.4-0.5-2.8-1.1-3.9-2.1
	c-0.1,0-0.1-0.1-0.2-0.2c-0.1,0.4-0.1,0.8-0.2,1.1c-0.7,3.1-2.5,5.5-5.1,7.4c-2.8,2.1-6,3.4-9.5,3.9c-4.2,0.6-8.2-0.1-12-2
	c-1.5-0.8-2.9-1.8-4.2-3c0,0.2,0,0.4,0,0.6c0,2.1-0.1,4.1-0.6,6.2c-0.8,3.4-2.7,6-5.4,8.1c-2.1,1.6-4.4,2.6-6.9,3.1
	c-0.1,0-0.2,0.1-0.3,0.1c-0.3,0-0.6,0-0.9,0c-0.3-0.5-0.6-1-0.9-1.6c0,0,0-0.1,0-0.1c0.9-0.3,1.7-0.6,2.6-1c2.1-1,3.5-2.7,4-5
	c0.2-1,0.4-2.1,0.5-3.2c0.2-2.4,0.3-4.7,0.3-7.1c0-11.2,0-22.4,0-33.6c0-1-0.1-1.9-0.3-2.9c-0.1-0.8-0.7-1.3-1.4-1.5
	c-0.5-0.2-1.1-0.3-1.6-0.4c-0.5-0.1-1.1-0.1-1.6-0.2c0-0.7,0-1.3,0-1.8c5.7,0,11.4,0,17.1,0c0,0.6,0,1.2,0,1.9c-0.2,0-0.4,0-0.6,0.1
	c-0.7,0.1-1.3,0.2-2,0.3c-1,0.2-1.6,0.9-1.7,1.9c-0.1,0.9-0.2,1.8-0.2,2.8c0,8.5,0,17.1,0,25.6c0,0.6,0.1,1.2,0.2,1.8
	c0.8,3.2,2.7,5.6,5.8,6.8c1.4,0.6,2.9,0.9,4.5,1c2.4,0.2,4.8,0,7.1-0.7c2.9-1,4.9-2.8,5.7-5.8c0.5-1.9,0.4-3.9,0-5.9
	c-0.3-1.1-0.6-2.3-1.4-3.2c-0.8-0.9-1.7-1.8-2.6-2.6c-2.2-1.9-4.9-3.2-7.5-4.5c-1.9-1-3.8-1.9-5.5-3.3c-1.2-1-2.2-2.1-2.9-3.5
	c-1.4-3-0.8-6.9,1.6-9.5c1.8-1.9,4-3,6.6-3.5c0.8-0.2,1.7-0.3,2.5-0.5C35.1,70.4,36,70.4,36.9,70.4z M195,71c-1.1,0-2.2,0-3.3,0
	c-0.4,0-0.8,0-1.2,0c-0.1,0-0.3,0.1-0.4,0.1c0,0.1,0,0.1,0,0.2c0.2,0,0.5,0.1,0.7,0.1c0.7,0,1,0.3,1.1,1c0,0.2,0,0.3,0,0.5
	c0,2.1,0.1,4.1,0.1,6.2c0,0.8,0,1.5,0,2.3c-0.2-0.2-0.3-0.3-0.4-0.4c-3.2-3.3-6.4-6.7-9.7-10c-0.2-0.2-0.4-0.2-0.6-0.3
	c-0.1,0.2-0.1,0.4-0.2,0.7c0,0,0,0,0,0.1c0,2.8-0.1,5.7-0.1,8.5c0,1.3,0,2.5-0.1,3.8c-0.1,0.9-0.2,1-1.1,1c-0.2,0-0.3,0.1-0.5,0.1
	c0,0.1,0,0.1,0,0.2c0.2,0,0.4,0.1,0.6,0.1c1.1,0,2.2,0,3.3,0c0.3,0,0.6,0,0.8,0c0.1,0,0.3-0.1,0.4-0.2c0-0.1,0-0.1,0-0.2
	c-0.2,0-0.4-0.1-0.6-0.1c-0.8,0-1-0.3-1.2-1.1c-0.1-0.5-0.1-0.9-0.1-1.4c-0.1-2.2-0.1-4.5-0.2-6.7c0-0.2,0-0.5,0-0.8
	c0.1,0.1,0.2,0.2,0.3,0.2c2.9,3,5.8,6,8.8,9c0.3,0.3,0.6,0.7,1,1c0.2,0.2,0.4,0.2,0.7,0.3c0.1-0.2,0.2-0.4,0.2-0.7
	c0.1-3.9,0.1-7.8,0.2-11.6c0-0.3,0-0.6,0.1-0.9c0.1-0.5,0.3-0.7,0.8-0.7c0.2,0,0.3,0,0.5,0C195,71.3,195,71.1,195,71z M166.9,70.9
	c-1.9,0.3-3.5,1.2-4.6,2.7c-1.2,1.6-1.6,3.4-1.4,5.4c0.3,2.4,1.4,4.3,3.5,5.5c1.7,0.9,3.5,1.1,5.4,0.8c2.5-0.4,4.3-1.7,5.5-4
	c0.7-1.4,0.9-3,0.7-4.5c-0.2-2.1-1.2-3.9-3.1-5c-1.4-0.8-2.8-1.1-4.4-1.1C168,70.8,167.4,70.8,166.9,70.9z M173.1,81.1
	c-0.7,2.9-3.3,3.9-5.9,2.9c-1.7-0.6-2.8-2-3.3-3.7c-0.6-1.7-0.6-3.5-0.2-5.3c0.9-3.8,4.7-4,6.8-2.8c1.4,0.9,2.3,2.2,2.6,3.8
	c0.2,0.8,0.2,1.6,0.3,2.4C173.4,79.4,173.3,80.3,173.1,81.1z M133.5,71.4c0.7,0.1,1,0.3,1.1,1c0,0.3,0.1,0.6,0.1,0.9
	c0,2.6,0,5.2,0,7.9c0,0.8-0.1,1.7-0.1,2.5c-0.1,0.8-0.2,1-1,1.1c-0.2,0-0.3,0.1-0.4,0.1c0,0.1,0,0.1,0,0.2c0.2,0,0.4,0.1,0.6,0.1
	c1.2,0,2.3,0,3.5,0c0.4,0,0.8,0,1.2,0c0.2,0,0.3-0.1,0.5-0.2c0-0.1,0-0.1,0-0.2c-0.3,0-0.6-0.1-0.8-0.1c-0.6,0-0.8-0.2-0.9-0.9
	c0-0.3-0.1-0.6-0.1-0.9c0-1.5,0-3,0-4.5c0-0.1,0-0.2,0-0.4c0.9,1.1,1.8,2.1,2.7,3.2c0.9,1,1.9,2,2.9,3c0.5,0.5,1.1,0.8,1.8,0.8
	c1,0,2.1,0.1,3.1,0.1c0.1,0,0.3-0.1,0.4-0.2c0,0,0-0.1,0-0.1c-0.3-0.1-0.6-0.1-0.8-0.2c-1.1-0.3-2-1-2.8-1.8
	c-1.7-1.8-3.5-3.7-5.2-5.5c-0.1-0.1-0.2-0.3-0.3-0.4c1.6-1.5,3.2-3.1,4.8-4.6c0.6-0.6,1.4-0.9,2.2-1c0.1,0,0.3-0.1,0.4-0.1
	c0-0.1,0-0.1,0-0.2c-0.2,0-0.3-0.1-0.5-0.1c-0.6,0-1.1,0.1-1.7,0.1c-0.7,0-1.3-0.1-2-0.1c-0.2,0-0.3,0.1-0.5,0.1c0,0,0,0.1,0,0.1
	c0.1,0,0.1,0.1,0.2,0.1c0.4,0.2,0.4,0.3,0.2,0.7c-0.1,0.2-0.3,0.5-0.5,0.7c-1.3,1.4-2.7,2.9-4.1,4.3c0,0-0.1,0-0.2,0.1
	c0-0.2,0-0.3,0-0.4c0-1.3,0-2.6,0-3.9c0-0.2,0-0.4,0.1-0.7c0.1-0.6,0.3-0.8,0.9-0.8c0.2,0,0.3-0.1,0.5-0.1c0-0.1,0-0.1,0-0.2
	c-0.2,0-0.3-0.1-0.5-0.1c-0.5,0-1,0-1.4,0c-1,0-2.1,0-3.1,0c-0.2,0-0.4,0-0.7,0.1C132.9,71.5,133.2,71.4,133.5,71.4z M126.7,105.1
	c1.4,0,2.9,0.1,4.3,0.1c0.2,0,0.3-0.1,0.5-0.1c0-0.1,0-0.1,0-0.2c-0.2,0-0.3-0.1-0.5-0.1c-0.7,0-1.2-0.3-1.6-0.9
	c-0.3-0.5-0.6-1.1-0.8-1.7c-1.5-3.6-2.9-7.2-4.3-10.8c-0.1-0.2-0.2-0.4-0.3-0.6c-0.1-0.2-0.4-0.2-0.5,0c-0.1,0.2-0.3,0.5-0.3,0.7
	c-1.1,2.6-2.1,5.3-3.1,7.9c-0.5,1.3-1.1,2.7-1.6,4c-0.3,0.9-0.9,1.4-1.9,1.4c-0.1,0-0.2,0.1-0.4,0.1c0,0.1,0,0.1,0,0.2
	c0.2,0,0.3,0.1,0.5,0.1c1.3,0,2.6,0,3.9,0c0.2,0,0.3-0.1,0.5-0.1c0-0.1,0-0.1,0-0.2c-0.2,0-0.4-0.1-0.5-0.1c-0.7,0-0.9-0.2-0.7-0.9
	c0.4-1.2,0.8-2.4,1.2-3.6c1.5,0,3,0,4.5,0c0.5,1.2,0.9,2.4,1.3,3.6c0.2,0.6,0.2,0.6-0.3,1.1C126.6,105,126.6,105.1,126.7,105.1z
	 M125,99.3c-1.2,0-2.4,0-3.6,0c0.6-1.6,1.2-3.2,1.8-4.7c0,0,0.1,0,0.1,0C123.8,96.1,124.4,97.7,125,99.3z M108.8,80.3
	c0.3,0,0.3,0.2,0.4,0.4c0.4,1.1,0.8,2.2,1.2,3.3c0.2,0.5,0.2,0.5-0.2,0.9c0,0,0,0.1,0,0.1c0,0,0.1,0.1,0.1,0.1c1.5,0,3,0.1,4.5,0.1
	c0.1,0,0.2-0.1,0.4-0.2c-0.1-0.1-0.1-0.1-0.1-0.1c-0.1,0-0.2-0.1-0.3-0.1c-0.8,0-1.4-0.4-1.7-1.1c-0.4-0.7-0.7-1.4-1-2.2
	c-1.4-3.3-2.7-6.7-4-10c-0.1-0.2-0.2-0.5-0.3-0.7c-0.2-0.2-0.4-0.2-0.5,0c-0.1,0.2-0.2,0.4-0.3,0.6c-0.9,2.3-1.9,4.7-2.8,7
	c-0.7,1.6-1.3,3.3-2,4.9c-0.3,0.9-0.9,1.5-1.9,1.4c-0.1,0-0.2,0.1-0.3,0.1c0,0.1,0,0.1,0,0.2c0.1,0,0.3,0.1,0.4,0.1c1.3,0,2.7,0,4,0
	c0.2,0,0.3-0.1,0.4-0.2c0-0.1,0-0.1,0-0.2c-0.2,0-0.4-0.1-0.6-0.1c-0.6,0-0.8-0.3-0.6-0.9c0.4-1.2,0.8-2.4,1.3-3.6
	C106,80.3,107.4,80.3,108.8,80.3z M105.1,79.3c0.6-1.6,1.2-3.2,1.8-4.7c0,0,0.1,0,0.1,0c0.6,1.6,1.1,3.1,1.7,4.7
	C107.4,79.3,106.3,79.3,105.1,79.3z M128.1,75c0.1-0.2,0.1-0.4,0.2-0.6c0-0.7,0-1.4,0-2c0.1-1,0.1-1-0.9-1.1
	c-1.9-0.4-3.7-0.5-5.6-0.3c-3.8,0.4-6.5,3.4-6.4,7.2c0.1,3.1,1.7,5.5,4.6,6.6c1.9,0.7,3.8,0.8,5.7,0.6c0.5,0,1.1-0.2,1.6-0.3
	c0.3-0.1,0.6-0.2,0.7-0.6c0.1-0.8,0.3-1.6,0.4-2.4c0-0.1-0.1-0.3-0.1-0.4c-0.1,0-0.1,0-0.2,0c-0.1,0.1-0.1,0.3-0.2,0.4
	c-0.1,0.3-0.3,0.7-0.4,0.9c-0.5,0.8-1.4,1.1-2.3,1.2c-3.3,0.5-5.8-1.5-6.7-4c-0.5-1.3-0.5-2.6-0.3-4c0.3-2.3,1.7-4.5,4.7-4.5
	c1.2,0,2.4,0.1,3.4,0.6c0.8,0.4,1.3,1.1,1.4,2c0,0.2,0.1,0.4,0.1,0.6C127.9,74.9,128,75,128.1,75z M155.5,90.9
	c-0.3,0-0.6,0.1-0.9,0.1c-1.7,0-3.5,0-5.2,0.1c-0.8,0-1.6,0-2.4,0c-0.2,0-0.3,0.1-0.5,0.1c0.3,0.2,0.3,0.2,0.8,0.3
	c0.9,0.1,1.1,0.3,1.1,1.2c0,3.3,0,6.6,0,9.9c0,0.5,0,1-0.1,1.5c-0.1,0.7-0.3,0.8-0.9,0.8c-0.2,0-0.3,0.1-0.5,0.1
	c0.3,0.4,0.7,0.2,1.1,0.2c1.1,0,2.1,0,3.2,0c1.4,0,2.7,0,4.1,0c0.4,0,0.6-0.2,0.6-0.5c0.1-0.7,0.2-1.4,0.2-2c0-0.1-0.1-0.2-0.1-0.4
	c-0.1,0-0.1,0-0.2,0c-0.1,0.2-0.1,0.3-0.2,0.5c-0.2,0.9-0.6,1.2-1.5,1.3c-0.7,0-1.3,0.1-2,0c-0.9-0.1-1.2-0.4-1.3-1.3
	c0-0.1,0-0.3,0-0.4c0-1.3,0-2.5,0-3.8c0-0.2,0-0.3,0-0.5c0.8,0,1.6,0,2.4,0c1,0,1.2,0.2,1.4,1.2c0,0,0,0,0,0.1
	c0.1,0.1,0.1,0.2,0.2,0.3c0.1-0.1,0.1-0.2,0.1-0.3c0.1-0.8,0.1-1.6,0.2-2.4c0-0.1,0-0.3,0-0.5c-0.7,0.7-1.5,0.6-2.3,0.7
	c-0.6,0-1.1,0-1.7,0c-0.1,0-0.3,0-0.4,0c0-1.7,0-3.3,0-5c0.9,0,1.7,0,2.6,0c1.1,0.1,1.5,0.3,1.5,1.4c0,0,0,0.1,0.1,0.1
	C155.3,93.5,155.4,92.6,155.5,90.9z M85,117.3c0.4,0,0.7,0,1,0c0-15.5,0-31.1,0-46.6c-0.4,0-0.7,0-1,0C85,86.2,85,101.8,85,117.3z
	 M108.8,92.6c0,3,0,5.9,0,8.9c0,0.8,0,1.7-0.1,2.5c-0.1,0.6-0.3,0.8-0.9,0.8c-0.2,0-0.4,0.1-0.6,0.1c0.2,0.3,0.5,0.3,0.7,0.3
	c0.9,0,1.8-0.1,2.8-0.1c0.7,0,1.3,0,2,0.1c0.2,0,0.5,0,0.7-0.3c-0.2,0-0.3-0.1-0.4-0.1c-0.2,0-0.4,0-0.6,0c-0.7-0.1-0.9-0.3-1-1
	c0-0.6-0.1-1.3-0.1-1.9c0-3.1,0-6.2,0-9.3c0-0.2,0-0.3,0-0.6c1.1,0.1,2.2,0.1,3.3,0.2c0.7,0.1,1.3,0.4,1.3,1.3
	c0,0.1,0.1,0.2,0.2,0.3c0.2-0.5,0.3-2.2,0.1-2.9c-0.1,0-0.2,0-0.4,0c-0.6,0-1.1,0.2-1.7,0.1c-3.3-0.1-6.6,0.2-10-0.2
	c-0.3,0.6-0.6,2.3-0.4,2.8c0.1-0.2,0.2-0.4,0.3-0.5c0.2-0.5,0.5-0.9,1.1-0.9c1.2-0.1,2.4-0.1,3.6-0.2
	C108.8,92.3,108.8,92.4,108.8,92.6z M136.1,92.5c0,2.7,0,5.4,0,8.1c0,1-0.1,2.1-0.1,3.1c0,0.9-0.4,1.1-1.1,1.1
	c-0.1,0-0.3,0.1-0.5,0.1c0.2,0.3,0.5,0.3,0.7,0.3c0.9,0,1.8-0.1,2.8-0.1c0.7,0,1.3,0,2,0.1c0.2,0,0.5,0,0.7-0.3
	c-0.3,0-0.6-0.1-0.8-0.1c-0.9,0-1.2-0.3-1.3-1.2c0-0.8-0.1-1.6-0.1-2.4c0-2.8,0-5.6,0-8.4c0-0.2,0-0.4,0-0.6c0.9,0,1.8,0,2.6,0
	c0.3,0,0.7,0.1,1,0.2c0.5,0.1,0.9,0.4,0.9,1c0,0.1,0.1,0.3,0.2,0.4c0.3-0.4,0.3-2.4,0.2-2.9c-0.7,0-1.4,0.1-2,0.1c-2.3,0-4.7,0-7,0
	c-0.9,0-1.8,0.1-2.6-0.3c-0.3-0.1-0.4,0-0.4,0.3c-0.1,0.7-0.3,1.4-0.4,2.1c0,0.1,0.1,0.3,0.2,0.4c0.1-0.1,0.2-0.2,0.3-0.3
	c0.2-0.6,0.6-1,1.2-1c1.2-0.1,2.4-0.1,3.6-0.2C136.1,92.3,136.1,92.4,136.1,92.5z M92.9,101.3c-0.1,0.2-0.2,0.4-0.2,0.6
	c0,0.7-0.1,1.4-0.1,2.2c0,0.7,0.1,0.8,0.7,1c1.4,0.4,2.8,0.5,4.2,0.1c1.6-0.5,2.6-1.5,2.9-3.1c0.2-1.4-0.1-2.7-1.1-3.7
	c-0.8-0.8-1.8-1.5-2.6-2.3c-0.5-0.4-1-0.8-1.4-1.3c-0.9-1.1-0.3-2.6,1.1-3c0.4-0.1,0.8-0.1,1.1-0.1c1.1,0.1,1.9,0.9,2.1,2
	c0,0.1,0,0.2,0.1,0.3c0,0.1,0.1,0.1,0.2,0.1c0.1,0,0.1-0.1,0.2-0.1c0-0.1,0-0.2,0-0.3c0-0.7,0.1-1.4,0.1-2.1c0-0.3-0.1-0.5-0.4-0.6
	c-1.3-0.3-2.5-0.4-3.8-0.1c-2.6,0.6-3.7,3.1-2.4,5.4c0.4,0.7,1,1.3,1.5,1.8c0.5,0.5,1.2,1,1.8,1.4c0.6,0.5,1.2,1,1.5,1.8
	c0.5,1.4,0,2.7-1.4,3.1c-1.5,0.4-3.3-0.1-3.6-2.3c0-0.3-0.1-0.5-0.2-0.8C93,101.3,93,101.3,92.9,101.3z M149.7,81.3
	c-0.1,0.2-0.2,0.4-0.2,0.5c0,0.7-0.1,1.5-0.1,2.2c0,0.6,0.1,0.8,0.7,1c1.4,0.5,2.9,0.5,4.4,0.1c1.5-0.5,2.5-1.5,2.8-3
	c0.2-1.2,0-2.3-0.8-3.4c-0.7-0.9-1.6-1.6-2.4-2.3c-0.6-0.5-1.2-0.9-1.7-1.4c-0.6-0.6-0.8-1.3-0.5-2.1c0.3-0.8,0.9-1.1,1.7-1.2
	c1.6-0.2,2.8,0.8,2.9,2.1c0,0.1,0.1,0.3,0.2,0.4c0,0,0.1,0,0.1,0c0-0.1,0.1-0.2,0.1-0.3c0-0.8,0.1-1.5,0.1-2.3
	c0-0.3-0.2-0.4-0.4-0.5c-1.2-0.3-2.4-0.4-3.7-0.1c-2.5,0.5-3.7,2.9-2.6,5.2c0.4,0.8,0.9,1.4,1.5,1.9c0.6,0.5,1.3,1,1.9,1.6
	c0.5,0.4,1,0.9,1.3,1.5c0.7,1.2,0.3,2.6-0.9,3.1c-1.4,0.6-3.6,0.2-4-2.1c0-0.3-0.1-0.5-0.2-0.8C149.9,81.3,149.8,81.3,149.7,81.3z
	 M91.7,89.9c0.2,0,0.4-0.1,0.6-0.1c1.1-0.5,2-1.2,2.8-2c0.8-0.8,1.2-1.8,1.5-2.9c0.3-1.2,0.2-2.5,0.2-3.7c0-2.9,0-5.8,0-8.6
	c0-0.9,0.2-1.1,1.1-1.1c0.2,0,0.3-0.1,0.5-0.1c0-0.1,0-0.1,0-0.2c-0.2,0-0.4-0.1-0.6-0.1c-1,0-2,0-2.9,0c-0.6,0-1.2,0-1.8,0
	c-0.2,0-0.3,0.1-0.5,0.1c0,0.1,0,0.1,0,0.2c0.3,0,0.5,0.1,0.8,0.1c0.7,0.1,1,0.3,1.1,1c0,0.3,0,0.6,0,0.8c0,3.4,0,6.8,0,10.2
	c0,0.8,0,1.6-0.1,2.4c-0.2,1.6-0.8,2.8-2.2,3.6c-0.1,0.1-0.2,0.2-0.3,0.3C91.7,89.8,91.7,89.9,91.7,89.9z M101.5,112.5
	c1.4,1.6,2.9,3.1,4.4,4.7c0-2.2,0-4.3,0-6.5c-0.2,0-0.5,0-0.7,0c0,1.5,0,3,0,4.5c0,0-0.1,0-0.1,0c-1.4-1.6-2.9-3.1-4.4-4.8
	c0,2.2,0,4.3,0,6.4c0.3,0,0.5,0,0.7,0c0-1.5,0-3,0-4.4C101.5,112.5,101.5,112.5,101.5,112.5z M128.7,114.1c0.6,0.8,1.2,1.6,1.8,2.4
	c0.3,0.5,0.7,0.6,1.3,0.4c-0.8-1-1.5-1.9-2.3-2.8c0.1,0,0.2-0.1,0.2-0.1c1.3-0.2,1.9-1.4,1.2-2.6c-0.2-0.3-0.5-0.6-0.9-0.6
	c-0.8,0-1.5,0-2.3,0c0,2.1,0,4.1,0,6.1c0.3,0,0.5,0,0.7,0c0-1,0-1.9,0-2.8C128.6,114.1,128.6,114.1,128.7,114.1z M129.7,111.4
	c0.5,0,0.8,0.3,0.8,0.9c0,0.7-0.1,0.9-0.7,1.1c-0.1,0-0.3,0.1-0.4,0.1c-0.2,0-0.5,0-0.8,0c0-0.7,0-1.3,0-2
	C129,111.4,129.3,111.4,129.7,111.4z M92.3,114.4c0,0.2,0,0.4,0,0.6c0.1,1.4,0.9,2.1,2.3,2.1c0.2,0,0.3,0,0.5,0
	c1.1-0.1,1.8-0.7,1.9-1.7c0.1-0.7,0.1-1.3,0.1-2c0-0.9,0-1.7,0-2.6c-0.3,0-0.5,0-0.8,0c0,1.2,0,2.3,0,3.5c0,0.3,0,0.7-0.1,1
	c-0.1,0.6-0.4,0.9-1,1c-1.3,0.3-2.2-0.2-2.2-1.7c0-0.1,0-0.3,0-0.4c0-1,0-2,0-2.9c0-0.2,0-0.4,0-0.6c-0.3,0-0.5,0-0.8,0
	C92.3,112,92.2,113.2,92.3,114.4z M124.4,116.9c0-0.2,0-0.5,0-0.7c-0.8,0-1.6,0-2.4,0c0-0.8,0-1.5,0-2.3c0.8,0,1.6,0,2.5,0
	c0-0.3,0-0.5,0-0.7c-0.8,0-1.6,0-2.4,0c0-0.6,0-1.1,0-1.7c0.8,0,1.6,0,2.4,0c0-0.2,0-0.4,0-0.7c-1.1,0-2.1,0-3.2,0
	c0,2.1,0,4.1,0,6.2C122.2,116.9,123.3,116.9,124.4,116.9z M136.2,117.1c0.9,0,1.6-0.6,1.8-1.4c0.2-1-0.1-1.7-1-2.1
	c-0.3-0.2-0.7-0.3-1.1-0.5c-0.2-0.1-0.4-0.2-0.5-0.3c-0.3-0.2-0.4-0.6-0.3-0.9c0.1-0.4,0.4-0.6,0.8-0.6c0.3,0,0.5,0.2,0.8,0.3
	c0.1,0.1,0.2,0.3,0.3,0.4c0,0,0.1-0.1,0.1-0.1c0.2-0.1,0.3-0.2,0.5-0.4c-0.3-0.8-1.4-1.1-2.1-0.9c-0.6,0.2-1,0.5-1.2,1.1
	c-0.1,0.6,0,1.2,0.6,1.6c0.3,0.2,0.6,0.3,0.9,0.5c0.3,0.1,0.6,0.2,0.8,0.4c0.5,0.3,0.7,0.8,0.6,1.3c-0.1,0.4-0.5,0.7-1,0.8
	c-0.6,0.1-1-0.1-1.3-0.7c-0.1-0.1-0.1-0.3-0.2-0.4c-0.2,0.1-0.4,0.2-0.7,0.3C134.5,116.7,135.2,117.1,136.2,117.1z M117.3,111.3
	c-0.4,1.1-0.9,2.2-1.3,3.3c-0.1,0.2-0.2,0.4-0.3,0.7c-0.1-0.2-0.2-0.4-0.2-0.5c-0.5-1.2-0.9-2.4-1.4-3.6c-0.2-0.6-0.3-0.6-1-0.5
	c0.9,2.1,1.7,4.2,2.6,6.3c0,0,0.1,0,0.1,0c0.8-2.1,1.7-4.1,2.5-6.3C117.5,110.7,117.5,110.7,117.3,111.3z M152.6,112.6
	c0.7,1,1.1,2,0.9,3.2c0,0.4,0,0.7,0,1.1c0.3,0,0.6,0,0.8,0c0-0.5,0-0.9,0-1.4c-0.1-1.1,0.2-2,0.8-2.8c0.4-0.6,0.8-1.3,1.2-1.9
	c-0.8-0.1-0.8-0.1-1.2,0.5c-0.4,0.7-0.8,1.4-1.3,2.1c-0.5-0.8-0.9-1.4-1.3-2.1c-0.3-0.5-0.6-0.6-1.2-0.5
	C151.8,111.4,152.1,112,152.6,112.6z M147.4,111.4c0.6,0,1.2,0,1.7,0c0-0.3,0-0.5,0-0.7c-1.4,0-2.8,0-4.3,0c0,0.2,0,0.4,0,0.7
	c0.6,0,1.1,0,1.8,0c0,1.9,0,3.7,0,5.5c0.3,0,0.5,0,0.8,0C147.4,115.1,147.4,113.3,147.4,111.4z M141.2,117c0.3,0,0.5,0,0.7,0
	c0-2.1,0-4.1,0-6.2c-0.3,0-0.5,0-0.7,0C141.2,112.8,141.2,114.9,141.2,117z M110.3,110.8c-0.2,0-0.5,0-0.7,0c0,2.1,0,4.1,0,6.2
	c0.2,0,0.4,0,0.7,0C110.3,114.9,110.3,112.8,110.3,110.8z M161.6,112.6c0-1-0.8-1.9-1.9-1.9c-1,0-1.9,0.8-1.9,1.9
	c0,1.1,1.1,1.9,1.9,1.9C160.5,114.5,161.6,113.7,161.6,112.6z M159.7,114.2c-0.9,0-1.6-0.7-1.6-1.6c0-0.9,0.7-1.6,1.5-1.6
	c0.9,0,1.6,0.7,1.6,1.6C161.3,113.5,160.6,114.2,159.7,114.2z M27.4,105.8c-1.1,0.6-0.8,1.9,0,2.4c0.9,0.5,2.2,0.4,3-0.3
	c0.7-0.7,0.7-1.7,0-2.4c-0.2-0.2-0.4-0.3-0.7-0.5c0.1-0.1,0.2-0.2,0.3-0.3c0.9-0.7,0.8-1.9-0.4-2.3c-0.5-0.2-1-0.2-1.6,0
	c-0.6,0.2-1,0.6-1.2,1.3c-0.1,0.6,0.2,1.1,0.7,1.5c0.1,0.1,0.2,0.1,0.3,0.2C27.7,105.6,27.6,105.7,27.4,105.8z M29.3,106.2
	c0.4,0.3,0.6,0.8,0.4,1.3c-0.1,0.3-0.3,0.5-0.7,0.6c-0.4,0.1-0.7-0.1-0.9-0.4c-0.4-0.6-0.3-1.4,0.3-2C28.7,105.8,29,106,29.3,106.2z
	 M28.5,104.3c-0.1-0.1-0.2-0.3-0.3-0.4c-0.2-0.5,0-1,0.4-1.1c0.4-0.1,0.9,0.2,1,0.7c0.1,0.4,0,0.9-0.3,1.4
	C29,104.6,28.7,104.5,28.5,104.3z M23.2,108.4c0.9,0,1.8,0,2.7,0c0.1,0,0.2-0.1,0.2-0.2c-0.1-0.1-0.2-0.2-0.2-0.2
	c-0.5,0-0.6-0.3-0.6-0.7c0-0.1,0-0.3,0-0.4c0-1.3,0-2.6,0-3.9c0-0.2,0-0.4,0-0.7c-0.8,0.3-1.6,0.3-2.2,0.7c0.1,0.1,0.3,0.1,0.4,0.2
	c0.4,0,0.5,0.2,0.5,0.5c0,1.2,0,2.4,0,3.6c0,0.6-0.1,0.6-0.6,0.7c-0.1,0-0.2,0.2-0.3,0.2C23.2,108.3,23.2,108.4,23.2,108.4z
	 M36.6,102.4c-0.1,0.6-0.1,1.1-0.2,1.7c0.2-0.1,0.4-0.1,0.4-0.2c0.2-0.5,0.6-0.5,1.1-0.5c0.5,0,0.9,0,1.4,0c0.1,0,0.3,0,0.5,0.1
	c-1,1.7-1.9,3.3-2.9,4.9c0.8,0.2,1,0.1,1.3-0.6c0.7-1.5,1.4-3,2.1-4.5c0.1-0.2,0.2-0.5,0.4-0.8C39.2,102.4,37.9,102.4,36.6,102.4z
	 M32.8,108.4c0.2,0,0.4-0.1,0.5-0.3c0.8-1.8,1.7-3.5,2.5-5.3c0-0.1,0.1-0.2,0.1-0.4c-1.4,0-2.7,0-4,0c-0.1,0.6-0.1,1.1-0.2,1.6
	c0,0,0.1,0,0.1,0.1c0.1-0.1,0.2-0.2,0.3-0.3c0.1-0.1,0.3-0.3,0.4-0.3c0.8,0,1.6,0,2.5,0c-1,1.7-1.9,3.3-2.9,5
	C32.3,108.5,32.5,108.4,32.8,108.4z M159.9,113c0.1,0.2,0.1,0.3,0.2,0.4c0.1,0.1,0.3,0.2,0.4,0.2c0,0,0-0.1,0.1-0.1
	c-0.1-0.3-0.2-0.6-0.4-0.8c0.1-0.1,0.2-0.1,0.2-0.2c0.1-0.2,0.2-0.4,0.2-0.6c-0.1-0.2-0.3-0.4-0.5-0.4c-0.4-0.1-0.7,0-1.1,0
	c0,0.7,0,1.4,0,2.1c0.6-0.1,0.3-0.6,0.5-0.9C159.7,112.7,159.9,112.7,159.9,113z M159.4,111.8c0.2,0,0.4,0,0.5,0
	c0.1,0.1,0.2,0.2,0.4,0.3c-0.1,0.1-0.2,0.2-0.4,0.3c-0.1,0.1-0.3,0-0.5,0C159.4,112.2,159.4,112,159.4,111.8z"/>
</svg>