<svg xmlns="http://www.w3.org/2000/svg" width="200" height="200" viewBox="0 0 200 200">
<path fill="#FFFFFF" d="M194.5,77.3c-62.9,0-125.9,0-188.8,0c0,0,0,0,0,0c3.1-0.2,6.3-0.4,9.4-0.6c2.6-0.2,5.2-0.3,7.8-0.5c3-0.2,6.1-0.4,9.1-0.6
	c2.2-0.1,4.4-0.3,6.6-0.4c2.6-0.2,5.3-0.4,7.9-0.5c1.8-0.1,3.5-0.2,5.3-0.3c2.3-0.1,4.5-0.3,6.8-0.5c1.8-0.1,3.5-0.2,5.3-0.3
	c2.3-0.2,4.6-0.3,6.9-0.5c1.7-0.1,3.5-0.2,5.2-0.3c2.3-0.2,4.6-0.3,6.9-0.5c2.2-0.1,4.4-0.3,6.5-0.4c2.3-0.1,4.5-0.3,6.8-0.4
	c2.1-0.1,4.2-0.2,6.3-0.2c1.7,0,3.4,0.2,5.1,0.3c1.8,0.1,3.6,0.2,5.4,0.4c2.2,0.1,4.4,0.3,6.5,0.4c1.7,0.1,3.5,0.2,5.2,0.3
	c2.2,0.1,4.4,0.3,6.6,0.4c2.1,0.1,4.3,0.3,6.4,0.4c2.2,0.1,4.4,0.3,6.5,0.4c1.7,0.1,3.5,0.2,5.2,0.3c2.2,0.1,4.4,0.3,6.6,0.5
	c1.7,0.1,3.5,0.2,5.2,0.3c2.2,0.1,4.4,0.3,6.5,0.4c1.7,0.1,3.5,0.2,5.2,0.3c2.2,0.1,4.4,0.3,6.6,0.4c1.7,0.1,3.4,0.2,5.1,0.3
	c2.2,0.2,4.5,0.3,6.7,0.5C192.5,77.1,193.5,77.2,194.5,77.3C194.5,77.3,194.5,77.3,194.5,77.3z M33.2,84.9c-0.1,0-0.3,0-0.4,0
	c-2.3,0-4.7,0-7,0c-0.3,0-0.5,0.1-0.6,0.4c-1.7,4.9-3.5,9.8-5.2,14.7c-0.1,0.1-0.1,0.3-0.2,0.5c-0.1-0.3-0.2-0.4-0.2-0.6
	c-1.7-4.9-3.5-9.8-5.2-14.6c-0.1-0.3-0.2-0.4-0.5-0.4c-2.4,0-4.7,0-7.1,0c-0.1,0-0.3,0-0.4,0c0,7.9,0,15.8,0,23.7c1.7,0,3.4,0,5.2,0
	c0-6.1,0-12.1,0-18.1c0,0,0.1,0,0.1,0c2,6,4,12.1,6,18.2c1.2,0,2.4,0,3.6,0c0.3,0,0.4-0.1,0.5-0.4c0.5-1.4,1-2.8,1.4-4.2
	c1.5-4.4,3-8.8,4.5-13.2c0-0.1,0.1-0.3,0.2-0.4c0,0,0.1,0,0.1,0c0,6,0,12.1,0,18.1c1.7,0,3.4,0,5.2,0
	C33.2,100.7,33.2,92.8,33.2,84.9z M171.4,108.6c1.7,0,3.4,0,5.2,0c0-5.6,0-11.2,0-16.8c0.2,0.1,0.3,0.2,0.3,0.3
	c3.3,5.4,6.6,10.8,9.9,16.2c0.2,0.2,0.3,0.4,0.6,0.4c2,0,4,0,6,0c0.1,0,0.3,0,0.4,0c0-7.9,0-15.8,0-23.7c-1.7,0-3.4,0-5.2,0
	c0,5.5,0,11,0,16.4c-0.2-0.1-0.3-0.2-0.3-0.4c-3.2-5.2-6.4-10.5-9.6-15.7c-0.2-0.3-0.3-0.4-0.6-0.4c-2.1,0-4.2,0-6.3,0
	c-0.1,0-0.3,0-0.4,0C171.4,92.8,171.4,100.7,171.4,108.6z M102.8,108.6c2.8,0,5.6,0,8.5,0c1.8,0,3.6-0.3,5.3-0.9
	c3.3-1.2,5.7-3.3,7-6.5c0.8-2.1,0.9-4.3,0.6-6.5c-0.5-3.9-2.6-6.7-6.2-8.3c-2.1-0.9-4.3-1.3-6.6-1.4c-2.9-0.1-5.7,0-8.6,0
	c-0.1,0-0.2,0-0.3,0c0,7.9,0,15.8,0,23.7C102.6,108.6,102.7,108.6,102.8,108.6z M111.6,89.7c1,0,2,0.2,3,0.6
	c2.9,1.1,4.5,3.5,4.3,6.6c-0.1,1-0.2,2.1-0.7,3c-0.9,2-2.6,3.1-4.7,3.5c-1,0.2-2,0.3-3,0.3c-1,0.1-2,0-3,0c0-4.7,0-9.4,0-14.1
	C109,89.7,110.3,89.7,111.6,89.7z M78.6,98.4c2-0.5,3.4-1.8,4.1-3.8c0.4-1.1,0.5-2.2,0.4-3.4c-0.2-2.7-1.5-4.5-4-5.6
	c-1.4-0.6-3-0.8-4.5-0.8c-3.1,0-6.1,0-9.2,0c-0.1,0-0.3,0-0.4,0c0,7.9,0,15.8,0,23.7c1.7,0,3.4,0,5.2,0c0-3.2,0-6.3,0-9.5
	c0.7,0,1.4,0,2.1,0c0.3,0,0.5,0.1,0.7,0.4c1.5,2.9,3.1,5.9,4.6,8.8c0.1,0.3,0.3,0.3,0.6,0.3c1.8,0,3.6,0,5.4,0c0.1,0,0.2,0,0.4,0
	c-2-3.4-4-6.7-6-10C78.3,98.5,78.4,98.5,78.6,98.4z M70.3,89.3C70.3,89.3,70.3,89.3,70.3,89.3c1.8-0.1,3.6-0.2,5.4,0.1
	c1.8,0.4,2.4,1.7,2,3.4c-0.3,1.1-1.2,1.6-2.2,1.7c-1.3,0.1-2.5,0.1-3.8,0.2c-0.5,0-0.9,0-1.4,0C70.3,92.9,70.3,91.1,70.3,89.3z
	 M194.9,128.9c0-0.3,0-0.6,0-0.8c0-0.7,0-0.6-0.6-0.6c-32.9,0-65.8,0-98.7,0c-30,0-60,0-90,0c-0.2,0-0.4,0-0.6,0c0,0.5,0,1,0,1.4
	C68.3,128.9,131.6,128.9,194.9,128.9z M57.9,108.6c0-1.6,0-3.2,0-4.8c-3.8,0-7.6,0-11.5,0c0-0.2,0-0.3,0-0.5c0-1.3,0-2.6,0-3.9
	c0-0.4,0.1-0.5,0.5-0.5c3.1,0,6.3,0,9.4,0c0.2,0,0.3,0,0.4,0c0-1.6,0-3.2,0-4.8c-3.4,0-6.8,0-10.3,0c0-0.2,0-0.3,0-0.5
	c0-1.2,0-2.3,0-3.5c0-0.5,0-0.5,0.5-0.5c3.3,0,6.6,0,9.9,0c0.4,0,0.5-0.1,0.5-0.5c0-1.3,0-2.6,0-3.8c0-0.4-0.1-0.5-0.5-0.5
	c-5.1,0-10.1,0-15.2,0c-0.1,0-0.3,0-0.4,0c0,7.9,0,15.8,0,23.7C46.8,108.6,52.3,108.6,57.9,108.6z M5.8,81.4c62.8,0,125.7,0,188.5,0
	c0.8,0,0.7,0.1,0.7-0.7c0-0.8,0.1-0.7-0.7-0.7c-58.5,0-117.1,0-175.6,0c-4.4,0-8.7,0-13.1,0c-0.2,0-0.3,0-0.5,0c0,0.5,0,0.9,0,1.4
	C5.3,81.4,5.5,81.4,5.8,81.4z M148.8,103.9c0.1-0.3,0.2-0.4,0.5-0.4c2.8,0,5.7,0,8.5,0c0.3,0,0.4,0.1,0.5,0.4
	c0.6,1.5,1.2,2.9,1.8,4.4c0.1,0.2,0.2,0.3,0.5,0.3c1.7,0,3.4,0,5.2,0c0.1,0,0.2,0,0.3,0c0-0.1-0.1-0.2-0.1-0.3
	c-3.4-7.7-6.7-15.4-10.1-23.1c-0.1-0.2-0.2-0.3-0.5-0.3c-1.2,0-2.3,0-3.5,0c-0.4,0-0.5,0.1-0.7,0.5c-3.3,7.6-6.6,15.3-9.9,22.9
	c-0.1,0.1-0.1,0.2-0.1,0.4c1.9,0,3.8,0,5.7,0C147.5,107,148.2,105.5,148.8,103.9z M153.4,91.8C153.4,91.8,153.5,91.8,153.4,91.8
	c1.1,2.4,2,4.8,3,7.3c-2,0-3.9,0-5.9,0C151.5,96.7,152.5,94.3,153.4,91.8z M130.8,108.6c1.7,0,3.4,0,5.2,0c0-7.9,0-15.8,0-23.7
	c-1.7,0-3.4,0-5.2,0C130.8,92.8,130.8,100.7,130.8,108.6z M89.6,108.6c1.7,0,3.4,0,5.1,0c0-7.9,0-15.8,0-23.7c-1.7,0-3.4,0-5.1,0
	C89.6,92.8,89.6,100.7,89.6,108.6z M43.5,111.8c-0.5,0-1,0-1.5,0c-0.3,0-0.4,0.1-0.6,0.4c-1.1,2.6-2.3,5.3-3.5,7.9
	c0,0.1-0.1,0.2-0.2,0.4c-0.1-0.2-0.2-0.4-0.2-0.5c-1.1-2.6-2.3-5.2-3.4-7.9c-0.1-0.1-0.2-0.3-0.2-0.3c-0.6,0-1.2,0-1.8,0
	c0,3.7,0,7.3,0,11c0.4,0,0.8,0,1.2,0c0-3.1,0-6.1,0-9.2c0,0,0.1,0,0.1,0c0.1,0.1,0.1,0.2,0.2,0.4c1.2,2.8,2.4,5.6,3.6,8.5
	c0.1,0.3,0.2,0.4,0.5,0.4c0.3,0,0.4-0.1,0.5-0.4c1.1-2.7,2.3-5.4,3.4-8.1c0.1-0.3,0.2-0.5,0.3-0.8c0,0,0.1,0,0.1,0c0,3,0,6.1,0,9.1
	c0.4,0,0.8,0,1.3,0C43.5,119.1,43.5,115.5,43.5,111.8z M47.5,122.8c0.4,0,0.8,0,1.2,0c0-3.1,0-6.1,0-9.2c0.1,0.1,0.2,0.2,0.3,0.4
	c1.2,2.8,2.4,5.6,3.6,8.4c0.1,0.3,0.2,0.4,0.6,0.4c0.3,0,0.4-0.2,0.6-0.4c1.2-2.8,2.4-5.6,3.6-8.4c0.1-0.1,0.1-0.3,0.2-0.4
	c0,0,0.1,0,0.1,0c0,3,0,6.1,0,9.2c0.4,0,0.8,0,1.3,0c0-3.7,0-7.3,0-11c-0.5,0-1,0-1.5,0c-0.3,0-0.4,0.1-0.6,0.4
	c-1.1,2.6-2.3,5.3-3.5,7.9c0,0.1-0.1,0.2-0.2,0.4c-0.1-0.3-0.2-0.5-0.3-0.7c-1.1-2.6-2.2-5.1-3.3-7.7c-0.1-0.1-0.2-0.3-0.3-0.3
	c-0.6,0-1.1,0-1.7,0C47.5,115.5,47.5,119.1,47.5,122.8z M76.4,113.7c0.1,0.1,0.2,0.2,0.3,0.4c2,2.8,3.9,5.6,5.9,8.5
	c0.1,0.1,0.2,0.3,0.4,0.3c0.5,0,0.9,0,1.4,0c0-3.7,0-7.3,0-11c-0.4,0-0.8,0-1.3,0c0,3,0,6.1,0,9.1c-0.2-0.1-0.3-0.3-0.4-0.4
	c-1.9-2.8-3.9-5.6-5.8-8.3c-0.1-0.1-0.2-0.3-0.4-0.3c-0.5,0-1,0-1.5,0c0,3.7,0,7.3,0,11c0.4,0,0.8,0,1.2,0
	C76.3,119.7,76.3,116.7,76.4,113.7C76.3,113.7,76.4,113.7,76.4,113.7z M28.9,117.3c0-3.3-2.4-5.8-5.8-5.8c-3.3,0-5.8,2.4-5.8,5.8
	c0,3.4,2.4,5.8,5.8,5.8C26.5,123.1,28.9,120.6,28.9,117.3z M23.9,121.8c-2.4,0.5-4.7-1.1-5.1-3.5c-0.3-1.9,0.1-3.5,1.6-4.7
	c2.6-2,6.4-0.6,7,2.7c0.1,0.3,0.1,0.7,0.1,1.1C27.5,119.6,26.1,121.4,23.9,121.8z M142.7,117.3c0-3.4-2.4-5.8-5.7-5.8
	c-3.4,0-5.8,2.4-5.8,5.8c0,3.4,2.4,5.8,5.7,5.8C140.3,123.1,142.7,120.7,142.7,117.3z M132.5,117.3c0-2.6,1.9-4.6,4.4-4.6
	c2.5,0,4.4,2,4.4,4.6c0,2.6-1.9,4.6-4.4,4.6C134.4,121.9,132.5,119.9,132.5,117.3z M182.4,120.9c0,0.3-0.1,0.4-0.4,0.5
	c-0.9,0.4-1.8,0.5-2.8,0.5c-1.7-0.1-3-0.9-3.8-2.4c-0.5-1-0.6-2.1-0.4-3.2c0.4-2.3,2.6-3.8,4.9-3.5c1,0.1,1.8,0.5,2.5,1.2
	c0.3-0.3,0.6-0.7,1-1c-0.4-0.3-0.8-0.6-1.1-0.8c-1.3-0.6-2.6-0.8-4-0.5c-2.8,0.6-4.5,2.5-4.7,5.3c-0.2,3,1.5,5.4,4.4,6
	c1.8,0.4,3.6,0.1,5.3-0.7c0.3-0.1,0.4-0.3,0.4-0.6c0-1.5,0-3.1,0-4.6c0-0.1,0-0.3,0-0.4c-1.3,0-2.5,0-3.8,0c0,0.4,0,0.7,0,1.2
	c0.8,0,1.7,0,2.5,0C182.4,118.9,182.4,119.9,182.4,120.9z M165.7,113c1.5,0,3,0,4.5,0c0.7,0,0.7,0.1,0.7-0.7c0-0.4-0.1-0.5-0.5-0.5
	c-2,0-4,0-6,0c-0.2,0-0.3,0-0.4,0c0,3.7,0,7.3,0,11c2.4,0,4.8,0,7.1,0c0-0.4,0-0.7,0-1.2c-0.2,0-0.3,0-0.5,0c-1.6,0-3.3,0-4.9,0
	c-0.4,0-0.5-0.1-0.5-0.5c0-1,0-2,0-3c0-0.1,0-0.3,0-0.5c1.8,0,3.5,0,5.2,0c0-0.4,0-0.8,0-1.2c-0.2,0-0.3,0-0.5,0c-1.4,0-2.9,0-4.3,0
	c-0.4,0-0.5-0.1-0.5-0.5c0-0.8,0-1.7,0-2.5c0-0.2,0-0.3,0-0.5C165.4,113,165.5,113,165.7,113z M187.7,122.8c2.4,0,4.8,0,7.1,0
	c0-0.4,0-0.8,0-1.1c-0.2,0-0.3,0-0.5,0c-1.7,0-3.3,0-5,0c-0.3,0-0.4-0.1-0.4-0.4c0-1.1,0-2.1,0-3.2c0-0.1,0-0.2,0-0.4
	c1.7,0,3.5,0,5.2,0c0-0.2,0-0.5,0-0.7c0-0.4-0.1-0.5-0.5-0.5c-1.4,0-2.8,0-4.2,0c-0.7,0-0.6,0-0.6-0.6c0-0.6,0-1.2,0-1.9
	c0-0.3,0-0.7,0-1c1.9,0,3.7,0,5.6,0c0-0.4,0-0.8,0-1.2c-2.3,0-4.5,0-6.9,0C187.7,115.5,187.7,119.1,187.7,122.8z M69.9,112.3
	c0,2,0,4,0,6.1c0,0.5-0.1,1.1-0.2,1.6c-0.3,1.2-1.3,1.8-2.5,1.9c-1.4,0-2.3-0.6-2.7-1.8c-0.1-0.4-0.2-0.8-0.2-1.2c0-1.6,0-3.1,0-4.7
	c0-0.7,0-1.4,0-2.1c0-0.1-0.1-0.3-0.2-0.3c-0.3,0-0.7,0-1,0c0,0.1-0.1,0.1-0.1,0.1c0,2.5,0,5.1,0.1,7.6c0.1,1.8,1.2,3.1,2.8,3.4
	c0.6,0.1,1.3,0.2,2,0.1c1.6-0.1,2.8-1.1,3.2-2.6c0.2-0.6,0.2-1.3,0.3-1.9c0-2.1,0-4.2,0-6.3c0-0.1,0-0.3,0-0.4c-0.4,0-0.8,0-1.2,0
	C69.9,112,69.9,112.2,69.9,112.3z M13.8,120.6c-1.8,1.9-4.9,1.6-6.4-0.5c-1.2-1.7-1.1-4.2,0.2-5.8c1-1.2,2.3-1.8,3.9-1.5
	c0.9,0.1,1.6,0.6,2.1,1.3c0.4-0.3,0.7-0.5,1.1-0.8c-0.4-0.3-0.6-0.6-1-0.8c-1.6-1-3.3-1.1-5-0.5c-3.1,1.2-4.2,4.6-3.2,7.5
	c0.9,2.6,3.4,4.1,6.1,3.7c1.2-0.2,2.2-0.6,3-1.5c0.1-0.1,0.2-0.2,0.3-0.3c-0.3-0.3-0.6-0.5-0.9-0.8
	C13.9,120.5,13.8,120.6,13.8,120.6z M127.6,120.6c-1.7,1.9-4.7,1.7-6.2-0.2c-1-1.3-1.2-2.7-0.9-4.2c0.4-1.6,1.3-2.8,3-3.3
	c1.5-0.5,2.8-0.1,3.9,1.2c0.4-0.3,0.7-0.5,1.1-0.8c-0.4-0.6-0.9-1-1.5-1.2c-1.4-0.6-2.9-0.7-4.4-0.1c-2.8,1-4.2,4.1-3.4,7.1
	c0.8,3,3.8,4.7,6.8,4c1.1-0.3,2-0.8,2.7-1.8c-0.3-0.3-0.6-0.5-0.9-0.8C127.7,120.5,127.7,120.5,127.6,120.6z M102.5,112.2
	c1.2,1.8,2.4,3.7,3.6,5.5c0.1,0.2,0.2,0.4,0.2,0.6c0,1.3,0,2.6,0,4c0,0.1,0,0.3,0,0.4c0.4,0,0.8,0,1.2,0c0-0.2,0-0.3,0-0.4
	c0-1.3,0-2.6,0-3.9c0-0.3,0.1-0.6,0.2-0.8c1.2-1.8,2.4-3.7,3.6-5.5c0.1-0.1,0.1-0.2,0.2-0.4c-0.4,0-0.8,0-1.2,0
	c-0.3,0-0.4,0.1-0.5,0.3c-0.9,1.4-1.8,2.9-2.7,4.3c-0.1,0.1-0.2,0.2-0.3,0.4c-0.1-0.2-0.2-0.3-0.3-0.5c-0.9-1.4-1.8-2.8-2.6-4.2
	c-0.1-0.1-0.2-0.3-0.3-0.3c-0.5,0-0.9,0-1.5,0C102.3,112,102.4,112.1,102.5,112.2z M100.9,111.8c-2.9,0-5.7,0-8.5,0
	c0,0.4,0,0.8,0,1.2c1.2,0,2.4,0,3.6,0c0,3.3,0,6.6,0,9.8c0.4,0,0.8,0,1.3,0c0-3.3,0-6.5,0-9.8c1.2,0,2.4,0,3.6,0
	C100.9,112.5,100.9,112.2,100.9,111.8z M161.3,122.8c0-0.3,0-0.5,0-0.7c0-0.3-0.1-0.4-0.4-0.4c-1.4,0-2.7,0-4.1,0
	c-0.6,0-0.6,0-0.6-0.6c0-2.8,0-5.6,0-8.5c0-0.8,0-0.8-0.8-0.8c-0.4,0-0.5,0.1-0.5,0.5c0,3.3,0,6.7,0,10c0,0.1,0,0.3,0,0.5
	C157.1,122.8,159.2,122.8,161.3,122.8z M151.8,121.6c-1.4,0-2.7,0-4.1,0c-0.4,0-0.5-0.1-0.5-0.5c0-3,0-5.9,0-8.9c0-0.2,0-0.3,0-0.5
	c-0.3,0-0.6,0-0.8,0c-0.4,0-0.5,0.1-0.5,0.5c0,3.4,0,6.7,0,10.1c0,0.1,0,0.3,0,0.4c2.1,0,4.2,0,6.3,0c0-0.4,0-0.7,0-1.1
	C152.1,121.6,151.9,121.6,151.8,121.6z M89.6,111.8c-0.2,0-0.5,0-0.7,0c-0.6,0-0.6,0-0.6,0.6c0,3.1,0,6.3,0,9.4c0,1.1,0,1.1,1.1,1.1
	c0,0,0.1,0,0.1,0C89.6,119.1,89.6,115.5,89.6,111.8z"/>
</svg>