<svg xmlns="http://www.w3.org/2000/svg" width="200" height="200" viewBox="0 0 200 200">
<path fill="#FFFFFF" d="M63.5,76.4l-15.8,47.1l0.6,0.2l15.8-47.1L63.5,76.4z M91.9,118.4v-5.1H94v-8.8c-0.7,2.3-1.4,4.7-2.2,7
	c-0.8,2.3-1.4,4.6-2.1,6.9H86c-0.7-2-1.4-4-2.1-6c-0.9-2.5-1.6-5.1-2.6-7.6v8.5h2.4v5.1h-11v-5.1h2.3v-10.2h-2.3v-5H88
	c0.5,1.8,1.2,3.6,1.8,5.4c0.6-1.9,1.3-3.6,2-5.4H105v5h-2.3v10.2h2.3v5.1H91.9z M116.5,118.4v-5.1h2.3v-10.2h-2.3v-5H130v5h-2.3
	v10.2h2.3v5.1H116.5z M156.3,107.6v-0.3c0-1.9-0.6-4.5-2.9-4.5c-3.1,0-3.2,3.3-3.2,5.6c0,2.2,0.3,5.6,3.3,5.6c2.7,0,3.2-2.3,2.9-4.5
	h5.8v0.4v0.5c-0.1,6-4.7,8.2-10.1,8.2c-6.8,0-11.5-3.4-11.5-10.5c0-6,3.7-10.6,10-10.6c2.9,0,4.4,0.9,6.1,3.2l0.1-2.8h5.5v9.5H156.3
	z M181.5,118.4v-5.1h1.9c-0.2-0.8-0.5-1.6-0.7-2.3h-3.4c-0.2,0.8-0.4,1.6-0.7,2.3h2.1v5.1h-9.2v-5.1h1.8c1.7-5.1,3.4-10.2,5.1-15.2
	h9.2c1.6,5.1,3.2,10.2,5,15.2h2.4v5.1H181.5z M181,104.6c-0.3,1.4-0.7,2.7-1.1,4.1h2.3C181.8,107.3,181.3,106,181,104.6
	 M110.2,123.6h0.6V93.1h-0.6V123.6z M135,123.6h0.6V93.1H135V123.6z M163,123.4l0.6,0.2l10.2-30.5l-0.6-0.2L163,123.4z M5,115.2
	c0,2,1,3.3,2.7,3.3c1.7,0,2.7-1.3,2.7-3.3c0-2-1-3.3-2.7-3.3C6,111.9,5,113.2,5,115.2 M5.6,115.2c0-1.7,0.8-2.8,2.1-2.8
	c1.3,0,2.1,1.1,2.1,2.8c0,1.7-0.8,2.8-2.1,2.8C6.5,118,5.6,116.9,5.6,115.2 M12.9,118.5v-3.1h3.2v-0.5h-3.2v-2.3h3.6V112h-4.2v6.5
	H12.9z M21.7,116.5h2.8l0.7,1.9h0.6l-2.4-6.5h-0.6l-2.5,6.5H21L21.7,116.5z M24.2,116h-2.4l0.9-2.4c0.2-0.4,0.2-0.6,0.3-0.8h0
	c0.1,0.2,0.1,0.4,0.3,0.8L24.2,116z M31.5,118.5h0.8l-2.1-2.9c0.4,0,0.8-0.1,1.1-0.3c0.5-0.3,0.8-0.8,0.8-1.5c0-0.7-0.3-1.2-0.8-1.5
	c-0.5-0.3-1-0.3-1.5-0.3h-2.5v6.5h0.6v-2.9h1.7L31.5,118.5z M27.8,112.5h1.8c0.6,0,0.9,0.1,1.2,0.2c0.4,0.2,0.7,0.6,0.7,1.1
	s-0.2,0.9-0.7,1.1c-0.3,0.1-0.5,0.2-1.2,0.2h-1.8L27.8,112.5z M33,112.5h2.1v5.9h0.6v-5.9h2.1V112H33V112.5z M10.1,103.3
	c-0.3-0.8-1-1.6-2.4-1.6C6,101.7,5,103,5,105.1s1,3.3,2.7,3.3c1.4,0,2.1-0.9,2.4-1.6l-0.5-0.3c-0.3,0.7-0.8,1.4-1.9,1.4
	c-1.3,0-2.1-1.1-2.1-2.8c0-1.7,0.8-2.8,2.1-2.8c1,0,1.6,0.6,1.9,1.4L10.1,103.3z M11.3,105.1c0,2,1,3.3,2.7,3.3
	c1.7,0,2.7-1.3,2.7-3.3c0-2-1-3.3-2.7-3.3C12.3,101.7,11.3,103,11.3,105.1 M11.9,105.1c0-1.7,0.8-2.8,2.1-2.8c1.3,0,2.1,1.1,2.1,2.8
	c0,1.7-0.8,2.8-2.1,2.8C12.7,107.9,11.9,106.8,11.9,105.1 M22.4,107.8h-3.6v-5.9h-0.6v6.5h4.2V107.8z M27.5,107.8H24v-5.9h-0.6v6.5
	h4.2V107.8z M32.9,107.8h-3.8v-2.5h3.3v-0.5h-3.3v-2.3h3.6v-0.5h-4.2v6.5h4.4V107.8z M36.6,107.9c-1.3,0-2.1-1.1-2.1-2.8
	s0.8-2.8,2.1-2.8c1,0,1.6,0.6,1.9,1.4l0.5-0.3c-0.3-0.8-1-1.6-2.4-1.6c-1.7,0-2.7,1.3-2.7,3.3s1,3.3,2.7,3.3c1,0,1.6-0.6,1.9-1v0.9
	h0.5V105h-2.9v0.5h2.3v0.1c0,0.7-0.1,1.2-0.4,1.6C37.8,107.7,37.3,107.9,36.6,107.9 M45.4,107.8h-3.8v-2.5h3.3v-0.5h-3.3v-2.3h3.6
	v-0.5H41v6.5h4.4L45.4,107.8z M6.2,91.7H5.6v6.5h0.6L6.2,91.7z M8.6,91.7H8v6.5h0.6v-4.6c0-0.5,0-0.7,0-0.9h0c0,0.1,0.3,0.5,0.6,0.9
	l3.3,4.7H13v-6.5h-0.6v4.6c0,0.5,0,0.7,0,0.9h0c0-0.1-0.3-0.5-0.5-0.9L8.6,91.7z M18.9,92.6c-0.4-0.5-1.1-1-2.2-1
	c-1.3,0-2.2,0.7-2.2,1.7c0,1.1,0.8,1.5,1.8,1.7l0.8,0.2c0.9,0.2,1.4,0.5,1.4,1.2c0,0.8-0.6,1.3-1.7,1.3s-1.8-0.6-2-1.3l-0.5,0.4
	c0.3,0.7,1.1,1.5,2.6,1.5c1.5,0,2.4-0.8,2.4-1.9c0-1.1-0.7-1.5-1.8-1.7l-0.9-0.2c-0.9-0.2-1.3-0.4-1.3-1.2c0-0.7,0.6-1.1,1.5-1.1
	c0.7,0,1.3,0.3,1.7,0.8L18.9,92.6z M19.7,92.2h2.1v5.9h0.6v-5.9h2.1v-0.5h-4.7L19.7,92.2z M26.1,91.7h-0.6v6.5h0.6V91.7z M27.2,92.2
	h2.1v5.9h0.6v-5.9h2.1v-0.5h-4.7V92.2z M35.4,98.3c1.2,0,2.1-0.6,2.3-1.6c0-0.2,0.1-0.4,0.1-1.1v-3.8h-0.6v3.8c0,0.8-0.1,1-0.2,1.3
	c-0.3,0.6-0.9,0.9-1.6,0.9c-0.8,0-1.4-0.3-1.7-0.9c-0.1-0.3-0.2-0.6-0.2-1.3v-3.8H33v3.8c0,0.7,0,0.9,0.1,1.1
	C33.3,97.7,34.2,98.3,35.4,98.3 M38.8,92.2h2.1v5.9h0.6v-5.9h2.1v-0.5h-4.7L38.8,92.2z M49.1,97.6h-3.8v-2.5h3.3v-0.5h-3.3v-2.3h3.6
	v-0.5h-4.2v6.5h4.4L49.1,97.6z M10.4,83.8c0.2-0.6,0.4-1.2,0.5-1.4h0c0,0.3-0.1,1.2-0.1,1.8V88h0.6v-6.5h-0.7l-1.8,4.6
	c-0.2,0.5-0.3,0.7-0.3,1h0c0-0.2-0.2-0.6-0.4-1l-1.9-4.6H5.6V88h0.6v-4.1c0-0.6,0-1.2-0.1-1.5h0c0.1,0.3,0.2,0.7,0.5,1.3L8.4,88h0.4
	L10.4,83.8z M13.8,86.1h2.8l0.7,1.9H18l-2.4-6.5h-0.6L12.5,88h0.6L13.8,86.1z M16.4,85.5H14l0.9-2.4c0.2-0.4,0.2-0.6,0.3-0.8h0
	c0.1,0.2,0.1,0.4,0.3,0.8L16.4,85.5z M23.3,88h0.8L22,85.1c0.4,0,0.7-0.1,1.1-0.3c0.5-0.3,0.8-0.8,0.8-1.5c0-0.7-0.3-1.2-0.8-1.5
	c-0.5-0.3-1-0.3-1.5-0.3H19V88h0.6v-2.9h1.7L23.3,88z M19.6,82.1h1.8c0.6,0,0.9,0.1,1.2,0.2c0.4,0.2,0.7,0.6,0.7,1.1
	c0,0.5-0.2,0.9-0.7,1.1c-0.3,0.1-0.5,0.2-1.2,0.2h-1.8V82.1z M27.4,85.4l2.4-3.8h-0.7l-2,3.2l-1.9-3.2h-0.7l2.3,3.8V88h0.6
	L27.4,85.4z M34.9,87.5h-3.6v-5.9h-0.6V88h4.2V87.5z M36.8,86.1h2.8l0.7,1.9H41l-2.4-6.5h-0.6L35.5,88h0.6L36.8,86.1z M39.4,85.5H37
	l0.9-2.4c0.2-0.4,0.2-0.6,0.3-0.8h0c0.1,0.2,0.1,0.4,0.3,0.8L39.4,85.5z M42.6,81.6H42V88h0.6v-4.6c0-0.5,0-0.7,0-0.9h0
	c0,0.1,0.3,0.5,0.6,0.9l3.3,4.7H47v-6.5h-0.6v4.6c0,0.5,0,0.7,0,0.9h0c0-0.1-0.3-0.5-0.5-0.9L42.6,81.6z M50.3,88c1.3,0,2,0,2.6-0.7
	c0.6-0.6,0.9-1.5,0.9-2.6c0-1.2-0.4-2.4-1.4-2.9c-0.5-0.3-1.1-0.3-2-0.3h-1.7V88H50.3z M49.4,82.1h0.8c1.1,0,1.7,0,2.2,0.5
	c0.5,0.5,0.8,1.3,0.8,2.2c0,1-0.4,1.8-0.8,2.2c-0.5,0.4-1.1,0.4-2,0.4h-1L49.4,82.1z"/>
</svg>