<svg xmlns="http://www.w3.org/2000/svg" width="200" height="200" viewBox="0 0 200 200">
<path fill="#FFFFFF" d="M150.4,108.1c1.6,0,3.1,0,4.5,0c0,0.1,0,0.1,0,0.2c-0.1,0-0.3,0.1-0.4,0.1c-0.7,0.1-1.4,0.3-1.9,0.8
	c-1.6,1.6-3.2,3.2-4.8,4.8c0.2,0.2,0.3,0.4,0.4,0.5c1.5,1.7,3,3.5,4.6,5.2c1.1,1.2,2.2,2.3,3.9,2.4c0,0,0,0.1,0,0.1
	c-0.1,0.1-0.2,0.1-0.3,0.1c-1,0-1.9,0-2.9,0c-0.7,0-1.3-0.3-1.8-0.8c-1.1-1.2-2.2-2.5-3.3-3.7c-0.7-0.8-1.4-1.7-2.1-2.6
	c0,0.2-0.1,0.3-0.1,0.5c0,1.6,0,3.3,0,4.9c0,1.2,0.2,1.4,1.4,1.5c0.1,0,0.2,0,0.4,0.2c-0.2,0-0.3,0.1-0.5,0.1c-2.4,0-4.8,0-7.3,0
	c-1,0-1.8-0.4-2.4-1.2c-1-1.3-2-2.7-3-4.1c-0.2-0.2-0.4-0.5-0.6-0.6c-0.5-0.1-1.1-0.1-1.6-0.1c-0.1,0-0.2,0.2-0.2,0.3
	c0,1.4,0,2.8,0.1,4.2c0,0.7,0.3,0.9,1,1c0.3,0,0.5,0.1,0.8,0.1c0,0,0,0.1,0,0.1c-0.2,0.1-0.3,0.1-0.5,0.1c-1.5,0-3.1,0-4.6,0
	c-0.1,0-0.3-0.1-0.4-0.1c0-0.1,0-0.1,0-0.2c0.2,0,0.4-0.1,0.5-0.1c0.5,0,0.8-0.3,0.8-0.8c0.1-1,0.1-2,0.1-3c0-2.8,0-5.7,0-8.5
	c0-1-0.3-1.2-1.3-1.3c-0.2,0-0.3-0.1-0.5-0.1c0-0.1,0-0.1,0-0.2c0.2,0,0.3-0.1,0.5-0.1c1.7,0,3.5,0,5.2,0c0.4,0,0.9,0,1.3,0.1
	c2.2,0.4,3.4,2.2,2.8,4.4c-0.3,1-0.8,1.8-1.5,2.5c-0.2,0.2-0.4,0.5-0.7,0.7c0.2,0.3,0.5,0.7,0.7,1c1,1.3,2,2.6,3.1,3.9
	c0.7,0.9,1.6,1.5,2.8,1.4c0.8,0,1-0.2,1.1-1c0.1-0.9,0.1-1.7,0.1-2.6c0-2.7,0-5.4,0-8.1c0-0.3,0-0.5,0-0.8c-0.1-0.9-0.3-1.2-1.2-1.2
	c-0.2,0-0.4-0.1-0.6-0.1c0-0.1,0-0.1,0-0.2c1.8,0,3.6,0,5.4,0c0,0.1,0,0.1,0,0.2c-0.2,0-0.4,0.1-0.5,0.1c-0.4,0.1-0.8,0.3-0.8,0.7
	c0,1.7,0,3.4,0,5.2c0,0,0.1,0,0.1,0c1.4-1.5,2.8-3.1,4.2-4.7c0,0,0,0,0,0C151,108.9,151,108.8,150.4,108.1z M132.4,112.2
	c0,0.8,0,1.6,0,2.5c0,0.7,0,0.8,0.7,0.9c1.7,0.3,2.6-0.3,3-1.9c0.2-0.9,0.2-1.8-0.1-2.6c-0.4-1.5-1.7-2.2-3.2-2
	c-0.3,0-0.5,0.2-0.5,0.5C132.4,110.4,132.4,111.3,132.4,112.2z M6.1,148.4c-0.2,0-0.4,0-0.6,0c-0.1,0-0.2,0.2-0.2,0.2
	c0,0.1,0.1,0.2,0.2,0.3c0.1,0.1,0.3,0,0.4,0c62.8,0,125.6,0,188.4,0c0.1,0,0.3,0,0.4,0c0.1-0.1,0.2-0.2,0.3-0.3
	c-0.1-0.1-0.2-0.2-0.3-0.2c-0.2,0-0.4,0-0.6,0c-31.3,0-62.6,0-93.9,0C68.8,148.4,37.5,148.4,6.1,148.4z M74,68.7
	c0-14.6,11.7-26.2,26.3-26.2c14.3,0,26,11.8,26,26.2c0,14.4-11.7,26.1-26.2,26.1C85.6,94.8,74,83.2,74,68.7z M100.1,94.3
	c14.2,0,25.6-11.4,25.6-25.6c0-14.1-11.4-25.6-25.6-25.6c-14.2,0-25.7,11.4-25.7,25.6C74.5,82.9,86,94.3,100.1,94.3z M23.2,143.8
	c-1.3-0.2-1.5-0.3-1.7-1.7c0-0.1,0-0.2-0.1-0.3c-0.5-3.9-1.1-7.8-1.6-11.7c0-0.3-0.2-0.5-0.3-0.7c-0.2,0.2-0.4,0.4-0.5,0.6
	c-1.5,3.3-3,6.6-4.5,9.9c-0.1,0.2-0.2,0.4-0.3,0.7c-0.2-0.4-0.3-0.6-0.4-0.8c-1.5-3.3-3-6.6-4.6-9.9c-0.1-0.2-0.3-0.3-0.5-0.5
	c-0.1,0.2-0.3,0.4-0.3,0.6c-0.4,3-0.9,6.1-1.3,9.1c-0.2,1.2-0.3,2.5-0.6,3.7c-0.1,0.8-0.3,0.9-1.1,1c-0.1,0-0.2,0.1-0.4,0.1
	c0.4,0.3,4.2,0.3,4.5,0c-0.2,0-0.3-0.1-0.4-0.1c-1.1-0.2-1.2-0.2-1.1-1.3c0.2-1.6,0.4-3.1,0.6-4.7c0.1-1,0.3-2,0.4-3.2
	c0.2,0.3,0.2,0.4,0.3,0.6c1.3,2.7,2.6,5.5,3.8,8.2c0.1,0.2,0.3,0.4,0.5,0.7c0.2-0.2,0.4-0.4,0.5-0.7c1.3-2.8,2.5-5.5,3.8-8.3
	c0.1-0.2,0.2-0.4,0.3-0.7c0.1,0.2,0.1,0.3,0.1,0.4c0.3,2.2,0.6,4.4,0.8,6.6c0.1,0.8,0.5,1.6-0.1,2.4c0.8,0.3,4.2,0.3,4.7,0
	C23.5,143.8,23.4,143.8,23.2,143.8z M73.7,108.3c0.1,0,0.3,0.1,0.4,0.1c0.4,0,0.7,0.3,0.9,0.7c0.1,0.2,0.2,0.5,0.3,0.7
	c1.3,4,2.5,7.9,3.8,11.9c0.1,0.3,0.4,0.6,0.5,1c0.2-0.3,0.5-0.6,0.6-0.9c1.1-2.9,2.2-5.9,3.3-8.8c0.1-0.2,0.1-0.4,0.3-0.7
	c0.5,1.2,0.9,2.3,1.3,3.4c0.9,2.2,1.7,4.4,2.6,6.6c0.1,0.2,0.3,0.3,0.4,0.5c0.1-0.2,0.3-0.3,0.4-0.5c0-0.1,0-0.1,0.1-0.2
	c0.9-2.9,1.9-5.9,2.8-8.8c0.4-1.3,0.9-2.6,1.3-3.9c0.2-0.5,0.5-0.8,1.1-0.8c0.1,0,0.2-0.1,0.4-0.1c0,0,0-0.1,0-0.1
	c-1.3,0-2.7,0-4.1,0c0.1,0.1,0.1,0.2,0.1,0.2c0.1,0,0.1,0,0.2,0.1c0.9,0.2,1,0.3,0.8,1.1c-0.4,1.5-0.8,3-1.2,4.5
	c-0.4,1.5-0.8,3-1.3,4.6c-0.1-0.3-0.2-0.5-0.3-0.6c-1.2-3.1-2.4-6.2-3.6-9.2c-0.1-0.2-0.3-0.4-0.4-0.5c-0.1,0.2-0.3,0.4-0.4,0.5
	c0,0.1-0.1,0.2-0.1,0.2c-1,3-2.1,5.9-3.1,8.9c-0.1,0.3-0.2,0.5-0.3,0.9c-0.1-0.3-0.2-0.5-0.2-0.6c-0.5-1.8-1.1-3.6-1.6-5.4
	c-0.3-1.1-0.6-2.3-0.9-3.5c-0.2-0.6-0.1-0.7,0.6-0.9c0.1,0,0.2-0.1,0.3-0.1c0,0,0-0.1,0-0.1c-1.6,0-3.2,0-4.8,0
	C73.7,108.2,73.7,108.2,73.7,108.3z M36.2,143.8c0.1,0,0.3-0.1,0.4-0.1c0.8-0.1,0.9-0.2,1-1c0.1-0.9,0.1-1.8,0.1-2.7
	c0-2.6,0-5.3,0-7.9c0-0.2,0-0.4,0-0.5c-0.1-1.3-0.2-1.4-1.4-1.5c-0.1,0-0.2-0.1-0.4-0.1c0-0.1,0-0.1,0-0.2c0.2,0,0.3-0.1,0.5-0.1
	c2.4,0,4.8,0,7.2,0c0.9,0,1.9,0.2,2.8,0.5c2.7,0.9,4,2.9,4.3,5.6c0.5,3.7-1.6,7-5.1,8c-1.4,0.4-2.9,0.4-4.3,0.3
	c-1.5-0.1-2.9-0.1-4.4-0.1c-0.2,0-0.4,0-0.6-0.1C36.2,144,36.2,143.9,36.2,143.8z M48.3,137.5c0-1.2-0.2-2.2-0.6-3.2
	c-1.3-3.1-4.6-3.9-7.2-3.6c-0.4,0.1-0.4,0.3-0.4,0.7c0,2.1,0,4.3,0,6.4c0,1.4,0.1,2.8,0.1,4.2c0,0.7,0.4,1.1,1,1.2
	c0.7,0.1,1.5,0.2,2.3,0.2c2.6-0.1,4.3-1.6,4.7-3.9C48.2,138.8,48.2,138.1,48.3,137.5z M126.5,144.4c-4.3,0-7.3-3.1-7.3-7.5
	c0-4.4,3.1-7.4,7.5-7.4c4.4,0,7.3,2.8,7.3,7.1C134,141.2,130.9,144.4,126.5,144.4z M131.5,137.4c-0.1-1.9-0.4-3.6-1.6-5.1
	c-1.3-1.6-2.9-2.1-4.8-1.7c-1.9,0.4-2.7,1.8-3.1,3.5c-0.3,1.5-0.3,3,0,4.4c0.3,1.5,0.9,2.8,2.1,3.7c2.7,2.2,6.2,1.2,7-2.2
	C131.3,139.2,131.4,138.3,131.5,137.4z M119,122.7c-4.3,0-7.3-3.1-7.2-7.5c0-4.4,3.1-7.4,7.5-7.4c4.5,0,7.3,2.8,7.2,7.2
	C126.5,119.5,123.4,122.7,119,122.7z M124,115.7C124,115.7,124,115.7,124,115.7c-0.1-0.4-0.1-0.8-0.1-1.2c-0.2-1.7-0.7-3.2-1.9-4.5
	c-2-2.1-6.4-2.1-7.5,2c-0.4,1.5-0.4,3.1-0.1,4.7c0.3,1.6,1,3,2.3,4c2.7,2.1,6,1,6.9-2.3C123.8,117.6,123.9,116.6,124,115.7z
	 M58.2,118.4c-2.5-2.7-5-5.4-7.5-8.1c-0.7-0.7-1.3-1.4-1.9-2.1c-0.1-0.1-0.3-0.2-0.5-0.3c-0.1,0.2-0.2,0.4-0.2,0.6
	c0,0.2,0,0.4,0,0.5c-0.1,3.7-0.1,7.5-0.2,11.2c0,0.3,0,0.6,0,1c-0.1,0.8-0.3,0.9-1,1c-0.2,0-0.3,0.1-0.5,0.1c0,0.1,0,0.1,0,0.2
	c0.1,0,0.2,0.1,0.4,0.1c1.4,0,2.8,0,4.2,0c0.1,0,0.3-0.1,0.4-0.2c-0.1-0.1-0.2-0.2-0.3-0.2c-1.1-0.1-1.3-0.3-1.4-1.4
	c0-0.1,0-0.3,0-0.4c-0.1-2.6-0.1-5.2-0.2-7.9c0-0.2,0-0.3,0-0.5c0.1,0,0.1-0.1,0.2-0.1c0.1,0.1,0.1,0.3,0.2,0.4c3,3.2,6,6.5,9.1,9.7
	c0.2,0.3,0.6,0.4,0.9,0.6c0.1-0.3,0.2-0.7,0.2-1c0.1-3.7,0.1-7.4,0.2-11.1c0-0.4,0-0.8,0.1-1.2c0.1-0.6,0.3-0.9,1-0.9
	c0.2,0,0.3-0.1,0.5-0.1c0,0,0-0.1,0-0.1c-1.6,0-3.2,0-4.7,0c0,0.1,0,0.1,0,0.2c0.2,0,0.3,0.1,0.5,0.1c0.9,0,1.1,0.3,1.3,1.1
	c0,0.2,0,0.4,0,0.6c0.1,2.7,0.1,5.3,0.2,8c0,0.2,0,0.3,0,0.6C58.4,118.6,58.3,118.5,58.2,118.4z M178.2,137.2c0.1,0,0.3,0.1,0.4,0.1
	c1.1,0.1,1.3,0.3,1.3,1.4c0,1.2,0,2.4,0,3.5c0,0.8-0.2,1-0.9,1.1c-2.7,0.4-5.2-0.9-6.4-3.4c-0.8-1.7-1-3.5-0.7-5.3
	c0.3-1.7,1-3,2.6-3.7c2.1-0.9,4.1-0.6,6,0.6c0.6,0.4,0.9,1,1.1,1.7c0,0.2,0.1,0.4,0.2,0.6c0.1-0.1,0.2-0.2,0.2-0.2
	c0.1-1.1,0.1-2.2,0.1-3.3c0-0.1-0.2-0.2-0.3-0.3c-1.8-0.2-3.5-0.5-5.3-0.5c-2.8,0-5.1,1.2-6.5,3.8c-0.7,1.3-0.9,2.8-0.8,4.2
	c0.2,2.6,1.3,4.6,3.7,5.8c2.7,1.3,5.6,1.3,8.4,0.4c0.6-0.2,0.8-0.5,0.8-1.2c-0.1-1.4,0-2.8,0-4.2c0-0.7,0.2-0.9,0.9-1
	c0.2,0,0.3-0.1,0.5-0.1c0-0.1,0-0.1,0-0.2c-1.8,0-3.6,0-5.4,0C178.2,137.1,178.2,137.2,178.2,137.2z M117,133.8
	c0-0.1,0.1-0.3,0.1-0.4c0.1-1,0.1-2,0.1-3c0-0.1-0.2-0.3-0.3-0.4c-1.6-0.2-3.2-0.4-4.8-0.5c-1.6,0-3.2,0.4-4.6,1.4
	c-2.3,1.8-3,4.2-2.8,6.9c0.2,1.9,1,3.6,2.6,4.8c2.7,2,5.8,2.1,9,1.3c0.2-0.1,0.5-0.4,0.6-0.7c0.2-0.7,0.3-1.5,0.4-2.2
	c0-0.2,0-0.3-0.1-0.5c-0.1,0-0.1,0-0.2,0c-0.1,0.2-0.1,0.4-0.2,0.5c-0.3,1.1-1,1.8-2.2,2c-2.8,0.6-5.5-0.7-6.7-3.3
	c-1-2.1-1-4.3-0.2-6.5c0.5-1.4,1.5-2.3,3-2.7c1.4-0.3,2.8-0.2,4.1,0.3c1.1,0.4,1.7,1.2,1.8,2.4c0,0.2,0.1,0.3,0.1,0.5
	C116.9,133.7,116.9,133.7,117,133.8z M72.9,133.7c0-0.2,0.1-0.3,0.1-0.5c0.1-1,0.1-1.9,0.1-2.9c0-0.1-0.2-0.3-0.3-0.4
	c-1.9-0.4-3.8-0.6-5.7-0.5c-2.9,0.3-5.2,2.1-6.1,4.8c-0.9,3-0.1,6.3,2.1,8.1c1.3,1.1,2.7,1.6,4.4,1.8c1.5,0.2,3.1,0.2,4.6-0.2
	c0.3-0.1,0.7-0.3,0.7-0.6c0.2-0.8,0.3-1.7,0.4-2.6c0-0.1-0.1-0.2-0.1-0.3c-0.2,0.1-0.3,0.3-0.3,0.5c-0.3,1.1-1.1,1.8-2.2,2
	c-2.9,0.6-5.6-0.8-6.8-3.6c-0.8-2-0.8-4.1-0.1-6.2c0.5-1.4,1.5-2.5,3-2.8c1.4-0.3,2.7-0.2,4,0.3c1.1,0.4,1.7,1.2,1.9,2.4
	c0,0.2,0.1,0.3,0.1,0.5C72.7,133.7,72.8,133.7,72.9,133.7z M88.4,144.1c-1.6,0.1-3.1,0.1-4.7-0.1c0.5-0.3,0.4-0.6,0.3-1
	c-0.4-1.1-0.8-2.2-1.2-3.3c-0.1-0.3-0.3-0.5-0.7-0.5c-1.1,0-2.2,0-3.4,0c-0.2,0-0.4,0.1-0.5,0.3c-0.4,1.1-0.8,2.1-1.1,3.2
	c-0.3,0.8-0.1,1,0.8,1.1c0.1,0,0.2,0,0.4,0.1c-0.3,0.3-4.3,0.3-4.7,0c0.3,0,0.5-0.1,0.7-0.1c0.6,0,1-0.3,1.3-0.9
	c0.2-0.3,0.3-0.6,0.4-0.9c1.5-3.9,3-7.8,4.5-11.7c0.1-0.3,0.4-0.6,0.5-0.9c0.2,0.3,0.4,0.5,0.5,0.9c1.4,3.7,2.8,7.4,4.3,11.1
	c0.2,0.5,0.4,0.9,0.6,1.4c0.3,0.6,0.8,1.1,1.6,1.1c0.1,0,0.3,0,0.4,0.1C88.4,143.9,88.4,144,88.4,144.1z M82.2,138.2
	c-0.6-1.7-1.1-3.3-1.7-4.9c0,0-0.1,0-0.1,0c-0.6,1.6-1.1,3.2-1.7,4.8C79.9,138.2,81,138.2,82.2,138.2z M166.1,138.5
	c0.1-1,0.2-2.1,0.3-3.1c-0.4,0.2-0.7,0.4-1,0.5c-1,0.1-1.9,0.1-2.9,0.1c-0.1,0-0.4-0.2-0.4-0.3c0-1.5,0-3,0-4.5
	c0-0.1,0.2-0.3,0.3-0.3c0.9,0,1.8,0,2.7,0.1c0.6,0.1,0.9,0.4,1,1c0,0.2,0.1,0.3,0.1,0.5c0.1,0,0.1,0,0.2,0c0.1-0.9,0.2-1.9,0.3-2.8
	c-0.9,0-1.7,0.1-2.4,0.1c-1.8,0-3.7,0-5.5,0c-0.2,0-0.5,0-0.7,0.1c0,0.1,0,0.1,0,0.2c0.2,0,0.3,0.1,0.5,0.1c1,0.1,1.2,0.3,1.3,1.3
	c0,3,0,6,0,9c0,0.9-0.1,1.7-0.1,2.6c0,0.5-0.3,0.7-0.8,0.7c-0.2,0-0.4,0.1-0.6,0.1c0,0.1,0,0.1,0,0.2c0.2,0,0.4,0.1,0.6,0.1
	c1.1,0,2.1,0,3.2,0c1.3,0,2.7,0,4,0.1c0.5,0,0.7-0.2,0.8-0.6c0.1-0.6,0.1-1.2,0.2-1.9c0-0.1-0.1-0.3-0.1-0.4c0,0-0.1,0-0.1,0
	c0,0.2-0.1,0.4-0.1,0.5c-0.2,0.8-0.5,1.2-1.4,1.3c-0.7,0.1-1.4,0.1-2,0c-0.8-0.1-1.1-0.4-1.1-1.2c0-1.2,0-2.4,0-3.5
	c0-0.4,0-0.9,0-1.3c1,0,2,0,2.9,0c0.5,0,0.8,0.4,0.8,0.9c0,0.2,0.1,0.4,0.1,0.7C165.9,138.5,166,138.5,166.1,138.5z M72.6,119.5
	c-0.1,0.2-0.1,0.4-0.2,0.5c-0.1,0.8-0.6,1.3-1.4,1.3c-0.7,0-1.4,0.1-2.1,0c-0.8-0.1-1-0.4-1.1-1.2c0-1.5,0-3.1,0-4.6
	c0-0.3,0.1-0.4,0.4-0.4c0.8,0,1.5,0,2.3,0.1c0.7,0,1,0.4,1.1,1c0,0.2,0.1,0.3,0.1,0.5c0.1,0,0.1,0,0.2,0c0.1-1,0.2-2,0.2-3
	c-0.5,0.1-1,0.3-1.5,0.4c-0.8,0.1-1.6,0-2.3,0.1c-0.3,0-0.4-0.1-0.4-0.4c0-1.5,0-3,0-4.5c0-0.1,0.2-0.3,0.3-0.3c0.9,0,1.8,0,2.7,0.1
	c0.7,0.1,0.9,0.4,1,1c0,0.2,0.1,0.3,0.1,0.5c0.1,0,0.1,0,0.2,0c0.1-0.9,0.2-1.8,0.3-2.8c-0.6,0-1.2,0.1-1.8,0.1c-2.1,0-4.1,0-6.2,0
	c-0.2,0-0.4,0-0.6,0.1c0,0.1,0,0.1,0,0.2c0.2,0,0.3,0.1,0.5,0.1c1,0.1,1.3,0.3,1.3,1.3c0,2.8,0,5.7,0,8.5c0,0.9,0,1.9-0.1,2.8
	c-0.1,0.8-0.2,0.9-1.1,1c-0.1,0-0.2,0.1-0.4,0.1c0,0.1,0,0.1,0,0.2c0.2,0,0.4,0.1,0.6,0.1c1.3,0,2.7,0,4,0c1,0,2,0,3,0
	c0.8,0,0.9-0.1,1-0.9c0.1-0.5,0.1-1,0.2-1.5c0-0.2,0-0.4,0-0.5C72.7,119.6,72.6,119.6,72.6,119.5z M24.6,130c0.1,0,0.3,0.1,0.4,0.1
	c1.2,0.1,1.4,0.3,1.4,1.5c0,3,0,5.9,0,8.9c0,0.8-0.1,1.5-0.1,2.3c0,0.6-0.3,0.9-0.9,0.9c-0.2,0-0.3,0.1-0.5,0.1c0,0.1,0,0.1,0,0.2
	c0.2,0,0.4,0.1,0.6,0.1c1.3,0,2.7,0,4,0c1.1,0,2.2,0,3.3,0c0.4,0,0.7-0.2,0.7-0.6c0.1-0.5,0.1-1,0.2-1.5c0-0.3,0-0.5,0-0.8
	c-0.1,0-0.1,0-0.2,0c-0.1,0.2-0.1,0.4-0.2,0.5c-0.2,0.8-0.6,1.2-1.4,1.3c-0.7,0.1-1.4,0.1-2.1,0c-0.8-0.1-1.1-0.4-1.1-1.1
	c-0.1-1.5,0-3.1,0-4.6c0-0.1,0.2-0.4,0.4-0.4c0.8,0,1.6,0,2.3,0.1c0.6,0,0.9,0.3,1,1c0,0.2,0.1,0.4,0.1,0.6c0.1,0,0.1,0,0.2,0
	c0.1-1,0.2-2.1,0.3-3.1c0,0-0.1-0.1-0.1-0.1c-0.6,0.8-1.4,0.5-2.2,0.6c-0.5,0-1,0-1.5,0c-0.3,0-0.5-0.1-0.5-0.4c0-1.5,0-3,0-4.4
	c0-0.1,0-0.2,0.1-0.4c1,0.1,2,0.1,2.9,0.2c0.7,0.1,0.9,0.4,1,1.1c0,0.2,0.1,0.3,0.1,0.5c0.1,0,0.2,0,0.2,0c0.1-0.9,0.2-1.9,0.3-2.7
	c-2.9,0-5.8,0-8.6,0C24.7,129.8,24.6,129.9,24.6,130z M185.4,130c0.1,0,0.2,0.1,0.4,0.1c1.3,0.2,1.4,0.3,1.4,1.6c0,3.3,0,6.6,0,9.9
	c0,0.4-0.1,0.9-0.1,1.3c-0.1,0.5-0.3,0.8-0.8,0.8c-0.2,0-0.4,0.1-0.6,0.1c0,0.1,0,0.1,0,0.2c0.2,0,0.4,0.1,0.6,0.1c1,0,2,0,3,0
	c1.4,0,2.7,0,4.1,0.1c0.5,0,0.8-0.2,0.8-0.7c0.1-0.6,0.1-1.2,0.2-1.9c0-0.1,0-0.2-0.1-0.4c0,0-0.1,0-0.1,0c-0.1,0.2-0.1,0.4-0.2,0.6
	c-0.2,0.8-0.6,1.2-1.4,1.2c-0.7,0.1-1.4,0.1-2.1,0c-0.7-0.1-1-0.3-1-1c-0.1-1.6-0.1-3.2,0-4.8c0-0.1,0.2-0.3,0.3-0.3
	c0.8,0,1.6,0,2.4,0.1c0.6,0,0.9,0.3,1,1c0,0.2,0.1,0.4,0.1,0.6c0.1,0,0.1,0,0.2,0c0.1-1,0.2-2.1,0.2-3.1c-0.4,0.2-0.7,0.4-1.1,0.4
	c-0.9,0.1-1.8,0.1-2.8,0.1c-0.3,0-0.4-0.1-0.4-0.4c0-1.5,0-3,0-4.4c0-0.1,0.2-0.3,0.3-0.3c0.9,0,1.8,0,2.7,0.1c0.7,0.1,0.9,0.4,1,1
	c0,0.2,0.1,0.3,0.1,0.5c0.1,0,0.1,0,0.2,0c0.1-0.9,0.2-1.9,0.2-2.7c-2.9,0-5.8,0-8.6,0C185.4,129.8,185.4,129.9,185.4,130z
	 M102.6,109.5c-0.4-0.7-0.4-0.7,0.3-1.3c0,0,0-0.1,0-0.1c-1.6,0-3.1,0-4.7,0c0,0.1-0.1,0.1-0.1,0.2c0.1,0,0.1,0.1,0.2,0.1
	c1,0.1,1.6,0.8,2.1,1.6c0.7,1.1,1.3,2.4,2.1,3.5c1.3,1.8,1.8,3.8,1.5,6c-0.1,0.6,0,1.2-0.1,1.8c0,0.5-0.3,0.8-0.8,0.9
	c-0.2,0-0.4,0.1-0.6,0.1c0,0.1,0,0.1,0,0.2c0.2,0,0.3,0.1,0.5,0.1c1.6,0,3.2,0,4.8,0c0.2,0,0.3-0.1,0.5-0.1c0-0.1,0-0.1,0-0.2
	c-0.3,0-0.5-0.1-0.8-0.1c-0.9-0.1-1.1-0.3-1.1-1.2c0-0.7,0-1.3,0-2c-0.2-2,0.3-3.8,1.4-5.5c0.8-1.3,1.6-2.6,2.4-4
	c0.4-0.6,0.9-0.9,1.6-1c0.1,0,0.2-0.1,0.3-0.1c0,0,0-0.1,0-0.1c-1.4,0-2.8,0-4.3,0c0.2,0.1,0.2,0.2,0.3,0.2c0.5,0.1,0.5,0.5,0.4,0.9
	c-0.1,0.2-0.1,0.4-0.2,0.6c-0.9,1.7-1.8,3.4-2.7,5.2C104.5,113.2,103.5,111.4,102.6,109.5z M156.4,141.2c-0.1,0.2-0.1,0.3-0.2,0.5
	c-0.3,1-0.7,1.4-1.8,1.4c-0.6,0-1.3,0-1.9,0c-0.9-0.1-1.3-0.4-1.3-1.3c0-3.5,0-7,0-10.5c0-0.9,0.2-1,1.1-1.1c0.2,0,0.4-0.1,0.5-0.1
	c0,0,0-0.1,0-0.1c-1.9,0-3.7,0-5.6,0c0,0,0,0.1,0,0.1c0.1,0,0.2,0.1,0.4,0.1c1.1,0.2,1.3,0.3,1.3,1.4c0,3.1,0,6.3,0,9.4
	c0,0.7-0.1,1.3-0.1,2c0,0.5-0.3,0.7-0.8,0.8c-0.2,0-0.4,0.1-0.6,0.1c0,0.1,0,0.1,0,0.2c0.2,0,0.5,0.1,0.7,0.1c1.4,0,2.7,0,4.1,0
	c1.1,0,2.3,0,3.4,0c0.7,0,0.8-0.1,0.9-0.8c0.1-0.6,0.1-1.2,0.2-1.7c0-0.1,0-0.3-0.1-0.4C156.5,141.2,156.4,141.2,156.4,141.2z
	 M136.2,130c0.1,0,0.3,0.1,0.4,0.1c1,0.1,1.2,0.3,1.2,1.3c0,0.2,0,0.3,0,0.5c0,3,0,6.1,0,9.1c0,0.6-0.1,1.3-0.1,1.9
	c0,0.5-0.3,0.8-0.8,0.8c-0.2,0-0.4,0.1-0.5,0.1c0,0.1,0,0.1,0,0.2c0.2,0,0.4,0.1,0.6,0.1c1.4,0,2.8,0,4.2,0c1.1,0,2.2,0,3.4,0
	c0.5,0,0.8-0.2,0.8-0.7c0.1-0.6,0.1-1.2,0.2-1.9c0-0.1,0-0.3,0-0.4c0,0-0.1,0-0.1,0c-0.1,0.2-0.1,0.3-0.2,0.5
	c-0.2,0.7-0.5,1.3-1.2,1.3c-1,0.1-1.9,0-2.9,0c-0.5,0-0.8-0.4-0.9-0.9c-0.1-0.5-0.1-1.1-0.1-1.6c0-2.5,0-5.1,0-7.6
	c0-0.5,0-1.1,0-1.6c0.1-0.8,0.3-1,1.1-1.1c0.2,0,0.4-0.1,0.6-0.1c0-0.1,0-0.1,0-0.2c-1.9,0-3.7,0-5.6,0
	C136.2,129.9,136.2,129.9,136.2,130z M88.7,130c0.2,0,0.4,0.1,0.6,0.1c0.7,0.1,0.9,0.3,1,1c0,0.2,0,0.4,0,0.6c0,3.3,0,6.6,0,9.9
	c0,0.5-0.1,0.9-0.1,1.4c-0.1,0.4-0.3,0.7-0.8,0.7c-0.2,0-0.4,0.1-0.6,0.1c0,0.1,0,0.1,0,0.2c0.2,0,0.4,0.1,0.7,0.1c1.3,0,2.7,0,4,0
	c1.2,0,2.4,0,3.5,0c0.2,0,0.7-0.1,0.7-0.3c0.1-0.9,0.2-1.8,0.3-2.7c0,0-0.1,0-0.2,0c0,0.2-0.1,0.3-0.1,0.5c-0.2,1-0.7,1.4-1.7,1.4
	c-0.7,0-1.3,0-2,0c-1-0.1-1.3-0.4-1.4-1.3c-0.1-2.6-0.1-5.2-0.1-7.7c0-0.9,0-1.9,0.1-2.8c0.1-0.8,0.3-1,1.1-1.1
	c0.2,0,0.4-0.1,0.6-0.1c0-0.1,0-0.1,0-0.2c-1.9,0-3.7,0-5.6,0C88.7,129.9,88.7,130,88.7,130z M58.7,143.8c-0.1,0-0.2-0.1-0.3-0.1
	c-1.5-0.2-1.5-0.2-1.6-1.7c0-0.1,0-0.2,0-0.3c0-2.5,0-5,0-7.5c0-1,0-2,0-3c0-0.8,0.2-1,1-1.1c0.2,0,0.3-0.1,0.4-0.1c0,0,0-0.1,0-0.1
	c-1.8,0-3.5,0-5.3,0c0,0.1,0,0.1,0,0.2c0.2,0,0.3,0.1,0.5,0.1c0.8,0.1,1,0.3,1.1,1.1c0,0.2,0,0.4,0,0.6c0,3.2,0,6.3,0,9.5
	c0,0.6-0.1,1.1-0.1,1.7c0,0.5-0.3,0.7-0.8,0.8c-0.2,0-0.4,0.1-0.6,0.1c0,0.1,0,0.1,0,0.2c1.9,0,3.8,0,5.7,0
	C58.7,144,58.7,143.9,58.7,143.8z M18.1,156.7c0-1,0-1.9,0-2.9c0,0,0.1,0,0.1,0c0.5,1.2,1.1,2.3,1.6,3.5c0.6-1.2,1.2-2.3,1.7-3.5
	c0,0,0.1,0,0.1,0c0,0.8,0,1.6,0,2.4c0,0.4,0,0.7-0.5,0.9c0.5,0,1,0,1.5,0c-0.5-0.1-0.5-0.5-0.5-0.9c0-0.8,0-1.6,0-2.4
	c0-0.5-0.2-1,0.5-1.3c-0.3,0-0.7,0-0.9,0c-0.6,1.2-1.2,2.4-1.7,3.5c-0.1,0-0.1,0-0.2,0c-0.6-1.2-1.1-2.3-1.7-3.5c-0.3,0-0.6,0-1.1,0
	c0.6,0.3,0.7,0.3,0.6,0.9c-0.1,0.9-0.1,1.7-0.2,2.6c0,0.4,0,0.8-0.5,0.9c0.4,0,0.9,0,1.3,0C18.4,157,18.1,156.9,18.1,156.7z
	 M34.5,157.2c-0.2-0.2-0.5-0.3-0.5-0.4c0-1,0-1.9,0-2.9c0.1,0,0.1,0,0.2,0c0.5,1.1,1.1,2.3,1.6,3.5c0.6-1.2,1.2-2.3,1.7-3.5
	c0.1,0,0.1,0,0.2,0c0,0.8,0,1.5,0,2.3c0,0.4,0.1,0.8-0.4,1c0.5,0,1,0,1.5,0c-0.4-0.1-0.5-0.4-0.5-0.8c0-0.8,0-1.7-0.1-2.5
	c0-0.5-0.1-1,0.7-1.1c-1.1-0.2-1.1-0.2-1.4,0.6c-0.5,1-0.9,1.9-1.5,3c-0.5-1.1-1-2.1-1.5-3c-0.3-0.7-0.5-0.8-1.2-0.5
	c0.5,0.3,0.5,0.3,0.5,0.9c0,0.9-0.1,1.7-0.2,2.6c0,0.3-0.3,0.6-0.4,0.9C33.6,157.2,34,157.2,34.5,157.2z M58.4,155.1
	c0.6,0.8,1.2,1.5,1.7,2.1c-0.4,0.1-0.8,0-1.1-0.4c-0.3-0.4-0.6-0.9-0.9-1.3c-0.2-0.2-0.5-0.2-0.7-0.4c-0.1,0.2-0.1,0.4-0.2,0.6
	c0,0.2,0,0.4,0,0.5c0.1,0.3,0.2,0.6,0.3,0.8c-0.4,0-0.9,0-1.4,0c0.5-0.1,0.5-0.5,0.5-0.9c0-0.9,0-1.7,0-2.6c0-0.3-0.2-0.6-0.3-1
	c0.7,0,1.5,0,2.3,0.2c0.9,0.2,1.1,1.3,0.4,1.9C58.8,154.8,58.7,154.9,58.4,155.1z M57.2,153.9C57.2,153.9,57.2,153.9,57.2,153.9
	c0,0.2,0,0.5,0,0.7c0,0.1,0.1,0.3,0.2,0.3c0.5,0.2,1-0.1,1.2-0.5c0.2-0.5,0-1.1-0.4-1.4c-0.6-0.4-1-0.2-1,0.6
	C57.2,153.7,57.2,153.8,57.2,153.9z M42.3,152.8c0.7,0,1.5,0,2.2,0c0.4,0,0.7,0.3,0.8,0.7c0.1,0.4,0,0.8-0.4,1.1c-0.1,0-0.1,0.1,0,0
	c0.3,0.4,0.7,0.8,0.8,1.2c0.2,0.6-0.3,1.3-1.1,1.4c-0.7,0.1-1.5,0-2.2,0c0.1-0.3,0.3-0.6,0.3-0.9c0-0.9,0-1.8,0-2.7
	c0-0.4,0-0.7-0.6-0.7C42.3,152.8,42.3,152.8,42.3,152.8z M43.3,155.8C43.3,155.8,43.4,155.8,43.3,155.8c0.1,0.2,0.1,0.3,0.1,0.5
	c0,0.7,0.3,0.9,1,0.7c0.4-0.1,0.7-0.3,0.7-0.7c0-0.4-0.1-0.9-0.4-1.1c-0.3-0.2-0.8-0.2-1.2-0.2C43.5,155,43.4,155.5,43.3,155.8z
	 M43.4,153.8C43.4,153.8,43.4,153.8,43.4,153.8c0,0.2,0,0.4,0,0.6c0,0.1,0.2,0.3,0.2,0.3c0.3,0,0.6-0.1,0.9-0.2
	c0.4-0.2,0.4-0.7,0.2-1.1c-0.1-0.4-0.7-0.6-1.1-0.5c-0.4,0.1-0.2,0.5-0.3,0.8C43.4,153.7,43.4,153.7,43.4,153.8z M138.3,153.9
	c0,0.8,0,1.6,0,2.4c0,0.4,0.1,0.8-0.5,0.9c0.5,0,0.9,0,1.4,0c-0.2-0.2-0.5-0.3-0.5-0.5c0-1,0-2,0-3.1c1.1,1.3,2.2,2.5,3.2,3.7
	c0.1-0.2,0.1-0.4,0.1-0.6c0-1,0-2,0-2.9c0-0.4,0-0.8,0.5-1c-0.5,0-0.9,0-1.4,0c0.2,0.2,0.5,0.3,0.5,0.5c0,0.9,0,1.9,0,2.9
	c-0.9-1-1.8-1.9-2.5-2.9c-0.4-0.6-0.8-0.7-1.5-0.5C138.2,152.9,138.3,153.4,138.3,153.9z M169.4,157.3c-0.4,0.1-0.9-0.1-1.2-0.5
	c-0.3-0.4-0.6-0.8-0.8-1.2c-0.2-0.3-0.5-0.5-0.9-0.3c0.2,0.6-0.4,1.4,0.5,1.9c-0.6,0-1.1,0-1.6,0c0.5-0.1,0.5-0.5,0.5-0.9
	c0-0.9,0-1.8,0-2.7c0-0.3-0.2-0.5-0.3-0.9c0.7-0.1,1.6-0.2,2.4,0.1c0.7,0.3,0.9,1.2,0.3,1.8c-0.1,0.1-0.3,0.2-0.6,0.4
	C168.3,155.8,168.9,156.6,169.4,157.3z M166.5,154.9c0.5,0,1.1,0.1,1.3-0.3c0.2-0.3,0.2-0.8,0.1-1.2c-0.1-0.4-0.6-0.6-1-0.5
	c-0.1,0-0.3,0.2-0.3,0.3C166.4,153.8,166.5,154.3,166.5,154.9z M111.6,157.2c-0.5,0-1,0-1.6,0c0.5-0.1,0.5-0.5,0.5-0.9
	c0-0.9,0-1.7,0-2.6c0-0.3-0.2-0.6-0.3-1c0.7,0,1.5,0,2.2,0.1c0.9,0.2,1.1,1.3,0.4,1.9c-0.1,0.1-0.3,0.2-0.5,0.4
	c0.6,0.7,1.2,1.5,1.7,2.2c-0.5,0.1-0.9-0.1-1.2-0.5c-0.3-0.4-0.5-0.8-0.9-1.2c-0.1-0.2-0.4-0.2-0.7-0.3c-0.1,0.2-0.2,0.4-0.2,0.5
	c0,0.2,0,0.4,0,0.5C111.1,156.7,111.1,157,111.6,157.2z M111.1,154.9c0.5,0.1,1,0.2,1.3-0.3c0.2-0.3,0.2-0.8,0.1-1.2
	c-0.1-0.5-0.6-0.6-1-0.6c-0.1,0-0.3,0.2-0.3,0.3C111.1,153.8,111.1,154.3,111.1,154.9z M93.8,155c0-1.4,1-2.4,2.4-2.4
	c1.4,0,2.4,1,2.4,2.3c0,1.4-1,2.4-2.4,2.4C94.8,157.3,93.8,156.4,93.8,155z M98,155.1c-0.1-0.5-0.2-1-0.4-1.4c-0.3-0.6-1-1-1.6-0.9
	c-0.7,0.1-1.2,0.6-1.4,1.3c-0.2,0.7-0.1,1.4,0.2,2c0.2,0.5,0.6,0.8,1.1,0.9C97,157.4,97.9,156.5,98,155.1z M121.8,154.9
	c0,1.4-1,2.4-2.4,2.4c-1.4,0-2.4-1-2.4-2.3c0-1.4,1.1-2.4,2.5-2.4C120.8,152.6,121.8,153.6,121.8,154.9z M121.2,155.1
	c-0.2-0.5-0.3-1.1-0.6-1.6c-0.7-1-2.2-0.9-2.7,0.2c-0.4,1-0.3,1.9,0.3,2.8c0.4,0.6,1.2,0.8,1.8,0.5
	C120.7,156.8,121.1,156.1,121.2,155.1z M72.6,154.9c0,1.4-1,2.4-2.4,2.4c-1.4,0-2.4-1-2.4-2.3c0-1.4,1-2.4,2.4-2.4
	C71.6,152.6,72.6,153.5,72.6,154.9z M68.5,154.8c0,0-0.1,0-0.1,0.1c0.2,0.5,0.3,1.2,0.7,1.6c0.7,1,2.1,0.8,2.6-0.2
	c0.5-1,0.3-2-0.3-2.8c-0.2-0.3-0.5-0.5-0.8-0.5C69.4,152.5,68.5,153.4,68.5,154.8z M49.5,152.7c0.1,0.3,0.3,0.5,0.3,0.8
	c0,0.9,0,1.8,0,2.7c0,0.4-0.1,0.8-0.6,0.9c0.2,0.1,0.3,0.1,0.5,0.1c0.7,0,1.5,0,2.2,0c0.8,0,0.9-0.1,0.9-0.8
	c-0.3,0.2-0.7,0.5-1.1,0.6c-1.1,0.2-1.3,0-1.3-1.1c0-0.9,0.1-1,1-0.8c0.2,0,0.4,0.3,0.6,0.5c0-0.4,0-0.8,0-1.4
	c-0.3,0.7-0.7,0.8-1.5,0.5c0-0.5,0-0.9,0-1.4c0-0.1,0.2-0.3,0.4-0.3c0.6,0,1.3-0.1,1.6,0.8c0,0,0.1-0.1,0.1-0.1
	c0-0.3-0.1-0.5-0.1-0.8C51.3,152.7,50.3,152.7,49.5,152.7z M26.4,157.2c0.9,0,1.8,0,2.7,0c0.7,0,0.9-0.2,0.8-1
	c-0.1,0-0.1,0.1-0.1,0.2c-0.4,0.6-1.3,0.8-1.9,0.5c-0.1-0.1-0.3-0.3-0.3-0.4c0-0.5,0-1,0-1.5c0.6,0,1.2-0.3,1.5,0.6c0-0.6,0-1,0-1.6
	c-0.3,0.7-0.8,0.8-1.5,0.5c0-0.4,0-0.9,0-1.3c0-0.3,0.1-0.4,0.4-0.4c0.6,0,1.3-0.1,1.5,0.8c0,0,0.1-0.1,0.1-0.1
	c0-0.3-0.1-0.6-0.1-0.8c-1,0-2,0-2.8,0c0.1,0.3,0.3,0.6,0.3,0.8c0,0.9,0,1.8,0,2.7c0,0.4,0,0.8-0.7,0.8
	C26.4,157.2,26.4,157.2,26.4,157.2z M105.8,153.3c0,0.9,0.1,1.7,0,2.6c-0.1,0.8-0.6,1.2-1.3,1.2c-0.7,0-1.2-0.4-1.3-1.2
	c-0.1-0.7,0-1.4-0.1-2.1c0-0.4,0-0.8,0.5-1c-0.5,0-1,0-1.4,0c0.1,0.3,0.3,0.6,0.3,0.9c0.1,0.7,0,1.4,0,2.1c0.1,1.1,0.7,1.5,1.7,1.6
	c1,0,1.7-0.5,1.8-1.5c0.1-0.7,0.1-1.4,0.1-2.1c0-0.4,0-0.8,0.5-1c-0.4,0-0.9,0-1.3,0C105.5,152.9,105.8,153.1,105.8,153.3z
	 M158.5,152.8c0.5,0.1,0.5,0.4,0.5,0.7c0,0.9,0,1.8,0,2.7c0,0.4,0,0.8-0.6,0.9c0.2,0.1,0.3,0.1,0.5,0.1c0.7,0,1.5,0,2.2,0
	c0.7,0,0.9-0.1,0.8-1c-0.1,0.1-0.1,0.1-0.2,0.1c-0.4,0.6-1.3,0.8-1.9,0.5c-0.1-0.1-0.3-0.2-0.3-0.4c0-0.4,0-0.9,0-1.3
	c0-0.1,0.2-0.2,0.3-0.2c0.5,0,1-0.1,1.2,0.5c0-0.4,0-0.9,0-1.3c-0.4,0.6-0.7,0.7-1.6,0.5c0-0.4,0-0.9,0-1.4c0-0.3,0.1-0.4,0.4-0.4
	c0.6,0,1.3-0.1,1.6,0.7c0-0.4,0.2-0.9-0.3-0.9c-0.9-0.1-1.8,0-2.7,0C158.6,152.7,158.6,152.8,158.5,152.8z M133.5,153.4
	c0.1,0.8,0.1,1.5,0,2.3c-0.1,1-0.6,1.4-1.4,1.4c-0.8,0-1.2-0.6-1.3-1.5c0-0.6,0-1.2,0-1.9c0-0.4,0-0.8,0.5-0.9c-0.5,0-1,0-1.5,0
	c0.6,0.2,0.5,0.6,0.5,1c0,0.7,0,1.4,0,2c0,0.5,0.2,1,0.7,1.3c1.3,0.7,2.8,0,2.8-1.5c0-0.6,0-1.2,0-1.8c0-0.4,0-0.9,0.5-1.1
	c-0.4,0-0.9,0-1.3,0C133.3,152.9,133.5,153.1,133.5,153.4z M6.5,157.2c-0.4,0-0.8,0-1.2,0c0.6-0.2,0.6-0.7,0.8-1.2
	c0.4-1,0.7-1.9,1.1-2.9c0.1-0.2,0.2-0.4,0.4-0.6c0.3,1,0.6,1.9,0.9,2.7c0.1,0.4,0.2,0.8,0.4,1.2c0.1,0.3,0.4,0.6,0.6,0.8
	c-0.4,0-0.9,0-1.3,0c0-0.2,0.2-0.5,0.1-0.7c-0.2-0.4,0-1.1-0.8-1.1c-1.2,0-0.9-0.1-1.3,0.9C6.2,156.6,6,157,6.5,157.2z M6.7,155.1
	c0.4,0,0.8,0,1.2,0c-0.2-0.6-0.4-1.1-0.5-1.6c0,0-0.1,0-0.1,0C7.1,154.1,6.9,154.6,6.7,155.1z M153.3,156.8c0.4-1,0.9-2.1,1.3-3.1
	c0.2-0.4,0.5-0.7,0.7-1c-0.3,0-0.7,0-1.1,0c0.1,0.2,0.3,0.4,0.3,0.5c-0.4,1-0.8,2-1.2,3c-0.5-0.9-0.9-1.8-1.2-2.7
	c-0.1-0.3-0.3-0.6,0.2-0.8c-0.5,0-1,0-1.3,0c0.2,0.4,0.5,0.7,0.7,1.1c0.5,1.1,0.9,2.3,1.5,3.6C153.2,157.1,153.2,157,153.3,156.8z
	 M194.1,153.2c-0.3,0.6-0.6,1.2-1,1.8c-0.3-0.6-0.5-1.1-0.8-1.6c-0.2-0.3-0.2-0.5,0.3-0.7c-0.6,0-1.1,0-1.6,0
	c0.2,0.2,0.5,0.4,0.6,0.6c0.3,0.6,0.7,1.2,0.9,1.9c0.1,0.3,0.1,0.8,0.2,1.1c0,0.4-0.1,0.7-0.5,0.9c0.6,0,1.1,0,1.7,0
	c-0.7,0-0.6-0.5-0.6-0.9c-0.1-0.7,0.1-1.3,0.5-1.9c0.4-0.6,0.8-1.2,1.2-1.7c-0.3,0-0.7,0-1,0C194,152.9,194.1,153.1,194.1,153.2z
	 M77.8,157.2c-0.5-0.1-0.6-0.4-0.6-0.8c0-0.1,0-0.3,0-0.4c0-0.9,0.1-1,1-0.8c0.2,0,0.4,0.3,0.6,0.5c0-0.4,0-0.8,0-1.2
	c-0.4,0.8-1,0.4-1.6,0.5c0-0.4,0-0.7,0-1c0-1,0.1-1.1,1.1-0.9c0.3,0.1,0.5,0.4,0.7,0.5c0-0.2,0-0.5,0-0.7c-1,0-2,0-2.9,0
	c0.5,0.2,0.5,0.5,0.5,0.9c0,0.9,0,1.8,0,2.8c0,0.4-0.1,0.7-0.5,0.8C76.7,157.2,77.2,157.2,77.8,157.2z M186.7,157.1
	c-0.6,0.1-0.6-0.3-0.6-0.7c0-0.8,0-1.7,0-2.5c0-1,0.3-1.2,1.2-0.9c0.2,0.1,0.4,0.3,0.6,0.5c0-0.3,0.1-0.6,0.1-0.9
	c-1.4,0-2.7,0-4.1,0c-0.1,0.2-0.1,0.5-0.2,0.9c0.4-0.5,0.8-0.6,1.4-0.6c0.4,0,0.5,0.1,0.5,0.5c0,1,0,1.9,0,2.9
	c0,0.5-0.1,0.8-0.6,0.9c0.6,0,1.2,0,1.7,0C186.7,157.1,186.7,157.1,186.7,157.1z M86.5,153.6c0.3-0.6,0.7-0.7,1.3-0.7
	c0.4,0,0.5,0.1,0.5,0.5c0,0.9,0,1.8,0,2.7c0,0.5,0.1,1-0.6,1c0.6,0,1.2,0,1.8,0c-0.6-0.3-0.6-0.3-0.6-1c0-0.8,0-1.6,0-2.4
	c0-1,0.1-1.1,1.1-0.8c0.3,0.1,0.5,0.3,0.7,0.5c0-0.3,0-0.6,0.1-0.9c-1.4,0-2.7,0-4.1,0c-0.1,0.3-0.1,0.6-0.2,0.9
	C86.4,153.5,86.5,153.6,86.5,153.6z M174.4,152.6c-0.7-0.1-1.3,0.2-1.5,0.7c-0.2,0.5,0,1.1,0.6,1.6c0.2,0.2,0.5,0.3,0.8,0.5
	c0.4,0.3,0.6,0.7,0.5,1.1c-0.1,0.2-0.4,0.5-0.7,0.6c-0.4,0.1-0.8-0.1-1.1-0.5c-0.1-0.2-0.2-0.3-0.3-0.5c-0.1,0.9,0.1,1.2,0.9,1.2
	c0.2,0,0.5,0,0.7,0c1-0.2,1.4-1.3,0.8-2c-0.2-0.3-0.5-0.4-0.8-0.6c-0.2-0.2-0.4-0.3-0.6-0.5c-0.3-0.3-0.4-0.7-0.1-1
	c0.2-0.2,0.6-0.4,0.9-0.3c0.3,0.1,0.5,0.4,0.8,0.6C175.2,152.8,175.1,152.7,174.4,152.6z M147.6,157.1c-0.6,0-0.6-0.4-0.6-0.8
	c0-0.9,0-1.7,0-2.6c0-0.4-0.1-0.9,0.5-1c-0.5,0-1.1,0-1.6,0c0.5,0.1,0.5,0.5,0.5,0.8c0,0.9,0,1.7,0,2.6c0,0.4,0,0.8-0.5,1
	c0.5,0,1.1,0,1.6,0C147.6,157.2,147.6,157.1,147.6,157.1z M180.4,157.2c-0.6-0.1-0.6-0.6-0.6-1c0-0.8,0-1.6,0-2.5c0-0.4,0-0.9,0.5-1
	c-0.5,0-1.1,0-1.6,0c0.5,0.2,0.5,0.6,0.5,1c0,0.9,0,1.7,0,2.6c0,0.4-0.1,0.7-0.5,0.9C179.3,157.2,179.9,157.2,180.4,157.2z
	 M100.1,88.9C89,88.9,80,79.9,80,68.8c0-11.2,9-20.2,20.2-20.2c11.1,0,20.1,9,20.2,20.2C120.3,79.9,111.3,88.9,100.1,88.9z
	 M100.1,88.4c10.8,0,19.6-8.7,19.7-19.5c0.1-11-8.7-19.8-19.6-19.8c-10.8,0-19.6,8.7-19.7,19.6C80.4,79.5,89.2,88.3,100.1,88.4z
	 M90.9,46.8c0.2,0.6,0.4,1.2,0.6,1.8c0.1,0.3,0,0.6,0,0.9c0.2-0.1,0.5-0.2,0.8-0.3c-0.2-0.1-0.4-0.2-0.5-0.3
	c-0.3-0.7-0.5-1.4-0.7-2.1c0.1,0,0.1-0.1,0.2-0.1c0.7,0.7,1.4,1.4,2.1,2.2c0.1-1,0.2-2,0.3-2.9c0.3,0.8,0.8,1.6,0.8,2.5
	c0.2-0.1,0.6-0.2,1.1-0.4c-0.7-0.1-1.6-2.6-1.2-3.1c-0.8,0.1-0.9,0.2-0.9,0.9c-0.1,0.7-0.1,1.5-0.2,2.3c-0.6-0.6-1.2-1.1-1.7-1.7
	c-0.5-0.5-0.6-0.5-1.1-0.2C90.5,46.4,90.8,46.5,90.9,46.8z M79.4,64.4c-0.7-0.6-1.5-1.1-2.2-1.7c0,0,0-0.1,0.1-0.1
	c0.9-0.1,1.8-0.2,2.7-0.2c0-0.1,0-0.1,0-0.2c-1-0.7-2-1.3-3.1-2c0,0.2-0.1,0.5-0.2,0.7c0.2-0.1,0.4-0.2,0.5-0.1
	c0.6,0.3,1.3,0.7,1.9,1.1c0,0,0,0.1,0,0.1c-0.9,0.1-1.8,0.1-2.7,0.2c0,0,0,0.1,0,0.1c0.7,0.6,1.5,1.1,2.2,1.7c-0.7,0.1-1.4,0-2,0
	c-0.2,0-0.3-0.2-0.5-0.3c-0.1,0.3-0.2,0.6-0.3,0.9c1.2-0.3,2.4,0,3.6-0.1C79.3,64.5,79.4,64.4,79.4,64.4z M85.2,88.2
	c0.4,0.3,0.7,0.6,0.9,0.7c0.1-0.2,0.1-0.5,0.2-0.7c0.4-0.5,0.8-1,1.3-1.5c0.2-0.2,0.5-0.3,0.7-0.4c-0.3-0.2-0.6-0.5-1-0.8
	c0.2,0.5,0,0.8-0.7,1.3c-0.5-0.4-0.9-0.8-1.5-1.2c0.5-0.3,0.5-1.1,1.3-0.9c-0.3-0.3-0.7-0.6-1.2-0.9c0.4,0.9-0.3,1.2-0.6,1.6
	c-0.3,0.5-0.7,0.9-1.1,1.3c0.2,0.1,0.5,0.4,0.8,0.6c-0.3-0.8,0.5-1,0.7-1.6c0.5,0.4,1,0.8,1.6,1.3C86.1,87.5,86,88.4,85.2,88.2z
	 M85.1,51c0-0.3-0.2-0.6-0.3-0.7c-0.2-0.1-0.6-0.1-0.8,0c-0.6,0.4-1,0.9-1.6,1.3c0.6-0.1,2.5,1.9,2.3,2.6c0.4-0.3,0.7-0.6,1-0.9
	c-0.2,0-0.5,0-0.6-0.1c-0.6-0.6-1.2-1.3-1.8-2c0.4-0.6,0.8-0.8,1.2-0.6c0.6,0.5,0.2,1-0.1,1.5c0.9-0.1,1.8,0.7,2.7-0.1
	c-0.7-0.1-1.4-0.2-2.1-0.3C85,51.4,85.1,51.2,85.1,51z M98.9,44.2c0.7,0,1.4-0.1,2.1,0c0.8,0.1,1.3,0.7,1.3,1.4
	c0,0.9-0.5,1.8-1.4,1.9c-0.7,0.1-1.3,0-1.9,0c0-0.6,0.1-1.1,0-1.7C99.1,45.3,99.4,44.6,98.9,44.2z M99.7,47.2
	c0.8,0.2,1.5,0.1,1.8-0.5c0.4-0.5,0.4-1.4,0-1.9c-0.3-0.5-1.1-0.6-1.9-0.4C99.7,45.4,99.7,46.3,99.7,47.2z M107,92.5
	c0.2-0.8-0.6-3.1-1.3-3.2c0.9-0.3,1.6-0.5,2.3-0.7c0.8-0.2,1.4,0.2,1.7,0.9c0.3,0.9,0.1,1.9-0.7,2.3C108.4,92,107.7,92.2,107,92.5z
	 M107.6,91.9c1-0.1,1.5-0.5,1.7-1.1c0.1-0.6-0.2-1.5-0.6-1.8c-0.7-0.4-1.3-0.1-1.9,0.2C107.1,90.1,107.4,91,107.6,91.9z M92.4,90.4
	c0.3-0.1,0.5,0,0.7-0.2c0.2-0.2,0.5-0.4,0.6-0.7c0-0.2-0.2-0.6-0.4-0.7c-0.6-0.3-1.3-0.5-1.9-0.8c0.3,0.4,0.3,0.4-0.5,2.6
	c-0.1,0.3-0.2,0.7-0.7,0.7c0.4,0.1,0.8,0.3,1.2,0.4c-0.1-0.2-0.2-0.4-0.2-0.5c0.3-0.9,0.6-1.7,0.9-2.6c0.5,0.1,1.1,0.2,1,0.8
	c0,0.9-0.8,0.6-1.4,0.6c0.5,0.8,0.2,1.9,1.3,2.3C92.8,91.7,92.6,91,92.4,90.4z M102.4,93c0.2,0.2,0.5,0.2,0.7,0.3c0,0,0-0.1,0.1-0.1
	c-0.4-0.5-0.9-1-1.3-1.5c0.2-0.2,0.5-0.3,0.7-0.5c0.4-0.5,0.2-1.2-0.4-1.2c-0.7-0.1-1.4,0-2.1,0c0.5,0.4,0.6,2.9,0.2,3.5
	c0.4,0,0.7-0.1,1-0.1c-0.1-0.2-0.3-0.4-0.3-0.6c-0.1-0.7-0.1-1.5-0.1-2.2c0-0.1,0-0.3,0.1-0.3c0.3,0,0.6-0.1,0.8,0
	c0.2,0.1,0.4,0.3,0.4,0.5c0,0.2-0.2,0.5-0.3,0.6c-0.2,0.1-0.4,0.2-0.7,0.3C101.6,92.1,102,92.6,102.4,93z M120.6,55.2
	c0,0.9-0.9,1.7-1.8,1.7c-1,0-2-0.9-2-1.8c0-0.9,0.9-1.8,1.9-1.9C119.7,53.2,120.6,54.2,120.6,55.2z M118.3,56.6c0.9,0,2-1,2-1.8
	c0-0.6-0.6-1.3-1.2-1.3c-0.9,0-1.9,1-1.9,1.8C117.2,56,117.7,56.6,118.3,56.6z M82.2,56.4c-1,0-1.9-1-1.9-1.9c0-1,1-2,1.9-2
	c1,0,1.8,1,1.8,2C84,55.5,83.1,56.4,82.2,56.4z M81.9,52.9c-0.5,0-0.9,0.3-1.1,0.8c-0.1,0.3-0.1,0.8,0.1,1.1c0.3,0.6,1,0.9,1.7,1
	c0.7,0.1,1.4-0.7,1.3-1.4C83.7,53.8,82.6,53,81.9,52.9z M78.3,69.2c-0.7,0.7-1.4,1.5-2.1,2.2c-0.4,0.4-0.5,0.8-0.3,1.1
	c0.3-0.1,0.5-0.3,0.7-0.4c0.6-0.1,1.2-0.2,1.9-0.2c0.3,0,0.6,0.1,0.8,0.2c0-0.2-0.1-0.5-0.1-0.8c-0.3,0.4-2,0.7-2.8,0.4
	c0.8-0.8,1.6-1.5,2.4-2.2c0.2-0.1,0.2-0.4,0.4-0.7c-1.1,0.1-2,0.2-2.9,0.3c-0.2,0-0.5-0.1-0.7-0.2c0,0.2,0.1,0.5,0.1,1
	C75.8,69.4,77.2,69,78.3,69.2z M87.1,49.9c0.8,0.1,1.4,0.2,2,0.4c0.4,0.1,0.6,0,0.9-0.3c-0.9-0.2-1.7-0.3-2.6-0.5
	c0.3-0.8,0.5-1.5,0.7-2.3c-0.2,0.2-0.6,0.2-0.6,0.7c0,0.6-0.2,1.2-0.4,1.7c0,0-0.1,0-0.1,0c-0.1-0.5-0.9-0.8-0.4-1.5
	c-0.4,0.2-0.8,0.5-1.1,0.7c0.2,0.1,0.5,0.1,0.6,0.2c0.5,0.7,0.9,1.4,1.4,2.1c0.1,0.1,0,0.3,0.1,0.5c0.2-0.1,0.5-0.3,0.6-0.4
	C87.7,50.9,87.4,50.5,87.1,49.9z M125,67.9c0-0.3,0-0.6,0-1c-0.1-1-0.9-1.7-1.9-1.6c-1,0-1.6,0.6-1.7,1.7c0,0.2,0,0.5,0.1,0.7
	c0.1,0.8,0.1,0.8,0.9,0.9c0.1,0,0.3,0,0.4,0.1c0-0.4,0-0.7,0-1c-0.1,0.6-0.5,0.5-0.9,0.5c-0.4,0-0.4-0.4-0.4-0.7
	c0-0.6,0.2-1.2,0.8-1.4c0.7-0.3,1.4-0.3,2,0.1c0.7,0.6,0.6,1.9-0.2,2.2C124.9,68.6,125,68.6,125,67.9z M124.5,70.5
	c0.3,0.3-0.1,1.1-0.6,1.3c0.3,0,0.5,0.1,0.7,0.1c0-0.5,0.1-0.9,0.1-1.3c0-0.4,0.1-0.8,0.1-1.3c-0.5,0.5-3.1,0.3-3.4-0.4
	c-0.1,0.9-0.2,1.8-0.2,2.6c0.3,0.1,0.5,0.1,0.8,0.1c-0.5-0.4-0.8-1.3-0.4-1.6c0.3-0.2,0.9-0.1,1.4-0.2c0,0.6,0.2,1.1-0.6,1.3
	c0.4,0,0.7,0.1,1.2,0.1c-0.6-0.4-0.4-0.8-0.3-1.4C123.7,70.3,124.3,70.3,124.5,70.5z M78.8,67.2c-0.3,0.2-0.9,0.1-1.4,0.2
	c0.1-0.6-0.2-1.1,0.6-1.3c-0.4,0-0.7-0.1-0.9-0.1c0,0.4,0.1,0.8,0.1,1.4c-0.6-0.2-1.2-0.1-1.4-0.4c-0.3-0.4,0.1-1.1,0.6-1.3
	c-0.3-0.1-0.5-0.1-0.7-0.2c-0.1,0.9-0.2,1.7-0.3,2.7c0.4-0.6,3.1-0.4,3.5,0.2c0.1-0.9,0.2-1.8,0.2-2.6c-0.3,0-0.5-0.1-0.8-0.1
	C78.9,66.1,79.2,66.9,78.8,67.2z M98.4,47.6c0-0.3,0-0.5,0-0.8c-0.2,0.6-1.1,1-1.4,0.7c-0.3-0.3-0.3-0.8-0.5-1.3
	c0.4-0.1,0.6-0.1,0.8-0.1c0.2,0,0.4,0.2,0.6,0.3c0-0.3-0.1-0.5-0.1-0.9c-0.3,0.5-0.9,0.6-1,0.4c-0.3-0.3-0.3-0.8-0.4-1.3
	c0.7,0,1.2-0.4,1.7,0.4c0-0.3,0-0.5,0-0.7c-0.9,0.1-1.7,0.2-2.6,0.3c0.7,0.3,1,2.9,0.5,3.4C96.8,47.8,97.7,47.7,98.4,47.6z
	 M124.5,64.5c-0.2-0.9-0.4-1.7-0.6-2.6c-0.2,0.7-2.8,1.4-3.3,0.9c0.2,0.9,0.4,1.7,0.6,2.5c0.3,0,0.5-0.1,0.8-0.1
	c-0.7-0.2-1-0.7-0.9-1.6c0.4-0.1,0.8-0.2,1.2-0.3c0.2,0.5,0.4,0.9-0.1,1.3c0.4-0.1,0.7-0.2,0.8-0.2c-0.2-0.4-0.3-0.8-0.5-1.2
	c0.3-0.1,0.5-0.1,0.6-0.2c0.2-0.1,0.4-0.1,0.7-0.1c0.4,0.8,0.4,1.2,0,1.6C124.1,64.6,124.3,64.6,124.5,64.5z M99.4,93.4
	c0.1-0.3,0.1-0.5,0.1-0.7c-0.2,0.2-0.4,0.4-0.6,0.5c-0.9,0.2-1.2-0.1-1.2-1c0-0.1,0-0.2,0-0.3c0-0.1,0.1-0.2,0.2-0.2
	c0.4-0.1,0.9,0.1,1.1,0.5c0-0.4,0-0.7,0.1-0.8c-0.4,0-0.8,0.1-1.4,0.1c0.1-0.6,0.1-1.1,0.4-1.4c0.4-0.3,1.1,0.1,1.4,0.5
	c0-0.3,0.1-0.4,0.1-0.7c-0.8-0.1-1.5-0.1-2.3-0.2c-0.1,0-0.1,0-0.2,0c0.4,0.4,0.3,3-0.2,3.4C97.8,93.3,98.6,93.4,99.4,93.4z
	 M105.4,90.5c-0.3,0.6-0.7,0.5-1.2,0.6c-0.1-0.4-0.2-0.8-0.2-1.2c0.9-0.4,1.2-0.4,1.7,0.1c0-0.3-0.1-0.5-0.1-0.7
	c-0.5,0.1-0.9,0.2-1.2,0.2c-0.4,0.1-0.8,0.2-1.3,0.3c0.6,0.2,1.2,2.8,0.8,3.3c0.8-0.2,1.6-0.3,2.5-0.5c0-0.3,0-0.5-0.1-0.7
	c-0.2,0.5-0.9,1-1.4,0.8c-0.6-0.2-0.3-0.9-0.5-1.4c0.5,0,1-0.5,1.4,0.2C105.5,91.2,105.5,90.9,105.4,90.5z M87.7,90
	c-0.4-0.2-0.7-0.4-0.9-0.5c0.3-0.1,0.5-0.2,0.8-0.4c0.8-0.6,1.6-1.2,2.6-1.9c-0.1,0.5-0.1,0.9-0.1,1.3c-0.1,0.7-0.2,1.4-0.3,2.1
	c0,0.2,0,0.4,0.1,0.7c-0.3-0.2-0.6-0.3-0.8-0.4c0.1-0.3,0.3-0.6,0.3-0.8c0-0.1-0.1-0.3-0.3-0.4c-0.2-0.2-0.4-0.3-0.7-0.4
	c-0.3-0.1-0.9,0.2-0.9,0.5C87.5,89.6,87.6,89.7,87.7,90z M88.3,88.8c0.4,0.2,0.7,0.4,1.1,0.6c0.1-0.5,0.1-1,0.2-1.6
	C89.1,88.2,88.7,88.5,88.3,88.8z M110.2,50c-0.3-0.1-0.6-0.3-0.8-0.4c0.1-0.2,0.2-0.4,0.3-0.5c0.2-0.8-0.5-0.7-0.9-1
	c-0.6-0.3-0.7,0.3-1,0.5c0.1,0.1,0.2,0.2,0.3,0.3c0,0,0,0,0,0.1c-0.3-0.1-0.6-0.3-0.9-0.4c0.3-0.2,0.5-0.3,0.7-0.4
	c0.6-0.5,1.2-1.1,1.9-1.7c0.1-0.1,0.3-0.2,0.6-0.3C110.2,47.4,110.2,48.7,110.2,50z M109.6,46.7c-0.4,0.4-0.8,0.7-1.2,1.1
	c0.4,0.2,0.8,0.3,1.2,0.5C109.6,47.8,109.6,47.3,109.6,46.7z M113.2,87.6c-0.8-0.2-1.1-0.5-1-1c0.1-0.5,0.7-0.9,1.1-0.9
	c0.5,0.1,0.6,0.4,0.5,1.2c0.9,0.1,1.3,0.5,1.2,1.2c-0.1,0.6-0.7,1.1-1.3,1C113.2,88.9,113,88.4,113.2,87.6z M114.8,88.2
	c0-0.5-0.3-0.8-0.8-0.8c-0.4,0-0.7,0-0.7,0.6c0,0.5,0.4,0.9,0.8,0.9C114.6,88.8,114.8,88.5,114.8,88.2z M113.6,86.6
	c0-0.4-0.4-0.8-0.7-0.7c-0.2,0.1-0.5,0.4-0.5,0.6c0,0.4,0.3,0.5,0.7,0.5C113.5,87,113.7,87,113.6,86.6z M115.8,53.9
	c-0.6-0.4-0.9-0.9-0.8-1.6c0.1-0.7,0.6-1.2,1.3-1.5c0.6-0.2,1,0.1,1.4,0.5c0.3,0.3,0.5,0.7,0.2,1.2c0.2-0.1,0.4-0.3,0.5-0.4
	c-0.5-1.2-1.6-1.9-2.6-1.6c-0.9,0.3-1.5,1.1-1.3,2c0.1,0.8,1.1,1.8,1.8,1.8C116.1,54.1,116,54.1,115.8,53.9z M106.2,48.2
	c-0.7,0-1.2-0.3-1.5-1c-0.3-0.7-0.1-1.3,0.3-1.8c0.4-0.4,0.9-0.6,1.4-0.4c0.5,0.1,0.9,0.3,1,0.9c0.1-0.2,0.1-0.4,0.2-0.6
	c-1-0.7-2.3-0.8-3-0.1c-0.6,0.6-0.8,1.7-0.3,2.3c0.5,0.7,1.8,1.1,2.6,0.7C106.6,48.2,106.4,48.2,106.2,48.2z M117.5,85
	c-0.5-0.4-0.9-0.8-1.3-1.2c-0.2-0.2-0.4-0.6-0.1-0.8c0.2-0.1,0.6-0.2,0.8-0.1c0.6,0.4,1.2,0.9,1.7,1.4c0.1,0.1,0,0.5,0,0.8
	c0.4-0.3,0.5-0.7,0.2-1c-0.5-0.5-1-1-1.5-1.5c-0.3-0.3-0.8-0.3-1.2,0.1c-0.4,0.4-0.5,0.9-0.2,1.3c0.4,0.7,1,1.1,1.7,1.4
	c0.4,0.1,0.8,0.1,1-0.3C118.2,85.4,117.8,85.3,117.5,85z M84.5,84.3c0.2-0.1,0.4-0.2,0.5-0.4c-0.5-1.3-1.6-2.1-2.6-1.8
	c-1,0.3-1.5,1.2-1.3,2.1c0.2,0.7,1.1,1.6,1.6,1.6c-0.2-0.1-0.3-0.2-0.4-0.3c-0.5-0.4-0.9-1-0.7-1.7c0.2-0.8,0.7-1.2,1.5-1.4
	c0.7-0.1,1.1,0.2,1.4,0.7c0.2,0.3,0.4,0.6-0.1,0.9C84.4,84.2,84.5,84.3,84.5,84.3z M95,92.5c0.2-0.9,0.4-1.8,0.6-2.7
	c0.5,0.1,1,0,1,0.7c0.1-0.2,0.1-0.4,0.2-0.7c-0.9-0.2-1.7-0.4-2.6-0.6c-0.1,0-0.1,0-0.2,0c0,0.2-0.1,0.4-0.1,0.6c0,0,0.1,0,0.1,0
	c0.1-0.1,0.1-0.3,0.2-0.5c0.3,0.1,0.6,0.2,0.9,0.2c-0.2,0.9-0.4,1.8-0.6,2.6c0,0.2-0.2,0.3-0.4,0.4c0.4,0.1,0.8,0.2,1.2,0.3
	C95.1,92.7,94.9,92.6,95,92.5z M114.9,84.2c-0.2,0.7-0.4,1.3,0.1,1.9c0.1-0.1,0.1-0.1,0.1-0.2c0.3-0.6,0.7-0.8,1.1-0.7
	c0.6,0.2,0.9,1,0.7,1.5c-0.2,0.5-0.8,0.8-1.3,0.6C114.4,87,114,85.2,114.9,84.2z M116.8,86.8c0-0.6-0.5-1.2-0.9-1.2
	c-0.4,0-0.6,0.2-0.6,0.6c0,0.3,0.6,1,0.9,0.9C116.4,87.2,116.6,86.9,116.8,86.8z M79.4,55.3c0.1,0.7,0.7,1.3,0.9,2c-0.5,0-1,0-1.5,0
	c-0.5,0-0.6,0.1-0.6,0.7c0.7-0.4,1.6-0.3,2.3-0.2c0.4,0.1,1,0.3,1,1.1c0.3-0.5,0.5-0.9,0.6-1.2c-0.3,0-0.5,0-0.7-0.1
	c-0.6-0.2-0.9-0.7-1.2-1.2c-0.2-0.4-0.4-0.8-0.6-1.2C79.5,55.3,79.4,55.3,79.4,55.3z M112.1,47.2c0.3,0.3,0.1,0.6,0,0.8
	c-0.4,0.5-0.7,1.1-1,1.6c-0.1,0.2-0.3,0.4-0.5,0.6c0.6,0.4,1.3,0.8,2,1.3c0.2-0.2,0.3-0.4,0.5-0.6c-0.7,0.3-1.1,0.2-1.8-0.6
	c0.4-0.6,0.8-1.3,1.3-1.9c0.2-0.2,0.4-0.4,0.7-0.5C112.9,47.6,112.5,47.4,112.1,47.2z M120.3,62c0.2,0.6,0.2,0.7,1.1,0.3
	c-1,0.1-1-0.6-1.2-1c-0.1-0.3,0-0.4,0.3-0.5c0.6-0.2,1.3-0.5,1.9-0.7c0.3-0.1,0.6,0,0.9,0c-0.1-0.3-0.3-0.7-0.4-1.2
	c-0.1,0.6-2.2,1.5-3.1,1.4C119.9,60.9,120.1,61.4,120.3,62z M121.2,56.6c-0.9,0.4-1.7,1-2.7,1.3c0.4,0.7,0.7,1.4,1.1,2.1
	c0.3-0.1,0.5-0.2,0.7-0.3c-0.7-0.1-0.9-0.3-1.2-1c-0.1-0.3-0.1-0.4,0.2-0.5c0.6-0.3,1.2-0.6,1.8-0.9c0.3-0.1,0.6-0.1,0.9-0.1
	c-0.1-0.3-0.3-0.7-0.6-1.1C121.3,56.3,121.3,56.6,121.2,56.6z M103.3,47.1c0-0.6,0.1-1.3,0.2-1.9c0.1-0.3,0.3-0.5,0.4-0.8
	c-0.3,0-0.8-0.1-1.3-0.2c0.7,0.6,0.3,1.2,0.3,1.7c0,0.6,0.1,1.2-0.4,1.7c0.4,0,0.7,0.1,1,0.1C103.4,47.6,103.3,47.3,103.3,47.1z
	 M110.3,88c0.1,0,0.1,0.1,0.2,0.1c0.1-0.2,0.2-0.4,0.4-0.7c0.4,0.7,0.8,1.3,1.1,1.9c0.2,0.4,0.5,0.7,0,1.1c0.4-0.3,0.8-0.5,1.3-0.8
	c-0.5,0.2-0.7-0.1-0.9-0.5c-0.4-0.7-0.9-1.5-1.4-2.3C110.8,87.3,110.5,87.6,110.3,88z M102.2,58.4c-1-1.4-0.1-2.6,1.4-2.7
	c1,0,2.1,0.1,3.1,0.2c0.4,0,0.9,0.1,1.3,0.1c0.9,0,1.7,0.1,2.6,0.4c1.2,0.4,2.5,0.5,3.8,0.7c0.4,0.1,0.7,0.1,1.1,0.2
	c0.4,0.1,0.5,0.3,0.4,0.6c-0.1,0.4-0.4,0.8-0.5,1.3c-0.2,0.7-1,0.9-1.4,1.4c-0.3,0.3-0.5,0.8-0.7,1.2c0,0.1,0,0.2-0.1,0.3
	c-0.5,0.5-1,1-1.5,1.5c-0.1,0.1-0.3,0.2-0.4,0.3c0.7,0.8,0.7,0.9,0.3,1.8c-0.1,0.2,0,0.4-0.1,0.6c-0.1,0.2-0.2,0.5-0.4,0.6
	c-0.2,0.2-0.5,0.2-0.7,0.3c-0.3,0-0.5,0-0.8,0c0,0.1,0,0.1-0.1,0.2c0.2,0.1,0.4,0.2,0.7,0.2c0.3,0,0.6-0.1,0.6,0.3
	c0,0.3-0.2,0.5-0.5,0.5c-0.1,0-0.1,0-0.2,0c-0.2,0.6-0.5,1.1-0.7,1.6c-0.1,0-0.1,0-0.2,0c-0.3-0.7-0.6-1.4-0.9-2.2
	c-0.2,0.4-0.4,0.7-0.5,1c0.7,0.2,0.8,0.4,0.7,1.1c0,0.2-0.1,0.3-0.2,0.5c-0.2,0.4-0.3,0.7,0.1,1c0.1,0.1,0.2,0.4,0.2,0.6
	c0,0.7-0.2,0.9-0.9,0.8c-0.4-0.1-0.5,0-0.7,0.3c-0.3,0.5-0.7,1-1,1.5c-0.3,0.4-0.2,0.7,0.3,0.8c0.1,0,0.3,0.2,0.2,0.3
	c-0.1,0.4-0.1,0.9-0.4,1.1c-0.4,0.3-0.5,0.7-0.6,1.2c0,0.2-0.2,0.4-0.3,0.6c-0.2-0.1-0.5-0.2-0.6-0.4c-0.2-0.3-0.3-0.6-0.4-0.9
	c-0.1,0.3-0.2,0.5-0.3,0.8c0.5,0.2,1,0.5,1.6,0.8c0.2-0.3,0.4-0.6,0.6-1c0.3-0.5,0.6-1.1,0.9-1.6c0.1-0.1,0-0.3,0-0.5
	c0-0.3-0.1-0.6-0.1-0.9c0-0.2,0.1-0.4,0.3-0.5c0.5-0.2,1.1-0.2,1.6-0.5c0,0,0.3,0.3,0.5,0.5c0.7-0.1,0.9,0.2,0.6,0.8
	c-0.2,0.5-0.7,0.9-1,1.3c-0.1,0.1-0.3,0.1-0.6,0.1c0.9-0.4,1.4-1,1.5-2.1c-0.5,0-0.6,0.3-0.7,0.6c-0.1,0.6-0.3,1.1-1,1.2
	c-0.1,0-0.2,0.1-0.3,0c-0.5-0.2-0.7,0.2-0.9,0.6c0.3,0,0.6-0.1,0.9-0.1c0.2,0,0.5-0.2,0.7,0.2c0,0.1,0.4,0,0.8,0
	c-0.2,0.5-0.4,0.9-0.5,1.3c-0.1,0.2-0.2,0.4-0.1,0.7c0.1,0.4-0.2,0.6-0.5,0.7c-0.2,0.1-0.5,0.1-0.7,0.2c-0.3,0.1-0.5,0.3-0.7,0.5
	c-0.1,0.2,0,0.5-0.1,0.7c-0.1,0.5-0.2,0.9-0.4,1.5c0.3,0,0.7-0.1,1.1-0.1c0.4,0,0.7,0,1.1,0.1c0.4,0.1,0.8,0.2,0.5,0.8
	c-0.1,0.1,0,0.3,0.1,0.5c0,0.5,0.1,0.9,0,1.4c0,0.1-0.3,0.2-0.5,0.4c0.2-0.1,0.3-0.1,0.5-0.2c-0.5-0.7-0.9-0.9-1.4-0.7
	c-0.5,0.2-1.1,0.2-1.5,0.4c-0.8,0.4-1.5,0-2.1-0.5c0.1,0,0.3,0,0.4,0.1c0.5,0.3,1,0.3,1.6,0.1c0.5-0.2,1.1-0.3,1.6-0.4
	c0.4-0.1,0.9-0.2,1.2,0.2c0.3-0.5,0.1-1-0.4-1.1c-0.4-0.1-0.7-0.1-1.1-0.1c-1.2,0.2-2.3,0.4-3.5,0.5c-0.7,0.1-1.5,0.1-2.2,0
	c-0.6-0.1-1.1-0.4-1.6-0.6c-0.3-0.1-0.6-0.1-0.9,0.2c-0.4,0.5-1.1,0.3-1.3-0.2c-0.1-0.2-0.3-0.3-0.4-0.4c-0.3-0.1-0.6-0.2-1-0.3
	c-1.3-0.5-2.1,0.1-2,1.5c0.1,0,0.2,0,0.3,0c0.9-0.4,1.7-0.3,2.5,0.2c0.3,0.2,0.7,0.2,1,0.1c0.7-0.2,1.3-0.4,2-0.1
	c0.8,0.4,1.7,0.4,2.7,0.2c0.2-0.1,0.5-0.1,0.7-0.1c0.2,0,0.4,0.1,0.5,0.2c-0.3,0-0.7,0-1,0c-1,0.2-1.9,0.3-2.8-0.1
	c-0.6-0.3-1.3-0.3-1.9,0c-0.6,0.3-1.1,0.2-1.5-0.1c-0.8-0.6-1.5-0.3-2.3,0c-0.2,0.1-0.3,0.3-0.3,0.5c0,0.1,0.2,0.4,0.3,0.4
	c0.2,0.1,0.5,0.1,0.8,0c0.4-0.1,0.7-0.1,1,0.3c0.4,0.6,1,0.6,1.6,0.3c0,0,0.1,0,0.1,0c0.7-0.4,1.3-0.4,1.9,0
	c0.4,0.3,0.8,0.2,1.2,0.1c0.6-0.2,1.3-0.4,2-0.5c0.2-0.1,0.5-0.1,0.7,0c1.2,0.6,2.4,0.6,3.6-0.1c0.3-0.2,0.6-0.2,0.8,0.1
	c0.2,0.3,0.4,0.2,0.6,0c-0.3,0.9-0.3,0.9-1.3,0.9c-4,0-8,0-12,0c-0.4,0-0.7,0-0.8-0.5c0-0.1-0.1-0.3-0.2-0.3c-0.5-0.2-0.5-0.6-0.3-1
	c0.2-0.5,0.2-1,0.2-1.5c0-0.5,0.2-0.9,0.7-1c0.1,0,0.1-0.1,0.2-0.2c-0.1-0.2-0.3-0.4-0.3-0.4c-0.4,0.1-0.7,0.2-1,0.2
	c0,0-0.2-0.3-0.1-0.3c0.3-0.2,0.6-0.3,0.9-0.4c0.1-0.3,0.2-0.5,0.3-0.7c-0.5,0.2-1,0.5-1.6,0.7c-0.6,0.2-1.2,0.1-1.8-0.4
	c0.4-0.4,0.8-0.7,1.3-1.1c-0.5,0-0.8-0.1-1,0.4c-0.2,0.3-0.6,0.3-0.8,0.1c-0.1-0.1,0-0.4-0.1-0.7c0,0,0.1,0,0.1,0
	c-0.2-0.3-0.3-0.6-0.5-1c-0.3-0.7-0.1-0.9,0.7-0.9c0-0.5,0-1,0-1.7c0.7,0.4,1.3,0.8,1.8,1.1c0.2-0.8,0.5-1.6,0.7-2.3
	c-0.3,0-0.7,0-1,0c0-0.3,0.1-0.5,0.1-0.8c-0.1,0-0.2,0-0.3,0c-0.1,0-0.2,0.1-0.3,0.1c-0.3,0-0.7,0-1,0c0.1-0.3,0.1-0.6,0.2-0.8
	c0.2-0.5,0.2-0.8-0.2-1.1c-0.2-0.1-0.1-0.5-0.1-0.8c-0.5-0.4-1-0.8-1.2-1.6c0.5-0.1,1-0.1,1.4-0.2c0.2,0,0.3-0.2,0.5-0.2
	c0.2-0.1,0.4-0.1,0.5-0.1c0.2,0,0.4,0.2,0.7,0.2c0.1,0,0.2,0,0.3,0c-0.3-0.3-0.5-0.5-0.8-0.8c-0.2-0.3-0.4-0.2-0.7,0
	c-0.5,0.5-1.2,0.7-1.9,0.7c-0.3,0-0.6,0-0.7-0.4c-0.1-0.2-0.4-0.3-0.6-0.4c-0.6-0.4-0.6-0.7,0-1.1c0.1-0.1,0.2-0.1,0.3-0.2
	c-0.3-0.8-0.3-0.8,0.7-1.3c-0.1-0.4-0.2-0.9,0.4-1.1c-0.5-0.2-1.1-0.4-1.6-0.6c-0.4-0.1-0.7-0.3-0.9-0.7c-0.2-0.4-0.7-0.7-1.1-1.1
	c0,0-0.1,0-0.1-0.1c-0.4-1-1.6-1.2-2.1-2.1c0,0-0.1-0.1-0.1-0.1c0-0.5,0-1.1,0.1-1.6c0-0.1,0.4-0.2,0.6-0.3c1.2-0.2,2.4-0.4,3.5-0.6
	c0.4-0.1,0.7-0.1,0.9-0.5c0.1-0.2,0.5-0.3,0.7-0.4c1.4-0.2,2.7-0.3,4.1-0.4c0.2,0,0.5-0.1,0.7-0.1c0.5-0.1,1.1-0.2,1.6-0.2
	c0.7,0,1.3,0.3,1.5,1c0.2,0.5-0.3,1.6-0.8,1.9c-0.2,0.1-0.4,0.3-0.6,0.4c-0.4,0.3-0.4,0.6,0,0.9c0.4,0.3,0.8,0.6,1.3,0.5
	c0.4-0.1,0.6-0.3,0.6-0.7c0-1.2,0.1-2.5,0.1-3.7c0-0.5,0.2-0.7,0.6-0.7c0.6,0,1.2,0,1.8,0.1c0.2,0,0.5,0.4,0.5,0.6
	c0.1,0.8,0,1.6,0,2.3c0,0.2-0.1,0.6,0.3,0.5C101.9,58.9,102.3,58.9,102.2,58.4c0.3,0.3,0.6,0.5,1.1,0.4c0.1,0,0.3-0.2,0.3-0.3
	c0-0.2-0.1-0.5-0.3-0.5c-0.4-0.2-0.9-0.2-1.4-0.4C102.1,57.9,102.2,58.2,102.2,58.4z M94,79.7c0.1,0,0.2,0.1,0.4,0.1
	c0-0.3,0-0.5,0-0.7c0.2,0.4,0.4,0.6,0.5,0.9c0,0,0.1,0,0.1-0.1c-0.1-0.3-0.1-0.5-0.2-0.8c0.3,0.4,0.3,1,1,1.1
	c-0.5-0.9-0.5-0.9-0.3-1.1c0.3,0.9,0.6,1.2,1.2,1.2c-0.2-0.3-0.4-0.7-0.5-1c0.4,0.4,0.6,1,1.3,1.1c-0.1-0.4-0.2-0.7-0.3-1
	c0.8,1.1,0.8,1.1,1.2,0.9c-0.1-0.3-0.1-0.6-0.2-0.9c0.6,1,0.6,1.1,1.2,0.8c-0.1-0.3-0.2-0.6-0.3-0.9c0,0,0.1,0,0.1-0.1
	c0.2,0.5,0.4,1.2,1.2,0.9c-0.1-0.3-0.1-0.5-0.2-0.8c0.4,0.4,0.4,1.1,1.3,0.9c-0.1-0.3-0.2-0.7-0.2-1c0.4,0.4,0.3,1.1,1.1,1.2
	c0-0.3,0.1-0.6,0.1-1c0.1,0,0.1,0,0.2,0c0,0.2,0,0.5,0,0.7c0,0.1,0.1,0.3,0.2,0.4c0.1-0.1,0.2-0.2,0.3-0.3c0-0.1,0.1-0.1,0.1-0.2
	c0.1,0.3,0.1,0.6,0.2,0.9c0.1,0,0.1,0,0.2,0c0.1-0.1,0.2-0.3,0.3-0.4c0,0.3-0.2,0.6-0.2,0.8c0.1,0.6-0.3,0.9-0.8,1
	c-0.5,0.1-1.1,0.2-1.6,0.2c-0.8,0-1.6-0.2-2.3-0.2c-0.4,0-0.9,0.2-1.3,0.5c-0.2,0.1-0.2,0.6-0.1,0.9c0,0.1,0.5,0.3,0.5,0.2
	c0.4-0.6,1-0.7,1.6-0.8c0,0,0.1,0,0,0c0.1,0.2,0.2,0.3,0.2,0.4c0.2-0.1,0.3-0.2,0.5-0.3c0,0.1,0,0.3,0,0.5c0.2-0.1,0.3-0.2,0.6-0.3
	c0,0.1,0,0.3-0.1,0.4c0.7,0.4,0.7-0.3,1-0.6c0,0.2-0.1,0.5-0.1,0.8c0.7,0.1,0.5-0.5,0.9-0.8c0,0.3-0.1,0.5-0.1,0.7
	c0.9,0.1,0.7-0.7,1.1-1.2c-0.1,0.4-0.1,0.7-0.2,1.1c0.7-0.2,0.5-0.9,0.8-1.4c0,0.4,0,0.7,0,0.9c0.1,0,0.1,0,0.2,0
	c0.2-0.4,0.3-0.7,0.5-1.1c0,0.2,0,0.3,0.1,0.5c1-0.9,1.1-1.9,0.4-3c-0.5-0.8-1.1-1.3-2-1.4c-0.7-0.1-1.4-0.2-2.2-0.2
	c-1.3,0-2.6,0.1-3.9,0.1c-0.4,0-0.9-0.1-1.3-0.4c-0.6-0.4-0.7-1.1-0.2-1.6c-0.2-0.2-0.3-0.4-0.5-0.5c0.2,0,0.2,0,0.3,0.1
	c0.2,0.1,0.3,0.1,0.5,0.2c0-0.2,0.1-0.3,0.1-0.5c0-0.2,0-0.4,0-0.6c0.1,0.1,0.1,0.3,0.2,0.4c0.1,0.1,0.2,0.3,0.2,0.4
	c0.1-0.1,0.2-0.3,0.2-0.4c0.1-0.3,0.1-0.5,0.2-0.8c0.1,0,0.1,0,0.2,0c0,0.2-0.1,0.5-0.1,0.7c0,0.1,0.1,0.2,0.1,0.3
	c0.1-0.1,0.2-0.2,0.3-0.3c0.1-0.3,0.2-0.6,0.2-0.9c0,0,0.1,0,0.1,0c0,0.3-0.1,0.7-0.1,1c1,0.1,0.6-0.9,1-1.2
	c-0.1,0.4-0.1,0.8-0.2,1.2c1,0.2,0.6-0.8,1.1-1.1c-0.1,0.4-0.1,0.8-0.2,1.1c0.8,0,0.6-0.8,1.1-1.2c-0.1,0.5-0.2,0.8-0.3,1.2
	c0.9,0.1,0.6-0.8,1.1-1c-0.1,0.4-0.2,0.7-0.2,1.1c0.7-0.1,0.6-0.8,1-1.1c-0.1,0.3-0.2,0.7-0.2,1c0.1,0,0.3,0,0.3-0.1
	c0.2-0.3,0.4-0.7,0.7-1c0,0,0.1,0,0.1,0c-0.1,0.3-0.2,0.6-0.3,1c0.8-0.1,0.5-0.9,1-1.2c-0.1,0.4-0.2,0.8-0.3,1.2
	c0.1,0,0.1,0.1,0.2,0.1c0.2-0.4,0.4-0.8,0.7-1.2c0,0,0.1,0,0.1,0c-0.1,0.3-0.2,0.7-0.3,1.1c0.6-0.2,0.6-0.8,0.9-1.1
	c0,0.3-0.1,0.6-0.1,0.9c0,0,0.1,0,0.1,0c0.2-0.4,0.3-0.8,0.5-1.2c0,0,0.1,0,0.1,0c0,0.2,0,0.5-0.1,0.7c0.4-0.3,0.6-0.6,0.9-0.9
	c1.7-2.2,0.7-6.4-2.5-6.8c-0.5-0.1-0.9-0.1-1.4-0.1c-0.9,0-1.8,0.2-2.7,0.2c-1.2,0-2.4,0-3.5-0.2c-1.2-0.2-1.5-0.9-1-2
	c0-0.1,0.1-0.3,0.2-0.4c0.9-1.8,2.4-2.6,4.3-2.7c0.6-0.1,1.3,0,1.9,0c1.2-0.1,2.4-0.4,3.4-1c0.6-0.4,0.6-0.6-0.1-0.9
	c-0.4-0.2-0.9-0.3-1.3-0.4c-1.1-0.1-2.2,0-3.2,0.5c-1.7,0.7-3.4,1.4-5.2,2c-2,0.7-2.7,3.9-2.1,5.4c0.2,0.5,0.5,0.9,1,1.3
	c0-0.3,0-0.4,0-0.7c0.2,0.5,0.3,1,0.9,1.2c-0.1-0.3-0.1-0.6-0.2-0.9c0.3,0.4,0.4,1,1,1.1c-0.1-0.4-0.2-0.7-0.3-1.1
	c0.4,0.4,0.4,1.1,1.1,1.2c-0.1-0.4-0.3-0.7-0.4-1c0.8,1,0.8,1,1.2,1c-0.1-0.3-0.2-0.5-0.4-0.8c0.5,0.2,0.5,0.9,1.2,0.9
	c-0.1-0.3-0.2-0.6-0.4-1c0.5,0.3,0.4,1,1.1,1c-0.1-0.4-0.3-0.7-0.4-1c0.8,1,0.8,1,1.2,0.9c-0.1-0.3-0.2-0.5-0.3-0.8
	c0.4,0.4,0.7,1,1.5,0.8c-0.1-0.3-0.3-0.5-0.4-0.8c0.4,0.4,0.8,0.9,1.5,0.9c-0.2-0.4-0.4-0.7-0.6-1c0,0,0.1,0,0.1-0.1
	c0.2,0.2,0.3,0.5,0.5,0.7c0.2,0.2,0.4,0.3,0.7,0.5c-0.1-0.5-0.1-0.8-0.2-1.1c0.3,0.3,0.1,0.9,0.7,1.1c0.1-0.3,0.2-0.6,0.2-0.9
	c0,0,0.1,0,0.1,0c0,0.4,0,0.7-0.1,1.1c0.1,0,0.1,0,0.2,0c0.1-0.2,0.3-0.4,0.4-0.6c0,0.5-0.1,0.9,0,1.2c0.6,1-0.2,2.2-1.1,2.3
	c-1,0.1-2.1,0.2-3.1,0.2c-1.8,0.1-3.5,0.2-5.2,0.8c-0.9,0.3-1.5,0.9-1.8,1.8C92.5,77,92.8,78.4,94,79.7c-0.1,0-0.3-0.1-0.3,0
	c-0.6,0.3-1.2,0.7-1.9,1.1c0.2,0,0.3,0.1,0.5,0.1C93,80.9,93.9,80.3,94,79.7z M100.8,59.1c0.1,0,0.1,0,0.2,0c0-0.2,0.1-0.3,0.1-0.5
	c0-0.5,0-1,0-1.4c0-1.6-0.2-1.8-1.8-1.7c-0.1,0-0.1,0-0.2,0c-0.4,0-0.6,0.2-0.6,0.6c0,1.2-0.1,2.4-0.1,3.6c0,0.1,0,0.2,0.1,0.3
	c0.4-0.1,0.8-0.3,1.1-0.4c0.5-0.2,1-0.3,0.9-1c0,0,0.1-0.1,0.1-0.2C100.7,58.7,100.8,58.9,100.8,59.1z M100.7,66.5
	c0.4-0.6,0.4-3.1,0.1-3.4c-0.1,0.2-0.1,0.3-0.2,0.6c-0.1-0.1-0.1-0.2-0.1-0.2c0-0.3,0-0.6-0.4-0.6c-0.5-0.1-0.9-0.1-1.4-0.1
	c0,0-0.1,0.2-0.1,0.4c0,0.7-0.1,1.4-0.1,2.1c0,0.5,0,0.9,0,1.4c0.6-0.1,1.1-0.1,1.5-0.1c0.3,0,0.4-0.2,0.4-0.4c0-0.3,0-0.6,0-1
	c0.1,0,0.1,0,0.2,0C100.6,65.5,100.7,66,100.7,66.5z M100.6,72.4c0.1,0,0.1,0,0.2,0c0.3-0.4,0.3-2.5,0-3c-0.1,0.2-0.1,0.4-0.2,0.7
	c-0.1-0.3-0.1-0.5-0.1-0.6c-0.5,0-1,0-1.4,0c-0.1,0-0.4,0.2-0.4,0.4c-0.1,0.5-0.1,0.9,0,1.4c0.1,1.4-0.3,1.3,1.4,1.2
	c0.4,0,0.5-0.2,0.5-0.5c0-0.5,0-1,0-1.5c0.1,0,0.1,0,0.2,0C100.6,71.2,100.6,71.8,100.6,72.4z M97,63.1c0.1,0,0.2-0.1,0.2-0.1
	c1-0.5,1.9-0.8,3-0.4c0.7,0.3,1.5,0.4,2.2,0.6c0.5,0.1,1.1,0.1,1.6-0.3c-0.7-0.3-1.3-0.6-1.9-0.8c-1.7-0.7-3.4-0.5-5.1,0.3
	C96.9,62.6,96.7,62.8,97,63.1z M109.7,57.2c0.2,0.4,0.6,0.5,1,0.5c1.4,0.2,2.9,0.3,4.3,0.5c0.3,0,0.5-0.1,0.5-0.4
	c0-0.1-0.3-0.3-0.4-0.4c-1.3-0.2-2.5-0.4-3.8-0.6C110.7,56.7,110.1,56.6,109.7,57.2z M100.5,76.7c-0.1-0.2-0.1-0.2-0.1-0.2
	c-0.1-0.3,0-0.7-0.2-0.9c-0.2-0.2-0.6-0.1-0.9-0.1c0,0-0.1,0-0.1,0c-0.5-0.1-0.6,0.2-0.6,0.7c0,0.5,0,1,0,1.4c0,0.1,0.2,0.3,0.3,0.3
	c0.6,0,1.1,0,1.7-0.1c0.1,0,0.3-0.1,0.3-0.2c0-0.7,0-1.4,0-2.1c0,0-0.1,0-0.1,0C100.6,75.9,100.6,76.2,100.5,76.7z M89.7,57.9
	c0-0.1,0-0.1-0.1-0.2c-0.3-0.1-0.6-0.2-0.9-0.2c-1.4,0.2-2.7,0.4-4,0.7c-0.3,0-0.7-0.1-0.7,0.4c0,0.5,0.5,0.4,0.8,0.5
	c0.1,0,0.1,0,0.2,0c1.4-0.2,2.8-0.5,4.1-0.8C89.4,58.3,89.5,58.1,89.7,57.9z M107.4,60.1c0,0.1-0.1,0.1-0.1,0.2
	c0.1,0.1,0.2,0.3,0.4,0.3c1.4,0.6,2.8,1.1,4.1,1.7c0.2,0.1,0.5,0.1,0.7,0.1c0.2-0.1,0.3-0.3,0.5-0.5c-0.1-0.1-0.3-0.3-0.4-0.3
	c-1.4-0.4-2.7-0.8-4.1-1.2C108.1,60.2,107.8,60.1,107.4,60.1z M91.5,60.9c0-0.1,0-0.1,0-0.2c-0.3-0.1-0.5-0.3-0.8-0.2
	c-1.6,0.3-3.3,0.6-4.9,0.9c0.1,0.6,0.3,0.8,1,0.7C88.4,61.7,90,61.3,91.5,60.9z M107.2,60.9c0,0.1,0,0.1,0,0.2
	c0.1,0.1,0.2,0.2,0.3,0.3c1.1,0.6,2.3,1.2,3.4,1.8c0.2,0.1,0.5,0.1,0.7,0.1c0.2,0,0.3-0.2,0.5-0.3c-0.1-0.1-0.2-0.4-0.4-0.4
	c-1.3-0.6-2.6-1.1-3.9-1.6C107.6,60.8,107.4,60.9,107.2,60.9z M105.9,65.4c-0.4-1-0.6-1.9-1-2.8c-0.1-0.3-0.4-0.2-0.5,0.1
	c-0.1,0.3-0.2,0.6-0.1,0.9c0.1,0.6,0.3,1.3,0.5,1.9c0.1,0.3,0.2,0.6,0.6,0.5C105.6,65.9,105.7,65.6,105.9,65.4z M109.5,64.2
	c0.5-0.2,1.1-0.3,1.6-0.5c0,0,0-0.1,0-0.1c-1.2-0.7-2.4-1.3-3.6-2c-0.1,0.1-0.1,0.1-0.2,0.2C108.1,62.6,108.8,63.4,109.5,64.2z
	 M93.1,61.8c0,0-0.1-0.1-0.1-0.1c-0.2,0.1-0.4,0.2-0.5,0.3c-0.7,0.7-1.4,1.3-2.1,2c-0.1,0.1-0.2,0.3-0.4,0.5
	c0.2,0.1,0.5,0.4,0.7,0.3c0.3,0,0.7-0.2,0.8-0.4C92,63.5,92.5,62.6,93.1,61.8z M109.3,58c0,0,0,0.1,0,0.1c0.1,0,0.3,0.1,0.4,0.1
	c1.6,0.2,3.2,0.5,4.8,0.7c0.3,0,0.5-0.1,0.8-0.2c-0.2-0.1-0.5-0.3-0.7-0.4c-1.5-0.2-3-0.4-4.4-0.5C109.9,57.8,109.6,58,109.3,58z
	 M114.2,60.2c0-0.1,0-0.1,0-0.2c-1.2-0.4-5.3-1-5.8-0.8c0.2,0.1,0.4,0.3,0.6,0.3c1.5,0.3,3.1,0.5,4.6,0.8
	C113.7,60.4,114,60.3,114.2,60.2z M84.4,60.2c0,0.1,0,0.1,0,0.2c0.3,0.1,0.6,0.2,0.9,0.2c1.7-0.3,3.4-0.6,5.1-0.9
	c0.1,0,0.1-0.1,0.2-0.1C90.2,59.2,85.8,59.7,84.4,60.2z M83.9,59.5c0,0.1,0,0.2,0.1,0.3c2.2,0,4.3-0.5,6.5-0.9
	c-0.5-0.5-0.9-0.4-1.4-0.3c-1.5,0.4-3,0.7-4.6,0.7C84.3,59.4,84.1,59.5,83.9,59.5z M100.2,82c0-0.6,0-1.1,0-1.7
	c-0.5,0-1,0.1-1.5,0.1c-0.1,0-0.2,0.1-0.2,0.2c-0.3,0.9,0,1.3,0.9,1.3C99.7,82,99.9,82,100.2,82z M115,59.4
	c-0.1-0.1-0.1-0.1-0.1-0.1c-1.7-0.3-3.4-0.5-5.1-0.7c-0.2,0-0.3,0.1-0.5,0.2c0,0.1,0,0.1,0.1,0.2c0.2,0,0.4,0.1,0.7,0.1
	c1.3,0.2,2.6,0.5,3.9,0.7C114.3,59.8,114.7,59.9,115,59.4z M105.9,57.7c0,0.1,0.1,0.2,0.1,0.3c1.2,0.2,2.4,0.3,3.7-0.3
	c-0.3-0.2-0.5-0.3-0.6-0.3c-0.7-0.1-1.4-0.2-2.1-0.1C106.6,57.2,106.2,57.5,105.9,57.7z M108.4,59.8c0,0.1,0,0.1,0,0.2
	c0.6,0.2,1.1,0.4,1.7,0.6c0.9,0.2,1.7,0.5,2.6,0.7c0.4,0.1,0.8,0,0.8-0.5C111.8,60.4,110.1,60.1,108.4,59.8z M93.2,58.4
	c-0.3-0.4-0.5-0.9-0.7-0.9c-0.8,0-1.6,0.2-2.4,0.3c-0.1,0-0.2,0.3-0.3,0.4c0.1,0.1,0.3,0.2,0.4,0.2C91.2,58.4,92.1,58.4,93.2,58.4z
	 M91.8,61.6C91.8,61.5,91.8,61.5,91.8,61.6c-1.5,0.5-3,1-4.5,1.6c0.4,0.6,0.9,0.7,1.3,0.4C89.7,62.9,90.7,62.2,91.8,61.6z
	 M92.3,60.5c0.5-0.1,1-0.2,1.6-0.3c0.2,0,0.5-0.1,0.4-0.4c-0.1-0.4-0.3-0.4-0.6-0.4c-0.7,0.1-1.5,0.2-2.2,0.3
	c-0.1,0-0.2,0.2-0.2,0.2c0,0.1,0.1,0.3,0.2,0.4C91.8,60.5,92,60.5,92.3,60.5z M85.1,60.8c0,0.1,0,0.1,0,0.2c0.2,0,0.5,0.2,0.7,0.1
	c1.6-0.3,3.2-0.7,4.9-1c0.1,0,0.2-0.1,0.3-0.2c0,0,0-0.1-0.1-0.1C89,60.1,87.1,60.5,85.1,60.8z M108.2,83c-1.2-0.7-3-0.3-3.7,0.6
	c0.1,0,0.1,0,0.2,0c1-0.1,2-0.2,3-0.3C107.9,83.3,108,83.1,108.2,83z M105.1,62.4c0.3,0.8,0.6,1.6,0.9,2.5c0.8-0.9,0.8-0.9,0.3-1.8
	c-0.1-0.2-0.2-0.3-0.3-0.5C105.8,62.1,105.6,62,105.1,62.4z M93.2,62.1c-0.6,0.9-1.1,1.8-1.6,2.6c0.3,0.2,0.6,0.4,0.8,0.6
	c0.3-0.9,0.7-1.9,1-2.9C93.5,62.4,93.4,62.3,93.2,62.1z M86.7,62.4c0.1,0.5,0.4,0.5,0.7,0.4c1.4-0.5,2.9-1,4.3-1.6c0,0,0,0,0-0.1
	C90,61.5,88.4,61.9,86.7,62.4z M105.3,58.2c-0.1,0.1-0.1,0.2-0.2,0.2c0.2,0.1,0.3,0.2,0.5,0.2c1,0.1,1.9,0.2,2.9,0.2
	c0.2,0,0.3-0.2,0.5-0.3c-0.2-0.1-0.4-0.2-0.6-0.2c-0.6,0-1.2-0.1-1.8-0.1C106.3,58.2,105.8,58.2,105.3,58.2z M105.3,59.4
	c0.8,0.4,1.7,0.4,2.6,0.4c0.1,0,0.2-0.2,0.3-0.3c-0.1-0.1-0.3-0.3-0.4-0.3c-0.6-0.1-1.2-0.1-1.8-0.2C105.6,58.9,105.4,59,105.3,59.4
	z M92.3,57.2c-0.1-0.5-0.4-0.7-0.8-0.6c-0.6,0.1-1.2,0.1-1.8,0.2c-0.2,0-0.3,0.2-0.5,0.3c0,0.1,0,0.1,0,0.2
	C90.2,57.8,91.2,57.2,92.3,57.2z M97.4,57.1c0-0.6-0.5-1-0.9-0.8c-0.3,0.2-0.6,0.5-0.8,0.8c-0.1,0.1-0.1,0.5,0,0.5
	c0.1,0.1,0.4,0.1,0.6,0.1c0.3,0,0.6-0.1,0.8-0.3C97.3,57.4,97.4,57.2,97.4,57.1z M91.5,71.5c0.5-0.3,0.8-0.5,1.2-0.7
	c0,0.1,0.1,0.1,0.1,0.2c-0.4,0.3-0.8,0.6-1.2,0.9c0,0,0,0.1,0.1,0.1c0.3-0.1,0.6-0.3,0.8-0.4c0.3-0.1,0.5-0.3,0.9-0.6
	c0,0.6-0.1,1-0.1,1.5c0.4-0.2,0.7-0.9,0.4-1.2c-0.3-0.3-0.3-0.5,0.2-0.7c0.1,0,0.2-0.2,0.2-0.3C92,70.9,92,70.9,91.5,71.5z
	 M101.3,66.4c0.3,0,0.6,0.1,0.6-0.4c0-0.7,0-1.5,0-2.2c0-0.4-0.2-0.5-0.6-0.5C101.3,64.3,101.3,65.3,101.3,66.4z M93.4,58.7
	c-0.8,0-1.6,0-2.3,0c-0.1,0-0.3,0.1-0.3,0.2c0,0.1,0,0.3,0.1,0.4c0.2,0.1,0.4,0.2,0.6,0.2c0.5,0,0.9-0.1,1.4-0.2
	C93.3,59.3,93.4,59.1,93.4,58.7z M107.2,56.6c0,0.1,0.1,0.1,0.1,0.2c1.5,0.4,2.3,0.2,2.7-0.4c-0.7-0.3-1.4-0.2-2.1-0.2
	C107.6,56.3,107.4,56.5,107.2,56.6z M104.4,86.3c-1.3-1-2.6-0.5-4,0C101.8,86.3,103.1,86.3,104.4,86.3z M104,71.6
	c0.3-0.5,0.3-0.8,0-1.3c-0.4-0.6-1.1-0.9-1.9-0.7c0.1,0.6,0.6,0.9,1.2,0.8c0.1,0,0.4,0.1,0.5,0.3C103.9,70.9,103.9,71.2,104,71.6z
	 M88.9,63.8c0.5,0.4,0.5,0.4,0.9,0.2c0.5-0.4,1-0.8,1.5-1.2c0.2-0.2,0.4-0.4,0.7-0.7c0,0-0.1-0.1-0.1-0.1
	C90.8,62.6,89.9,63.2,88.9,63.8z M103.5,57.5c0-0.7-0.5-1.3-0.8-1.2c-0.3,0.1-0.5,0.5-0.7,0.8c-0.1,0.2,0.7,0.7,1.1,0.7
	C103.3,57.7,103.4,57.5,103.5,57.5z M106.2,61.9c0,0-0.1,0.1-0.1,0.1c0.5,0.9,0.9,1.8,1.4,2.6c0,0,0.3,0,0.4,0c0-0.2,0-0.4-0.1-0.5
	c-0.3-0.6-0.7-1.1-1.1-1.7C106.6,62.2,106.4,62.1,106.2,61.9z M96.5,71.3c-0.3-0.7,0-1.2,0.5-1.8c-0.4-0.2-0.6-0.1-0.6,0.2
	c0,0.3-0.1,0.6-0.2,0.8c-0.1,0.2-0.2,0.5-0.4,0.5c-0.2,0-0.4-0.2-0.5-0.4c-0.1-0.1-0.1-0.2-0.1-0.3c-0.2,0.1-0.4,0.2-0.6,0.3
	c0.2,0.3,0.3,0.6,0.4,0.8C95.4,71.5,95.9,71.4,96.5,71.3z M103.8,57.1c-0.1,0.4-0.1,0.9,0.3,1c0.3,0.1,0.7-0.1,1-0.2
	c-0.1-0.3,0-0.6-0.2-0.8C104.6,56.7,104.2,57.1,103.8,57.1z M107.4,67.1c0.3-0.2,0.5-0.3,0.7-0.5c0.1,0.2,0.2,0.4,0.3,0.6
	c0.5-0.5,0.5-0.5,0.4-1c-0.7,0-0.9-0.5-1.1-1.1c-0.1,0.4-0.1,0.7-0.1,1C107.5,66.4,107.4,66.7,107.4,67.1z M95.3,57.2
	c-0.1,0-0.4-0.1-0.6-0.1c-0.2,0.1-0.5,0.3-0.6,0.5c0,0.1,0.2,0.4,0.3,0.5c0.4,0.1,0.8,0.1,1.2,0.2C95.5,57.9,95.4,57.6,95.3,57.2z
	 M106.8,61.4c-0.3,0.5,0.4,1.7,1.2,2.5c0.3-0.2,0.4-0.4,0.2-0.6C107.8,62.7,107.3,62.1,106.8,61.4z M101.6,69.5
	c-0.2,0.1-0.4,0.1-0.4,0.1c0,0.9,0,1.9,0,2.9c0.2,0,0.4,0,0.5,0c0-0.7,0-1.2,0-1.8c0-0.1,0-0.2-0.1-0.2
	C101.2,70.2,101.4,69.9,101.6,69.5z M103.2,56c0,0-0.1,0.1-0.1,0.1c0.3,0.2,0.5,0.6,0.8,0.6c0.5,0.1,1-0.2,1.2-0.8
	C104.5,56,103.9,56,103.2,56z M93,73.1c0,0,0-0.1,0-0.1c0.3,0.2,0.5,0.4,0.8,0.6c0-0.8-0.4-1-1.4-0.7c-0.1,0.8,0.5,1.3,1.3,1
	C93.5,73.6,93.2,73.3,93,73.1z M94.3,56.3c0.5,0.9,1.2,0.8,2-0.4C95.6,56,95,56.1,94.3,56.3z M104.8,60.9c0.3,0.2,0.5,0.4,0.8,0.5
	c0.6,0.4,0.8,0.3,0.9-0.4C105.7,60.4,105.4,60.4,104.8,60.9z M102.6,63.8c0.1,0.7,0.1,1.3,0.2,1.9c0,0.1,0.2,0.2,0.3,0.3
	c0.1-0.1,0.2-0.3,0.2-0.4c0-0.6-0.1-1.2-0.2-1.7c0-0.1-0.2-0.3-0.2-0.4C102.8,63.7,102.7,63.8,102.6,63.8z M92.8,61.5
	c0.5-0.2,0.9-0.3,1.3-0.5c0.1,0,0.1-0.2,0.2-0.3c-0.1-0.1-0.2-0.2-0.3-0.1c-0.4,0-0.8,0.1-1.2,0.2c-0.1,0-0.3,0.2-0.4,0.4
	C92.5,61.2,92.7,61.4,92.8,61.5z M90.2,78.1c0,0.4,0.2,0.8,0.8,1c0.5,0.1,1,0.2,1.5-0.2C91.6,78.6,90.9,78.4,90.2,78.1z M105.5,56.1
	c0,0.1-0.1,0.2-0.1,0.2c0.2,0.3,0.4,0.6,0.7,0.8c0.2,0.1,0.8-0.4,1-0.9C106.6,56.2,106,56.1,105.5,56.1z M92.4,78.5
	c-0.5-0.7-1-1.4-1.4-2C90.8,77.7,91.4,78.4,92.4,78.5z M102.7,66.4c-0.1-1.1-0.2-2-0.3-2.9c-0.1,0-0.1,0-0.2,0c0,0.9,0,1.7,0,2.6
	C102.2,66.2,102.4,66.3,102.7,66.4z M94.6,59.8c0.5-0.3,1-0.5,1.4-0.8c0-0.1,0-0.2,0-0.2c-0.3-0.1-0.7-0.3-0.9-0.2
	C94.8,58.8,94.5,59.2,94.6,59.8z M97.6,72.7c0.2-0.1,0.6-0.3,0.6-0.4c0.1-0.5,0-1,0-1.5c-0.2,0.3-0.3,0.6-0.6,0.8
	C97.3,72,97.3,72.3,97.6,72.7z M108.3,77.3c-0.7,0.1-1.4,0.2-2.1,0.3C106.6,78.4,107.6,78.2,108.3,77.3z M106.7,64.7
	c-0.5,0.5-0.9,1.1-0.7,1.8c0,0.1,0.3,0.2,0.5,0.3C106.6,66,106.6,65.3,106.7,64.7z M107.4,86.3c-0.1-0.5-0.3-0.8-0.7-0.7
	c-0.5,0.1-1,0.4-1.4,0.6c0.1,0.1,0.2,0.1,0.3,0.1C106.1,86.3,106.7,86.3,107.4,86.3z M97.2,82.8c-1.1-0.9-2.3-0.9-3-0.2
	C95.2,82,96.1,82.8,97.2,82.8z M91.4,80.5c0.9-0.2,1.5-0.5,2.1-1C92.8,79.1,92.1,79.5,91.4,80.5z M96.8,60.7
	c-0.6-0.5-1.2-0.4-1.8,0.2C95.4,61.3,95.7,61.2,96.8,60.7z M110.5,64.2c-0.8,0-1.2,0.5-1.1,1.6c0.2-0.1,0.4-0.2,0.5-0.4
	C110.1,65.1,110.3,64.6,110.5,64.2z M94.1,85.7c0.1,0.6,0.6,0.8,1.6,0.5C95.1,85.4,95,85.4,94.1,85.7z M94.3,56.9
	c-0.1-0.1-0.1-0.1-0.2-0.2c-0.3,0.2-0.6,0.4-0.9,0.7c-0.1,0.1-0.1,0.4,0,0.6c0.1,0.1,0.3,0.2,0.4,0.3c0-0.2,0.1-0.4,0.1-0.5
	c0.1-0.2,0.1-0.4,0.2-0.5C94.1,57.1,94.2,57,94.3,56.9z M91.4,76.4c-0.1,0-0.1,0.1-0.2,0.1c0.4,0.6,0.9,1.1,1.3,1.7
	C92.7,77.2,92.2,76.7,91.4,76.4z M93.9,56.4c-0.6,0-1.1,0-1.6,0C92.6,57.4,93.1,57.3,93.9,56.4z M97.6,64C97.6,64,97.6,64,97.6,64
	c-0.3,0.7-0.5,1.4-0.8,2c-0.2,0.4,0.1,0.5,0.4,0.5C97.4,65.6,97.5,64.8,97.6,64z M105.9,59.9c0,0-0.2,0.1-0.2,0.2
	c0,0.1,0.1,0.2,0.2,0.3c0.3,0.1,0.5,0.3,0.8,0.3c0.1,0,0.3-0.1,0.4-0.1c-0.1-0.2-0.2-0.5-0.3-0.5C106.6,59.9,106.2,60,105.9,59.9z
	 M90.8,67.1c0.5,0.8,1.3,1,2,0.5C92.1,67.5,91.5,67.3,90.8,67.1z M109.2,69.2c0.2-0.7,0-1.4-0.4-2.1C108.2,68,109.1,68.5,109.2,69.2
	z M102,70.7c-0.4,0.7-0.1,1.5,0.5,1.7C102.5,71.7,102.5,71.2,102,70.7z M91.9,70.6c0-0.1,0-0.1,0-0.2c-0.7-0.2-1.3-0.3-2-0.5
	C90.3,70.6,91.1,70.9,91.9,70.6z M110.9,66.4c0-0.1,0-0.1,0-0.2c-0.8-0.5-1.4-0.5-1.8,0.2C109.7,66.4,110.3,66.4,110.9,66.4z
	 M107,69c0.5-0.4,0.9-0.9,1-1.6C106.7,68.2,106.6,68.4,107,69z M96.1,76.3c-0.5,0.7-0.1,1.4,0.9,1.5C96.7,77.3,96.4,76.8,96.1,76.3z
	 M95,61.5c0-0.1,0-0.1,0-0.2c-0.2,0-0.4-0.1-0.6,0c-0.3,0.1-0.5,0.4-0.8,0.6c0.1,0.1,0.3,0.3,0.3,0.3C94.3,61.9,94.6,61.7,95,61.5z
	 M105.3,59c0-0.2-0.1-0.2-0.1-0.3c-0.1-0.3-1.1-0.3-1.2-0.1c0,0.1,0,0.3,0.1,0.3c0.3,0.1,0.5,0.2,0.8,0.3
	C105,59.2,105.1,59,105.3,59z M108.6,65.8c0.7-0.2,0.8-1.3,0.2-2C108.8,64.5,108.7,65.2,108.6,65.8z M97.2,71.7
	c0.5-0.3,0.8-0.6,0.8-1.2c0-0.3,0.1-0.7-0.3-0.8C97.5,70.4,97.3,71,97.2,71.7z M111.2,64.4c-0.7,0.1-0.9,0.6-1,1.1
	c0,0.1,0.1,0.2,0.2,0.3c0.1,0,0.3,0,0.3-0.1C110.9,65.2,111,64.8,111.2,64.4z M95.9,81.8c0.9,0.1,1.6-0.5,1.4-1.3
	C96.9,81,96.5,81.4,95.9,81.8z M97.4,63.3c-0.4,0.8-0.8,1.5-1.1,2.1c-0.2,0.3-0.2,0.5,0.2,0.8C96.8,65.2,97.1,64.3,97.4,63.3z
	 M103.4,63.6c0,0.8-0.1,1.6,0.4,2.3C104,65.1,103.6,64.4,103.4,63.6z M96.8,71.4c0.4-0.5,0.5-1,0.4-1.7
	C96.5,70.3,96.4,70.8,96.8,71.4z M107,64.7c-0.1,0.5-0.1,0.8-0.2,1.2c0,0.1,0,0.2,0,0.2c0,0.1,0.1,0.2,0.2,0.3
	c0.1,0,0.2-0.1,0.3-0.2C107.5,65.8,107.3,65.1,107,64.7z M108.4,74.1c-0.8,0.1-1.3,0.9-1.2,1.7C107.6,75.2,108,74.7,108.4,74.1z
	 M106.9,67.5c-0.6-0.4-1.1-0.7-1.4-0.9c0.2,0.3,0.4,0.7,0.7,1.2C106.3,67.7,106.6,67.6,106.9,67.5z M89.5,65.3c0,0-0.1,0.1-0.1,0.1
	c0.4,0.7,1.1,1.1,1.7,0.9C90.5,65.9,90,65.6,89.5,65.3z M107.4,71c0.4-0.2,0.8-1,0.7-1.6C107.4,69.9,107.2,70.4,107.4,71z
	 M95.3,71.7c-0.2,0.6,0,0.9,0.3,1.1c0.2,0.1,0.5,0,0.7,0.1C96,72.5,95.7,72.1,95.3,71.7z M89.2,68.6c0.6-0.1,1.1-0.3,1.5-0.8
	C89.8,67.6,89.4,67.9,89.2,68.6z M92.8,67.3c-0.4-0.7-1.3-0.9-1.9-0.4C91.5,67,92.1,67.2,92.8,67.3z M97.2,72.7
	c-0.1-0.8-0.5-1.1-1.4-0.9C96.3,72.1,96.5,72.7,97.2,72.7z M90.3,67.3c-0.4-0.6-1-0.6-1.6-0.7C89.2,67.2,89.7,67.4,90.3,67.3z
	 M108.4,74.6c-0.4,0.5-0.7,1-1.1,1.5C108.1,76.1,108.4,75.5,108.4,74.6z M97,86.3c0.8,0,1.4,0,2.1,0C98.4,85.6,97.7,85.9,97,86.3z
	 M92.5,66.4c0.1-0.7-0.4-1.3-1.2-1.4C91.7,65.5,92.1,65.9,92.5,66.4z M94.4,71.9c0,0.9,0.4,1.4,1,1.2C95.1,72.7,94.7,72.3,94.4,71.9
	z M104.2,62.5c-0.2-0.3-0.3-0.5-0.4-0.8c-0.1-0.4-0.4-0.4-0.6-0.2C103.3,62.3,103.5,62.5,104.2,62.5z M93.7,59.1
	c0.7,0.1,0.7,0.1,1-0.5C94.1,58.2,93.8,58.4,93.7,59.1z M93.3,70.1c0.7-0.2,0.9-0.8,0.7-1.3C93.4,69,93.7,69.7,93.3,70.1z
	 M95.4,81.7c0.1-0.7-0.1-1.1-0.7-1.2C94.6,81,94.9,81.5,95.4,81.7z M104,63.5c-0.1,0-0.1,0-0.2,0c0.1,0.7,0.2,1.5,0.5,2.2
	c0.1,0,0.1,0,0.2,0C104.3,64.9,104.1,64.2,104,63.5z M95.9,60c-0.4-0.4-0.7-0.2-1,0c-0.2,0.1-0.3,0.3-0.4,0.5c0.1,0,0.1,0.1,0.2,0.1
	C95.1,60.4,95.5,60.2,95.9,60z M97.9,64.1c0.1,0.7-0.3,1.6-0.3,2.4c0.1,0,0.2,0,0.3,0C97.9,65.7,97.9,64.9,97.9,64.1z M104.4,61
	c0,0.1-0.1,0.1-0.1,0.2c0.5,0.8,0.8,1,1.2,0.6C105.2,61.4,104.8,61.2,104.4,61z M108.6,63.9c-0.6,0.6-0.7,1.3-0.2,1.8
	C108.4,65.1,108.5,64.6,108.6,63.9z M105.5,78.8c0,0-0.1,0.1-0.1,0.1c0,0.4,0.3,0.7,0.5,1c0.1,0.1,0.3-0.1,0.6-0.1
	C106.1,79.4,105.8,79.1,105.5,78.8z M90.8,65.6c0-0.2,0-0.4,0.1-0.6c-0.5-0.1-0.9-0.1-1.3-0.2c0,0.1,0,0.1,0,0.2
	C89.8,65.2,90.3,65.4,90.8,65.6z M96.1,58.5c0.6,0.1,0.9-0.1,1.1-0.7C96.4,57.9,96.2,58,96.1,58.5z M92.1,72.2
	c-0.8,0.2-1.2,0.7-1.2,1.4C91.3,73.1,91.7,72.7,92.1,72.2z M96.9,80.6c-0.8-0.1-1.2,0.2-1.1,1C96.1,81.3,96.5,81,96.9,80.6z
	 M103.3,70.9c-0.1,0-0.1,0-0.2-0.1c-0.1,0.4-0.3,0.8-0.4,1.2c0,0.1,0.1,0.2,0.2,0.3c0.1-0.1,0.2-0.1,0.2-0.2
	C103.2,71.7,103.2,71.3,103.3,70.9z M106.3,78.5c0.3,0.5,1,0.4,1.5-0.3C107.3,78.3,106.8,78.4,106.3,78.5z M90.2,66.7
	c-0.6-0.7-1.1-1-1.5-0.4C89.2,66.4,89.6,66.5,90.2,66.7z M97.7,81.2c-0.4,0.3-0.6,0.5-0.3,0.8c0.3,0.3,0.5,0.1,0.8-0.2
	C98.1,81.6,97.9,81.4,97.7,81.2z M107.9,72.6c0-0.1,0.1-0.1,0.1-0.2c-0.2-0.3-0.4-0.6-0.6-0.8c-0.1,0-0.1,0-0.2,0
	c0,0.2-0.2,0.6-0.1,0.7C107.3,72.5,107.7,72.5,107.9,72.6z M91.3,70c-0.2-0.6-0.6-0.7-1.4-0.4C90.4,69.8,90.8,69.9,91.3,70z
	 M105.4,57.7c0.5-0.3,0.4-0.6-0.2-1.2C104.9,57,105.4,57.3,105.4,57.7z M91.1,65.3c-0.1,0.8,0.1,1.1,0.9,1.1
	C91.7,66,91.5,65.7,91.1,65.3z M94.6,73.3c-0.2-0.4-0.5-0.8-0.7-1.1c-0.1,0-0.1,0-0.2,0.1c0.1,0.4,0.3,0.8,0.4,1.3
	C94.4,73.5,94.5,73.4,94.6,73.3z M102.1,75.8c-0.9,0.4-1,0.6-0.9,1.2C101.6,76.5,101.9,76.1,102.1,75.8z M104.6,66.1
	c0.2,0.4,0.2,0.9,0.8,1C105.4,66.5,105.1,66.2,104.6,66.1z M97,77c0.1,0,0.1,0,0.2,0c0-0.3,0-0.7-0.1-1c0-0.1-0.2-0.1-0.3-0.2
	c0,0.1-0.1,0.2-0.1,0.3C96.8,76.4,96.9,76.7,97,77z M110.8,66c0.6-0.4,0.9-1,0.6-1.5C111.3,64.9,111.1,65.4,110.8,66z M104,61.2
	c0,0.8,0.3,1.1,0.8,0.9C104.5,61.8,104.2,61.5,104,61.2z M107.3,70.1c0.2-0.4,0.4-0.7,0.6-1C107.1,69.1,107,69.2,107.3,70.1z
	 M104.7,76.4c0.1,0,0.2,0,0.3,0c0-0.4,0-0.7-0.1-1.1c0-0.1-0.1-0.1-0.2-0.1c0,0-0.2,0.1-0.2,0.1C104.6,75.7,104.6,76.1,104.7,76.4z
	 M92.8,70.3c-0.5-0.3-0.8-0.5-1.2-0.8C91.7,70.2,92,70.4,92.8,70.3z M92.2,72.4c0.7,0.1,0.8,0,0.8-0.9
	C92.8,71.9,92.5,72.2,92.2,72.4z M94.4,80.4c-0.4,0.5-0.3,0.9,0.3,1.3C94.6,81.2,94.5,80.8,94.4,80.4z M104.5,76.8
	c-0.1,0-0.2,0.1-0.3,0.1c0.1,0.4,0.2,0.7,0.3,1.1c0.1,0,0.2,0,0.2-0.1C104.7,77.6,104.6,77.2,104.5,76.8z M98.5,77
	c-0.3-0.3-0.6-0.5-0.9-0.7C97.4,77,97.7,77.2,98.5,77z M95.4,70.1c0.6,0.2,0.6-0.2,0.7-0.5c0-0.1-0.1-0.2-0.1-0.3
	C95.8,69.6,95.6,69.8,95.4,70.1z M89.3,67.5c-0.6-0.5-0.8-0.5-1.2,0.1C88.5,67.6,88.8,67.6,89.3,67.5z M98.1,81.4
	c0.1,0,0.2-0.1,0.2-0.1c-0.1-0.2-0.1-0.5-0.2-0.7c-0.1,0.1-0.2,0.1-0.4,0.2C97.8,80.9,98,81.1,98.1,81.4z M95,69.1
	c-0.2,0-0.4-0.1-0.5,0c-0.1,0.3-0.2,0.6-0.3,1c0,0,0.1,0,0.1,0C94.6,69.8,94.8,69.5,95,69.1z M102.5,75.6c-0.3,0.4-0.5,0.9-0.8,1.4
	C102.3,76.6,102.6,76.2,102.5,75.6z M103.4,77.6c-0.4-0.3-0.7-0.5-1-0.7c0,0-0.1,0.1-0.1,0.1C102.6,77.2,102.6,77.9,103.4,77.6z
	 M98.2,66.4C98.2,66.4,98.2,66.4,98.2,66.4c0.1-0.6,0.1-1.3,0.1-1.9c0,0-0.1,0-0.1,0C98.2,65.1,98.2,65.8,98.2,66.4z M95.3,65.7
	c0,0.1-0.1,0.1-0.1,0.2c0.3,0.1,0.5,0.3,0.8,0.4C96.1,65.7,95.7,65.7,95.3,65.7z M107.3,74.3c-0.6,0.2-0.7,0.4-0.5,1.1
	C107,75.1,107.1,74.8,107.3,74.3z M100.6,82.1C100.6,82.1,100.6,82.1,100.6,82.1c0.1-0.5,0.1-1,0.1-1.6c0,0-0.1,0-0.1,0
	C100.6,81,100.6,81.5,100.6,82.1z M103.4,72.1c0.1,0,0.1,0,0.2,0c0.3-0.4,0.2-0.8,0-1.2C103.5,71.3,103.4,71.7,103.4,72.1z
	 M103.2,76.5c-0.1-0.4-0.2-0.7-0.3-1.1c-0.1,0.4-0.2,0.7-0.3,1.1C102.9,76.5,103,76.5,103.2,76.5z M102,80.6c0,0.4,0,0.7,0,1.1
	C102.2,81.3,102.5,80.9,102,80.6z M95.5,69.4c-0.1,0-0.2-0.1-0.2-0.1c-0.2,0.3-0.4,0.6-0.5,0.9c0.1,0,0.1,0.1,0.2,0.1
	C95.1,70,95.3,69.7,95.5,69.4z M94,70.8c-0.1,0.1-0.1,0.1-0.2,0.2c0.2,0.2,0.4,0.5,0.6,0.7c0.1-0.1,0.1-0.1,0.2-0.2
	C94.4,71.3,94.2,71,94,70.8z M107.6,77.2c0-0.1,0-0.2,0-0.3c-0.4,0.1-0.7,0.2-1.1,0.2c0,0.1,0,0.1,0,0.2
	C106.8,77.3,107.2,77.2,107.6,77.2z M102.9,62.2c0-0.6-0.1-0.7-0.9-0.4C102.3,61.9,102.6,62,102.9,62.2z M95.4,64.9
	c-0.1,0.1-0.1,0.1-0.2,0.2c0.1,0.1,0.2,0.3,0.3,0.4c0.1,0,0.3-0.1,0.4-0.1C95.7,65.2,95.6,65,95.4,64.9z M89.2,67.8
	c-0.4,0-0.6,0.1-1,0.1C88.6,68.3,88.9,68.5,89.2,67.8z M93.5,68.6c-0.6,0.4-0.6,0.6-0.3,1.1C93.3,69.3,93.4,69,93.5,68.6z
	 M107.5,71.2c0.2,0.3,0.4,0.6,0.6,0.9C108.2,71.4,108.1,71.2,107.5,71.2z M92.1,72.6c-0.3,0.3-0.4,0.5-0.6,0.7
	C91.9,73.4,92.2,73.3,92.1,72.6z M105.3,76.7c0.5-0.1,0.7-0.3,0.6-0.9C105.8,76.1,105.6,76.4,105.3,76.7z M90.5,77.5
	c-0.1,0.1-0.1,0.1-0.2,0.2c0.2,0.2,0.4,0.4,0.6,0.6c0.1-0.1,0.1-0.1,0.2-0.2C90.9,77.9,90.7,77.7,90.5,77.5z M98.2,78
	c0-0.8-0.5-0.6-0.7-0.8c0,0-0.1,0.1-0.1,0.1C97.6,77.5,97.9,77.7,98.2,78z M92.7,69.9c0-0.1,0.1-0.1,0.1-0.2c-0.3-0.2-0.6-0.4-1-0.6
	c0,0.1-0.1,0.1-0.1,0.2C92.1,69.5,92.4,69.7,92.7,69.9z M96.7,63c-0.1,0-0.2,0-0.3,0c0,0.2-0.1,0.3-0.1,0.5c0,0,0.2,0.1,0.3,0.1
	C96.7,63.4,96.7,63.2,96.7,63z M96.1,64.7c0-0.1,0-0.1,0-0.2c-0.1-0.1-0.3-0.2-0.5-0.3c0,0.2,0,0.5,0,0.5
	C95.7,64.7,95.9,64.7,96.1,64.7z M105.1,75c0.1,0.4,0.1,0.7,0.2,1.1C105.6,75.5,105.6,75.4,105.1,75z M108.7,70.4
	c-0.2,0.1-0.3,0.3-0.4,0.4c0.1,0.1,0.3,0.4,0.4,0.3c0.2,0,0.3-0.2,0.6-0.4C109,70.5,108.8,70.3,108.7,70.4z M102.9,59.9
	c-0.7-0.3-1-0.1-1.2,0.6c-0.2,0-0.5,0-0.7,0.1c0.9,0.3,1.8,0,2.7-0.4C103.4,60.1,103.1,60,102.9,59.9z"/>
</svg>