<svg xmlns="http://www.w3.org/2000/svg" width="1272" height="1272" viewBox="0 0 1272 1272">
<style type="text/css">
	.st0{clip-path:url(#SVGID_00000125575600324753191490000011954944322370788537_);}
	.st1{fill:none;stroke:#74D7E7;stroke-width:2;stroke-miterlimit:10;}
	.st2{stroke:#74D7E7;stroke-width:5;stroke-miterlimit:10;}
	.st3{fill:#74D7E7;}
</style>
<g>
	<defs>
		<rect id="SVGID_1_" width="1272" height="1272"/>
	</defs>
	<clipPath id="SVGID_00000052821172430156195000000008295278280685502872_">
		<use xlink:href="#SVGID_1_"  style="overflow:visible;"/>
	</clipPath>
	<g style="clip-path:url(#SVGID_00000052821172430156195000000008295278280685502872_);">
		<line class="st1" x1="-1272" y1="0" x2="0" y2="1272"/>
		<line class="st1" x1="-1252" y1="0" x2="20" y2="1272"/>
		<line class="st1" x1="-1231.9" y1="0" x2="40.1" y2="1272"/>
		<line class="st1" x1="-1211.9" y1="0" x2="60.1" y2="1272"/>
		<line class="st1" x1="-1191.9" y1="0" x2="80.1" y2="1272"/>
		<line class="st1" x1="-1171.8" y1="0" x2="100.2" y2="1272"/>
		<line class="st1" x1="-1151.8" y1="0" x2="120.2" y2="1272"/>
		<line class="st1" x1="-1131.8" y1="0" x2="140.2" y2="1272"/>
		<line class="st1" x1="-1111.7" y1="0" x2="160.3" y2="1272"/>
		<line class="st1" x1="-1091.7" y1="0" x2="180.3" y2="1272"/>
		<line class="st1" x1="-1071.7" y1="0" x2="200.3" y2="1272"/>
		<line class="st1" x1="-1051.7" y1="0" x2="220.3" y2="1272"/>
		<line class="st1" x1="-1031.6" y1="0" x2="240.4" y2="1272"/>
		<line class="st1" x1="-1011.6" y1="0" x2="260.4" y2="1272"/>
		<line class="st1" x1="-991.6" y1="0" x2="280.4" y2="1272"/>
		<line class="st1" x1="-971.5" y1="0" x2="300.5" y2="1272"/>
		<line class="st1" x1="-951.5" y1="0" x2="320.5" y2="1272"/>
		<line class="st1" x1="-931.5" y1="0" x2="340.5" y2="1272"/>
		<line class="st1" x1="-911.4" y1="0" x2="360.6" y2="1272"/>
		<line class="st1" x1="-891.4" y1="0" x2="380.6" y2="1272"/>
		<line class="st1" x1="-871.4" y1="0" x2="400.6" y2="1272"/>
		<line class="st1" x1="-851.3" y1="0" x2="420.7" y2="1272"/>
		<line class="st1" x1="-831.3" y1="0" x2="440.7" y2="1272"/>
		<line class="st1" x1="-811.3" y1="0" x2="460.7" y2="1272"/>
		<line class="st1" x1="-791.2" y1="0" x2="480.8" y2="1272"/>
		<line class="st1" x1="-771.2" y1="0" x2="500.8" y2="1272"/>
		<line class="st1" x1="-751.2" y1="0" x2="520.8" y2="1272"/>
		<line class="st1" x1="-731.1" y1="0" x2="540.9" y2="1272"/>
		<line class="st1" x1="-711.1" y1="0" x2="560.9" y2="1272"/>
		<line class="st1" x1="-691.1" y1="0" x2="580.9" y2="1272"/>
		<line class="st1" x1="-671.1" y1="0" x2="600.9" y2="1272"/>
		<line class="st1" x1="-651" y1="0" x2="621" y2="1272"/>
		<line class="st1" x1="-631" y1="0" x2="641" y2="1272"/>
		<line class="st1" x1="-611" y1="0" x2="661" y2="1272"/>
		<line class="st1" x1="-590.9" y1="0" x2="681.1" y2="1272"/>
		<line class="st1" x1="-570.9" y1="0" x2="701.1" y2="1272"/>
		<line class="st1" x1="-550.9" y1="0" x2="721.1" y2="1272"/>
		<line class="st1" x1="-530.8" y1="0" x2="741.2" y2="1272"/>
		<line class="st1" x1="-510.8" y1="0" x2="761.2" y2="1272"/>
		<line class="st1" x1="-490.8" y1="0" x2="781.2" y2="1272"/>
		<line class="st1" x1="-470.7" y1="0" x2="801.3" y2="1272"/>
		<line class="st1" x1="-450.7" y1="0" x2="821.3" y2="1272"/>
		<line class="st1" x1="-430.7" y1="0" x2="841.3" y2="1272"/>
		<line class="st1" x1="-410.6" y1="0" x2="861.4" y2="1272"/>
		<line class="st1" x1="-390.6" y1="0" x2="881.4" y2="1272"/>
		<line class="st1" x1="-370.6" y1="0" x2="901.4" y2="1272"/>
		<line class="st1" x1="-350.6" y1="0" x2="921.4" y2="1272"/>
		<line class="st1" x1="-330.5" y1="0" x2="941.5" y2="1272"/>
		<line class="st1" x1="-310.5" y1="0" x2="961.5" y2="1272"/>
		<line class="st1" x1="-290.5" y1="0" x2="981.5" y2="1272"/>
		<line class="st1" x1="-270.4" y1="0" x2="1001.6" y2="1272"/>
		<line class="st1" x1="-250.4" y1="0" x2="1021.6" y2="1272"/>
		<line class="st1" x1="-230.4" y1="0" x2="1041.6" y2="1272"/>
		<line class="st1" x1="-210.3" y1="0" x2="1061.7" y2="1272"/>
		<line class="st1" x1="-190.3" y1="0" x2="1081.7" y2="1272"/>
		<line class="st1" x1="-170.3" y1="0" x2="1101.7" y2="1272"/>
		<line class="st1" x1="-150.2" y1="0" x2="1121.8" y2="1272"/>
		<line class="st1" x1="-130.2" y1="0" x2="1141.8" y2="1272"/>
		<line class="st1" x1="-110.2" y1="0" x2="1161.8" y2="1272"/>
		<line class="st1" x1="-90.1" y1="0" x2="1181.9" y2="1272"/>
		<line class="st1" x1="-70.1" y1="0" x2="1201.9" y2="1272"/>
		<line class="st1" x1="-50.1" y1="0" x2="1221.9" y2="1272"/>
		<line class="st1" x1="-30" y1="0" x2="1242" y2="1272"/>
		<line class="st1" x1="-10" y1="0" x2="1262" y2="1272"/>
		<line class="st1" x1="10" y1="0" x2="1282" y2="1272"/>
		<line class="st1" x1="30" y1="0" x2="1302" y2="1272"/>
		<line class="st1" x1="50.1" y1="0" x2="1322.1" y2="1272"/>
		<line class="st1" x1="70.1" y1="0" x2="1342.1" y2="1272"/>
		<line class="st1" x1="90.1" y1="0" x2="1362.1" y2="1272"/>
		<line class="st1" x1="110.2" y1="0" x2="1382.2" y2="1272"/>
		<line class="st1" x1="130.2" y1="0" x2="1402.2" y2="1272"/>
		<line class="st1" x1="150.2" y1="0" x2="1422.2" y2="1272"/>
		<line class="st1" x1="170.3" y1="0" x2="1442.3" y2="1272"/>
		<line class="st1" x1="190.3" y1="0" x2="1462.3" y2="1272"/>
		<line class="st1" x1="210.3" y1="0" x2="1482.3" y2="1272"/>
		<line class="st1" x1="230.4" y1="0" x2="1502.4" y2="1272"/>
		<line class="st1" x1="250.4" y1="0" x2="1522.4" y2="1272"/>
		<line class="st1" x1="270.4" y1="0" x2="1542.4" y2="1272"/>
		<line class="st1" x1="290.5" y1="0" x2="1562.5" y2="1272"/>
		<line class="st1" x1="310.5" y1="0" x2="1582.5" y2="1272"/>
		<line class="st1" x1="330.5" y1="0" x2="1602.5" y2="1272"/>
		<line class="st1" x1="350.6" y1="0" x2="1622.6" y2="1272"/>
		<line class="st1" x1="370.6" y1="0" x2="1642.6" y2="1272"/>
		<line class="st1" x1="390.6" y1="0" x2="1662.6" y2="1272"/>
		<line class="st1" x1="410.6" y1="0" x2="1682.6" y2="1272"/>
		<line class="st1" x1="430.7" y1="0" x2="1702.7" y2="1272"/>
		<line class="st1" x1="450.7" y1="0" x2="1722.7" y2="1272"/>
		<line class="st1" x1="470.7" y1="0" x2="1742.7" y2="1272"/>
		<line class="st1" x1="490.8" y1="0" x2="1762.8" y2="1272"/>
		<line class="st1" x1="510.8" y1="0" x2="1782.8" y2="1272"/>
		<line class="st1" x1="530.8" y1="0" x2="1802.8" y2="1272"/>
		<line class="st1" x1="550.9" y1="0" x2="1822.9" y2="1272"/>
		<line class="st1" x1="570.9" y1="0" x2="1842.9" y2="1272"/>
		<line class="st1" x1="590.9" y1="0" x2="1862.9" y2="1272"/>
		<line class="st1" x1="611" y1="0" x2="1883" y2="1272"/>
		<line class="st1" x1="631" y1="0" x2="1903" y2="1272"/>
		<line class="st1" x1="651" y1="0" x2="1923" y2="1272"/>
		<line class="st1" x1="671.1" y1="0" x2="1943.1" y2="1272"/>
		<line class="st1" x1="691.1" y1="0" x2="1963.1" y2="1272"/>
		<line class="st1" x1="711.1" y1="0" x2="1983.1" y2="1272"/>
		<line class="st1" x1="731.1" y1="0" x2="2003.1" y2="1272"/>
		<line class="st1" x1="751.2" y1="0" x2="2023.2" y2="1272"/>
		<line class="st1" x1="771.2" y1="0" x2="2043.2" y2="1272"/>
		<line class="st1" x1="791.2" y1="0" x2="2063.2" y2="1272"/>
		<line class="st1" x1="811.3" y1="0" x2="2083.3" y2="1272"/>
		<line class="st1" x1="831.3" y1="0" x2="2103.3" y2="1272"/>
		<line class="st1" x1="851.3" y1="0" x2="2123.3" y2="1272"/>
		<line class="st1" x1="871.4" y1="0" x2="2143.4" y2="1272"/>
		<line class="st1" x1="891.4" y1="0" x2="2163.4" y2="1272"/>
		<line class="st1" x1="911.4" y1="0" x2="2183.4" y2="1272"/>
		<line class="st1" x1="931.5" y1="0" x2="2203.5" y2="1272"/>
		<line class="st1" x1="951.5" y1="0" x2="2223.5" y2="1272"/>
		<line class="st1" x1="971.5" y1="0" x2="2243.5" y2="1272"/>
		<line class="st1" x1="991.6" y1="0" x2="2263.6" y2="1272"/>
		<line class="st1" x1="1011.6" y1="0" x2="2283.6" y2="1272"/>
		<line class="st1" x1="1031.6" y1="0" x2="2303.6" y2="1272"/>
		<line class="st1" x1="1051.7" y1="0" x2="2323.7" y2="1272"/>
		<line class="st1" x1="1071.7" y1="0" x2="2343.7" y2="1272"/>
		<line class="st1" x1="1091.7" y1="0" x2="2363.7" y2="1272"/>
		<line class="st1" x1="1111.7" y1="0" x2="2383.7" y2="1272"/>
		<line class="st1" x1="1131.8" y1="0" x2="2403.8" y2="1272"/>
		<line class="st1" x1="1151.8" y1="0" x2="2423.8" y2="1272"/>
		<line class="st1" x1="1171.8" y1="0" x2="2443.8" y2="1272"/>
		<line class="st1" x1="1191.9" y1="0" x2="2463.9" y2="1272"/>
		<line class="st1" x1="1211.9" y1="0" x2="2483.9" y2="1272"/>
		<line class="st1" x1="1231.9" y1="0" x2="2503.9" y2="1272"/>
		<line class="st1" x1="1252" y1="0" x2="2524" y2="1272"/>
		<line class="st1" x1="1272" y1="0" x2="2544" y2="1272"/>
	</g>
	<g style="clip-path:url(#SVGID_00000052821172430156195000000008295278280685502872_);">
		<line class="st1" x1="2544" y1="0" x2="1272" y2="1272"/>
		<line class="st1" x1="2524" y1="0" x2="1252" y2="1272"/>
		<line class="st1" x1="2503.9" y1="0" x2="1231.9" y2="1272"/>
		<line class="st1" x1="2483.9" y1="0" x2="1211.9" y2="1272"/>
		<line class="st1" x1="2463.9" y1="0" x2="1191.9" y2="1272"/>
		<line class="st1" x1="2443.8" y1="0" x2="1171.8" y2="1272"/>
		<line class="st1" x1="2423.8" y1="0" x2="1151.8" y2="1272"/>
		<line class="st1" x1="2403.8" y1="0" x2="1131.8" y2="1272"/>
		<line class="st1" x1="2383.7" y1="0" x2="1111.7" y2="1272"/>
		<line class="st1" x1="2363.7" y1="0" x2="1091.7" y2="1272"/>
		<line class="st1" x1="2343.7" y1="0" x2="1071.7" y2="1272"/>
		<line class="st1" x1="2323.7" y1="0" x2="1051.7" y2="1272"/>
		<line class="st1" x1="2303.6" y1="0" x2="1031.6" y2="1272"/>
		<line class="st1" x1="2283.6" y1="0" x2="1011.6" y2="1272"/>
		<line class="st1" x1="2263.6" y1="0" x2="991.6" y2="1272"/>
		<line class="st1" x1="2243.5" y1="0" x2="971.5" y2="1272"/>
		<line class="st1" x1="2223.5" y1="0" x2="951.5" y2="1272"/>
		<line class="st1" x1="2203.5" y1="0" x2="931.5" y2="1272"/>
		<line class="st1" x1="2183.4" y1="0" x2="911.4" y2="1272"/>
		<line class="st1" x1="2163.4" y1="0" x2="891.4" y2="1272"/>
		<line class="st1" x1="2143.4" y1="0" x2="871.4" y2="1272"/>
		<line class="st1" x1="2123.3" y1="0" x2="851.3" y2="1272"/>
		<line class="st1" x1="2103.3" y1="0" x2="831.3" y2="1272"/>
		<line class="st1" x1="2083.3" y1="0" x2="811.3" y2="1272"/>
		<line class="st1" x1="2063.2" y1="0" x2="791.2" y2="1272"/>
		<line class="st1" x1="2043.2" y1="0" x2="771.2" y2="1272"/>
		<line class="st1" x1="2023.2" y1="0" x2="751.2" y2="1272"/>
		<line class="st1" x1="2003.1" y1="0" x2="731.1" y2="1272"/>
		<line class="st1" x1="1983.1" y1="0" x2="711.1" y2="1272"/>
		<line class="st1" x1="1963.1" y1="0" x2="691.1" y2="1272"/>
		<line class="st1" x1="1943.1" y1="0" x2="671.1" y2="1272"/>
		<line class="st1" x1="1923" y1="0" x2="651" y2="1272"/>
		<line class="st1" x1="1903" y1="0" x2="631" y2="1272"/>
		<line class="st1" x1="1883" y1="0" x2="611" y2="1272"/>
		<line class="st1" x1="1862.9" y1="0" x2="590.9" y2="1272"/>
		<line class="st1" x1="1842.9" y1="0" x2="570.9" y2="1272"/>
		<line class="st1" x1="1822.9" y1="0" x2="550.9" y2="1272"/>
		<line class="st1" x1="1802.8" y1="0" x2="530.8" y2="1272"/>
		<line class="st1" x1="1782.8" y1="0" x2="510.8" y2="1272"/>
		<line class="st1" x1="1762.8" y1="0" x2="490.8" y2="1272"/>
		<line class="st1" x1="1742.7" y1="0" x2="470.7" y2="1272"/>
		<line class="st1" x1="1722.7" y1="0" x2="450.7" y2="1272"/>
		<line class="st1" x1="1702.7" y1="0" x2="430.7" y2="1272"/>
		<line class="st1" x1="1682.6" y1="0" x2="410.6" y2="1272"/>
		<line class="st1" x1="1662.6" y1="0" x2="390.6" y2="1272"/>
		<line class="st1" x1="1642.6" y1="0" x2="370.6" y2="1272"/>
		<line class="st1" x1="1622.6" y1="0" x2="350.6" y2="1272"/>
		<line class="st1" x1="1602.5" y1="0" x2="330.5" y2="1272"/>
		<line class="st1" x1="1582.5" y1="0" x2="310.5" y2="1272"/>
		<line class="st1" x1="1562.5" y1="0" x2="290.5" y2="1272"/>
		<line class="st1" x1="1542.4" y1="0" x2="270.4" y2="1272"/>
		<line class="st1" x1="1522.4" y1="0" x2="250.4" y2="1272"/>
		<line class="st1" x1="1502.4" y1="0" x2="230.4" y2="1272"/>
		<line class="st1" x1="1482.3" y1="0" x2="210.3" y2="1272"/>
		<line class="st1" x1="1462.3" y1="0" x2="190.3" y2="1272"/>
		<line class="st1" x1="1442.3" y1="0" x2="170.3" y2="1272"/>
		<line class="st1" x1="1422.2" y1="0" x2="150.2" y2="1272"/>
		<line class="st1" x1="1402.2" y1="0" x2="130.2" y2="1272"/>
		<line class="st1" x1="1382.2" y1="0" x2="110.2" y2="1272"/>
		<line class="st1" x1="1362.1" y1="0" x2="90.1" y2="1272"/>
		<line class="st1" x1="1342.1" y1="0" x2="70.1" y2="1272"/>
		<line class="st1" x1="1322.1" y1="0" x2="50.1" y2="1272"/>
		<line class="st1" x1="1302" y1="0" x2="30" y2="1272"/>
		<line class="st1" x1="1282" y1="0" x2="10" y2="1272"/>
		<line class="st1" x1="1262" y1="0" x2="-10" y2="1272"/>
		<line class="st1" x1="1242" y1="0" x2="-30" y2="1272"/>
		<line class="st1" x1="1221.9" y1="0" x2="-50.1" y2="1272"/>
		<line class="st1" x1="1201.9" y1="0" x2="-70.1" y2="1272"/>
		<line class="st1" x1="1181.9" y1="0" x2="-90.1" y2="1272"/>
		<line class="st1" x1="1161.8" y1="0" x2="-110.2" y2="1272"/>
		<line class="st1" x1="1141.8" y1="0" x2="-130.2" y2="1272"/>
		<line class="st1" x1="1121.8" y1="0" x2="-150.2" y2="1272"/>
		<line class="st1" x1="1101.7" y1="0" x2="-170.3" y2="1272"/>
		<line class="st1" x1="1081.7" y1="0" x2="-190.3" y2="1272"/>
		<line class="st1" x1="1061.7" y1="0" x2="-210.3" y2="1272"/>
		<line class="st1" x1="1041.6" y1="0" x2="-230.4" y2="1272"/>
		<line class="st1" x1="1021.6" y1="0" x2="-250.4" y2="1272"/>
		<line class="st1" x1="1001.6" y1="0" x2="-270.4" y2="1272"/>
		<line class="st1" x1="981.5" y1="0" x2="-290.5" y2="1272"/>
		<line class="st1" x1="961.5" y1="0" x2="-310.5" y2="1272"/>
		<line class="st1" x1="941.5" y1="0" x2="-330.5" y2="1272"/>
		<line class="st1" x1="921.4" y1="0" x2="-350.6" y2="1272"/>
		<line class="st1" x1="901.4" y1="0" x2="-370.6" y2="1272"/>
		<line class="st1" x1="881.4" y1="0" x2="-390.6" y2="1272"/>
		<line class="st1" x1="861.4" y1="0" x2="-410.6" y2="1272"/>
		<line class="st1" x1="841.3" y1="0" x2="-430.7" y2="1272"/>
		<line class="st1" x1="821.3" y1="0" x2="-450.7" y2="1272"/>
		<line class="st1" x1="801.3" y1="0" x2="-470.7" y2="1272"/>
		<line class="st1" x1="781.2" y1="0" x2="-490.8" y2="1272"/>
		<line class="st1" x1="761.2" y1="0" x2="-510.8" y2="1272"/>
		<line class="st1" x1="741.2" y1="0" x2="-530.8" y2="1272"/>
		<line class="st1" x1="721.1" y1="0" x2="-550.9" y2="1272"/>
		<line class="st1" x1="701.1" y1="0" x2="-570.9" y2="1272"/>
		<line class="st1" x1="681.1" y1="0" x2="-590.9" y2="1272"/>
		<line class="st1" x1="661" y1="0" x2="-611" y2="1272"/>
		<line class="st1" x1="641" y1="0" x2="-631" y2="1272"/>
		<line class="st1" x1="621" y1="0" x2="-651" y2="1272"/>
		<line class="st1" x1="600.9" y1="0" x2="-671.1" y2="1272"/>
		<line class="st1" x1="580.9" y1="0" x2="-691.1" y2="1272"/>
		<line class="st1" x1="560.9" y1="0" x2="-711.1" y2="1272"/>
		<line class="st1" x1="540.9" y1="0" x2="-731.1" y2="1272"/>
		<line class="st1" x1="520.8" y1="0" x2="-751.2" y2="1272"/>
		<line class="st1" x1="500.8" y1="0" x2="-771.2" y2="1272"/>
		<line class="st1" x1="480.8" y1="0" x2="-791.2" y2="1272"/>
		<line class="st1" x1="460.7" y1="0" x2="-811.3" y2="1272"/>
		<line class="st1" x1="440.7" y1="0" x2="-831.3" y2="1272"/>
		<line class="st1" x1="420.7" y1="0" x2="-851.3" y2="1272"/>
		<line class="st1" x1="400.6" y1="0" x2="-871.4" y2="1272"/>
		<line class="st1" x1="380.6" y1="0" x2="-891.4" y2="1272"/>
		<line class="st1" x1="360.6" y1="0" x2="-911.4" y2="1272"/>
		<line class="st1" x1="340.5" y1="0" x2="-931.5" y2="1272"/>
		<line class="st1" x1="320.5" y1="0" x2="-951.5" y2="1272"/>
		<line class="st1" x1="300.5" y1="0" x2="-971.5" y2="1272"/>
		<line class="st1" x1="280.4" y1="0" x2="-991.6" y2="1272"/>
		<line class="st1" x1="260.4" y1="0" x2="-1011.6" y2="1272"/>
		<line class="st1" x1="240.4" y1="0" x2="-1031.6" y2="1272"/>
		<line class="st1" x1="220.3" y1="0" x2="-1051.7" y2="1272"/>
		<line class="st1" x1="200.3" y1="0" x2="-1071.7" y2="1272"/>
		<line class="st1" x1="180.3" y1="0" x2="-1091.7" y2="1272"/>
		<line class="st1" x1="160.3" y1="0" x2="-1111.7" y2="1272"/>
		<line class="st1" x1="140.2" y1="0" x2="-1131.8" y2="1272"/>
		<line class="st1" x1="120.2" y1="0" x2="-1151.8" y2="1272"/>
		<line class="st1" x1="100.2" y1="0" x2="-1171.8" y2="1272"/>
		<line class="st1" x1="80.1" y1="0" x2="-1191.9" y2="1272"/>
		<line class="st1" x1="60.1" y1="0" x2="-1211.9" y2="1272"/>
		<line class="st1" x1="40.1" y1="0" x2="-1231.9" y2="1272"/>
		<line class="st1" x1="20" y1="0" x2="-1252" y2="1272"/>
		<line class="st1" x1="0" y1="0" x2="-1272" y2="1272"/>
	</g>
	<g style="clip-path:url(#SVGID_00000052821172430156195000000008295278280685502872_);">
		<path class="st2" d="M636.1,268.8v-5.7c0,1.3-0.1,2.6-0.1,3.9c-0.1-1.3-0.1-2.6-0.1-3.9v5.7C625.9,374.6,338.5,436.9,338,636
			c0.5,199.1,287.9,261.4,297.9,367.2v5.7c0-1.3,0.1-2.6,0.1-3.9c0.1,1.3,0.1,2.6,0.1,3.9v-5.7C646.1,897.4,933.5,835.1,934,636
			C933.5,436.9,646.1,374.6,636.1,268.8z"/>
		<path class="st2" d="M636.1,352.6v-4.4c0,1,0,2-0.1,3c-0.1-1-0.1-2-0.1-3v4.4C628.2,434.2,406.4,482.4,406,636
			c0.4,153.6,222.2,201.8,229.9,283.4v4.4c0-1,0-2,0.1-3c0.1,1,0.1,2,0.1,3v-4.4C643.8,837.8,865.6,789.6,866,636
			C865.6,482.4,643.8,434.2,636.1,352.6z"/>
		<path class="st3" d="M732,636c0,30.5-23.4,55.5-52.1,55.5h-87.8c-28.7,0-52.1-25-52.1-55.5s23.4-55.5,52.1-55.5h87.8
			C708.6,580.5,732,605.5,732,636z"/>
	</g>
	<g style="clip-path:url(#SVGID_00000052821172430156195000000008295278280685502872_);">
		<path class="st2" d="M0.1-367.2v-5.7c0,1.3-0.1,2.6-0.1,3.9c-0.1-1.3-0.1-2.6-0.1-3.9v5.7C-10.1-261.4-297.5-199.1-298,0
			c0.5,199.1,287.9,261.4,297.9,367.2v5.7c0-1.3,0.1-2.6,0.1-3.9c0.1,1.3,0.1,2.6,0.1,3.9v-5.7C10.1,261.4,297.5,199.1,298,0
			C297.5-199.1,10.1-261.4,0.1-367.2z"/>
		<path class="st2" d="M0.1-283.4v-4.4c0,1,0,2-0.1,3c-0.1-1-0.1-2-0.1-3v4.4C-7.8-201.8-229.6-153.6-230,0
			C-229.6,153.6-7.8,201.8-0.1,283.4v4.4c0-1,0-2,0.1-3c0.1,1,0.1,2,0.1,3v-4.4C7.8,201.8,229.6,153.6,230,0
			C229.6-153.6,7.8-201.8,0.1-283.4z"/>
		<path class="st3" d="M96,0c0,30.5-23.4,55.5-52.1,55.5h-87.8C-72.6,55.5-96,30.5-96,0s23.4-55.5,52.1-55.5h87.8
			C72.6-55.5,96-30.5,96,0z"/>
	</g>
	<g style="clip-path:url(#SVGID_00000052821172430156195000000008295278280685502872_);">
		<path class="st2" d="M1272.1-367.2v-5.7c0,1.3-0.1,2.6-0.1,3.9c-0.1-1.3-0.1-2.6-0.1-3.9v5.7C1261.9-261.4,974.5-199.1,974,0
			c0.5,199.1,287.9,261.4,297.9,367.2v5.7c0-1.3,0.1-2.6,0.1-3.9c0.1,1.3,0.1,2.6,0.1,3.9v-5.7c10-105.8,297.4-168.1,297.9-367.2
			C1569.5-199.1,1282.1-261.4,1272.1-367.2z"/>
		<path class="st2" d="M1272.1-283.4v-4.4c0,1,0,2-0.1,3c-0.1-1-0.1-2-0.1-3v4.4C1264.2-201.8,1042.4-153.6,1042,0
			c0.4,153.6,222.2,201.8,229.9,283.4v4.4c0-1,0-2,0.1-3c0.1,1,0.1,2,0.1,3v-4.4c7.7-81.6,229.5-129.8,229.9-283.4
			C1501.6-153.6,1279.8-201.8,1272.1-283.4z"/>
		<path class="st3" d="M1368,0c0,30.5-23.4,55.5-52.1,55.5h-87.8c-28.7,0-52.1-25-52.1-55.5s23.4-55.5,52.1-55.5h87.8
			C1344.6-55.5,1368-30.5,1368,0z"/>
	</g>
	<g style="clip-path:url(#SVGID_00000052821172430156195000000008295278280685502872_);">
		<path class="st2" d="M0.1,904.8v-5.7c0,1.3-0.1,2.6-0.1,3.9c-0.1-1.3-0.1-2.6-0.1-3.9v5.7c-10,105.8-297.4,168.1-297.9,367.2
			c0.5,199.1,287.9,261.4,297.9,367.2v5.7c0-1.3,0.1-2.6,0.1-3.9c0.1,1.3,0.1,2.6,0.1,3.9v-5.7c10-105.8,297.4-168.1,297.9-367.2
			C297.5,1072.9,10.1,1010.6,0.1,904.8z"/>
		<path class="st2" d="M0.1,988.6v-4.4c0,1,0,2-0.1,3c-0.1-1-0.1-2-0.1-3v4.4c-7.7,81.6-229.5,129.8-229.9,283.4
			c0.4,153.6,222.2,201.8,229.9,283.4v4.4c0-1,0-2,0.1-3c0.1,1,0.1,2,0.1,3v-4.4c7.7-81.6,229.5-129.8,229.9-283.4
			C229.6,1118.4,7.8,1070.2,0.1,988.6z"/>
		<path class="st3" d="M96,1272c0,30.5-23.4,55.5-52.1,55.5h-87.8c-28.7,0-52.1-25-52.1-55.5s23.4-55.5,52.1-55.5h87.8
			C72.6,1216.5,96,1241.5,96,1272z"/>
	</g>
	<g style="clip-path:url(#SVGID_00000052821172430156195000000008295278280685502872_);">
		<path class="st2" d="M1272.1,904.8v-5.7c0,1.3-0.1,2.6-0.1,3.9c-0.1-1.3-0.1-2.6-0.1-3.9v5.7c-10,105.8-297.4,168.1-297.9,367.2
			c0.5,199.1,287.9,261.4,297.9,367.2v5.7c0-1.3,0.1-2.6,0.1-3.9c0.1,1.3,0.1,2.6,0.1,3.9v-5.7c10-105.8,297.4-168.1,297.9-367.2
			C1569.5,1072.9,1282.1,1010.6,1272.1,904.8z"/>
		<path class="st2" d="M1272.1,988.6v-4.4c0,1,0,2-0.1,3c-0.1-1-0.1-2-0.1-3v4.4c-7.7,81.6-229.5,129.8-229.9,283.4
			c0.4,153.6,222.2,201.8,229.9,283.4v4.4c0-1,0-2,0.1-3c0.1,1,0.1,2,0.1,3v-4.4c7.7-81.6,229.5-129.8,229.9-283.4
			C1501.6,1118.4,1279.8,1070.2,1272.1,988.6z"/>
		<path class="st3" d="M1368,1272c0,30.5-23.4,55.5-52.1,55.5h-87.8c-28.7,0-52.1-25-52.1-55.5s23.4-55.5,52.1-55.5h87.8
			C1344.6,1216.5,1368,1241.5,1368,1272z"/>
	</g>
</g>
</svg>
