<svg xmlns="http://www.w3.org/2000/svg" width="200" height="200" viewBox="0 0 200 200">
    <path fill="#FFFFFF" d="M80.4,88.1c-2.3,0-4.5,0-6.8,0c-0.8,0-1,0.2-1.1,1c0,1.8-0.1,3.6,0.1,5.3c0.1,1.8,1,2.5,2.8,2.8c0.2,0,0.5,0.1,0.7,0.1
	c0.3,0.1,0.5,0.2,0.4,0.5c0,0.3-0.3,0.4-0.6,0.3c-0.7,0-1.4-0.1-2-0.1c-2.3,0-4.6-0.1-6.9,0.1c-0.1,0-0.3,0-0.4,0
	c-0.2-0.1-0.4-0.2-0.4-0.3c0-0.2,0.1-0.4,0.3-0.5c0.3-0.1,0.6-0.2,0.8-0.2c1.1-0.1,1.7-0.8,1.8-1.9c0.1-1.3,0.2-2.7,0.3-4
	c0-4.7,0-9.3,0-14c0-0.4-0.1-0.8-0.2-1.2c-0.2-1-0.9-1.6-1.8-1.9c-0.4-0.1-0.8-0.2-1.2-0.3c-0.1,0-0.1,0-0.2,0
	c-0.2-0.1-0.4-0.2-0.4-0.5c0-0.3,0.2-0.3,0.5-0.3c0.4,0,0.7,0,1,0.1c2.4,0.3,4.8,0.3,7.2,0c0.2,0,0.5-0.1,0.7,0
	c0.1,0,0.4,0.2,0.4,0.3c0,0.1-0.1,0.3-0.3,0.4c-0.1,0.1-0.2,0.1-0.3,0.1c-0.2,0.1-0.4,0.1-0.7,0.2c-0.9,0.3-1.5,1-1.6,2
	c0,0.3-0.1,0.6-0.1,0.9c0,2.6,0,5.2,0,7.8c0,1.4,0.1,1.4,1.4,1.5c4.3,0,8.5,0,12.8,0c1,0,1.2-0.2,1.2-1.2c0-2.4,0-4.8,0-7.2
	c0-0.5-0.1-1-0.2-1.5c-0.2-1.2-0.9-1.9-2.1-2.2c-0.2-0.1-0.4-0.1-0.6-0.2c-0.2-0.1-0.4-0.2-0.3-0.4c0.1-0.1,0.3-0.3,0.4-0.3
	c0.8,0,1.5,0.1,2.3,0.1c1.9,0.1,3.9,0.1,5.8-0.1c0.1,0,0.3,0,0.4,0c0.1,0.1,0.3,0.2,0.3,0.3c0,0.1-0.1,0.4-0.2,0.4
	c-0.3,0.1-0.6,0.2-0.9,0.3c-0.5,0.1-0.9,0.4-1.2,0.9c-0.3,0.6-0.5,1.2-0.5,1.8c0,6.9,0,13.8,0,20.7c0,0.7,0.2,1.5,0.4,2.2
	c0.1,0.6,0.6,0.9,1.2,1c0.5,0.1,0.9,0,1.2-0.4c0.7-0.7,1.2-1.5,1.6-2.4c3.7-8.3,7.5-16.7,11.2-25c0,0,0,0,0,0
	c0.1-0.2,0.2-0.6,0.6-0.5c0.3,0,0.4,0.3,0.5,0.6c1,2.5,1.9,5,2.9,7.5c2.3,5.8,4.6,11.7,6.9,17.5c0.2,0.5,0.4,0.9,0.7,1.4
	c0.3,0.7,0.9,1.2,1.7,1.4c0.5,0.1,1,0.3,1.5,0.4c0.5,0.1,0.7,0.3,0.6,0.5c-0.1,0.4-0.4,0.3-0.7,0.3c-1.8,0-3.6-0.1-5.3-0.1
	c-1,0-2.1,0.1-3.1,0.2c-0.1,0-0.3,0-0.4,0c-0.2,0-0.4-0.1-0.5-0.3c0-0.3,0.1-0.4,0.3-0.5c0.3-0.1,0.5-0.1,0.8-0.2
	c0.7-0.2,1.1-0.6,1-1.3c0-0.7-0.2-1.3-0.4-2c-0.7-2-1.4-3.9-2.1-5.9c-0.2-0.7-0.7-0.9-1.4-0.9c-2.9,0-5.7,0-8.6,0
	c-0.3,0-0.6,0-0.8,0.1c-0.4,0-0.7,0.2-0.8,0.6c-0.3,0.6-0.6,1.1-0.8,1.7c-0.6,1.4-1.2,2.9-1.8,4.3c-0.2,0.6-0.4,1.2-0.3,1.9
	c0.1,0.6,0.3,1,0.9,1.2c0.5,0.2,1,0.3,1.5,0.5c0.1,0,0.1,0,0.2,0c0.3,0.1,0.5,0.2,0.5,0.5c0,0.3-0.3,0.3-0.6,0.3
	c-2.2,0-4.3-0.1-6.5-0.1c-2.5,0-5.1-0.1-7.6,0.2c-0.2,0-0.5,0-0.5-0.3c-0.1-0.3,0.1-0.4,0.4-0.5c0.1,0,0.2-0.1,0.3-0.1
	c1.1-0.2,1.8-0.9,2-1.9c0.2-0.8,0.2-1.7,0.2-2.5c0-2.6,0-5.2,0-7.8c0-0.9-0.1-1-1.1-1C84.8,88.1,82.6,88.1,80.4,88.1
	C80.4,88.1,80.4,88.1,80.4,88.1z M106,89.1C106,89.2,106,89.2,106,89.1c1.1,0,2.2,0,3.4,0c0.2,0,0.4,0,0.6-0.1
	c0.4-0.1,0.5-0.3,0.4-0.7c-0.2-0.6-0.4-1.2-0.6-1.8c-1-2.5-2-5-3-7.5c-0.1-0.2-0.3-0.4-0.5-0.6c-0.1,0.2-0.3,0.4-0.4,0.6
	c-1.3,3-2.7,5.9-4,8.9c-0.4,0.9-0.2,1.2,0.8,1.2C103.7,89.2,104.9,89.1,106,89.1z M144.2,73.4c-0.7,0-1.3,0-2,0
	c-1.4,0-2.8-0.1-4.2-0.1c-0.3,0-0.5,0-0.6,0.3c-0.1,0.3,0.2,0.4,0.4,0.5c0.4,0.1,0.9,0.2,1.3,0.3c0.8,0.2,1.1,0.6,1,1.5
	c-0.1,1.4-0.5,2.7-1.1,4c-2.3,5.5-4.5,11-6.8,16.5c-0.1,0.3-0.3,0.6-0.5,0.9c-0.1,0.2-0.3,0.2-0.4,0c-0.1-0.2-0.2-0.4-0.3-0.6
	c-1.7-3.9-3.4-7.9-5.2-11.8c-1.1-2.5-2.1-4.9-3.2-7.4c-0.3-0.7-0.5-1.4-0.5-2.1c0-0.4,0.2-0.7,0.5-0.8c0.2-0.1,0.5-0.2,0.7-0.3
	c0.2-0.1,0.5-0.2,0.4-0.5c-0.1-0.3-0.3-0.3-0.6-0.3c-0.4,0-0.9,0.1-1.3,0.1c-1.8,0-3.6,0-5.4,0c-0.4,0-0.9-0.1-1.3-0.1
	c-0.2,0-0.5,0.1-0.5,0.4c0,0.3,0.2,0.4,0.4,0.4c0.4,0.1,0.7,0.2,1.1,0.2c0.8,0.2,1.5,0.6,2,1.3c0.3,0.5,0.6,1.1,0.9,1.7
	c1.1,2.4,2.1,4.9,3.2,7.3c2.5,5.8,5,11.5,7.5,17.3c0.1,0.3,0.3,0.6,0.4,0.8c0.3,0.5,0.7,0.5,1,0c0.1-0.2,0.2-0.4,0.3-0.6
	c3.4-7.8,6.7-15.7,10-23.5c0.5-1.1,0.9-2.1,1.4-3.1c0.4-0.9,1.4-1.4,2.2-1.3c1,0.2,1.7,0.7,2,1.8c0.3,1.1,0.3,2.2,0.3,3.3
	c0,5.8,0,11.5,0,17.3c0,0.7,0,1.5-0.1,2.2c-0.1,1.4-0.6,2-1.9,2.4c-0.2,0.1-0.4,0.1-0.6,0.2c-0.1,0.1-0.3,0.3-0.2,0.4
	c0,0.1,0.2,0.3,0.3,0.3c0.2,0.1,0.4,0,0.6,0c1.4-0.1,2.8-0.3,4.2-0.3c2.8-0.1,5.6,0.1,8.4,0.4c0.9,0.1,1.8,0.1,2.6,0
	c2.6-0.4,4-2.2,4.9-4.5c0.1-0.3,0.1-0.7,0.1-1c0-0.1-0.1-0.3-0.2-0.4c-0.1,0-0.3,0.1-0.5,0.1c-0.1,0-0.1,0.1-0.2,0.2
	c-0.8,1.2-1.9,2-3.3,2.6c-1.5,0.6-3,0.9-4.5,1c-1.7,0.1-3.4,0.2-5,0c-0.9-0.1-1.2-0.5-1.4-1.4c0-0.3-0.1-0.5-0.1-0.8
	c0-2.9,0-5.8,0-8.8c0-0.6,0.2-0.8,0.8-0.9c0.1,0,0.3-0.1,0.5-0.1c1.9,0,3.7,0,5.6,0c1.9,0,2.5,0.6,3,2.5c0,0.2,0.1,0.4,0.1,0.6
	c0.1,0.3,0.3,0.4,0.6,0.3c0.3,0,0.3-0.2,0.3-0.5c0-0.1,0-0.2,0-0.4c-0.2-1.9-0.2-3.9,0-5.8c0-0.4,0.1-0.8,0.1-1.2
	c0-0.3-0.1-0.5-0.4-0.5c-0.3,0-0.4,0.1-0.5,0.4c0,0.1-0.1,0.3-0.1,0.4c-0.3,1.5-0.6,1.8-2.1,2.1c-2.2,0.4-4.4,0.3-6.7,0.2
	c-1,0-1.1-0.1-1.1-1.2c0-2.9,0-5.8,0-8.6c0-0.2,0-0.4,0-0.6c0.1-0.7,0.3-1,1.1-1c1.5-0.1,3.1-0.1,4.6-0.1c1.2,0,2.3,0.1,3.5,0.2
	c1.4,0.2,2.1,0.8,2.3,2c0.1,0.4,0,0.7,0,1.1c0,0.3,0,0.6,0.4,0.6c0.3,0,0.5-0.2,0.6-0.6c0-0.1,0-0.1,0-0.2c0.1-1.4,0.3-2.9,0.4-4.3
	c0-0.5-0.1-0.7-0.7-0.7c-1.2,0-2.5,0.1-3.7,0.2c-2.8,0.2-5.6,0.2-8.4,0.1C148.6,73.5,146.4,73.4,144.2,73.4
	C144.2,73.4,144.2,73.4,144.2,73.4z M13.8,102.2c-1.2-0.1-2.5-0.2-3.7-0.2c-0.9,0-1.8,0.1-2.7,0.2c-0.3,0-0.6,0-0.8,0
	c-0.3,0-0.4-0.1-0.5-0.4c0-0.3,0.2-0.4,0.4-0.4c0.2,0,0.3-0.1,0.5-0.1c1-0.2,1.7-0.8,1.8-1.9c0.2-1.2,0.3-2.4,0.3-3.6
	c0-5.4,0-10.9,0-16.3c0-1-0.1-2.1-0.4-3.1c-0.5-1.5-1.4-2.2-3-2.3c-0.2,0-0.4,0-0.5-0.1C5.2,74.1,5,74,5,73.8c0-0.1,0.2-0.3,0.3-0.4
	c0.2-0.1,0.4-0.1,0.6-0.1c2.7,0.2,5.4,0,8.1-0.1c2.4-0.1,4.7,0,6.9,0.9c1.4,0.6,2.6,1.4,3.5,2.7c1.3,2.1,1.4,6.1-1.7,8.2
	c-0.4,0.3-0.8,0.5-1.1,0.8c-0.1,0.1-0.1,0.2-0.2,0.3c0.1,0.1,0.2,0.2,0.3,0.2c0.3,0.1,0.5,0.2,0.8,0.2c2.8,0.7,4.5,2.6,5.1,5.4
	c0.9,4.3-1.5,8.2-5.7,9.7c-1.6,0.6-3.3,0.7-5.1,0.6C15.7,102.3,14.8,102.3,13.8,102.2C13.8,102.2,13.8,102.2,13.8,102.2z M12.4,93.4
	C12.3,93.4,12.3,93.4,12.4,93.4c0,1.7,0,3.5,0,5.2c0,1.2,0.5,1.9,1.7,2.3c0.1,0,0.1,0,0.2,0c1.9,0.4,3.8,0.5,5.7,0.1
	c2.3-0.5,3.9-1.9,4.5-4.2c0.3-1,0.3-2.1,0.2-3.2c-0.3-2.9-2.5-5.4-5.4-6c-0.4-0.1-0.7-0.1-1.1-0.1c-1.7,0-3.3,0-5,0
	c-0.6,0-0.7,0.2-0.7,0.8C12.4,90,12.4,91.7,12.4,93.4z M12.4,80.6c0,1.5,0,2.9,0,4.4c0,0.7,0.2,0.9,0.8,0.9c1.5,0,3,0,4.5,0
	c0.5,0,0.9-0.1,1.4-0.2c1.6-0.3,2.8-1.3,3.2-2.9c0.5-2.1,0.1-4-1.3-5.7c-1.8-2.1-4.1-2.8-6.7-2.7c-1.4,0.1-1.8,0.5-1.8,1.9
	C12.4,77.8,12.4,79.2,12.4,80.6z M172.4,90.2c0-2.7,0-5.4,0-8.1c0-0.2,0-0.4,0-0.5c0-0.1,0.2-0.3,0.3-0.4c0.1,0,0.3,0.1,0.4,0.2
	c0.4,0.4,0.7,0.8,1,1.2c5.6,6.5,11.3,12.9,16.9,19.4c0.2,0.3,0.5,0.4,0.9,0.3c0.3-0.1,0.4-0.4,0.4-0.7c0-0.6,0.1-1.2,0.1-1.8
	c0-7.3,0-14.6,0-21.8c0-0.7,0.1-1.4,0.2-2.1c0.1-0.7,0.5-1.2,1.2-1.5c0.3-0.1,0.5-0.2,0.8-0.3c0.1-0.1,0.3-0.3,0.3-0.4
	c0-0.1-0.2-0.3-0.3-0.4c-0.2-0.1-0.4,0-0.7,0c-1.9,0.3-3.8,0.2-5.7,0.1c-0.6,0-1.2-0.1-1.8-0.1c-0.2,0-0.5,0.1-0.4,0.3
	c0,0.2,0.2,0.4,0.3,0.5c0.1,0.1,0.3,0.1,0.5,0.1c0.6,0.2,1.2,0.3,1.8,0.5c0.9,0.3,1.4,0.9,1.7,1.8c0.1,0.3,0.2,0.7,0.2,1.1
	c0.1,1.6,0.3,3.2,0.3,4.7c0,4.4,0,8.8,0,13.2c0,0.1,0,0.1,0,0.2c-0.1,0.1-0.1,0.2-0.2,0.3c-0.1,0-0.2-0.1-0.3-0.1
	c-0.1-0.1-0.2-0.2-0.3-0.3c-3.1-3.5-6.2-7.1-9.3-10.6c-3.3-3.7-6.5-7.4-9.8-11.1c-0.4-0.4-0.8-0.6-1.3-0.6c-0.3,0-0.7,0-1,0
	c-0.8,0-1.6-0.1-2.4-0.1c-0.2,0-0.4,0.1-0.4,0.2c-0.1,0.1,0,0.3,0.1,0.5c0.1,0.1,0.2,0.1,0.3,0.1c1.8,0.3,2.9,1.3,3.6,2.9
	c0.7,1.6,0.9,3.3,0.9,5c0,4.6,0,9.1,0,13.7c0,0.6,0,1.2-0.1,1.8c-0.1,1.7-0.9,2.9-2.5,3.4c-0.2,0.1-0.3,0.1-0.5,0.2
	c-0.1,0-0.3,0.1-0.3,0.2c-0.1,0.1-0.2,0.2-0.2,0.4c0,0.1,0.2,0.3,0.3,0.3c0.2,0.1,0.4,0.1,0.6,0c1.8-0.3,3.7-0.2,5.5-0.1
	c0.7,0,1.3,0.1,2,0.1c0.2,0,0.5,0,0.5-0.3c0-0.3-0.1-0.5-0.4-0.6c-0.1,0-0.3-0.1-0.4-0.1c-0.5-0.1-1-0.2-1.5-0.4
	c-0.5-0.2-0.8-0.5-1-1c-0.1-0.5-0.3-1.1-0.3-1.6C172.4,95.5,172.5,92.9,172.4,90.2C172.4,90.2,172.4,90.2,172.4,90.2z M34.4,76.9
	c0-1.4,0.4-1.7,1.7-1.7c1.6,0,3.3,0,4.9,0c1,0,2,0.1,3,0.3c1.2,0.2,1.8,0.9,2,2.2c0,0.4,0,0.7,0,1.1c0,0.2,0.1,0.4,0.3,0.4
	c0.2,0,0.4-0.1,0.5-0.3c0-0.1,0.1-0.2,0.1-0.3c0.2-1.5,0.3-3,0.4-4.5c0-0.5-0.2-0.7-0.6-0.7c-0.4,0-0.8,0.1-1.2,0.1
	c-2.3,0.1-4.6,0.3-6.9,0.3c-2.5,0-5-0.1-7.5-0.2c-0.9,0-1.7-0.2-2.6-0.2c-0.3,0-0.6,0-0.8,0.1c-0.1,0.1-0.3,0.3-0.3,0.5
	c0,0.1,0.2,0.3,0.4,0.3c0.3,0.1,0.5,0,0.8,0.1c1.3,0.1,2.1,0.7,2.3,2c0.2,0.9,0.3,1.7,0.3,2.6c0,6.2,0,12.3,0,18.5
	c0,0.5,0,1.1-0.1,1.6c-0.1,1.1-0.5,1.9-1.8,2.2c-0.2,0-0.4,0.1-0.6,0.2c-0.2,0.1-0.4,0.2-0.4,0.5c0,0.3,0.3,0.3,0.5,0.4
	c0.2,0,0.3,0,0.5,0c1.8-0.3,3.6-0.4,5.5-0.4c2.7,0.1,5.4,0.3,8.1,0.4c1,0.1,2.1,0,3-0.5c1.6-0.7,2.6-2,3.3-3.6
	c0.2-0.4,0.3-1,0.3-1.5c0-0.1-0.1-0.4-0.2-0.4c-0.2,0-0.4,0.1-0.5,0.2c-0.2,0.2-0.3,0.4-0.4,0.6c-1.1,1.3-2.5,2-4.1,2.5
	c-2.3,0.7-4.6,0.8-6.9,0.7c-0.6,0-1.2-0.1-1.8-0.2c-0.6-0.1-1-0.5-1.1-1.1c-0.1-0.5-0.1-1-0.1-1.4c0-2.6,0-5.2,0-7.9
	c0-1.1,0.2-1.4,1.4-1.4c1.7,0,3.4,0,5.2,0c0.4,0,0.9,0.1,1.3,0.1c0.9,0.1,1.5,0.7,1.7,1.5c0.1,0.4,0.2,0.8,0.3,1.3
	c0,0.2,0.2,0.4,0.3,0.4c0.4,0.2,0.7-0.1,0.6-0.6c-0.1-1.2-0.2-2.5-0.1-3.7c0-1.1,0.1-2.2,0.2-3.4c0-0.3,0-0.6-0.4-0.6
	c-0.3,0-0.5,0.2-0.5,0.5c-0.1,0.4-0.2,0.7-0.3,1.1c-0.1,0.5-0.5,0.9-1,1c-0.6,0.1-1.2,0.3-1.8,0.3c-1.8,0.1-3.6,0.1-5.3,0.1
	c-0.3,0-0.6,0-0.9,0c-0.5,0-0.6-0.2-0.6-0.6c0-0.3-0.1-0.5-0.1-0.8c0-1.3,0-2.7,0-4C34.4,79.7,34.4,78.3,34.4,76.9z M67.5,102.4
	c-3.1-0.4-6-1.2-8.9-2.3c-0.6-0.2-1-0.7-1.1-1.3c-0.1-0.7-0.2-1.5-0.2-2.3c0-6.1,0-12.2,0-18.3c0-0.8,0.1-1.6,0.4-2.3
	c0.3-0.7,0.8-1.1,1.6-1.3c0.2,0,0.5-0.1,0.7-0.2c0.4-0.1,0.6-0.4,0.5-0.6c-0.1-0.3-0.4-0.3-0.7-0.2c-2.6,0.2-5.2,0.2-7.8,0
	c-0.3,0-0.7,0-1.1,0c-0.2,0-0.5,0.1-0.5,0.4c0,0.3,0.2,0.4,0.4,0.5c0.4,0.1,0.7,0.1,1.1,0.2c1,0.2,1.7,0.9,2,1.9
	c0.1,0.4,0.1,0.8,0.1,1.2c0,6.4,0,12.7,0,19.1c0,0.8-0.1,1.5-0.1,2.3c-0.1,1.1-0.7,1.8-1.7,2.2c-0.2,0.1-0.4,0.2-0.7,0.2
	c-0.1,0.1-0.3,0.1-0.4,0.2c-0.2,0.2-0.1,0.5,0.2,0.6c0.1,0,0.2,0,0.3,0c1.2-0.1,2.4-0.2,3.5-0.3c2.6-0.2,5.1,0.1,7.5,0.9
	c2.3,0.7,4.5,1.5,6.9,1.7c1.8,0.2,3.6,0.4,5.4,0.1c2.7-0.4,4.2-2.2,5.1-4.6c0.1-0.3,0.1-0.6,0.1-1c0-0.3-0.3-0.4-0.6-0.2
	c-0.1,0.1-0.2,0.2-0.2,0.3c-0.9,1.5-2.3,2.3-4,2.7c-1.8,0.5-3.6,0.6-5.5,0.6C69.2,102.5,68.3,102.5,67.5,102.4z M116.2,119.1
	c0.8,1.1,1.6,2.3,2.4,3.5c0.6,0.9,1.3,1.8,2,2.7c0.5,0.6,1.1,1,2,1c0.1,0,0.2,0.1,0.3,0.1c-0.1,0.1-0.2,0.2-0.3,0.3
	c-1.1,0.4-2.6,0.4-3.7-0.8c-0.6-0.7-1.2-1.5-1.7-2.2c-0.8-1.2-1.6-2.4-2.4-3.6c-0.2-0.3-0.5-0.5-0.9-0.5c-0.5,0-0.9,0-1.4,0
	c-0.3,0-0.5,0.1-0.5,0.4c0,1.6,0,3.2,0.1,4.8c0,0.8,0.4,1.2,1.1,1.4c0.3,0.1,0.6,0.1,0.9,0.2c0.1,0,0.3,0.2,0.4,0.3
	c-0.1,0.1-0.3,0.2-0.4,0.2c-0.9,0-1.7-0.1-2.6-0.1c-0.8,0-1.7,0.1-2.5,0.1c-0.1,0-0.3-0.1-0.4-0.2c0.1-0.1,0.2-0.3,0.4-0.3
	c0.8-0.2,1.2-0.6,1.3-1.4c0.1-0.7,0.1-1.4,0.1-2.1c0-2.9,0-5.8,0-8.6c0-0.4,0-0.9-0.1-1.3c-0.2-0.8-0.5-1.1-1.3-1.2
	c-0.2,0-0.3,0-0.4-0.1c-0.1,0-0.2-0.2-0.3-0.2c0.1-0.1,0.2-0.2,0.3-0.2c0,0,0.1,0,0.1,0c1.5,0.2,3.1,0,4.6,0c1,0,2,0,3,0.3
	c3.4,0.9,3.3,4.8,1.6,6.3C117.3,118.3,116.8,118.7,116.2,119.1z M112,115.5C112,115.5,112,115.5,112,115.5c0,0.8,0,1.7,0,2.5
	c0,0.6,0.1,0.7,0.7,0.7c0.6,0,1.2,0,1.8,0c1.1-0.1,2.1-0.6,2.5-1.7c0.5-1.4,0.3-2.7-0.7-3.8c-0.9-0.9-2-1.3-3.3-1.2
	c-0.8,0-1,0.3-1,1.1C112,113.9,112,114.7,112,115.5z M40.9,123.3c-0.6-0.7-1.3-1.4-1.9-2.1c-2.8-3.2-5.6-6.4-8.5-9.6
	c-0.1-0.2-0.3-0.3-0.5-0.3c-0.7,0-1.4,0-2.1,0c-0.1,0-0.2,0.1-0.2,0.2c0,0.1,0,0.2,0.1,0.2c0.1,0.1,0.2,0.1,0.3,0.1
	c0.8,0.1,1.4,0.6,1.7,1.3c0.4,0.7,0.6,1.5,0.6,2.2c0,2.9,0,5.9,0,8.8c0,1.1-0.5,2-1.6,2.3c0,0-0.1,0-0.1,0c-0.1,0.1-0.2,0.2-0.2,0.3
	c0.1,0.1,0.2,0.2,0.3,0.2c0.3,0,0.6-0.1,0.8-0.1c1.1,0,2.1,0.1,3.2,0.1c0.1,0,0.4-0.1,0.4-0.2c0.1-0.2-0.1-0.3-0.3-0.3
	c-0.2,0-0.4-0.1-0.6-0.1c-0.7-0.2-1-0.5-1-1.2c0-0.3,0-0.6,0-0.9c0-2.6,0-5.3,0-7.9c0-0.2,0-0.3,0-0.5c0.1-0.3,0.2-0.3,0.4-0.1
	c0.1,0.1,0.1,0.1,0.2,0.2c2.4,2.7,4.8,5.5,7.2,8.2c0.8,0.9,1.6,1.8,2.4,2.7c0.1,0.1,0.3,0.2,0.5,0.2c0.1,0,0.2-0.2,0.2-0.4
	c0-0.1,0-0.3,0-0.4c0-3.5,0-6.9,0-10.4c0-0.9,0-1.9,0.1-2.8c0-0.6,0.3-1,0.9-1.2c0.2,0,0.4-0.2,0.4-0.3c0-0.3-0.3-0.2-0.5-0.2
	c0,0-0.1,0-0.1,0c-0.8,0-1.7,0.1-2.5,0.1c-0.4,0-0.9-0.1-1.3-0.1c-0.1,0-0.3,0.1-0.4,0.2c0.1,0.1,0.2,0.2,0.4,0.3
	c0.2,0.1,0.4,0.1,0.6,0.2c0.8,0.2,1.4,0.7,1.5,1.6c0.1,0.9,0.2,1.9,0.2,2.8c0,2.3,0,4.6,0,6.9c0,0.1,0,0.3-0.1,0.5
	C41.1,123.5,41,123.4,40.9,123.3z M92.1,113c0-0.8,0.2-0.9,0.9-0.9c0.9,0,1.8,0,2.7,0c0.5,0,1.1,0.1,1.6,0.2c0.6,0.1,1,0.5,1,1.2
	c0,0.2,0,0.4,0,0.6c0,0.1,0.1,0.2,0.2,0.2c0.1,0,0.2-0.1,0.3-0.1c0-0.1,0.1-0.2,0.1-0.2c0.1-0.8,0.2-1.6,0.2-2.3
	c0-0.3-0.1-0.4-0.4-0.4c-0.1,0-0.2,0-0.3,0c-2.3,0.2-4.6,0.3-6.9,0.1c-0.9,0-1.8-0.1-2.7-0.2c-0.2,0-0.5,0-0.5,0.3
	c0,0.3,0.3,0.2,0.5,0.2c0.1,0,0.1,0,0.2,0c0.7,0.1,1.1,0.4,1.2,1c0.1,0.5,0.2,1,0.2,1.6c0,3.3,0,6.6,0,9.8c0,0.3,0,0.7,0,1
	c-0.1,0.6-0.3,1-1,1.2c-0.1,0-0.2,0-0.3,0.1c-0.1,0.1-0.1,0.2-0.2,0.3c0.1,0.1,0.2,0.2,0.3,0.2c0.3,0,0.6-0.1,0.8-0.1
	c1.9-0.2,3.7-0.1,5.6,0c0.7,0.1,1.4,0.1,2.1,0c1.2-0.1,2.6-1.6,2.7-2.7c0-0.1-0.1-0.3-0.1-0.4c-0.1,0.1-0.3,0.1-0.4,0.2
	c-0.4,0.5-0.9,0.9-1.4,1.2c-0.7,0.4-1.5,0.6-2.4,0.6c-1,0.1-2,0.1-3,0c-0.6,0-0.8-0.2-0.9-0.8c0-0.1,0-0.2,0-0.3c0-1.6,0-3.2,0-4.7
	c0-0.3,0.1-0.4,0.4-0.5c0.2,0,0.3,0,0.5,0c0.9,0,1.7,0,2.6,0c1.2,0,1.7,0.3,1.9,1.5c0,0.2,0.1,0.4,0.3,0.3c0.1,0,0.2-0.3,0.2-0.4
	c0-1.2,0-2.3,0-3.5c0-0.2,0.2-0.5-0.2-0.6c-0.3,0-0.3,0.3-0.3,0.5c-0.1,0.6-0.4,1-1,1c-1.2,0.1-2.5,0.1-3.7,0.1
	c-0.5,0-0.6-0.1-0.6-0.6c0-0.8,0-1.6,0-2.4C92.1,114.5,92.1,113.8,92.1,113z M7.1,122.1c0.2,2.1,1.3,3.6,3.3,4.4
	c2,0.8,4.1,0.8,6.1,0c1.7-0.7,2.8-1.9,3.2-3.7c0.2-0.8,0.3-1.6,0.3-2.4c0-2.2,0-4.4,0-6.5c0-0.9,0.1-1.8,1.1-2.1
	c0.1,0,0.1-0.2,0.2-0.3c-0.1,0-0.2-0.1-0.3-0.1c-0.9,0-1.8,0-2.7,0c-0.3,0-0.6-0.1-0.9-0.1c-0.1,0-0.2,0.1-0.3,0.2
	c0.1,0.1,0.1,0.2,0.2,0.3c0.1,0.1,0.2,0.1,0.4,0.1c0.7,0.1,1.2,0.5,1.4,1.2c0.1,0.4,0.2,0.9,0.2,1.3c0,2,0,4.1,0,6.1
	c0,0.7-0.1,1.4-0.2,2.1c-0.4,1.9-1.5,3.1-3.3,3.6c-1.2,0.3-2.4,0.3-3.6,0c-1.1-0.3-2-0.8-2.6-1.8c-0.5-0.8-0.7-1.6-0.7-2.5
	c-0.1-2.8-0.1-5.6-0.1-8.4c0-0.8,0.2-1.3,1.1-1.5c0.1,0,0.2-0.2,0.3-0.3c-0.1,0-0.2-0.1-0.4-0.1c-1.4,0-2.8,0-4.2,0
	c-0.2,0-0.5-0.1-0.6,0.3c0,0.3,0.3,0.2,0.5,0.3c0.7,0.1,1.2,0.4,1.4,1.2c0,0.2,0.1,0.5,0.1,0.7c0,1.3,0,2.6,0,3.8
	C7,119.1,7,120.6,7.1,122.1z M74,123.9c-1.5-3.4-2.9-6.7-4.4-10.1c-0.2-0.4-0.3-0.9-0.4-1.4c-0.1-0.3,0.1-0.5,0.4-0.6
	c0.1,0,0.2-0.1,0.3-0.1c0.1-0.1,0.2-0.2,0.2-0.3c-0.1-0.1-0.2-0.1-0.3-0.2c-0.1,0-0.1,0-0.2,0c-1.2,0-2.5,0-3.7,0
	c-0.1,0-0.3,0-0.4,0c-0.1,0-0.2,0.1-0.3,0.2c0.1,0.1,0.1,0.2,0.2,0.2c0.2,0.1,0.3,0.1,0.5,0.1c0.5,0.1,0.9,0.3,1.2,0.8
	c0.2,0.4,0.4,0.8,0.6,1.2c1.9,4.3,3.7,8.6,5.5,12.8c0.1,0.1,0.1,0.3,0.2,0.4c0.2,0.3,0.4,0.3,0.6,0c0.1-0.2,0.2-0.3,0.2-0.5
	c1.9-4.5,3.9-9.1,5.8-13.6c0.2-0.6,0.6-1.1,1.2-1.3c0.1-0.1,0.2-0.2,0.3-0.3c-0.1-0.1-0.3-0.1-0.4-0.1c-0.8,0-1.7,0-2.5,0
	c-0.3,0-0.6,0-0.9,0c-0.1,0-0.2,0.1-0.3,0.2c0.1,0.1,0.1,0.2,0.2,0.2c0.2,0.1,0.4,0.1,0.6,0.2c0.5,0.1,0.7,0.3,0.6,0.9
	c-0.1,0.6-0.2,1.2-0.5,1.8c-1.2,3.1-2.5,6.2-3.8,9.2c-0.1,0.2-0.2,0.4-0.4,0.7C74.2,124.2,74.1,124.1,74,123.9z M137.4,125.4
	c1.4-1.5,1.7-4.4-0.1-6c-0.7-0.7-1.6-1.1-2.5-1.5c-1-0.4-2-0.7-3-1.1c-1.1-0.5-1.8-1.7-1.6-2.9c0.1-1.1,1-1.9,2.2-2.1
	c1.5-0.2,2.8,0.2,3.9,1.2c0.6,0.5,0.9,1.1,1.2,1.8c0,0.1,0.2,0.2,0.3,0.3c0.1-0.1,0.2-0.3,0.2-0.4c-0.1-1-0.3-2-0.4-3
	c0-0.3-0.2-0.3-0.4-0.2c-0.3,0.3-0.5,0.2-0.8,0.1c-0.7-0.4-1.5-0.6-2.3-0.6c-1.4,0-2.8,0.2-3.9,1.2c-1.6,1.4-1.7,4.1-0.2,5.6
	c0.8,0.8,1.8,1.2,2.8,1.6c1.1,0.4,2.1,0.8,3.2,1.2c0.7,0.3,1.1,0.9,1.3,1.7c0.4,1.3-0.3,2.6-1.6,3.3c-2.3,1.3-5.6-0.1-6.5-2.7
	c-0.1-0.2-0.1-0.4-0.2-0.6c0-0.1-0.2-0.1-0.2-0.1c-0.1,0-0.2,0.1-0.2,0.2c0,0.2,0,0.5,0.1,0.7c0.2,0.8,0.4,1.5,0.6,2.2
	c0.1,0.5,0.3,0.7,0.7,0.9c1,0.4,2,0.6,3,0.6C134.7,127.1,136.2,126.6,137.4,125.4z M168.1,111.4c-2,0-3.9,0-5.9,0
	c-0.1,0-0.3,0-0.4,0c-0.3,0-0.5,0.2-0.5,0.5c0,0.2,0,0.4,0,0.6c-0.1,0.6-0.2,1.1-0.3,1.7c0,0.2-0.2,0.5,0.2,0.6
	c0.3,0,0.3-0.3,0.4-0.5c0.1-0.2,0.1-0.4,0.2-0.6c0.2-0.7,0.7-1,1.4-1.1c0.7,0,1.4,0,2,0c0.5,0,1,0,1.5,0c0.3,0,0.4,0.2,0.4,0.4
	c0,0.3,0,0.5,0,0.8c0,3.5,0,7.1,0,10.6c0,0.2,0,0.4,0,0.6c-0.1,0.9-0.4,1.2-1.3,1.4c-0.2,0-0.5,0-0.5,0.3c0,0.3,0.4,0.2,0.6,0.2
	c1.5-0.1,2.9-0.1,4.4,0c0.1,0,0.2,0,0.2,0c0.1,0,0.2-0.1,0.3-0.2c-0.1-0.1-0.1-0.2-0.2-0.3c0,0-0.1,0-0.2,0c-1-0.2-1.4-0.7-1.4-1.7
	c0-3.8,0-7.7,0-11.5c0-0.5,0.1-0.7,0.6-0.7c1.2,0,2.3,0,3.5,0c1.1,0,1.2,0.2,1.5,1.3c0,0.1,0.2,0.2,0.3,0.3c0.1-0.1,0.2-0.3,0.2-0.4
	c0-0.6-0.1-1.2-0.1-1.8c0-0.5-0.1-0.6-0.6-0.6C172.3,111.4,170.2,111.4,168.1,111.4C168.1,111.4,168.1,111.4,168.1,111.4z
	 M190.3,126.8c0.1-0.1,0.2-0.1,0.4-0.2c-0.1-0.1-0.2-0.2-0.3-0.3c-0.2-0.1-0.4-0.1-0.6-0.1c-0.6-0.1-0.7-0.3-0.8-0.8
	c0-0.3-0.1-0.5-0.1-0.8c0-1.6,0-3.1,0-4.7c0-0.5,0.1-0.9,0.4-1.3c1.2-1.8,2.5-3.6,3.7-5.4c0.4-0.7,1-1.1,1.7-1.4
	c0.1,0,0.2-0.2,0.3-0.3c-0.1,0-0.3-0.1-0.4-0.1c-1.3,0-2.7,0-4,0c-0.1,0-0.3,0.1-0.4,0.2c0.1,0.1,0.2,0.2,0.3,0.3
	c0.3,0.1,0.7,0.2,1,0.4c0.4,0.2,0.5,0.6,0.3,1c-0.1,0.3-0.3,0.6-0.4,0.8c-0.8,1.3-1.7,2.6-2.5,3.9c-0.2,0.4-0.3,0.3-0.6,0
	c-0.8-1.3-1.7-2.6-2.5-3.9c-0.3-0.4-0.5-0.9-0.7-1.3c-0.2-0.3,0-0.6,0.3-0.8c0.1-0.1,0.3-0.1,0.4-0.2c0.1-0.1,0.2-0.2,0.3-0.3
	c-0.1-0.1-0.3-0.2-0.4-0.2c-0.5,0-1.1,0.1-1.6,0.1c-1,0-2-0.1-2.9-0.1c-0.2,0-0.5-0.1-0.5,0.2c0,0.3,0.3,0.2,0.4,0.2
	c0.8,0.1,1.5,0.5,2,1.2c1.2,1.9,2.4,3.9,3.6,5.8c0.4,0.6,0.5,1.2,0.5,1.9c0,1.1,0,2.2,0,3.2c0,0.5,0,1-0.1,1.4c-0.1,0.7-0.3,1-1,1.2
	c-0.2,0-0.4,0-0.5,0.1c-0.1,0-0.2,0.2-0.3,0.3c0.1,0.1,0.2,0.2,0.3,0.2c1.5-0.2,3-0.1,4.5,0.1C190.2,126.8,190.2,126.8,190.3,126.8z
	 M54.3,119.1c0,1.6,0,3.2,0,4.8c0,0.5-0.1,1-0.1,1.5c-0.1,0.5-0.3,0.8-0.8,0.9c-0.2,0.1-0.4,0.1-0.6,0.2c-0.1,0-0.1,0.2-0.2,0.3
	c0.1,0.1,0.2,0.2,0.3,0.2c0.1,0,0.3,0,0.4,0c1.5,0,3,0,4.6,0c0.1,0,0.3,0,0.4,0c0.1,0,0.2-0.1,0.2-0.2c0-0.1-0.1-0.2-0.2-0.2
	c-0.2-0.1-0.3-0.1-0.5-0.1c-1-0.2-1.5-0.6-1.6-1.5c-0.1-0.4-0.1-0.9-0.1-1.3c0-3,0-6,0-9c0-0.6,0.1-1.2,0.2-1.7
	c0.1-0.4,0.4-0.7,0.8-0.9c0.2,0,0.3-0.1,0.5-0.2c0.1-0.1,0.1-0.2,0.2-0.3c-0.1-0.1-0.2-0.1-0.3-0.2c0,0-0.1,0-0.2,0
	c-1.5,0-3,0-4.6,0c-0.1,0-0.1,0-0.2,0c-0.1,0.1-0.2,0.1-0.3,0.2c0.1,0.1,0.1,0.2,0.2,0.3c0.2,0.1,0.4,0.1,0.5,0.1
	c0.7,0.2,1.1,0.6,1.2,1.3c0,0.2,0.1,0.5,0.1,0.7C54.3,115.6,54.3,117.4,54.3,119.1C54.3,119.1,54.3,119.1,54.3,119.1z M148.4,119.5
	c0,1.8,0,3.6-0.1,5.3c0,1-0.3,1.3-1.2,1.5c-0.2,0-0.5,0-0.4,0.3c0,0.1,0.3,0.1,0.5,0.2c0,0,0,0,0.1,0c1.6-0.1,3.1-0.1,4.7,0
	c0.1,0,0.2,0,0.3,0c0.1,0,0.2-0.1,0.2-0.2c0-0.1-0.1-0.2-0.1-0.2c-0.1-0.1-0.3-0.1-0.5-0.1c-1-0.2-1.5-0.6-1.6-1.7
	c0-0.4-0.1-0.8-0.1-1.2c0-3,0-6.1,0-9.1c0-0.5,0.1-1.1,0.2-1.6c0.1-0.5,0.4-0.8,0.9-1c0.2,0,0.3-0.1,0.4-0.2
	c0.1-0.1,0.1-0.2,0.2-0.3c0,0-0.1-0.1-0.2-0.1c-0.1,0-0.1,0-0.2,0c-1.5,0-3,0-4.6,0c-0.1,0-0.1,0-0.2,0c-0.1,0-0.2,0.1-0.2,0.2
	c0,0.1,0.1,0.2,0.1,0.3c0.2,0.1,0.4,0.1,0.6,0.2c0.7,0.2,1.1,0.5,1.2,1.3c0,0.4,0.1,0.8,0.1,1.3c0,1.6,0,3.2,0,4.8
	C148.4,119.3,148.4,119.4,148.4,119.5z"/>
</svg>