<svg xmlns="http://www.w3.org/2000/svg" width="200" height="200" viewBox="0 0 200 200">
<g>
	<path fill="none" d="M63.6,99.5c0.1-3.2-0.6-12.3-0.8-15.1c0-6.3-2.3-11.8-6.8-16.3c-5.2-5.2-13.2-8.2-21.7-8.2s-16.5,3-21.7,8.2
		c-4.5,4.5-6.8,10-6.8,16.2l0,0C5.6,86.7,5,94.6,5,99.3c0,4.7,0.6,12.7,0.8,15c0,6.3,2.3,11.9,6.9,16.5c5.3,5.3,13.1,8.3,21.6,8.3
		c7.4,0,14.3-2.3,19.5-6.4c5.9-4.7,9.1-11.1,9.1-18.3c0,0,0,0,0,0c0,0,0,0,0,0C62.9,113.7,63.5,107.6,63.6,99.5z M55.2,99.2
		c-0.2,8.3-0.7,14.7-0.7,14.7c0,10.1-9,16.6-20.1,16.6c-11.1,0-20.1-6.5-20.1-16.6c0,0-0.8-9.8-0.8-14.7c0-4.9,0.8-14.6,0.8-14.6
		c0-10.1,9-16.3,20.1-16.3c11.1,0,20.1,6.3,20.1,16.3C54.5,84.6,55.3,96.1,55.2,99.2z"/>
	<path fill="#FFFFFF" d="M48.4,102h-0.2v-0.8c0-0.1-0.1-0.1-0.1-0.1c-0.1,0-0.1,0.1-0.1,0.1v0.8h-1.1c0,0,0,0,0,0v-0.2h0.3
		c0.1,0,0.2-0.1,0.2-0.2c0-0.1-0.1-0.2-0.2-0.2h-0.3v-0.9h-0.2v0.9h-2.3v-1h-0.5v1h-0.2c-0.1,0-0.2,0.1-0.2,0.2
		c0,0.1,0.1,0.2,0.2,0.2h0.2v18.6H42v-5.7h-0.2v0.3h-0.1v5.4H29.9v-5.6h-0.2v5.6H27v-18.6c0.1,0,0.2,0,0.2,0c0.2,0,0.2-0.4,0-0.4
		c0,0-0.1,0-0.2,0v-1.3h-0.2v1.3c-0.7,0-2.1,0-2.1,0v-1.3c0,0,1.6,0,2.3,0l-0.1-0.3l-2.6,0v-0.2l2.5,0l0-0.2l-3,0l-0.1-0.8L23.3,99
		l-1.4,0.6L21.7,99l-0.4,0.5c0-0.9-0.4-2.3-0.8-2.6c-0.4-0.3-0.6,0.8-0.8,1.8c-0.2,1-0.5,5.2-0.5,5.2l-0.4,0.6l0.4,0.4l0.4,0
		l0.2,0.2l0.6,0.2v15.4h0.8h1.5h0.8h1.1h23.4h0.1v-0.1v-18.2h0.2c0.1,0,0.2-0.1,0.2-0.2C48.5,102.1,48.5,102,48.4,102z M22.2,109.3
		C22.2,109.3,22.2,109.3,22.2,109.3c0,0-0.2,0-0.2,0c0,0,0,0.1,0,0.1c0,0.4,0.2,1.2,0.2,1.3c0,3.4-0.1,4.7-0.5,6
		c-0.4,1.3-0.8-0.6-0.8-1.5c-0.1-0.9-0.1-5.4-0.1-5.6c0.1-0.2,0.5,2,0.5,2l0.4-2.2l0.2,0l0-0.1l-0.2,0l0-0.2l-0.6,0l0,0.2l-0.3,0
		c0,0,0.3-0.9,0.4-1.2c0.1-0.2-0.3,0.2-0.4,0.5l0.1-3.2c0.4-0.3,1-1.1,1.2-1.4C22.1,104,22.4,106.6,22.2,109.3z M23.5,120.5h-0.8
		v-19.5h0.8V120.5z M26.7,120.5h-2.1v-18.6c0,0,1.3,0,2.1,0V120.5z M46.7,120.5h-2.3v-18.6h2.3V120.5z M48,120.5h-1.1v-18.1
		c0,0,0,0,0,0H48V120.5z"/>
	<path fill="#FFFFFF" d="M48.6,100.9H47l0,0c0,0,0,0,0,0c0,0,0,0,0,0l0,0L48.6,100.9L48.6,100.9C48.6,100.8,48.6,100.8,48.6,100.9
		C48.6,100.9,48.6,100.9,48.6,100.9L48.6,100.9z"/>
	<path fill="#FFFFFF" d="M48.7,100.7h-1.5l0,0c0,0,0,0,0,0c0,0,0,0,0,0l0,0L48.7,100.7L48.7,100.7C48.8,100.6,48.8,100.6,48.7,100.7
		C48.8,100.6,48.8,100.7,48.7,100.7L48.7,100.7z"/>
	<path fill="#FFFFFF" d="M34.4,132.1c-6.5,0-12.5-2.2-16.3-6.1c-3.1-3.1-4.7-7.1-4.7-11.5l-0.5,0l0,0.1l0.5,0c0-0.4-0.8-9.9-0.8-14.8
		c0-4.8,0.7-14.3,0.8-14.7l-0.5,0l0,0.1l0.5,0c0-4.4,1.6-8.3,4.6-11.3c3.8-3.8,9.8-6,16.5-6s12.6,2.2,16.5,6c3,3,4.6,6.9,4.6,11.3
		l0.5,0l0-0.1l-0.5,0c0,0.5,0.8,11.6,0.7,14.7c-0.2,8.2-0.7,14.7-0.7,14.8l0.5,0l0-0.1l-0.5,0C55.5,124.7,46.6,132.1,34.4,132.1z
		 M55.5,114.5l0,0.1l0.5,0c0-0.1,0.6-6.6,0.7-14.8c0.1-3.2-0.7-14.3-0.7-14.7l-0.5,0l0,0.1l0.5,0c0-4.5-1.6-8.5-4.8-11.6
		c-3.9-3.9-10-6.2-16.8-6.2s-12.9,2.3-16.8,6.2c-3.1,3.1-4.8,7.1-4.8,11.6l0.5,0l0-0.1l-0.5,0c0,0.4-0.8,9.9-0.8,14.7
		c0,4.9,0.7,14.4,0.8,14.8l0.5,0l0-0.1l-0.5,0c0,4.6,1.7,8.7,4.9,11.8c4,4,10,6.2,16.7,6.2c6.7,0,12.6-2.2,16.6-6.2
		c3.2-3.2,4.9-7.3,4.9-11.9L55.5,114.5z"/>
	<path fill="#FFFFFF" d="M37.7,100c-0.1,0-0.1-0.1-0.1-0.1c0-0.1,0.1-0.1,0.1-0.1c0.1,0,0.1,0.1,0.1,0.1C37.8,99.9,37.8,100,37.7,100z"
		/>
	<path fill="#FFFFFF" d="M37,99.8c-0.1,0-0.1-0.1-0.1-0.1c0-0.1,0.1-0.1,0.1-0.1c0.1,0,0.1,0.1,0.1,0.1C37.1,99.8,37.1,99.8,37,99.8z"
		/>
	<path fill="#FFFFFF" d="M36.3,99.7c-0.1,0-0.1-0.1-0.1-0.1c0-0.1,0.1-0.1,0.1-0.1c0.1,0,0.1,0.1,0.1,0.1
		C36.5,99.7,36.4,99.7,36.3,99.7z"/>
	<path fill="#FFFFFF" d="M35.6,99.7c-0.1,0-0.1-0.1-0.1-0.1c0-0.1,0.1-0.1,0.1-0.1c0.1,0,0.1,0.1,0.1,0.1
		C35.8,99.6,35.7,99.7,35.6,99.7z"/>
	<path fill="#FFFFFF" d="M34.9,99.7c-0.1,0-0.1-0.1-0.1-0.1c0-0.1,0.1-0.1,0.1-0.1c0.1,0,0.1,0.1,0.1,0.1C35.1,99.6,35,99.7,34.9,99.7z
		"/>
	<path fill="#FFFFFF" d="M34.2,99.8c-0.1,0-0.1-0.1-0.1-0.1c0-0.1,0.1-0.1,0.1-0.1c0.1,0,0.1,0.1,0.1,0.1
		C34.4,99.7,34.3,99.8,34.2,99.8z"/>
	<path fill="#FFFFFF" d="M33.5,100c-0.1,0-0.1-0.1-0.1-0.1c0-0.1,0.1-0.1,0.1-0.1s0.1,0.1,0.1,0.1C33.7,99.9,33.6,100,33.5,100z"/>
	<path fill="#FFFFFF" d="M32.9,100.2c-0.1,0-0.1-0.1-0.1-0.1c0-0.1,0.1-0.1,0.1-0.1s0.1,0.1,0.1,0.1C33.1,100.2,33,100.2,32.9,100.2z"
		/>
	<path fill="#FFFFFF" d="M32.3,100.5c-0.1,0-0.1-0.1-0.1-0.1c0-0.1,0.1-0.1,0.1-0.1c0.1,0,0.1,0.1,0.1,0.1
		C32.4,100.4,32.3,100.5,32.3,100.5z"/>
	<path fill="#FFFFFF" d="M31.7,100.9c-0.1,0-0.1-0.1-0.1-0.1c0-0.1,0.1-0.1,0.1-0.1s0.1,0.1,0.1,0.1C31.8,100.8,31.8,100.9,31.7,100.9z
		"/>
	<path fill="#FFFFFF" d="M31.1,101.3c-0.1,0-0.1-0.1-0.1-0.1c0-0.1,0.1-0.1,0.1-0.1c0.1,0,0.1,0.1,0.1,0.1
		C31.2,101.2,31.2,101.3,31.1,101.3z"/>
	<path fill="#FFFFFF" d="M30.6,101.8c-0.1,0-0.1-0.1-0.1-0.1c0-0.1,0.1-0.1,0.1-0.1c0.1,0,0.1,0.1,0.1,0.1
		C30.7,101.7,30.7,101.8,30.6,101.8z"/>
	<path fill="#FFFFFF" d="M30.2,102.3c-0.1,0-0.1-0.1-0.1-0.1c0-0.1,0.1-0.1,0.1-0.1c0.1,0,0.1,0.1,0.1,0.1
		C30.3,102.3,30.3,102.3,30.2,102.3z"/>
	<circle fill="#FFFFFF" cx="29.8" cy="102.7" r="0.1"/>
	<path fill="#FFFFFF" d="M29.5,103.5c-0.1,0-0.1-0.1-0.1-0.1c0-0.1,0.1-0.1,0.1-0.1c0.1,0,0.1,0.1,0.1,0.1
		C29.6,103.4,29.6,103.5,29.5,103.5z"/>
	<path fill="#FFFFFF" d="M29.2,104.1c-0.1,0-0.1-0.1-0.1-0.1c0-0.1,0.1-0.1,0.1-0.1c0.1,0,0.1,0.1,0.1,0.1
		C29.4,104,29.3,104.1,29.2,104.1z"/>
	<path fill="#FFFFFF" d="M29,104.8c-0.1,0-0.1-0.1-0.1-0.1c0-0.1,0.1-0.1,0.1-0.1c0.1,0,0.1,0.1,0.1,0.1
		C29.2,104.7,29.1,104.8,29,104.8z"/>
	<path fill="#FFFFFF" d="M28.9,105.5c-0.1,0-0.1-0.1-0.1-0.1c0-0.1,0.1-0.1,0.1-0.1c0.1,0,0.1,0.1,0.1,0.1
		C29.1,105.4,29,105.5,28.9,105.5z"/>
	<path fill="#FFFFFF" d="M28.9,106.1c-0.1,0-0.1-0.1-0.1-0.1c0-0.1,0.1-0.1,0.1-0.1c0.1,0,0.1,0.1,0.1,0.1
		C29,106.1,29,106.1,28.9,106.1z"/>
	<path fill="#FFFFFF" d="M28.9,106.8c-0.1,0-0.1-0.1-0.1-0.1c0-0.1,0.1-0.1,0.1-0.1c0.1,0,0.1,0.1,0.1,0.1
		C29.1,106.8,29,106.8,28.9,106.8z"/>
	<path fill="#FFFFFF" d="M29,107.5c-0.1,0-0.1-0.1-0.1-0.1c0-0.1,0.1-0.1,0.1-0.1c0.1,0,0.1,0.1,0.1,0.1
		C29.2,107.5,29.1,107.5,29,107.5z"/>
	<circle fill="#FFFFFF" cx="29.3" cy="108.1" r="0.1"/>
	<path fill="#FFFFFF" d="M29.5,108.9c-0.1,0-0.1-0.1-0.1-0.1c0-0.1,0.1-0.1,0.1-0.1c0.1,0,0.1,0.1,0.1,0.1
		C29.7,108.9,29.6,108.9,29.5,108.9z"/>
	<path fill="#FFFFFF" d="M29.8,109.5c-0.1,0-0.1-0.1-0.1-0.1c0-0.1,0.1-0.1,0.1-0.1c0.1,0,0.1,0.1,0.1,0.1
		C29.9,109.4,29.9,109.5,29.8,109.5z"/>
	<path fill="#FFFFFF" d="M30.1,110c-0.1,0-0.1-0.1-0.1-0.1c0-0.1,0.1-0.1,0.1-0.1c0.1,0,0.1,0.1,0.1,0.1C30.3,109.9,30.2,110,30.1,110z
		"/>
	<path fill="#FFFFFF" d="M30.5,110.6c-0.1,0-0.1-0.1-0.1-0.1c0-0.1,0.1-0.1,0.1-0.1s0.1,0.1,0.1,0.1C30.6,110.5,30.6,110.6,30.5,110.6z
		"/>
	<path fill="#FFFFFF" d="M31.1,111.1c-0.1,0-0.1-0.1-0.1-0.1c0-0.1,0.1-0.1,0.1-0.1c0.1,0,0.1,0.1,0.1,0.1
		C31.2,111,31.1,111.1,31.1,111.1z"/>
	<path fill="#FFFFFF" d="M31.6,111.6c-0.1,0-0.1-0.1-0.1-0.1c0-0.1,0.1-0.1,0.1-0.1c0.1,0,0.1,0.1,0.1,0.1
		C31.7,111.5,31.7,111.6,31.6,111.6z"/>
	<path fill="#FFFFFF" d="M32.3,112.1c-0.1,0-0.1-0.1-0.1-0.1c0-0.1,0.1-0.1,0.1-0.1s0.1,0.1,0.1,0.1C32.5,112,32.4,112.1,32.3,112.1z"
		/>
	<path fill="#FFFFFF" d="M33,112.4c-0.1,0-0.1-0.1-0.1-0.1c0-0.1,0.1-0.1,0.1-0.1c0.1,0,0.1,0.1,0.1,0.1
		C33.1,112.3,33.1,112.4,33,112.4z"/>
	<path fill="#FFFFFF" d="M33.7,112.7c-0.1,0-0.1-0.1-0.1-0.1s0.1-0.1,0.1-0.1s0.1,0.1,0.1,0.1S33.8,112.7,33.7,112.7z"/>
	<path fill="#FFFFFF" d="M34.4,112.9c-0.1,0-0.1-0.1-0.1-0.1s0.1-0.1,0.1-0.1c0.1,0,0.1,0.1,0.1,0.1S34.5,112.9,34.4,112.9z"/>
	<path fill="#FFFFFF" d="M35.1,113c-0.1,0-0.1-0.1-0.1-0.1c0-0.1,0.1-0.1,0.1-0.1c0.1,0,0.1,0.1,0.1,0.1C35.3,112.9,35.2,113,35.1,113z
		"/>
	<path fill="#FFFFFF" d="M35.8,113c-0.1,0-0.1-0.1-0.1-0.1c0-0.1,0.1-0.1,0.1-0.1c0.1,0,0.1,0.1,0.1,0.1C36,112.9,35.9,113,35.8,113z"
		/>
	<path fill="#FFFFFF" d="M36.5,112.9c-0.1,0-0.1-0.1-0.1-0.1c0-0.1,0.1-0.1,0.1-0.1c0.1,0,0.1,0.1,0.1,0.1
		C36.6,112.9,36.6,112.9,36.5,112.9z"/>
	<path fill="#FFFFFF" d="M37.2,112.8c-0.1,0-0.1-0.1-0.1-0.1c0-0.1,0.1-0.1,0.1-0.1c0.1,0,0.1,0.1,0.1,0.1
		C37.3,112.8,37.3,112.8,37.2,112.8z"/>
	<path fill="#FFFFFF" d="M37.8,112.7c-0.1,0-0.1-0.1-0.1-0.1c0-0.1,0.1-0.1,0.1-0.1c0.1,0,0.1,0.1,0.1,0.1
		C37.9,112.6,37.9,112.7,37.8,112.7z"/>
	<path fill="#FFFFFF" d="M38.4,112.5c-0.1,0-0.1-0.1-0.1-0.1c0-0.1,0.1-0.1,0.1-0.1c0.1,0,0.1,0.1,0.1,0.1
		C38.6,112.4,38.5,112.5,38.4,112.5z"/>
	<path fill="#FFFFFF" d="M39,112.2c-0.1,0-0.1-0.1-0.1-0.1c0-0.1,0.1-0.1,0.1-0.1c0.1,0,0.1,0.1,0.1,0.1
		C39.2,112.1,39.1,112.2,39,112.2z"/>
	<path fill="#FFFFFF" d="M39.6,111.8c-0.1,0-0.1-0.1-0.1-0.1c0-0.1,0.1-0.1,0.1-0.1c0.1,0,0.1,0.1,0.1,0.1
		C39.8,111.7,39.7,111.8,39.6,111.8z"/>
	<path fill="#FFFFFF" d="M40.2,111.3c-0.1,0-0.1-0.1-0.1-0.1c0-0.1,0.1-0.1,0.1-0.1c0.1,0,0.1,0.1,0.1,0.1
		C40.3,111.2,40.3,111.3,40.2,111.3z"/>
	<path fill="#FFFFFF" d="M40.7,110.8c-0.1,0-0.1-0.1-0.1-0.1c0-0.1,0.1-0.1,0.1-0.1c0.1,0,0.1,0.1,0.1,0.1
		C40.9,110.7,40.8,110.8,40.7,110.8z"/>
	<circle fill="#FFFFFF" cx="41.2" cy="110.1" r="0.1"/>
	<path fill="#FFFFFF" d="M41.6,109.7c-0.1,0-0.1-0.1-0.1-0.1c0-0.1,0.1-0.1,0.1-0.1s0.1,0.1,0.1,0.1C41.7,109.7,41.6,109.7,41.6,109.7z
		"/>
	<path fill="#FFFFFF" d="M41.9,109.1c-0.1,0-0.1-0.1-0.1-0.1c0-0.1,0.1-0.1,0.1-0.1c0.1,0,0.1,0.1,0.1,0.1
		C42,109.1,42,109.1,41.9,109.1z"/>
	<path fill="#FFFFFF" d="M42.2,108.5c-0.1,0-0.1-0.1-0.1-0.1c0-0.1,0.1-0.1,0.1-0.1s0.1,0.1,0.1,0.1C42.3,108.4,42.2,108.5,42.2,108.5z
		"/>
	<path fill="#FFFFFF" d="M42.3,107.9c-0.1,0-0.1-0.1-0.1-0.1c0-0.1,0.1-0.1,0.1-0.1c0.1,0,0.1,0.1,0.1,0.1
		C42.5,107.8,42.4,107.9,42.3,107.9z"/>
	<path fill="#FFFFFF" d="M42.5,107.2c-0.1,0-0.1-0.1-0.1-0.1c0-0.1,0.1-0.1,0.1-0.1s0.1,0.1,0.1,0.1C42.6,107.1,42.6,107.2,42.5,107.2z
		"/>
	<path fill="#FFFFFF" d="M42.5,106.5c-0.1,0-0.1-0.1-0.1-0.1c0-0.1,0.1-0.1,0.1-0.1c0.1,0,0.1,0.1,0.1,0.1
		C42.7,106.4,42.6,106.5,42.5,106.5z"/>
	<circle fill="#FFFFFF" cx="42.5" cy="105.6" r="0.1"/>
	<path fill="#FFFFFF" d="M42.4,105c-0.1,0-0.1-0.1-0.1-0.1s0.1-0.1,0.1-0.1c0.1,0,0.1,0.1,0.1,0.1S42.5,105,42.4,105z"/>
	<circle fill="#FFFFFF" cx="42.2" cy="104.3" r="0.1"/>
	<path fill="#FFFFFF" d="M41.9,103.7c-0.1,0-0.1-0.1-0.1-0.1c0-0.1,0.1-0.1,0.1-0.1s0.1,0.1,0.1,0.1C42.1,103.6,42,103.7,41.9,103.7z"
		/>
	<path fill="#FFFFFF" d="M41.6,103.1c-0.1,0-0.1-0.1-0.1-0.1c0-0.1,0.1-0.1,0.1-0.1s0.1,0.1,0.1,0.1C41.8,103,41.7,103.1,41.6,103.1z"
		/>
	<path fill="#FFFFFF" d="M41.2,102.5c-0.1,0-0.1-0.1-0.1-0.1c0-0.1,0.1-0.1,0.1-0.1s0.1,0.1,0.1,0.1C41.4,102.4,41.3,102.5,41.2,102.5z
		"/>
	<path fill="#FFFFFF" d="M40.8,101.9c-0.1,0-0.1-0.1-0.1-0.1c0-0.1,0.1-0.1,0.1-0.1s0.1,0.1,0.1,0.1C40.9,101.9,40.8,101.9,40.8,101.9z
		"/>
	<path fill="#FFFFFF" d="M40.3,101.4c-0.1,0-0.1-0.1-0.1-0.1s0.1-0.1,0.1-0.1c0.1,0,0.1,0.1,0.1,0.1S40.3,101.4,40.3,101.4z"/>
	<path fill="#FFFFFF" d="M39.7,101c-0.1,0-0.1-0.1-0.1-0.1c0-0.1,0.1-0.1,0.1-0.1c0.1,0,0.1,0.1,0.1,0.1C39.8,100.9,39.8,101,39.7,101z
		"/>
	<path fill="#FFFFFF" d="M39.1,100.5c-0.1,0-0.1-0.1-0.1-0.1c0-0.1,0.1-0.1,0.1-0.1c0.1,0,0.1,0.1,0.1,0.1
		C39.2,100.4,39.2,100.5,39.1,100.5z"/>
	<path fill="#FFFFFF" d="M38.4,100.2c-0.1,0-0.1-0.1-0.1-0.1c0-0.1,0.1-0.1,0.1-0.1c0.1,0,0.1,0.1,0.1,0.1
		C38.6,100.1,38.5,100.2,38.4,100.2z"/>
	<path fill="#FFFFFF" d="M29.7,114.6c3.3,1.9,5.8,1.9,10.2,0.8c0,0-2.3,1.5-6.5,1.1c-2.3-0.2-3.7-1.3-3.7-1.3V114.6z"/>
	<path fill="#FFFFFF" d="M39.9,112.8c-1.3,0.9-2.8,1.3-4.4,1.3c-2.1,0-4.1-0.8-5.6-2.3c-1.5-1.5-2.3-3.5-2.3-5.6c0-3.5,2.4-6.7,5.8-7.7
		l0,0c0,0,0.1,0,0.1,0.1c0,0,0,0.1-0.1,0.1l0,0c-3.3,0.9-5.7,4-5.7,7.5c0,4.3,3.5,7.8,7.8,7.8c1.5,0,3-0.5,4.3-1.3l0,0
		c0,0,0.1,0,0.1,0C39.9,112.7,39.9,112.8,39.9,112.8L39.9,112.8z"/>
	<path fill="#FFFFFF" d="M41.1,111.4c1.4-1.4,2.2-3.3,2.2-5.4c0-4.2-3.4-7.6-7.6-7.6c-2,0-3.9,0.8-5.4,2.2c-1.4,1.4-2.2,3.3-2.2,5.4
		c0,2,0.8,3.9,2.2,5.4c1.4,1.4,3.3,2.2,5.4,2.2S39.7,112.8,41.1,111.4z M41,111.3c-1.4,1.4-3.3,2.2-5.3,2.2c-4.1,0-7.4-3.3-7.4-7.4
		c0-2,0.8-3.8,2.2-5.3c1.4-1.4,3.3-2.2,5.3-2.2c2,0,3.8,0.8,5.3,2.2c1.4,1.4,2.2,3.3,2.2,5.3C43.2,108,42.4,109.9,41,111.3z"/>
	<path fill="#FFFFFF" d="M40.6,110.9c-1.3,1.3-3.1,2-4.9,2c-3.8,0-6.9-3.1-6.9-6.9c0-1.9,0.7-3.6,2-4.9c1.3-1.3,3.1-2,4.9-2
		c1.9,0,3.6,0.7,4.9,2c1.3,1.3,2,3.1,2,4.9C42.7,107.9,42,109.6,40.6,110.9z M42.9,106c0-1.9-0.7-3.7-2.1-5c-1.3-1.3-3.1-2.1-5-2.1
		c-1.9,0-3.7,0.7-5,2.1c-1.3,1.3-2.1,3.1-2.1,5c0,1.9,0.7,3.7,2.1,5c1.3,1.3,3.1,2.1,5,2.1c1.9,0,3.7-0.7,5-2.1
		C42.1,109.7,42.9,107.9,42.9,106z"/>
	<path fill="#FFFFFF" d="M35.2,100.6l0.1-0.6c0-0.1,0-0.1,0-0.1c0-0.1,0-0.1-0.1-0.1l0,0l0,0l0.3,0l0,0l0,0c0,0-0.1,0.1-0.1,0.2
		L35.2,100.6l0.4,1.3l0.1,0l0,0l-0.3,0l0,0l0.1,0l-0.3-1l-0.1,0.7c0,0.2,0,0.2,0,0.2c0,0,0,0.1,0.1,0.1l0.1,0l0,0l-0.3,0l0,0l0,0
		c0.1,0,0.1,0,0.1-0.2l0.1-0.9l-0.3-1l-0.1,0l0,0l0.3,0l0,0.1l-0.1,0L35.2,100.6z"/>
	<path fill="#FFFFFF" d="M35.9,99.9l-0.1,0l0,0l0.3,0l0,0l-0.1,0L36,102l0.1,0l0,0l-0.3,0l0,0l0.1,0L35.9,99.9z"/>
	<path fill="#FFFFFF" d="M36.4,99.9l-0.1,0l0,0l0.3,0l0,0l-0.1,0l-0.2,2.1l0.1,0l0,0l-0.3,0l0,0l0.1,0L36.4,99.9z"/>
	<path fill="#FFFFFF" d="M38.9,100.7L38.9,100.7L38.9,100.7l0.2,0.1l0,0l-0.1-0.1l-1.1,1.8l0.1,0.1l0,0l-0.3-0.2l0,0l0.1,0.1
		L38.9,100.7z"/>
	<path fill="#FFFFFF" d="M41,102.7L41,102.7l0-0.1l0.2,0.3l0,0l-0.1-0.1l-1.8,1.2l0.1,0.1l0,0l-0.2-0.3l0,0l0.1,0.1L41,102.7z"/>
	<path fill="#FFFFFF" d="M41.3,103.1L41.3,103.1l0-0.1l0.2,0.3l0,0l-0.1-0.1l-1.8,1l0.1,0.1l0,0l-0.2-0.3l0,0l0.1,0.1L41.3,103.1z"/>
	<path fill="#FFFFFF" d="M42,105.5l0-0.1l0,0l0,0.3l0,0l0-0.1l-2.1,0.2l0,0.1l0,0l0-0.3l0,0l0,0.1L42,105.5z"/>
	<path fill="#FFFFFF" d="M42.1,106l0-0.1l0.1,0l0,0.3l-0.1,0l0-0.1l-2.1,0.1l0,0.1l0,0l0-0.3l0.1,0l0,0.1L42.1,106z"/>
	<path fill="#FFFFFF" d="M42.1,106.5l0-0.1l0,0l0,0.3l0,0l0-0.1l-2.1-0.1l0,0.1l0,0l0-0.3l0.1,0l0,0.1L42.1,106.5z"/>
	<path fill="#FFFFFF" d="M41.6,108.7L41.6,108.7L41.6,108.7l0,0.2l0,0l0-0.1l-1.9-0.9l0,0.1l0,0l0.1-0.3l0,0l0,0.1L41.6,108.7z"/>
	<path fill="#FFFFFF" d="M41.3,109.2L41.3,109.2L41.3,109.2l-0.1,0.2l0,0l0.1-0.1l-1.8-1l-0.1,0.1l0,0l0.2-0.3l0,0l-0.1,0.1L41.3,109.2
		z"/>
	<path fill="#FFFFFF" d="M41.1,109.6L41.1,109.6l0.1-0.1l-0.2,0.3l0,0l0.1-0.1l-1.8-1.2l-0.1,0.1l0,0l0.2-0.3l0,0l-0.1,0.1L41.1,109.6z
		"/>
	<path fill="#FFFFFF" d="M40.8,110.1L40.8,110.1l0.1-0.1l-0.2,0.3l0,0L40.8,110.1l-1.7-1.2l-0.1,0.1l0,0l0.2-0.3l0,0l-0.1,0.1
		L40.8,110.1z"/>
	<path fill="#FFFFFF" d="M38,110.3L38,110.3l0.5,1.2c0.1,0.2,0.1,0.3,0.1,0.3c0,0.1,0.1,0.1,0.1,0.1l0,0l0,0l-0.2,0.1l0,0l0,0
		c0.1,0,0-0.1,0-0.2l-0.7-1.9l0,0l1.3,1.8l0.1,0l0,0l-0.3,0.2l0,0l0.1-0.1L38,110.3z"/>
	<path fill="#FFFFFF" d="M36,110.8L36,110.8l-0.1,1.3c0,0.2,0,0.3,0,0.3c0,0.1,0,0.1,0.1,0.1l0,0l0,0l-0.3,0l0,0l0,0
		c0.1,0,0.1-0.1,0.1-0.2l0.2-2l0,0l0.4,2.2l0.1,0l0,0l-0.3,0l0,0l0.1,0L36,110.8z"/>
	<path fill="#FFFFFF" d="M35.5,112.5l0.1,0l0,0l-0.3,0l0-0.1l0.1,0l0.1-2.1l-0.1,0l0,0l0.3,0l0,0l-0.1,0L35.5,112.5z"/>
	<path fill="#FFFFFF" d="M33.7,110.3L33.7,110.3l-0.7,1c-0.1,0.2-0.2,0.2-0.2,0.3c0,0.1,0,0.1,0,0.1l0,0l0,0l-0.2-0.1l0,0l0,0
		c0.1,0,0.1,0,0.2-0.1l1.1-1.7l0,0l-0.7,2.1l0.1,0l0,0l-0.3-0.2l0,0l0.1,0.1L33.7,110.3z"/>
	<path fill="#FFFFFF" d="M32.5,111.6L32.5,111.6L32.5,111.6l-0.2-0.1l0,0l0.1,0.1l1.1-1.8l-0.1-0.1l0,0l0.3,0.2l0,0l-0.1-0.1
		L32.5,111.6z"/>
	<path fill="#FFFFFF" d="M32,111.3L32,111.3l0.1,0.1l-0.3-0.2l0,0L32,111.3l1.2-1.8l-0.1-0.1l0,0l0.3,0.2l0,0l-0.1-0.1L32,111.3z"/>
	<path fill="#FFFFFF" d="M32,108.9L32,108.9l-1.1,0.6c-0.2,0.1-0.3,0.1-0.3,0.2c-0.1,0-0.1,0.1,0,0.1l0,0l0,0l-0.2-0.2l0,0l0,0
		c0,0.1,0.1,0,0.2,0l1.8-1l0,0l-1.6,1.6l0.1,0.1l0,0l-0.2-0.3l0,0l0.1,0.1L32,108.9z"/>
	<path fill="#FFFFFF" d="M30.3,109.5L30.3,109.5l0,0.1l-0.2-0.3l0,0l0.1,0.1l1.8-1.1l-0.1-0.1l0,0l0.2,0.3l0,0l-0.1-0.1L30.3,109.5z"/>
	<path fill="#FFFFFF" d="M30.1,109L30.1,109l0,0.1l-0.1-0.3l0,0l0,0.1l1.9-0.9l0-0.1l0,0l0.1,0.3l0,0l0-0.1L30.1,109z"/>
	<path fill="#FFFFFF" d="M29.9,108.5l0,0.1l0,0l-0.1-0.3l0,0l0,0.1l2-0.8l0-0.1l0,0l0.1,0.3l0,0l0-0.1L29.9,108.5z"/>
	<path fill="#FFFFFF" d="M29.4,106.6l0,0.1l-0.1,0l0-0.3l0.1,0l0,0.1l2.1-0.1l0-0.1l0.1,0l0,0.3l0,0l0-0.1L29.4,106.6z"/>
	<path fill="#FFFFFF" d="M30.2,105.9l-0.6-0.2c-0.1,0-0.1,0-0.1,0c-0.1,0-0.1,0-0.1,0.1l0,0l0,0l0-0.3l0,0l0,0c0,0,0,0.1,0.2,0.1
		L30.2,105.9l1.3-0.2l0-0.1l0,0l0,0.3l0,0l0-0.1l-1,0.2l0.7,0.2c0.2,0,0.2,0.1,0.2,0.1c0,0,0.1,0,0.1,0l0-0.1l0.1,0l0,0.3l-0.1,0
		l0,0c0-0.1,0-0.1-0.2-0.1l-0.9-0.3l-1.1,0.2l0,0.1l0,0l0-0.3l0.1,0l0,0.1L30.2,105.9z"/>
	<path fill="#FFFFFF" d="M30.9,103.5l-0.4-0.4c0,0-0.1-0.1-0.1-0.1c0,0-0.1,0-0.1,0l0,0l0,0l0.1-0.2l0,0l0,0c0,0,0,0.1,0.1,0.2
		L30.9,103.5l1.3,0.4l0-0.1l0,0l-0.2,0.3l0,0l0.1-0.1l-1-0.3l0.5,0.5c0.1,0.1,0.1,0.1,0.2,0.1c0,0,0.1,0,0.1,0l0-0.1l0,0l-0.1,0.2
		l0,0l0,0c0,0,0-0.1-0.1-0.2l-0.7-0.6l-1-0.3l-0.1,0.1l0,0l0.2-0.3l0,0l0,0.1L30.9,103.5z"/>
	<path fill="#FFFFFF" d="M32.8,101.4l-0.2-0.6c0-0.1,0-0.1,0-0.1c0,0-0.1-0.1-0.1,0l0,0l0,0l0.2-0.1l0,0l0,0c0,0,0,0.1,0,0.2
		L32.8,101.4l0.9,1l0.1-0.1l0,0l-0.3,0.2l0,0l0.1-0.1l-0.7-0.7l0.2,0.7c0.1,0.2,0.1,0.2,0.1,0.2c0,0,0,0,0.1,0l0.1,0l0,0l-0.2,0.1
		l0,0l0,0c0,0,0.1-0.1,0-0.2l-0.3-0.9l-0.8-0.8l-0.1,0.1l0,0l0.3-0.2l0,0l-0.1,0.1L32.8,101.4z"/>
	<path fill="#FFFFFF" d="M33.1,100.4L33.1,100.4l-0.1,0l0.3-0.1l0,0l-0.1,0l0.9,1.9l0.1,0l0,0l-0.3,0.1l0,0l0.1,0L33.1,100.4z"/>
	<path fill="#FFFFFF" d="M35.9,99.5l0.5,6.1c0,0-0.1,0-0.2,0.2c-0.1,0.1-0.1,0.8-0.3,0.9c-0.2,0.1-0.5,0-0.6-0.3
		c-0.1-0.3,0-0.5-0.1-0.6c-0.1-0.1-0.1-0.2-0.2-0.3c-0.1-0.1,0.7-6,0.7-6L35.9,99.5z"/>
	<polygon fill="#FFFFFF" points="35.6,106.6 35.5,108 35.7,108 35.9,106.5 	"/>
	<path fill="#FFFFFF" d="M36.8,105.3c-0.6,0.2-1.4,0.2-1.4,0.2l-2.7,1.2l-0.9,1.9l1.7,0.1l2.9-2.2l0.5-1.1L36.8,105.3z"/>
	<path fill="#FFFFFF" d="M36.7,105.7l0.9-0.4c0,0,0.2-0.5-0.1-0.5c-0.3,0-0.4,0.5-0.6,0.6C36.7,105.4,36.7,105.7,36.7,105.7z"/>
	<rect x="35.4" y="107.7" fill="#FFFFFF" width="0.5" height="0.2"/>
	<path fill="#FFFFFF" d="M29.6,96.3L29.6,96.3c1.2-0.7,3.1-1.5,5.6-1.6c2.2,0,4.1,0.3,6.7,1.8c2.3,1.3,3,2.8,3.2,3.1h2.7H48l0,0
		l0.1-0.1h0h-2.8h-0.1l0-0.1c0,0-0.7-1.7-3.2-3.2c-2.6-1.5-4.6-1.8-6.8-1.8c-2.3,0-4.3,0.8-5.1,1.2c0,0-0.1,0-0.1,0c0,0,0-0.1,0-0.1
		c1-0.4,2.9-1.2,5.1-1.2c2.2,0,4.2,0.3,6.8,1.8c2.3,1.4,3.1,2.9,3.2,3.2h2.8h0.2h0.1l-0.1,0.1l-0.1,0.1h1.3c0,0,0.1,0,0.1,0.1
		c0,0,0,0.1-0.1,0.1h-1.4h0l0,0l0,0.1h1.2c0,0,0.1,0,0.1,0.1c0,0,0,0.1-0.1,0.1h-0.7h-0.6h-0.1l0-0.1l0-0.1h-0.1H45H45l0-0.1
		c0,0-0.7-1.7-3.1-3.1c-2.5-1.5-4.5-1.8-6.6-1.8c-2.4,0-4.4,0.8-5.5,1.5c0,0-0.1,0-0.1,0C29.5,96.4,29.5,96.3,29.6,96.3z"/>
	<rect x="23.6" y="99.2" fill="#FFFFFF" width="3" height="0.1"/>
	<rect x="23.7" y="98.8" fill="#FFFFFF" width="2.8" height="0.1"/>
	<path fill="#FFFFFF" d="M47.7,100.3v-0.2l-0.1,0h-2.8c0,0-0.7-1.7-3.2-3.2c-2.5-1.5-4.4-1.8-6.7-1.8c-2.4,0-4.7,0.9-5.5,1.7
		c0,0,3.2-2.1,7.3-1.4c-0.2,0-0.7,0-1.9,0.1c-1.9,0.2-3.8,0.5-5.9,2.2c-1.1,0.9-2,2.1-2,2.1c0.1-0.1,0,0.1,0,0
		c2.3-2.7,5.1-4.1,7.7-4.1c1.9,0,4.3,0.6,5.9,1.7c2.4,1.6,3.2,3.2,3.2,3.2h2.8l0.3-0.1h-2.4c0,0,0,0,0,0c0,0,0,0,0,0H47c0,0,0,0,0,0
		c0,0,0,0,0,0h-0.1v0.4l1.8,0l0.4-0.6H47.7z M47.3,100.4h-2.8c0,0,0,0,0,0c0,0,0,0,0,0L47.3,100.4C47.4,100.3,47.4,100.3,47.3,100.4
		C47.4,100.4,47.4,100.4,47.3,100.4z"/>
	<path fill="#FFFFFF" d="M44.3,97.8l0.7-0.5v-4.7c0,0,0-0.1,0.1-0.1c0,0,0.1,0,0.1,0.1v4.6h3.1h0l0,0c0.9,0.7,1,1.5,1,2.2
		c0,0,0,0.1-0.1,0.1c0,0-0.1,0-0.1,0h-0.7l0.1-0.1l0.1-0.2c-0.1-0.3-0.1-1-0.7-1.4c0,0-2.6,0-3.3,0l-0.1,0.1L44.3,97.8z"/>
	<path fill="#FFFFFF" d="M32.3,86.8c0.2,0,0.3,0,0.5,0C32.7,86.8,32.6,86.8,32.3,86.8z"/>
	<path fill="#FFFFFF" d="M34.7,76.1C34.7,76,34.7,76,34.7,76.1c-0.3-0.5-0.6-1.1-0.7-1.4h-0.3c0,0,0.2,0.5,0.1,0.8
		c-0.1,0.4-0.2,0.5-0.3,0.5C33,76,33.1,76,33,76c-0.1,0,0.4-0.3,0.6-1.3c0.2-1,0.2-4.4,0.2-4.4l0.1,0l0.2,4.2L34.7,76.1z"/>
	<path fill="#FFFFFF" d="M33.8,70.3c-0.3,0-0.5-0.2-0.5-0.5c0-0.3,0.2-0.5,0.5-0.5c0.3,0,0.5,0.2,0.5,0.5
		C34.3,70.1,34.1,70.3,33.8,70.3z"/>
	<path fill="#FFFFFF" d="M33.7,69.5c-0.2,0.1-0.2,0.3-0.1,0.4c0.1,0.1,0.1,0.2,0.3,0.2c0.1,0,0.2,0,0.3-0.1s0-0.2,0-0.3
		c0-0.1-0.1-0.2-0.2-0.2C33.8,69.4,33.7,69.5,33.7,69.5z"/>
	<path fill="#FFFFFF" d="M34.2,122.2h15.3v-0.3c0,0-0.3-0.2-0.4-0.5c-0.1-0.2,0-0.4-0.3-0.4c-0.3,0-14.6,0-14.6,0s-14.3,0-14.6,0
		c-0.3,0-0.2,0.2-0.3,0.4c-0.1,0.2-0.4,0.5-0.4,0.5v0.3H34.2z"/>
	<path fill="#FFFFFF" d="M44.4,128.7c-3.4,1.5-7,2-10,2c-3.5,0-6.5-0.6-9.4-1.8c-4.1-1.6-6.3-4.2-6.3-4.2v-2.2h31.4v2.2
		C50.1,124.7,47.6,127.3,44.4,128.7z"/>
	<line fill="none" x1="49.1" y1="121.5" x2="19.5" y2="121.5"/>
	<path fill="#FFFFFF" d="M32.3,86.8c0.2,0,0.3,0,0.5,0C32.7,86.8,32.5,86.8,32.3,86.8z"/>
	<path fill="#FFFFFF" d="M25.3,88.5c-0.2,0.2-0.5,0.5-0.7,0.5c-0.2,0.1-0.1,0.2,0.1,0.2c0.2-0.1,0.5-0.4,0.7-0.6
		c0.4-0.4,0.8-0.8,2.4-1.2c0.5-0.1,1-0.2,1.6-0.3c-0.1,0.1-0.1,0.2-0.2,0.3c-0.1,0.1-0.2,0.2-0.4,0.5l0.2,0.2
		c0.2-0.2,0.3-0.4,0.4-0.4c0.1-0.1,0.2-0.2,0.4-0.5c1-0.1,2-0.2,3-0.2c0,0.2-0.1,0.5-0.1,0.8l0.3,0.1c0.1-0.3,0.1-0.6,0.1-0.8
		c1.2,0,2.4,0,3.7,0.1c0,0,0.1,0,0.1,0c0.1,0.2,0.1,0.4,0.2,0.6l0.1,0.3l0.3-0.1l-0.1-0.3c0-0.2-0.1-0.3-0.2-0.5
		c1.2,0,2.1,0.1,2.9,0.3c0.2,0.3,0.4,0.5,0.6,0.7c0.1,0.1,0.2,0.2,0.3,0.4l0.2-0.2c-0.1-0.1-0.2-0.2-0.3-0.4
		c-0.1-0.1-0.3-0.3-0.4-0.4c0.7,0.1,1.3,0.3,1.7,0.5c0.3,0.4,0.5,0.7,0.8,1l0.2-0.2c0.1,0.2,0.4,0.6,0.5,0.8l0.5,0.2
		c-1.7-1.6-2.5-3.8-2.6-5.5c0-1.9-0.3-3-1-3.9c-0.6-0.9-1.1-1.5-1.5-1.8l-0.1,0c-0.6-0.5-1.4-1.2-2.7-1.7c-2.2-0.8-3.8-0.5-5.5,0.2
		c-1.8,0.7-3.5,2.4-4.3,4.1c-0.4,0.9-0.6,1.9-0.6,2.4l0,0.1c0,0.8,0,2-0.4,2.8c-0.1,0.1-0.1,0.2-0.2,0.4c-0.3,0.6-0.4,1.3-1.3,2.1
		L24,89l-0.8,0.7c1.1-0.5,0.9-0.4,1.7-1c0.5-0.4,1.1-1.1,3.1-1.5c-0.1,0-0.2,0-0.3,0.1C26.1,87.7,25.7,88.1,25.3,88.5z M32.5,76.5
		c0.4-0.1,0.9-0.2,1.3-0.2c0,0.1-0.2,0.4-0.4,0.9c-0.1,0.2-0.2,0.5-0.2,1c-0.4,0-1,0.1-1.6,0.2c-0.3,0-0.6-0.1-0.5-0.2
		C31.4,77.3,31.6,76.9,32.5,76.5z M40.8,80.7c0.3,0.5,0.4,1,0.5,1.7c-0.1-0.1-0.3-0.1-0.4-0.2C41,81.7,41,81.2,40.8,80.7z
		 M40.6,83.9c0,0.3,0.1,0.6,0.2,1c-0.5-0.2-1.1-0.4-1.6-0.5c0-0.3-0.1-0.6-0.1-0.9C39,83,39,82.5,39,82c0-0.1,0-0.2,0-0.3
		c0.6,0.2,1.1,0.4,1.7,0.7c0,0.1,0,0.2,0,0.2C40.6,83,40.6,83.5,40.6,83.9z M39,81.4c0-0.8-0.1-1.6-0.5-2.4c0.7,0.2,1.2,0.4,1.3,0.5
		c0.8,0.9,0.9,1.7,0.9,2.6C40.1,81.8,39.6,81.5,39,81.4z M38.9,84.3c-0.7-0.2-1.5-0.3-2.3-0.3c-0.1-1.1-0.1-2-0.1-2.7c0,0,0,0,0-0.1
		c0.8,0.1,1.5,0.2,2.2,0.4c0,0.1,0,0.3,0,0.4c0,0.5,0,1,0.1,1.5C38.8,83.8,38.8,84.1,38.9,84.3z M36.1,78.5c0.8,0,1.4,0.2,2,0.3
		c0.4,0.8,0.5,1.6,0.5,2.5C38,81.1,37.3,81,36.5,81C36.5,80.3,36.4,79.4,36.1,78.5z M37.7,78.2c0.1,0.1,0.1,0.2,0.2,0.3
		c-0.5-0.1-1.2-0.2-1.9-0.3c-0.2-0.6-0.4-1.2-0.7-1.8c0.3,0.1,0.5,0.1,0.8,0.2C36.4,76.9,37,77.3,37.7,78.2z M34.1,76.3
		c0.3,0,0.5,0,0.8,0.1c0.3,0.6,0.6,1.2,0.8,1.8c-0.3,0-0.5,0-0.7,0c-0.5,0-1,0-1.5,0c0.1-0.4,0.1-0.7,0.2-0.8
		C34,76.7,34.1,76.4,34.1,76.3z M34.9,78.5c0.3,0,0.5,0,0.8,0c0.3,0.9,0.4,1.8,0.4,2.4c0,0-0.1,0-0.1,0l-0.4,0
		c-1.1-0.1-1.7-0.1-2.4-0.1c0-0.9,0.1-1.7,0.2-2.4C34,78.4,34.4,78.4,34.9,78.5z M36.3,84c-0.1,0-0.1,0-0.2,0l-0.8,0
		c-0.7,0-1.4,0-2.1,0c0-0.1,0-0.2,0-0.4c0-0.7,0-1.6,0-2.5c0.8,0,1.3,0,2.4,0.1l0.4,0c0,0,0.1,0,0.1,0c0,0,0,0.1,0,0.1
		C36.1,82,36.1,83,36.3,84z M39.7,79.1c-0.3-0.1-0.7-0.3-1.4-0.5c-0.1-0.2-0.2-0.4-0.4-0.6c-0.4-0.5-0.7-0.8-1-1
		c0.9,0.4,1.5,0.9,2,1.4l0.1,0C39.3,78.6,39.5,78.8,39.7,79.1z M41.5,84c0,0.4,0.1,0.8,0.1,1.2c-0.2-0.1-0.3-0.1-0.5-0.2
		c-0.1-0.4-0.2-0.8-0.2-1.1c0-0.5,0-0.9,0-1.3c0,0,0-0.1,0-0.1c0.1,0.1,0.2,0.1,0.3,0.2l0.1-0.2C41.4,82.9,41.5,83.4,41.5,84z
		 M42.7,88L42.7,88c0.1,0.1,0.2,0.2,0.3,0.4C42.9,88.2,42.8,88.1,42.7,88z M41.3,85.4c0.1,0.1,0.2,0.1,0.4,0.2l0.1-0.1
		c0.2,0.8,0.5,1.6,1,2.3c-0.1,0-0.1,0-0.2-0.1C42,87.1,41.6,86.2,41.3,85.4z M39.3,84.7c0.6,0.1,1.1,0.3,1.6,0.5
		c0.2,0.8,0.6,1.6,1.1,2.3c-0.4-0.1-1-0.3-1.7-0.4C39.9,86.5,39.5,85.9,39.3,84.7z M36.8,85.3c-0.1-0.3-0.1-0.7-0.2-1
		c0.8,0,1.6,0.2,2.3,0.3c0.2,1.1,0.6,1.8,0.9,2.4c-0.7-0.1-1.6-0.2-2.8-0.2C37,86.4,36.9,86,36.8,85.3z M33.1,86.7
		c0.1-0.7,0.1-1.4,0.1-2.5c0.7,0,1.4,0,2.1,0l0.8,0c0.1,0,0.1,0,0.2,0c0,0.4,0.1,0.7,0.2,1.1c0.1,0.6,0.2,1,0.3,1.4c0,0,0,0-0.1,0
		C35.5,86.7,34.2,86.7,33.1,86.7z M31.7,80.9c-0.4,0-0.8-0.1-0.9-0.1c-0.7-0.2-0.1-1.6,0.4-2c0.1-0.1,0.4-0.2,1-0.4
		c0.3,0,0.6-0.1,0.8-0.1C33,79.1,33,80,32.9,80.8C32.6,80.9,32.2,80.9,31.7,80.9z M32.9,81.1c0,0.9,0,1.8,0,2.5c0,0.1,0,0.2,0,0.4
		c-0.4,0-0.8,0-1.2,0.1c-0.5,0-1-0.1-1.1-0.2c-0.6-0.8-0.5-1.7,0.1-2.3c0.1-0.1,0.4-0.2,0.9-0.3C32.1,81.2,32.5,81.2,32.9,81.1z
		 M29.7,86.7c0.1-0.2,0.2-1.5,0.6-1.9c0.1-0.1,0.5-0.3,1.1-0.5c0.5,0,1-0.1,1.5-0.1c0,1,0,1.7-0.1,2.4c-0.7,0-1.4,0-2.1,0.1
		C30.2,86.8,29.8,86.8,29.7,86.7L29.7,86.7C29.7,86.7,29.7,86.7,29.7,86.7z"/>
	<path fill="#FFFFFF" d="M26.4,98.6h-1.6c0,0,1-0.7,1.9-0.8c0.1,0-1.5-0.7-2.4-0.8c-0.9-0.1-1.5-0.2-1.5-0.2v-3.8c0,0-0.4-0.4-0.4-0.6
		c0-0.2-0.2-0.2-0.3-0.3c0-0.2-0.2-0.1-0.2-0.3c0-0.2-0.1-0.6,0.1-0.8c0.2-0.2,0.3-0.8,1.3-1.2c1-0.4,2.9-0.9,3.9-1
		c1-0.1,4.9-0.8,10-0.5c5.1,0.3,9.1,1.4,9.1,2.8c0,1-0.1,0.3-0.1,0.6c-0.1,0.3,0.4-0.9-0.8-1.5c-1-0.5-3-1-4.4-1.2
		c-1.4-0.2-2.3-0.4-4.5-0.4c-2.3-0.1-2.2-0.1-3.3,0c-1.1,0-2.1,0-3.5,0.3c-0.7,0.1-0.2,0.2,0.2,0.2c3-0.2,5.6-0.2,6.9-0.1
		c1.2,0,4.4,0.2,6.4,0.8c1.9,0.5,2.5,0.8,2.8,1.2c0.4,0.4,0.4,0.8,0.3,1c0,0.2-0.1-0.2-0.4-0.6c-0.2-0.4-0.7-0.7-1.8-1
		c-0.9-0.3-1.5-0.5-3.6-0.7c-2.3-0.2-2.1-0.3-3.5-0.3c-1.3,0-1.8-0.1-4.3,0c-2.5,0.1-1.7,0-3.1,0.1c-1.4,0.1-1.1,0.4-0.2,0.4
		c0.9,0,5.6-0.6,10.3,0.1c4.7,0.6,5.6,1.4,5.9,1.7c0.4,0.4,0.4,0.5,0.3,0.7c-0.1,0.2-0.2,0.2-0.4,0.5L45,91.9c0,0-0.1-0.4-1.2-0.7
		c-1.6-0.4-1.4-0.6-4.1-0.9C37,90,36.6,90,34.3,90c-2.3,0-3.1,0-4.6,0.1c-1.5,0.2-1.1,0.1-1.9,0.2c-0.8,0.2-0.7,2,0.1,2
		c0.8,0,1.9-0.2,4.3-0.2s0.6,0.2,0.1,0.2c-0.5,0-2.3,0.1-3.3,0.2c-1.1,0.1-0.8-0.1-1.2,0.2c-0.4,0.3-0.8,2.1,0,2
		c0.8-0.1,2.1-0.4,3.4-0.4c1.4,0,1.5-0.1,1.9,0c0.4,0-0.7-0.1-2.3,0.6c-0.9,0.4-1.3,0.6-1.8,1c-0.6,0.4-1.3,0.9-1.8,1.4
		C26.8,97.9,26.4,98.6,26.4,98.6z"/>
	<path fill="#FFFFFF" d="M13.1,75.3c0.4,0.2,0.6,0.1,0.7-0.2l0.2,0.1l-0.8,1.6l-0.2-0.1c0.2-0.3,0.1-0.5-0.3-0.7l-2.8-1.4l0,0l3,2.7
		l-0.1,0.2L9,76.9l0,0l2.2,1.1c0.9,0.4,1,0.4,1.2,0l0.2,0.1L12,79.3l-0.2-0.1c0.1-0.4,0.1-0.5-0.8-1l-2.1-1
		c-0.4-0.2-0.6-0.1-0.7,0.2l-0.2-0.1L8.7,76l2.8,0.5l-2.1-2l0.6-1.3l0.2,0.1c-0.1,0.3-0.1,0.5,0.3,0.7L13.1,75.3z"/>
	<path fill="#FFFFFF" d="M11.6,72.6c-0.3-0.3-0.5-0.2-0.7,0.1l-0.2-0.1l1.1-1.4l0.2,0.1c-0.2,0.3-0.2,0.5,0.1,0.7l2.3,1.8
		c0.3,0.3,0.5,0.2,0.7-0.1l0.2,0.1l-1.1,1.4L14,75.1c0.2-0.3,0.2-0.5-0.1-0.7L11.6,72.6z"/>
	<path fill="#FFFFFF" d="M15,69.5l-0.1,0.2c-0.5-0.2-1.3-0.3-1.7,0.1c-0.3,0.2-0.3,0.6,0,0.9c0.3,0.4,0.7,0.1,1.1,0l0.3-0.1
		c0.6-0.3,1.3-0.4,1.9,0.2c0.6,0.6,0.6,1.4,0.1,1.9c-0.2,0.2-0.3,0.3-0.6,0.4c-0.1,0-0.2,0.1-0.2,0.1c-0.1,0.1-0.1,0.1-0.2,0.5
		l-1.2-0.8l0.1-0.2c0.6,0.2,1.4,0.3,1.9-0.1c0.3-0.3,0.3-0.7,0-1.1c-0.3-0.4-0.7-0.2-1.1,0c-0.7,0.3-1.5,0.7-2.2-0.1
		c-0.5-0.5-0.5-1.3-0.1-1.7c0.2-0.1,0.3-0.2,0.5-0.3c0.1,0,0.1-0.1,0.2-0.1c0.1-0.1,0.1-0.3,0.1-0.4L15,69.5z"/>
	<path fill="#FFFFFF" d="M17.7,67.5l-0.1,0.2c-0.5-0.2-1.3-0.4-1.7-0.1c-0.3,0.2-0.4,0.6-0.1,0.9c0.3,0.4,0.7,0.2,1.1,0.2l0.3-0.1
		c0.6-0.2,1.3-0.3,1.9,0.5c0.5,0.7,0.3,1.5-0.2,1.9c-0.2,0.1-0.4,0.2-0.6,0.3c-0.1,0-0.2,0-0.2,0.1c-0.1,0.1-0.1,0.1-0.3,0.4
		l-1.1-0.9l0.1-0.2c0.6,0.3,1.4,0.5,1.9,0.2c0.3-0.2,0.4-0.7,0.2-1.1c-0.3-0.4-0.7-0.3-1-0.2c-0.7,0.2-1.6,0.4-2.2-0.4
		c-0.4-0.6-0.3-1.3,0.2-1.7c0.2-0.1,0.3-0.2,0.5-0.2c0.1,0,0.1,0,0.2-0.1c0.1-0.1,0.2-0.3,0.2-0.4L17.7,67.5z"/>
	<path fill="#FFFFFF" d="M18.4,66.6c-0.2-0.4-0.4-0.4-0.7-0.2l-0.1-0.2l1.6-0.9l0.1,0.2c-0.3,0.2-0.4,0.4-0.2,0.7l1.4,2.5
		c0.2,0.4,0.4,0.4,0.7,0.2l0.1,0.2L19.7,70l-0.1-0.2c0.3-0.2,0.4-0.4,0.2-0.7L18.4,66.6z"/>
	<path fill="#FFFFFF" d="M22.5,65l-0.1,0.1c-0.4-0.3-1.1-0.7-1.6-0.5c-0.3,0.1-0.5,0.5-0.3,0.9c0.2,0.4,0.7,0.4,1,0.4l0.3,0
		c0.7,0,1.4,0,1.7,0.8c0.3,0.8,0,1.5-0.6,1.8c-0.2,0.1-0.4,0.1-0.6,0.1c-0.1,0-0.2,0-0.3,0c-0.1,0-0.1,0.1-0.3,0.4l-0.9-1.1l0.2-0.2
		c0.5,0.4,1.2,0.8,1.8,0.6c0.3-0.1,0.6-0.6,0.4-1c-0.2-0.4-0.6-0.4-1-0.4c-0.7,0-1.6,0.1-2-0.8c-0.3-0.7,0-1.4,0.5-1.6
		c0.2-0.1,0.4-0.1,0.6-0.1c0.1,0,0.2,0,0.2,0c0.1-0.1,0.2-0.2,0.3-0.4L22.5,65z"/>
	<path fill="#FFFFFF" d="M25.7,64l-0.2,0.1c-0.4-0.4-1.1-0.8-1.5-0.7c-0.3,0.1-0.5,0.4-0.4,0.8c0.1,0.5,0.6,0.5,1,0.5l0.3,0
		c0.7,0,1.4,0.2,1.6,1c0.2,0.8-0.1,1.5-0.8,1.7c-0.2,0.1-0.4,0.1-0.7,0.1c-0.1,0-0.2,0-0.3,0c-0.1,0-0.1,0.1-0.4,0.3l-0.7-1.2
		l0.2-0.1c0.5,0.5,1.1,0.9,1.7,0.8c0.4-0.1,0.6-0.5,0.5-1c-0.1-0.5-0.6-0.5-0.9-0.5c-0.7,0-1.6-0.1-1.9-1.1
		c-0.2-0.7,0.1-1.4,0.7-1.5c0.2-0.1,0.4-0.1,0.6-0.1c0.1,0,0.1,0,0.2,0c0.1,0,0.3-0.2,0.3-0.3L25.7,64z"/>
	<path fill="#FFFFFF" d="M26.6,63.4c-0.1-0.4-0.2-0.5-0.6-0.4l0-0.2l1.8-0.4l0,0.2c-0.4,0.1-0.5,0.2-0.4,0.6L28,66
		c0.1,0.4,0.2,0.5,0.6,0.4l0,0.2L26.9,67l0-0.2c0.4-0.1,0.5-0.2,0.4-0.6L26.6,63.4z"/>
	<path fill="#FFFFFF" d="M29.9,64.4l0.2,1.3c0.1,0.4,0.2,0.5,0.6,0.5l0,0.2l-1.8,0.2l0-0.2c0.4,0,0.5-0.2,0.4-0.6l-0.3-2.9
		c-0.1-0.4-0.2-0.5-0.6-0.5l0-0.2l1.8-0.2c1.1-0.1,1.6,0.4,1.7,1c0.1,1.1-0.8,1.3-1.5,1.4L29.9,64.4z M29.9,64.2l0.3,0
		c0.6-0.1,0.9-0.4,0.8-1.1c-0.1-0.6-0.4-0.9-0.9-0.8c-0.4,0-0.4,0.2-0.3,0.6L29.9,64.2z"/>
	<path fill="#FFFFFF" d="M33.1,64.1l0,1.3c0,0.4,0.1,0.5,0.5,0.5l0,0.2l-1.8,0l0-0.2c0.4,0,0.5-0.1,0.5-0.6l-0.1-2.9
		c0-0.4-0.1-0.5-0.5-0.5l0-0.2l1.8,0c1.1,0,1.6,0.5,1.6,1.1c0,1.1-0.9,1.2-1.6,1.2L33.1,64.1z M33.1,63.9l0.3,0c0.6,0,0.9-0.3,0.9-1
		c0-0.7-0.3-0.9-0.8-0.9c-0.4,0-0.4,0.2-0.4,0.6L33.1,63.9z"/>
	<path fill="#FFFFFF" d="M36,62.5c0-0.4-0.1-0.6-0.5-0.6l0-0.2l1.8,0.1l0,0.2c-0.4,0-0.5,0.1-0.5,0.5l-0.2,2.9c0,0.4,0.1,0.6,0.5,0.6
		l0,0.2l-1.8-0.1l0-0.2c0.4,0,0.5-0.1,0.5-0.5L36,62.5z"/>
	<path fill="#FFFFFF" d="M44.5,64.6l-0.2,0c-0.1-0.6-0.3-1.3-0.9-1.5c-0.7-0.2-1.2,0.9-1.4,1.5c-0.4,1.4,0,2.1,0.6,2.3
		c0.5,0.1,0.9-0.2,1.3-0.5l0.1,0.1c-0.5,0.6-1.1,0.9-1.8,0.7c-1-0.3-1.4-1.4-1.1-2.5c0.3-1.2,1.3-2.2,2.4-1.9c0.2,0,0.3,0.1,0.4,0.2
		c0.1,0.1,0.2,0.2,0.3,0.2c0.1,0,0.3,0,0.4,0l0.1,0L44.5,64.6z"/>
	<path fill="#FFFFFF" d="M44.4,65.6c0.5-1.2,1.6-1.9,2.6-1.5c1.1,0.4,1.4,1.6,0.8,2.8c-0.5,1.1-1.6,1.9-2.6,1.4
		C44.2,68,43.9,66.8,44.4,65.6z M45.2,65.9c-0.6,1.4-0.5,2.1,0,2.3c0.9,0.4,1.4-0.8,1.7-1.5c0.6-1.4,0.4-2.1-0.1-2.3
		C46.4,64.2,45.8,64.6,45.2,65.9z"/>
	<path fill="#FFFFFF" d="M46.9,68.8c0.3,0.2,0.5,0.1,0.7-0.2l1.5-2.5c0.2-0.4,0.2-0.5-0.1-0.7l0.1-0.2l1.6,0.9l-0.1,0.2
		c-0.3-0.2-0.5-0.1-0.7,0.2L48.3,69c-0.2,0.3-0.3,0.4,0.1,0.6c0.5,0.3,1.2,0.2,1.8-0.1l0.1,0.1l-0.9,0.9L46.8,69L46.9,68.8z"/>
	<path fill="#FFFFFF" d="M49.8,70.5c0.3,0.2,0.5,0.2,0.7-0.1l1.8-2.2c0.3-0.3,0.3-0.5,0-0.7l0.1-0.2l1.4,1.2l-0.1,0.2
		c-0.3-0.2-0.5-0.2-0.7,0.1l-1.8,2.2c-0.2,0.3-0.3,0.4,0,0.6c0.5,0.4,1.2,0.4,1.8,0.2l0.1,0.1l-1,0.7l-2.4-1.9L49.8,70.5z"/>
	<path fill="#FFFFFF" d="M52.3,72.7c0.2,0.3,0.4,0.3,0.7,0l2.2-1.9c0.3-0.3,0.3-0.5,0.1-0.7l0.2-0.1l2,2.3l-0.6,1l-0.2-0.1
		c0.2-0.6,0.2-1.3-0.2-1.7c-0.3-0.3-0.4-0.2-0.8,0.1l-0.9,0.8l0.1,0.1c0.3,0.4,0.6,0.5,1.1,0.2l0.1,0.2l-1.3,1.1l-0.1-0.2
		c0.4-0.5,0.3-0.8,0-1.2l-0.1-0.1l-1,0.8c-0.3,0.2-0.4,0.4-0.2,0.7c0.4,0.5,1.1,0.6,1.8,0.6l0,0.2l-1.1,0.4l-2-2.3L52.3,72.7z"/>
	<path fill="#FFFFFF" d="M58.8,76.5l-0.1-0.1c0.4-0.8,0.6-1.2,0.3-1.6c-0.2-0.4-1-0.6-2.3,0.2c-1.3,0.8-1.6,1.4-1.3,1.9
		c0.3,0.5,0.7,0.3,1.2,0c0.4-0.2,0.4-0.4,0.2-0.7l0.2-0.1l0.9,1.5l-0.2,0.1c-0.3-0.3-0.4-0.3-0.8-0.1L56.2,78
		c-0.2-0.3-0.2-0.3-0.5-0.5c-0.2-0.2-0.4-0.3-0.5-0.6c-0.5-0.9-0.1-2,1-2.6c1.1-0.6,2.5-0.6,3.1,0.4c0.1,0.1,0.1,0.3,0.1,0.4
		c0,0.1,0,0.2,0.1,0.3c0.1,0.1,0.2,0.2,0.4,0.3L58.8,76.5z"/>
	<path fill="#FFFFFF" d="M56.3,78.4c0.1,0.3,0.3,0.4,0.7,0.3l2.8-0.9c0.4-0.1,0.5-0.3,0.4-0.6l0.2-0.1l0.9,2.9l-1,0.7l-0.1-0.1
		c0.4-0.5,0.7-1.1,0.5-1.7c-0.1-0.4-0.3-0.4-0.7-0.2L58.8,79l0,0.1c0.2,0.5,0.3,0.7,1,0.6l0.1,0.2l-1.6,0.5l-0.1-0.2
		c0.5-0.3,0.6-0.6,0.4-1.1l0-0.1l-1.2,0.4c-0.3,0.1-0.5,0.2-0.4,0.6c0.2,0.6,0.8,1,1.4,1.2l0,0.2l-1.2,0l-0.9-2.9L56.3,78.4z"/>
	<path fill="#FFFFFF" d="M30.5,136.9c-0.1,0.5-0.1,0.6,0.5,0.7l0,0.2l-1.9-0.3l0-0.2c0.5,0,0.7,0,0.8-0.7l0.2-1.5
		c0.1-0.4-0.1-0.7-0.5-0.8l0-0.2c0.5,0,0.9-0.1,1.4-0.3L30.5,136.9z"/>
	<path fill="#FFFFFF" d="M33.9,136.9c0,0.5-0.5,1.1-1.5,1.1c-0.5,0-1.3-0.3-1.2-1.1c0-0.5,0.5-0.7,0.8-0.9c-0.3-0.2-0.5-0.5-0.4-0.9
		c0.1-0.8,0.7-1.1,1.3-1c0.4,0,1.1,0.3,1,0.9c0,0.4-0.4,0.6-0.7,0.7C33.6,136.1,33.9,136.4,33.9,136.9z M33.3,135
		c0-0.4-0.3-0.7-0.6-0.7c-0.2,0-0.6,0.1-0.6,0.4c0,0.5,0.5,0.7,0.8,0.9C33.2,135.5,33.3,135.4,33.3,135z M32.2,136.2
		c-0.2,0.2-0.3,0.4-0.4,0.7c0,0.6,0.3,0.9,0.7,0.9c0.3,0,0.7-0.2,0.7-0.6c0-0.5-0.4-0.6-0.7-0.8L32.2,136.2z"/>
	<path fill="#FFFFFF" d="M35.8,137.4c0.5,0,0.6-0.1,0.8-0.6l0.2,0l-0.2,1.2l-2.3,0.1l0-0.3c0.2-0.4,0.5-0.8,1-1.3
		c0.4-0.4,0.7-0.8,0.6-1.4c0-0.4-0.2-0.7-0.6-0.7c-0.2,0-0.4,0.1-0.4,0.4c0,0.1,0,0.3,0,0.4c0,0.2-0.2,0.4-0.4,0.4
		c-0.2,0-0.4-0.2-0.4-0.4c0-0.3,0.2-1,1.2-1c0.9,0,1.2,0.6,1.2,1c0,0.4,0,0.7-1,1.5c-0.3,0.2-0.6,0.4-0.8,0.7L35.8,137.4z"/>
	<path fill="#FFFFFF" d="M38.7,135.3c0.6-0.1,1,0.4,1,1c0.1,0.9-0.4,1.4-1.1,1.5c-0.8,0.1-1.4-0.7-1.5-1.6c-0.1-0.9,0.3-2.2,1.3-2.3
		c0.3,0,0.8,0,0.9,0.5c0,0.2-0.1,0.4-0.3,0.4c-0.5,0.1-0.3-0.7-0.7-0.6c-0.3,0-0.6,0.4-0.4,1.8C38,135.7,38.3,135.4,38.7,135.3z
		 M38.6,137.6c0.4-0.1,0.5-0.7,0.4-1.1c0-0.4-0.2-0.8-0.6-0.8c-0.3,0-0.5,0.3-0.6,0.6C37.9,136.8,38.1,137.7,38.6,137.6z"/>
	<path fill="#FFFFFF" d="M23.4,123.9h0.4l-0.5,2.2h-0.5l-0.5-2.2h0.4l0.3,1.4c0,0.1,0,0.2,0,0.4c0,0.1,0,0.1,0,0.2h0c0-0.1,0-0.1,0-0.2
		c0-0.1,0-0.3,0-0.4L23.4,123.9z"/>
	<path fill="#FFFFFF" d="M24,126.1v-2.2h1.2v0.3h-0.7v0.6h0.7v0.3h-0.7v0.7h0.7v0.3H24z"/>
	<path fill="#FFFFFF" d="M25.9,125.1v0.9h-0.4v-2.2h0.8c0.4,0,0.6,0.1,0.6,0.5c0,0.2-0.1,0.5-0.3,0.5v0c0.2,0,0.3,0.2,0.3,0.4
		c0,0.1,0,0.6,0.1,0.7v0h-0.4c0-0.1,0-0.4,0-0.6c0-0.1,0-0.3-0.1-0.4C26.2,125.1,26.1,125.1,25.9,125.1L25.9,125.1z M25.9,124.8h0.3
		c0.1,0,0.2-0.1,0.2-0.3c0-0.2-0.1-0.3-0.3-0.3h-0.3V124.8z"/>
	<path fill="#FFFFFF" d="M27.3,126.1v-2.2h0.4v2.2H27.3z"/>
	<path fill="#FFFFFF" d="M28,123.9h1.4v0.3h-0.5v1.9h-0.4v-1.9H28V123.9z"/>
	<path fill="#FFFFFF" d="M29.3,126.1l0.5-2.2h0.6l0.5,2.2h-0.4l-0.1-0.6h-0.5l-0.1,0.6H29.3z M29.9,125.2h0.4l-0.1-0.6
		c0-0.1,0-0.2,0-0.3c0,0,0-0.1,0-0.1h0c0,0,0,0.1,0,0.1c0,0.1,0,0.2,0,0.3L29.9,125.2z"/>
	<path fill="#FFFFFF" d="M31.9,124.6c0-0.2,0-0.4-0.2-0.4c-0.1,0-0.2,0.1-0.2,0.2c0,0.2,0.1,0.2,0.2,0.3c0.1,0.1,0.4,0.2,0.5,0.4
		c0.1,0.1,0.2,0.3,0.2,0.5c0,0.4-0.3,0.6-0.7,0.6c-0.5,0-0.7-0.3-0.7-0.7v-0.2h0.4v0.1c0,0.2,0.1,0.4,0.3,0.4c0.2,0,0.3-0.1,0.3-0.3
		c0-0.1-0.1-0.2-0.2-0.3c-0.2-0.2-0.5-0.3-0.6-0.5c-0.1-0.1-0.1-0.2-0.1-0.3c0-0.4,0.2-0.6,0.6-0.6c0.7,0,0.6,0.5,0.6,0.7H31.9z"/>
	<path fill="#FFFFFF" d="M33.4,126.1v-2.2h1.2v0.3h-0.7v0.6h0.7v0.3h-0.7v0.7h0.7v0.3H33.4z"/>
	<path fill="#FFFFFF" d="M34.7,123.9h1.4v0.3h-0.5v1.9h-0.4v-1.9h-0.5V123.9z"/>
	<path fill="#FFFFFF" d="M38,123.9h0.4l-0.5,2.2h-0.5l-0.5-2.2h0.4l0.3,1.4c0,0.1,0,0.2,0,0.4c0,0.1,0,0.1,0,0.2h0c0-0.1,0-0.1,0-0.2
		c0-0.1,0-0.3,0-0.4L38,123.9z"/>
	<path fill="#FFFFFF" d="M38.8,126.1v-2.2h0.4v2.2H38.8z"/>
	<path fill="#FFFFFF" d="M40.2,125.1v0.9h-0.4v-2.2h0.8c0.4,0,0.6,0.1,0.6,0.5c0,0.2-0.1,0.5-0.3,0.5v0c0.2,0,0.3,0.2,0.3,0.4
		c0,0.1,0,0.6,0.1,0.7v0h-0.4c0-0.1,0-0.4,0-0.6c0-0.1,0-0.3-0.1-0.4C40.5,125.1,40.4,125.1,40.2,125.1L40.2,125.1z M40.2,124.8h0.3
		c0.1,0,0.2-0.1,0.2-0.3c0-0.2-0.1-0.3-0.3-0.3h-0.3V124.8z"/>
	<path fill="#FFFFFF" d="M41.4,123.9h1.4v0.3h-0.5v1.9h-0.4v-1.9h-0.5V123.9z"/>
	<path fill="#FFFFFF" d="M44,123.9h0.4v1.5c0,0.5-0.2,0.7-0.7,0.7c-0.5,0-0.7-0.2-0.7-0.7v-1.5h0.4v1.5c0,0.2,0,0.4,0.3,0.4
		c0.3,0,0.3-0.2,0.3-0.4V123.9z"/>
	<path fill="#FFFFFF" d="M45.7,124.6c0-0.2,0-0.4-0.2-0.4c-0.1,0-0.2,0.1-0.2,0.2c0,0.2,0.1,0.2,0.2,0.3c0.1,0.1,0.4,0.2,0.5,0.4
		c0.1,0.1,0.2,0.3,0.2,0.5c0,0.4-0.3,0.6-0.7,0.6c-0.5,0-0.7-0.3-0.7-0.7v-0.2h0.4v0.1c0,0.2,0.1,0.4,0.3,0.4c0.2,0,0.3-0.1,0.3-0.3
		c0-0.1-0.1-0.2-0.2-0.3c-0.2-0.2-0.5-0.3-0.6-0.5c-0.1-0.1-0.1-0.2-0.1-0.3c0-0.4,0.2-0.6,0.6-0.6c0.7,0,0.6,0.5,0.6,0.7H45.7z"/>
	<path fill="#FFFFFF" d="M70.6,140l0-0.3c0.1,0,0.2,0,0.3-0.1c0.2,0,0.4-0.1,0.4-0.1c0.1,0,0.1-0.1,0.2-0.3l0.9-2.4l1.1-2.9
		c0.1,0,0.2,0,0.3,0h0.2l0,0.1l0.8,1.9c0.2,0.4,0.3,0.8,0.5,1.2s0.3,0.7,0.4,0.9c0.1,0.1,0.1,0.4,0.3,0.6c0.1,0.2,0.1,0.4,0.3,0.6
		c0.1,0.1,0.1,0.2,0.1,0.2c0.1,0,0.1,0.1,0.3,0.1c0.1,0,0.3,0.1,0.4,0.1c0,0.1,0,0.2,0,0.2c0,0,0,0.1,0,0.1c-0.2,0-0.5,0-0.7,0
		c-0.3,0-0.5,0-0.7,0c-0.2,0-0.4,0-0.5,0l-0.8,0l-0.2,0c0-0.1,0-0.2,0-0.3l0.5-0.1c0.2,0,0.2-0.1,0.3-0.1c0,0,0-0.1,0-0.1
		c0,0,0-0.1,0-0.1l-0.2-0.4l-0.4-0.9l-1.8,0c-0.1,0.1-0.2,0.5-0.4,1.1c-0.1,0.2-0.1,0.3-0.1,0.3c0,0.1,0,0.1,0.1,0.2
		c0.1,0.1,0.2,0.1,0.4,0.1c0,0,0.1,0,0.3,0.1c0,0.1,0,0.2,0,0.2c0,0,0,0.1,0,0.1c-0.2,0-0.6,0-1.4-0.1l-0.2,0
		C71.1,140,70.9,140,70.6,140L70.6,140z M72.8,137.4c0.7,0,1.1,0,1.3,0l0.1,0c-0.1-0.3-0.2-0.6-0.4-1c-0.1-0.4-0.3-0.6-0.4-0.8
		L72.8,137.4z"/>
	<path fill="#FFFFFF" d="M84.9,134.1c0,0.1,0.1,0.4,0.2,0.8c0.1,0.2,0.1,0.4,0.1,0.6h-0.4c-0.3-0.4-0.6-0.7-0.9-0.9
		c-0.3-0.2-0.7-0.3-1-0.3c-0.5,0-0.9,0.2-1.1,0.6c-0.4,0.5-0.6,1.2-0.6,2.1c0,0.5,0,0.9,0.1,1.1c0.1,0.4,0.2,0.7,0.4,0.9
		c0.1,0.2,0.3,0.3,0.5,0.4c0.3,0.1,0.6,0.2,0.9,0.2c0.3,0,0.7-0.1,1-0.3c0.3-0.2,0.6-0.5,0.9-0.9c0.1,0,0.3,0,0.4,0
		c0,0.1,0,0.2-0.1,0.4c0,0,0,0.2-0.1,0.6l0,0.1l-0.1,0.2c-0.2,0.1-0.4,0.3-0.8,0.3c-0.3,0.1-0.8,0.1-1.2,0.1c-0.4,0-0.7,0-1.1-0.1
		c-0.3-0.1-0.6-0.2-0.9-0.3c-0.3-0.2-0.6-0.5-0.8-0.7c-0.2-0.3-0.3-0.5-0.4-0.8c-0.1-0.3-0.1-0.6-0.1-1c0-0.9,0.3-1.7,0.9-2.3
		c0.6-0.6,1.4-0.9,2.3-0.9c0.4,0,0.7,0,1.1,0.1C84.3,134,84.6,134.1,84.9,134.1z"/>
	<path fill="#FFFFFF" d="M85.9,140c0-0.1,0-0.2,0-0.3l0.6-0.1c0.1,0,0.2,0,0.3-0.1l0.1-1.1c0-0.4,0-0.7,0-0.9l0-0.1c0-0.1,0-0.4,0-0.9
		l0-0.1l0-0.4l0-0.4v-0.2c0-0.2,0-0.4,0-0.6c0,0,0-0.1,0-0.1c0,0-0.1,0-0.1,0c0,0-0.1,0-0.1,0c-0.1,0-0.2,0-0.4,0l-0.1,0
		c-0.1,0-0.1,0-0.2,0c0-0.1,0-0.1,0-0.2c0,0,0-0.1,0-0.2c0.1,0,0.1,0,0.3,0c0.1,0,0.2,0,0.2,0c0.4,0,0.7,0.1,0.8,0.1
		c0.1,0,0.2,0,0.3,0c0.1,0,0.2,0,0.2,0c0.1,0,0.3,0,0.7,0c0.1,0,0.1,0,0.2,0c0.1,0,0.2,0,0.3,0c0,0.1,0,0.1,0,0.1c0,0,0,0.1,0,0.2
		l-0.8,0.1c-0.1,0-0.1,0.1-0.1,0.1l0,0.2l0,0.1l0,0.2l0,0.2v0c0,0,0,0.1,0,0.1l0,0.6c0,0.1,0,0.1,0,0.1c0,0,0,0.1,0,0.1
		c0,0,0,0.1,0,0.2c0,0,0,0.2,0,0.3c0.1,0,0.2,0,0.2,0l0.7,0h0.3l0.8,0l0.8,0c0.1,0,0.2,0,0.3,0c0-0.1,0-0.4,0-0.8l0-0.2l0-0.8l0-0.3
		c0,0,0,0-0.1-0.1c-0.1-0.1-0.3-0.1-0.6-0.2c-0.1,0-0.1,0-0.2,0c0-0.1,0-0.2,0-0.3c0.1,0,0.1,0,0.1,0l0.4,0c0.3,0,0.6,0.1,0.9,0.1
		c0.1,0,0.1,0,0.2,0l0.6,0c0.1,0,0.1,0,0.2,0c0.1,0,0.2,0,0.3,0c0.1,0,0.2,0,0.3,0c0,0.1,0,0.2,0,0.3c-0.3,0.1-0.5,0.1-0.5,0.1
		c-0.1,0-0.2,0.1-0.3,0.1l0,0.1v0.1l0,0.1l0,0.1c0,0.1,0,0.1,0,0.1v0.1c0,0.1,0,0.2,0,0.2v0.6l0,0.4l0,0.6c0,0.1,0,0.4,0,0.8v0.7
		l0,0.5c0,0.1,0,0.2,0,0.4c0.1,0,0.1,0,0.2,0c0.3,0.1,0.5,0.1,0.6,0.2l0,0.3c-0.1,0-0.2,0-0.2,0c-0.1,0-0.3,0-0.5,0
		c-0.3,0-0.7,0-1.2,0c-0.3,0-0.6,0-1,0.1c0,0-0.1,0-0.2,0c0-0.1,0-0.2,0-0.3l0.4-0.1l0.4-0.1c0,0,0.1,0,0.1,0c0-0.2,0.1-0.7,0.1-1.2
		l0-0.4c0-0.2,0-0.4,0-0.6c-0.1,0-0.2,0-0.4,0l-2.1,0l0,0l0,0c0,0,0,0-0.1,0c-0.1,0-0.1,0-0.2,0h-0.1c-0.1,0-0.1,0-0.2,0l0,0.3v0.1
		c0,0.1,0,0.1,0,0.2v1.4c0,0.1,0,0.2,0,0.2l0,0l0.7,0.1c0,0,0.1,0,0.1,0c0,0,0.1,0,0.1,0c0,0.1,0,0.1,0,0.1c0,0,0,0.1,0,0.2
		c-0.1,0-0.2,0-0.3,0c-0.1,0-0.1,0-0.2,0c0,0-0.1,0-0.1,0l-0.6,0c-0.2,0-0.4,0-0.6,0l-0.1,0c-0.1,0-0.2,0-0.2,0
		C86.6,140,86.3,140,85.9,140z"/>
	<path fill="#FFFFFF" d="M94.1,139.7c0.1,0,0.2-0.1,0.4-0.1c0.2,0,0.3-0.1,0.4-0.1c0-0.1,0-0.1,0-0.1c0,0,0-0.2,0-0.4l0-1l0-0.6l0-0.4
		l0-0.2c0-0.3,0-0.6,0-0.9c0-0.6,0-1,0-1.2l-0.3-0.1c-0.2,0-0.4,0-0.5,0l0-0.3l0-0.1c0.2,0,0.3,0,0.4,0c0.1,0,0.2,0,0.4,0
		c0.2,0,0.3,0,0.4,0l0.2,0l0.6,0c0.4,0,0.7-0.1,1.1-0.1c0.6,0,1.1,0.2,1.5,0.5c0.4,0.3,0.6,0.7,0.6,1.1c0,0.3-0.1,0.6-0.3,0.8
		c-0.2,0.3-0.5,0.4-0.9,0.6c0,0.1,0.1,0.1,0.1,0.2c0.1,0.2,0.2,0.3,0.3,0.5l0.7,1.2c0.2,0.3,0.3,0.5,0.4,0.6
		c0.1,0.1,0.2,0.1,0.4,0.2c0.1,0.1,0.2,0.1,0.3,0.2c0,0.1,0,0.1,0,0.1c0,0,0,0.1,0,0.1h-0.1l-0.1,0l-0.2,0h-0.2c-0.1,0-0.2,0-0.4,0
		l-0.5,0c0,0-0.1,0-0.3,0c-0.1,0-0.1,0-0.2,0l-0.2-0.3c-0.1-0.2-0.2-0.4-0.3-0.5c-0.1-0.3-0.4-0.8-0.7-1.4c-0.2-0.3-0.3-0.5-0.3-0.5
		c-0.1-0.1-0.2-0.1-0.5-0.1c-0.1,0-0.2,0-0.3,0c0,0.1,0,0.2,0,0.3l0,1l0,0.9c0.1,0.1,0.2,0.1,0.3,0.1c0.2,0,0.4,0.1,0.6,0.2
		c0,0.1,0,0.3,0,0.3c-0.1,0-0.1,0-0.1,0l-0.2,0c-0.7-0.1-1-0.1-1.2-0.1c-0.1,0-0.1,0-0.2,0l-0.6,0c-0.2,0-0.4,0-0.5,0h-0.2
		c0-0.1,0-0.1,0-0.1C94.1,139.8,94.1,139.8,94.1,139.7z M96.2,136.7c0.1,0,0.3,0,0.3,0c0.5,0,0.9-0.1,1.1-0.3
		c0.2-0.2,0.3-0.4,0.3-0.7c0-0.2,0-0.4-0.1-0.5c-0.1-0.2-0.1-0.3-0.2-0.4c-0.1-0.1-0.3-0.2-0.4-0.3c-0.1,0-0.3-0.1-0.6-0.1
		c-0.1,0-0.3,0-0.4,0l0,0.1l0,0.6l0,0.4l0,0.5c0,0.1,0,0.3,0,0.5V136.7z"/>
	<path fill="#FFFFFF" d="M100.7,140v-0.3c0.1,0,0.2,0,0.3-0.1c0.2,0,0.3-0.1,0.4-0.2c0.1-0.1,0.1-0.2,0.1-0.4l0-0.5l0-1l0-0.2
		c0-0.6,0-0.9,0-0.9l0-0.6l0-0.2l0-0.5l0-0.2c0,0,0-0.1,0-0.1c-0.1-0.1-0.3-0.1-0.6-0.1c-0.1,0-0.1,0-0.2,0l0-0.4l1.3,0.1
		c0.2,0,0.3,0,0.3,0c0.2,0,0.5,0,0.9,0c0.2,0,0.4,0,0.4,0c0,0.1,0,0.1,0,0.1c0,0.1,0,0.1,0,0.2c-0.1,0-0.3,0.1-0.4,0.1
		c-0.2,0-0.3,0.1-0.4,0.1c0,0.1,0,0.2,0,0.3c0,0.1,0,0.2,0,0.3c0,0.5,0,0.9,0,1.2l0,1.2l0,0.6l0,0.9l0,0.2c0,0,0,0.1,0,0.1
		c0.2,0,0.4,0.1,0.5,0.1c0,0,0.1,0,0.3,0c0,0.1,0,0.2,0,0.2c0,0,0,0.1,0,0.2c0,0-0.1,0-0.1,0c-0.1,0-0.2,0-0.2,0c0,0-0.1,0-0.1,0
		c0,0-0.2,0-0.6-0.1l-0.8,0c-0.2,0-0.4,0-0.7,0C100.9,140,100.7,140,100.7,140z"/>
	<path fill="#FFFFFF" d="M107.9,134.2c0,0.1,0.1,0.3,0.1,0.5c0,0.3,0.1,0.6,0.1,0.7c0,0.1,0,0.1,0,0.2l0,0l-0.3,0l-0.1,0
		c-0.1-0.4-0.3-0.7-0.4-0.8c-0.2-0.2-0.5-0.4-0.8-0.4c-0.3,0-0.5,0.1-0.7,0.2c-0.2,0.2-0.3,0.4-0.3,0.6c0,0.2,0.1,0.4,0.3,0.6
		c0.2,0.2,0.5,0.4,1.1,0.5c0.2,0.1,0.4,0.1,0.7,0.3c0.3,0.1,0.5,0.3,0.6,0.4c0.2,0.2,0.3,0.4,0.4,0.5c0.1,0.2,0.1,0.4,0.1,0.7
		c0,0.3-0.1,0.6-0.2,0.8c-0.1,0.1-0.2,0.3-0.3,0.4c-0.1,0.1-0.2,0.2-0.4,0.3c-0.2,0.1-0.4,0.2-0.6,0.3s-0.5,0.1-0.8,0.1
		c-0.2,0-0.5,0-0.8-0.1l-0.6-0.2c-0.2,0-0.2-0.1-0.3-0.1c0,0,0,0,0-0.1v-0.1c0,0,0-0.2,0-0.6c0-0.2,0-0.3,0-0.4v-0.2l0.4,0
		c0.1,0.3,0.2,0.5,0.3,0.6c0.1,0.2,0.2,0.3,0.3,0.4c0.1,0.1,0.3,0.2,0.4,0.2c0.2,0.1,0.3,0.1,0.5,0.1c0.2,0,0.3,0,0.5-0.1
		c0.2-0.1,0.4-0.2,0.5-0.3c0.1-0.2,0.2-0.3,0.2-0.5c0-0.2-0.1-0.4-0.3-0.6c-0.1-0.1-0.5-0.3-1-0.5s-1-0.4-1.2-0.5
		c-0.2-0.2-0.4-0.4-0.5-0.6c-0.1-0.3-0.2-0.5-0.2-0.8c0-0.5,0.2-0.9,0.5-1.2c0.3-0.3,0.9-0.5,1.5-0.5c0.1,0,0.4,0,0.7,0.1
		C107.4,134,107.6,134.1,107.9,134.2z"/>
	<path fill="#FFFFFF" d="M109.3,133.8h0.3c0,0,0,0.1,0,0.1c0.1,0.1,0.2,0.2,0.2,0.3c0,0,0.2,0,0.6,0c0.2,0,0.4,0,0.6,0l0.1,0l0.6,0l1,0
		h1.4l0.3,0c0,0,0.1-0.1,0.1-0.2c0,0,0-0.1,0.1-0.1l0.2,0c0,0,0.1,0,0.1,0c0,0.2,0,0.5,0,1l0,0.4l0,0.2c0,0.1,0,0.1,0,0.2
		c-0.1,0-0.2,0.1-0.3,0.1c-0.1-0.1-0.2-0.3-0.3-0.5c-0.1-0.2-0.2-0.4-0.2-0.4c0,0-0.1-0.1-0.1-0.1c-0.1,0-0.4,0-1,0
		c-0.1,0-0.2,0-0.3,0c0,0.1,0,0.2,0,0.3l0,0.6v1.3l0,1.5l0,0.6c0,0.2,0,0.4,0.1,0.5c0,0,0.1,0,0.3,0.1c0,0,0.1,0,0.3,0.1
		c0.1,0,0.2,0,0.2,0.1c0,0.1,0,0.2,0,0.2c0,0,0,0.1,0,0.1c-0.1,0-0.1,0-0.2,0c-0.3,0-0.6,0-0.8,0c-0.2,0-0.6,0-1.2,0
		c-0.1,0-0.4,0-0.8,0.1c-0.2,0-0.3,0-0.3,0c0,0,0-0.1,0-0.1l0-0.1v0c0.1-0.1,0.2-0.2,0.4-0.2c0.3-0.1,0.5-0.1,0.7-0.2
		c0-0.1,0-0.1,0.1-0.2c0-0.4,0-1,0-1.8l0-1.7c0-0.5,0-0.8,0-0.9c0,0,0,0,0-0.1c0,0,0,0-0.1,0c-0.1,0-0.4,0-0.9,0
		c-0.3,0-0.5,0-0.6,0.1c-0.1,0.1-0.3,0.3-0.6,0.6c-0.1,0.1-0.1,0.1-0.2,0.1c-0.1-0.1-0.2-0.1-0.3-0.2c0.1-0.2,0.2-0.6,0.4-1.2
		C109.2,134,109.3,133.9,109.3,133.8z"/>
	<path fill="#FFFFFF" d="M115.6,140v-0.3c0.1,0,0.2,0,0.3-0.1c0.2,0,0.3-0.1,0.4-0.2c0.1-0.1,0.1-0.2,0.1-0.4l0-0.5l0-1l0-0.2
		c0-0.6,0-0.9,0-0.9l0-0.6l0-0.2l0-0.5l0-0.2c0,0,0-0.1,0-0.1c-0.1-0.1-0.3-0.1-0.6-0.1c-0.1,0-0.1,0-0.2,0l0-0.4l1.3,0.1
		c0.2,0,0.3,0,0.3,0c0.2,0,0.5,0,0.9,0c0.2,0,0.4,0,0.4,0c0,0.1,0,0.1,0,0.1c0,0.1,0,0.1,0,0.2c-0.1,0-0.3,0.1-0.4,0.1
		c-0.2,0-0.3,0.1-0.4,0.1c0,0.1,0,0.2,0,0.3c0,0.1,0,0.2,0,0.3c0,0.5,0,0.9,0,1.2l0,1.2l0,0.6l0,0.9l0,0.2c0,0,0,0.1,0,0.1
		c0.2,0,0.4,0.1,0.5,0.1c0,0,0.1,0,0.3,0c0,0.1,0,0.2,0,0.2c0,0,0,0.1,0,0.2c0,0-0.1,0-0.1,0c-0.1,0-0.2,0-0.2,0c0,0-0.1,0-0.1,0
		c0,0-0.2,0-0.6-0.1l-0.8,0c-0.2,0-0.4,0-0.7,0C115.8,140,115.7,140,115.6,140z"/>
	<path fill="#FFFFFF" d="M118.9,140l0-0.3c0.1,0,0.2,0,0.3-0.1c0.2,0,0.4-0.1,0.4-0.1c0.1,0,0.1-0.1,0.2-0.3l0.9-2.4l1.1-2.9
		c0.1,0,0.2,0,0.3,0h0.2l0,0.1l0.8,1.9c0.2,0.4,0.3,0.8,0.5,1.2s0.3,0.7,0.4,0.9c0.1,0.1,0.1,0.4,0.3,0.6c0.1,0.2,0.1,0.4,0.3,0.6
		c0.1,0.1,0.1,0.2,0.1,0.2c0.1,0,0.1,0.1,0.3,0.1c0.1,0,0.3,0.1,0.4,0.1c0,0.1,0,0.2,0,0.2c0,0,0,0.1,0,0.1c-0.2,0-0.5,0-0.7,0
		c-0.3,0-0.5,0-0.7,0c-0.2,0-0.4,0-0.5,0l-0.8,0l-0.2,0c0-0.1,0-0.2,0-0.3l0.5-0.1c0.2,0,0.2-0.1,0.3-0.1c0,0,0-0.1,0-0.1
		c0,0,0-0.1,0-0.1l-0.2-0.4l-0.4-0.9l-1.8,0c-0.1,0.1-0.2,0.5-0.4,1.1c-0.1,0.2-0.1,0.3-0.1,0.3c0,0.1,0,0.1,0.1,0.2
		c0.1,0.1,0.2,0.1,0.4,0.1c0,0,0.1,0,0.3,0.1c0,0.1,0,0.2,0,0.2c0,0,0,0.1,0,0.1c-0.2,0-0.6,0-1.4-0.1l-0.2,0
		C119.4,140,119.2,140,118.9,140L118.9,140z M121,137.4c0.7,0,1.1,0,1.3,0l0.1,0c-0.1-0.3-0.2-0.6-0.4-1c-0.1-0.4-0.3-0.6-0.4-0.8
		L121,137.4z"/>
	<path fill="#FFFFFF" d="M125.2,134.4l0-0.3h0.4l0.1,0c0.2,0,0.3,0,0.4,0c0,0,0.1,0,0.3,0c0,0,0.1,0,0.1,0c0,0,0.1,0,0.3,0
		c0.2,0,0.3,0,0.3,0c0,0,0.1,0,0.1,0c0.5,0.4,0.9,0.8,1.2,1.1c0.3,0.3,1.4,1.4,3.2,3.2v-0.1l0-0.5c0-0.3,0-0.6,0-0.7
		c0-0.2,0-0.4,0-0.7c0-0.3,0-0.5,0-0.7c0-0.4-0.1-0.6-0.1-0.7c0-0.2,0-0.3-0.1-0.4c-0.1-0.1-0.2-0.1-0.4-0.2c-0.2,0-0.3-0.1-0.4-0.1
		l0-0.3l0.1,0l0.9,0l1,0c0.1,0,0.1,0,0.2,0l0,0.3c-0.1,0-0.1,0.1-0.2,0.1c-0.2,0-0.3,0.1-0.3,0.1c-0.2,0.1-0.2,0.1-0.3,0.2
		c0,0,0,0.1,0,0.2c0,0,0,0.1,0,0.2c0,0.1,0,0.2,0,0.4c0,0.4,0,0.8,0,1.1c0,0.1,0,0.2,0,0.3l0.1,1.6c0,0.1,0,0.2,0,0.2v0.6l0,0.2
		l0,0.2c0,0.1,0,0.2,0,0.2v0.2l-0.5,0l-0.5-0.6l-1.1-1.1l-0.8-0.8l-0.6-0.6c-0.4-0.4-0.7-0.7-1-1l-0.7-0.7l0,1.7c0,0.1,0,0.2,0,0.3
		l0,0.3l0,0.6c0,0.3,0,0.5,0.1,0.8c0,0.1,0,0.1,0,0.2c0,0,0,0.1,0.1,0.1c0.1,0,0.4,0.1,0.8,0.1c0,0,0.1,0,0.1,0l0,0.4l-0.2,0
		c-0.1,0-0.4,0-0.9-0.1c-0.5,0-0.8,0-1,0c-0.2,0-0.3,0-0.3,0c0,0-0.1,0-0.2,0c0-0.1,0-0.1,0-0.2c0,0,0-0.1,0-0.2c0.1,0,0.2,0,0.2,0
		c0,0,0.1,0,0.2,0c0.3,0,0.4,0,0.5-0.1c0,0,0.1-0.1,0.1-0.3c0-0.5,0-0.8,0-0.9v-0.3l0-1.5l0-0.9c0-0.4,0-0.6-0.1-0.7
		c0-0.1-0.1-0.1-0.1-0.2c-0.1-0.1-0.2-0.2-0.4-0.2C125.7,134.5,125.5,134.5,125.2,134.4z"/>
	<path fill="#FFFFFF" d="M135.6,134.4l0-0.4c0.1,0,0.1,0,0.2,0c0.2,0,0.3,0,0.5,0c0.4,0,0.6,0,0.7,0c0.2,0,0.5,0,0.7,0
		c0.2,0,0.4,0,0.6,0c0.2,0,0.3,0,0.4,0l0,0.1l0,0.3v0c-0.2,0-0.3,0-0.5,0c-0.2,0-0.3,0-0.3,0.1c0,0-0.1,0.2-0.1,0.5
		c0,0.1,0,0.2,0,0.2l0,0.2l0,0.4l0,0.4l0,0.8l0.1,1.2c0,0.3,0.1,0.6,0.2,0.8c0.1,0.2,0.2,0.3,0.4,0.4c0.3,0.1,0.5,0.2,0.8,0.2
		c0.3,0,0.6,0,0.8-0.1c0.1,0,0.3-0.1,0.4-0.2c0.1-0.1,0.2-0.2,0.3-0.3c0.1-0.2,0.2-0.3,0.2-0.5c0.1-0.2,0.1-0.5,0.1-0.9
		c0-0.7,0-1.6-0.1-2.5l0-0.2c0-0.2,0-0.3-0.1-0.4c-0.1-0.1-0.2-0.1-0.3-0.1l-0.4,0l-0.1,0l0-0.4h0.4l0.9,0c0.3,0,0.6,0,0.8,0l0.1,0
		c0,0.1,0,0.2,0,0.2c0,0,0,0.1,0,0.1c-0.1,0-0.2,0-0.4,0.1c-0.2,0-0.3,0.1-0.3,0.1c0,0-0.1,0.1-0.1,0.2c0,0.1,0,0.1,0,0.2
		c0,0.1,0,0.2,0,0.4c0,0.1,0,0.2,0,0.3c0,0.1,0,0.1,0,0.2c0,0.2,0,0.4,0,0.7l0,0.9c0,0.6,0,1-0.1,1.3c0,0.2-0.1,0.4-0.2,0.5
		c-0.1,0.2-0.3,0.4-0.5,0.5s-0.5,0.3-0.8,0.4c-0.3,0.1-0.7,0.1-1.1,0.1c-0.5,0-0.9-0.1-1.2-0.2c-0.3-0.1-0.6-0.3-0.8-0.5
		c-0.2-0.2-0.3-0.5-0.4-0.8c0-0.2-0.1-0.6-0.1-1v-2.2c0-0.5,0-0.8-0.1-0.9c-0.1-0.1-0.3-0.1-0.6-0.2
		C135.7,134.4,135.7,134.4,135.6,134.4z"/>
	<path fill="#FFFFFF" d="M142.6,134.4l0-0.3h0.4l0.1,0c0.2,0,0.3,0,0.4,0c0,0,0.1,0,0.3,0c0,0,0.1,0,0.1,0c0,0,0.1,0,0.3,0
		c0.2,0,0.3,0,0.3,0c0,0,0.1,0,0.1,0c0.5,0.4,0.9,0.8,1.2,1.1s1.4,1.4,3.2,3.2v-0.1l0-0.5c0-0.3,0-0.6,0-0.7c0-0.2,0-0.4,0-0.7
		c0-0.3,0-0.5,0-0.7c0-0.4-0.1-0.6-0.1-0.7c0-0.2,0-0.3-0.1-0.4c-0.1-0.1-0.2-0.1-0.4-0.2c-0.2,0-0.3-0.1-0.4-0.1l0-0.3l0.1,0l0.9,0
		l1,0c0.1,0,0.1,0,0.2,0l0,0.3c-0.1,0-0.1,0.1-0.2,0.1c-0.2,0-0.3,0.1-0.3,0.1c-0.2,0.1-0.2,0.1-0.3,0.2c0,0,0,0.1,0,0.2
		c0,0,0,0.1,0,0.2c0,0.1,0,0.2,0,0.4c0,0.4,0,0.8,0,1.1c0,0.1,0,0.2,0,0.3l0.1,1.6c0,0.1,0,0.2,0,0.2v0.6l0,0.2l0,0.2
		c0,0.1,0,0.2,0,0.2v0.2l-0.5,0l-0.5-0.6l-1.1-1.1l-0.8-0.8l-0.6-0.6c-0.4-0.4-0.7-0.7-1-1l-0.7-0.7l0,1.7c0,0.1,0,0.2,0,0.3l0,0.3
		l0,0.6c0,0.3,0,0.5,0.1,0.8c0,0.1,0,0.1,0,0.2c0,0,0,0.1,0.1,0.1c0.1,0,0.4,0.1,0.8,0.1c0,0,0.1,0,0.1,0l0,0.4l-0.2,0
		c-0.1,0-0.4,0-0.9-0.1c-0.5,0-0.8,0-1,0c-0.2,0-0.3,0-0.3,0c0,0-0.1,0-0.2,0c0-0.1,0-0.1,0-0.2c0,0,0-0.1,0-0.2c0.1,0,0.2,0,0.2,0
		c0,0,0.1,0,0.2,0c0.3,0,0.4,0,0.5-0.1c0,0,0.1-0.1,0.1-0.3c0-0.5,0-0.8,0-0.9v-0.3l0-1.5l0-0.9c0-0.4,0-0.6-0.1-0.7
		c0-0.1-0.1-0.1-0.1-0.2c-0.1-0.1-0.2-0.2-0.4-0.2C143.2,134.5,143,134.5,142.6,134.4z"/>
	<path fill="#FFFFFF" d="M150.9,140v-0.3c0.1,0,0.2,0,0.3-0.1c0.2,0,0.3-0.1,0.4-0.2c0.1-0.1,0.1-0.2,0.1-0.4l0-0.5l0-1l0-0.2
		c0-0.6,0-0.9,0-0.9l0-0.6l0-0.2l0-0.5l0-0.2c0,0,0-0.1,0-0.1c-0.1-0.1-0.3-0.1-0.6-0.1c-0.1,0-0.1,0-0.2,0l0-0.4l1.3,0.1
		c0.2,0,0.3,0,0.3,0c0.2,0,0.5,0,0.9,0c0.2,0,0.4,0,0.4,0c0,0.1,0,0.1,0,0.1c0,0.1,0,0.1,0,0.2c-0.1,0-0.3,0.1-0.4,0.1
		c-0.2,0-0.3,0.1-0.4,0.1c0,0.1,0,0.2,0,0.3c0,0.1,0,0.2,0,0.3c0,0.5,0,0.9,0,1.2l0,1.2l0,0.6l0,0.9l0,0.2c0,0,0,0.1,0,0.1
		c0.2,0,0.4,0.1,0.5,0.1c0,0,0.1,0,0.3,0c0,0.1,0,0.2,0,0.2c0,0,0,0.1,0,0.2c0,0-0.1,0-0.1,0c-0.1,0-0.2,0-0.2,0c0,0-0.1,0-0.1,0
		c0,0-0.2,0-0.6-0.1l-0.8,0c-0.2,0-0.4,0-0.7,0C151.1,140,150.9,140,150.9,140z"/>
	<path fill="#FFFFFF" d="M154.1,134.4V134c0.2,0,0.3,0,0.3,0c0.4,0,0.9,0.1,1.5,0.1c0.1,0,0.3,0,0.6,0c0.2,0,0.4,0,0.5,0h0.3
		c0,0.2,0,0.3,0,0.4c-0.3,0-0.5,0.1-0.5,0.1c-0.1,0-0.2,0.1-0.3,0.1c0,0-0.1,0.1-0.1,0.1c0,0,0,0.1,0,0.1l0.2,0.4
		c0.1,0.3,0.3,0.7,0.5,1.3l0.5,1.2c0.1,0.2,0.2,0.4,0.3,0.7l0.3-0.7l0.5-1.5l0.1-0.3c0,0,0-0.1,0.1-0.2c0.1-0.3,0.1-0.5,0.2-0.6
		c0.1-0.1,0.1-0.3,0.1-0.3c0-0.1,0-0.1-0.1-0.2c-0.1-0.1-0.2-0.1-0.4-0.1c0,0-0.1,0-0.2,0s-0.1,0-0.2,0c0-0.1,0-0.1,0-0.1
		c0,0,0-0.1,0-0.2c0.1,0,0.2,0,0.5,0c0.3,0,0.5,0,0.8,0c0.3,0,0.5,0,0.7,0c0.2,0,0.3,0,0.4,0v0.1c0,0,0,0.1,0,0.2
		c-0.4,0.1-0.6,0.2-0.7,0.3c0,0-0.1,0.1-0.1,0.2c-0.1,0.2-0.3,0.6-0.5,1.2l-0.6,1.5c-0.1,0.1-0.1,0.3-0.2,0.5
		c-0.1,0.2-0.1,0.3-0.2,0.5c0,0-0.1,0.2-0.2,0.6l0,0.1c-0.1,0.4-0.2,0.7-0.3,0.9c-0.1,0-0.2,0-0.2,0c-0.1,0-0.1,0-0.2,0
		c0-0.1-0.1-0.2-0.1-0.3c0-0.1-0.2-0.4-0.4-1l-0.9-1.9l-0.5-1.3c-0.3-0.6-0.4-0.9-0.4-0.9c-0.1-0.1-0.1-0.1-0.2-0.2
		c-0.1,0-0.2-0.1-0.4-0.1L154.1,134.4z"/>
	<path fill="#FFFFFF" d="M160.7,134c0.2,0,0.3,0,0.5,0c0.2,0,0.5,0.1,0.8,0.1c0.1,0,0.4,0,0.8,0c0.7,0,1.3,0,1.8,0l0.8,0
		c0.2,0,0.5,0,0.8,0.1c0.1,0.1,0.1,0.1,0.1,0.2v0.9l0,0.2c0,0,0,0,0,0.1l-0.2,0c0,0-0.1,0-0.2,0c0-0.1-0.1-0.2-0.1-0.3l-0.2-0.3
		c-0.1-0.1-0.2-0.3-0.3-0.4c-0.1,0-0.2,0-0.3,0c0,0-0.1,0-0.3,0c-0.3,0-0.6,0-0.9,0c-0.4,0-0.7,0-1,0c0,0.1,0,0.4,0,0.9l0,0.8v0.6
		c0.1,0,0.1,0,0.2,0c0.5,0,0.9,0,1.2,0c0.2,0,0.4-0.1,0.4-0.1c0.1,0,0.1-0.1,0.1-0.2c0-0.1,0.1-0.3,0.2-0.7l0.1,0l0.3,0
		c0,0.3,0,0.5,0,0.6c0,0.3,0,0.5,0,0.6s0,0.2,0,0.2c0,0.1,0,0.2,0,0.4c0,0.2,0,0.3,0,0.4v0.1h-0.3c0,0,0-0.1-0.1-0.3
		c-0.1-0.3-0.1-0.5-0.2-0.5c0-0.1-0.1-0.1-0.2-0.1c-0.1,0-0.3,0-0.7,0c-0.5,0-0.8,0-1,0c0,0.1,0,0.1,0,0.2c0,0.4,0,0.7,0,0.9l0,1
		c0,0.1,0,0.2,0.1,0.2c0.1,0.1,0.5,0.1,1.2,0.1c0.4,0,0.8,0,1.1-0.1c0.2,0,0.4-0.1,0.5-0.3c0.2-0.2,0.4-0.5,0.5-0.9
		c0.1,0,0.2,0,0.2,0c0,0,0.1,0,0.2,0c0,0.1,0,0.1,0,0.2l0,0.1l-0.2,0.9l-0.1,0.5c-0.2,0-0.4,0-0.5,0c-0.2,0-0.6,0-1.4,0
		c-0.5,0-1.2,0-1.9,0c-0.4,0-0.8,0-1.4,0h-0.2l-0.6,0v-0.3c0.1,0,0.2,0,0.3-0.1c0.3,0,0.5-0.1,0.7-0.1c0-0.1,0.1-0.2,0.1-0.3
		c0-0.1,0-0.1,0-0.3l0-0.1l0-1.7l0-0.5l0-0.7l0-0.5l0-0.6c0,0,0,0,0-0.1c0,0-0.1-0.1-0.1-0.1c0,0-0.1,0-0.1,0
		c-0.2,0-0.3-0.1-0.5-0.1c-0.1,0-0.1,0-0.2,0L160.7,134z"/>
	<path fill="#FFFFFF" d="M167.5,139.7c0.1,0,0.2-0.1,0.4-0.1c0.2,0,0.3-0.1,0.4-0.1c0-0.1,0-0.1,0-0.1c0,0,0-0.2,0-0.4l0-1l0-0.6l0-0.4
		l0-0.2c0-0.3,0-0.6,0-0.9c0-0.6,0-1,0-1.2l-0.3-0.1c-0.2,0-0.4,0-0.5,0l0-0.3l0-0.1c0.2,0,0.3,0,0.4,0c0.1,0,0.2,0,0.4,0
		c0.2,0,0.3,0,0.4,0l0.2,0l0.6,0c0.4,0,0.7-0.1,1.1-0.1c0.6,0,1.1,0.2,1.5,0.5c0.4,0.3,0.6,0.7,0.6,1.1c0,0.3-0.1,0.6-0.3,0.8
		c-0.2,0.3-0.5,0.4-0.9,0.6c0,0.1,0.1,0.1,0.1,0.2c0.1,0.2,0.2,0.3,0.3,0.5l0.7,1.2c0.2,0.3,0.3,0.5,0.4,0.6
		c0.1,0.1,0.2,0.1,0.4,0.2c0.1,0.1,0.2,0.1,0.3,0.2c0,0.1,0,0.1,0,0.1c0,0,0,0.1,0,0.1h-0.1l-0.1,0l-0.2,0h-0.2c-0.1,0-0.2,0-0.4,0
		l-0.5,0c0,0-0.1,0-0.3,0c-0.1,0-0.1,0-0.2,0l-0.2-0.3c-0.1-0.2-0.2-0.4-0.3-0.5c-0.1-0.3-0.4-0.8-0.7-1.4c-0.2-0.3-0.3-0.5-0.3-0.5
		c-0.1-0.1-0.2-0.1-0.5-0.1c-0.1,0-0.2,0-0.3,0c0,0.1,0,0.2,0,0.3l0,1l0,0.9c0.1,0.1,0.2,0.1,0.3,0.1c0.2,0,0.4,0.1,0.6,0.2
		c0,0.1,0,0.3,0,0.3c-0.1,0-0.1,0-0.1,0l-0.2,0c-0.7-0.1-1-0.1-1.2-0.1c-0.1,0-0.1,0-0.2,0l-0.6,0c-0.2,0-0.4,0-0.5,0h-0.2
		c0-0.1,0-0.1,0-0.1C167.5,139.8,167.5,139.8,167.5,139.7z M169.6,136.7c0.1,0,0.3,0,0.3,0c0.5,0,0.9-0.1,1.1-0.3
		c0.2-0.2,0.3-0.4,0.3-0.7c0-0.2,0-0.4-0.1-0.5c-0.1-0.2-0.1-0.3-0.2-0.4c-0.1-0.1-0.3-0.2-0.4-0.3c-0.1,0-0.3-0.1-0.6-0.1
		c-0.1,0-0.3,0-0.4,0l0,0.1l0,0.6l0,0.4l0,0.5c0,0.1,0,0.3,0,0.5V136.7z"/>
	<path fill="#FFFFFF" d="M177.6,134.2c0,0.1,0.1,0.3,0.1,0.5c0,0.3,0.1,0.6,0.1,0.7c0,0.1,0,0.1,0,0.2l0,0l-0.3,0l-0.1,0
		c-0.1-0.4-0.3-0.7-0.4-0.8c-0.2-0.2-0.5-0.4-0.8-0.4c-0.3,0-0.5,0.1-0.7,0.2c-0.2,0.2-0.3,0.4-0.3,0.6c0,0.2,0.1,0.4,0.3,0.6
		c0.2,0.2,0.5,0.4,1.1,0.5c0.2,0.1,0.4,0.1,0.7,0.3c0.3,0.1,0.5,0.3,0.6,0.4c0.2,0.2,0.3,0.4,0.4,0.5c0.1,0.2,0.1,0.4,0.1,0.7
		c0,0.3-0.1,0.6-0.2,0.8c-0.1,0.1-0.2,0.3-0.3,0.4c-0.1,0.1-0.2,0.2-0.4,0.3c-0.2,0.1-0.4,0.2-0.6,0.3s-0.5,0.1-0.8,0.1
		c-0.2,0-0.5,0-0.8-0.1l-0.6-0.2c-0.2,0-0.2-0.1-0.3-0.1c0,0,0,0,0-0.1v-0.1c0,0,0-0.2,0-0.6c0-0.2,0-0.3,0-0.4v-0.2l0.4,0
		c0.1,0.3,0.2,0.5,0.3,0.6c0.1,0.2,0.2,0.3,0.3,0.4c0.1,0.1,0.3,0.2,0.4,0.2c0.2,0.1,0.3,0.1,0.5,0.1c0.2,0,0.3,0,0.5-0.1
		c0.2-0.1,0.4-0.2,0.5-0.3c0.1-0.2,0.2-0.3,0.2-0.5c0-0.2-0.1-0.4-0.3-0.6c-0.1-0.1-0.5-0.3-1-0.5c-0.6-0.2-1-0.4-1.2-0.5
		c-0.2-0.2-0.4-0.4-0.5-0.6c-0.1-0.3-0.2-0.5-0.2-0.8c0-0.5,0.2-0.9,0.5-1.2c0.3-0.3,0.9-0.5,1.5-0.5c0.1,0,0.4,0,0.7,0.1
		C177.1,134,177.3,134.1,177.6,134.2z"/>
	<path fill="#FFFFFF" d="M178.9,140v-0.3c0.1,0,0.2,0,0.3-0.1c0.2,0,0.3-0.1,0.4-0.2c0.1-0.1,0.1-0.2,0.1-0.4l0-0.5l0-1l0-0.2
		c0-0.6,0-0.9,0-0.9l0-0.6l0-0.2l0-0.5l0-0.2c0,0,0-0.1,0-0.1c-0.1-0.1-0.3-0.1-0.6-0.1c-0.1,0-0.1,0-0.2,0l0-0.4l1.3,0.1
		c0.2,0,0.3,0,0.3,0c0.2,0,0.5,0,0.9,0c0.2,0,0.4,0,0.4,0c0,0.1,0,0.1,0,0.1c0,0.1,0,0.1,0,0.2c-0.1,0-0.3,0.1-0.4,0.1
		c-0.2,0-0.3,0.1-0.4,0.1c0,0.1,0,0.2,0,0.3c0,0.1,0,0.2,0,0.3c0,0.5,0,0.9,0,1.2l0,1.2l0,0.6l0,0.9l0,0.2c0,0,0,0.1,0,0.1
		c0.2,0,0.4,0.1,0.5,0.1c0,0,0.1,0,0.3,0c0,0.1,0,0.2,0,0.2c0,0,0,0.1,0,0.2c0,0-0.1,0-0.1,0c-0.1,0-0.2,0-0.2,0c0,0-0.1,0-0.1,0
		c0,0-0.2,0-0.6-0.1l-0.8,0c-0.2,0-0.4,0-0.7,0C179.1,140,178.9,140,178.9,140z"/>
	<path fill="#FFFFFF" d="M182.7,133.8h0.3c0,0,0,0.1,0,0.1c0.1,0.1,0.2,0.2,0.2,0.3c0,0,0.2,0,0.6,0c0.2,0,0.4,0,0.6,0l0.1,0l0.6,0l1,0
		h1.4l0.3,0c0,0,0.1-0.1,0.1-0.2c0,0,0-0.1,0.1-0.1l0.2,0c0,0,0.1,0,0.1,0c0,0.2,0,0.5,0,1l0,0.4l0,0.2c0,0.1,0,0.1,0,0.2
		c-0.1,0-0.2,0.1-0.3,0.1c-0.1-0.1-0.2-0.3-0.3-0.5c-0.1-0.2-0.2-0.4-0.2-0.4c0,0-0.1-0.1-0.1-0.1c-0.1,0-0.4,0-1,0
		c-0.1,0-0.2,0-0.3,0c0,0.1,0,0.2,0,0.3l0,0.6v1.3l0,1.5l0,0.6c0,0.2,0,0.4,0.1,0.5c0,0,0.1,0,0.3,0.1c0,0,0.1,0,0.3,0.1
		c0.1,0,0.2,0,0.2,0.1c0,0.1,0,0.2,0,0.2c0,0,0,0.1,0,0.1c-0.1,0-0.1,0-0.2,0c-0.3,0-0.6,0-0.8,0c-0.2,0-0.6,0-1.2,0
		c-0.1,0-0.4,0-0.8,0.1c-0.2,0-0.3,0-0.3,0c0,0,0-0.1,0-0.1l0-0.1v0c0.1-0.1,0.2-0.2,0.4-0.2c0.3-0.1,0.5-0.1,0.7-0.2
		c0-0.1,0-0.1,0.1-0.2c0-0.4,0-1,0-1.8l0-1.7c0-0.5,0-0.8,0-0.9c0,0,0,0,0-0.1c0,0,0,0-0.1,0c-0.1,0-0.4,0-0.9,0
		c-0.3,0-0.5,0-0.6,0.1c-0.1,0.1-0.3,0.3-0.6,0.6c-0.1,0.1-0.1,0.1-0.2,0.1c-0.1-0.1-0.2-0.1-0.3-0.2c0.1-0.2,0.2-0.6,0.4-1.2
		C182.7,134,182.7,133.9,182.7,133.8z"/>
	<path fill="#FFFFFF" d="M188.5,134.1c0.1,0,0.3,0,0.6,0l0,0c0.1,0,0.1,0,0.2,0l0,0c0,0,0.2,0,0.4,0c0.4,0,0.7,0,0.9,0
		c0.2,0,0.5,0,0.7-0.1c0,0,0.1,0,0.1,0l0,0c0,0,0,0.1,0,0.1l0,0.2c-0.1,0-0.2,0-0.3,0.1l-0.2,0c-0.1,0-0.2,0-0.3,0.1l0,0l0,0.1
		c0.1,0.2,0.3,0.6,0.6,1c0.1,0.1,0.2,0.3,0.3,0.4c0,0,0.1,0.2,0.3,0.4c0,0,0,0.1,0.1,0.1c0,0,0.1,0.1,0.1,0.1
		c0.1,0.1,0.1,0.1,0.1,0.2c0.1,0.1,0.1,0.2,0.2,0.2l0.5-0.7c0.2-0.2,0.4-0.5,0.6-0.9l0,0l0.4-0.7c0.1-0.1,0.1-0.2,0.1-0.2
		c0,0,0,0,0-0.1c0,0-0.1,0-0.1-0.1c0,0-0.1,0-0.2,0c-0.1,0-0.1,0-0.2,0c-0.1,0-0.1,0-0.1,0c0,0,0-0.2,0-0.3l0.9,0.1c0,0,0.1,0,0.1,0
		h0.2l0.1,0c0.1,0,0.2,0,0.4,0c0,0,0.1,0,0.1,0l0,0.3l-0.1,0c-0.3,0-0.4,0.1-0.5,0.2c-0.1,0.1-0.3,0.4-0.6,0.8l-0.6,0.9
		c-0.4,0.5-0.6,0.8-0.7,1c0,0-0.1,0.1-0.1,0.2v0.1l0,0.4v0.1c0,0.1,0,0.2,0,0.2l0,1.2c0,0,0,0,0.1,0.1c0,0,0.1,0,0.3,0
		c0.3,0,0.5,0.1,0.5,0.1c0,0,0,0,0,0.1c0,0,0,0.1,0,0.1c0,0,0,0.1,0,0.1l-0.5,0l-0.5,0l-0.3,0l-0.5,0h-0.4c0,0-0.1,0-0.2,0
		c-0.2,0-0.3,0-0.3,0l-0.3,0c0-0.1,0-0.1,0-0.1c0,0,0-0.1,0-0.2l0.8-0.2c0,0,0.1,0,0.1,0c0-0.1,0-0.2,0-0.3c0-0.5,0-0.8,0-1
		c0-0.2,0-0.3,0-0.3v-0.1c0-0.2-0.1-0.4-0.3-0.7c-0.1-0.1-0.1-0.2-0.2-0.2l-0.9-1.4l-0.4-0.7c0,0-0.1-0.1-0.3-0.4
		c-0.1,0-0.1-0.1-0.2-0.1c0,0-0.2,0-0.4-0.1c0,0,0-0.1,0-0.1c0,0,0,0,0-0.1C188.5,134.2,188.5,134.1,188.5,134.1z"/>
	<path fill="#FFFFFF" d="M190.8,94.1c-1-0.1-1.3-0.5-1.3-1.6V78.7c0-0.4-0.1-0.5-0.3-0.5c-0.3,0-1.1,1-3.8,1.7
		c-0.4,0.1-0.7,0.1-0.7,0.5c0,0.4,0.3,0.4,0.7,0.5c0.7,0.1,1.2,0.2,1.2,1.1v10.3c0,1.2-0.3,1.3-1.7,1.7c-0.4,0.1-0.7,0.2-0.7,0.5
		c0,0.3,0.2,0.4,0.6,0.4c0.6,0,1.7-0.1,3.2-0.1c1.5,0,2.4,0.1,3,0.1c0.5,0,0.6-0.2,0.6-0.4C191.6,94.3,191.4,94.1,190.8,94.1z"/>
	<path fill="#FFFFFF" d="M179.3,78.2c-2.2,0-3.9,2.3-4,2.3c-0.1,0-0.1,0-0.1-1.4c0-0.8,0-0.9-0.2-0.9c-0.3,0-0.4,0.3-1.8,1
		c-2.2,1.1-2.9,0.9-2.9,1.5c0,0.3,0.4,0.3,0.8,0.5c0.8,0.2,1.3,0.2,1.3,1.2v18.1c0,1-0.7,0.9-1.5,1.1c-0.4,0.1-0.8,0-0.8,0.5
		c0,0.4,0.4,0.4,0.9,0.4c1,0,2.1-0.1,3.1-0.1c2,0,2.7,0.1,3.6,0.1c0.5,0,0.6-0.2,0.6-0.4c0-0.2-0.1-0.4-0.8-0.4
		c-1.8-0.2-2.2-0.6-2.2-2.1v-4.9c0-0.4,0-0.5,0.1-0.5c0.1,0,1,0.9,2.9,0.9c3.4,0,6.4-3.3,6.4-8.8C184.7,81.7,182.5,78.2,179.3,78.2z
		 M177.8,94.1c-1.6,0-2.5-1.3-2.5-3.7v-8.2c0-1.1,1.2-2.3,2.6-2.3c2.2,0,3.6,2.7,3.6,7.2C181.5,91.4,180.1,94.1,177.8,94.1z"/>
	<path fill="#FFFFFF" d="M166.8,113h7c0.8,0,1.1-0.2,1.1-1.5c0-3.1-1.7-6.3-5.4-6.3c-4.2,0-6.7,4.2-6.7,8.8c0,5.5,2.9,8.4,6.5,8.4
		c4,0,5.6-3.3,5.6-4.2c0-0.3-0.1-0.4-0.4-0.4c-0.7,0-0.5,2.8-4.3,2.8c-2.7,0-4.2-3-4.2-6.4C166.1,113.1,166.2,113,166.8,113z
		 M169.6,106.1c1.7,0,2.3,2,2.3,3.5c0,2.1-1,2.5-4.3,2.5c-1.2,0-1.5-0.2-1.5-0.7C166.2,110.7,166.7,106.1,169.6,106.1z"/>
	<path fill="#FFFFFF" d="M153.1,117.9c0-0.6,1.1-1.3,2.1-1.3c4.9,0,6.3-3.6,6.3-5.8c0-1.1-0.3-2.2-0.8-3.3h1.9c0.2,0,0.2-0.1,0.2-0.6
		c0-0.5-0.1-0.6-0.2-0.6h-2.8c-0.3,0-0.7-0.3-1.3-0.6c-0.6-0.3-1.4-0.6-2.5-0.6c-3.2,0-5.4,2.5-5.4,5.6c0,3.9,3.2,5.1,3.2,5.4
		c0,0.3-3.1,1.6-3.1,2.5c0,0.7,2.3,2.4,2.3,2.9c0,0.6-2.9,1.5-2.9,3.9c0,2.2,1.6,4.1,5.5,4.1c4,0,7.4-1.9,7.4-5.8
		C162.8,116.5,153.1,120.7,153.1,117.9z M153.6,111c0-3.2,1-4.9,2.3-4.9c1.3,0,2.3,1.8,2.3,4.9c0,3.2-1,4.9-2.3,4.9
		C154.6,116,153.6,114.2,153.6,111z M156.4,128.8c-2.4,0-4.1-1.5-4.1-4c0-1.4,1.1-3.2,3.1-3.2c3,0,5.3,0.5,5.3,3.3
		C160.6,127.4,158.9,128.8,156.4,128.8z"/>
	<path fill="#FFFFFF" d="M141.1,113h7c0.8,0,1.1-0.2,1.1-1.5c0-3.1-1.7-6.3-5.4-6.3c-4.2,0-6.7,4.2-6.7,8.8c0,5.5,2.9,8.4,6.5,8.4
		c4,0,5.6-3.3,5.6-4.2c0-0.3-0.1-0.4-0.4-0.4c-0.7,0-0.5,2.8-4.3,2.8c-2.7,0-4.2-3-4.2-6.4C140.4,113.1,140.5,113,141.1,113z
		 M144,106.1c1.7,0,2.3,2,2.3,3.5c0,2.1-1,2.5-4.3,2.5c-1.2,0-1.5-0.2-1.5-0.7C140.5,110.7,141,106.1,144,106.1z"/>
	<path fill="#FFFFFF" d="M137,121.1c-1-0.3-1.5-0.5-1.5-1.8V97.2c0-0.4-0.1-0.5-0.3-0.5c-0.2,0-0.8,0.7-3.8,1.6
		c-0.4,0.1-0.7,0.1-0.7,0.5c0,0.4,0.4,0.4,0.9,0.5c0.6,0.1,1,0.5,1,1.3v18.1c0,1.7-0.2,2-1.8,2.4c-0.1,0-0.2,0.1-0.3,0.1
		c-0.1,0-0.2,0-0.3-0.1c-1-0.3-1.5-0.5-1.5-1.8V97.2c0-0.4-0.1-0.5-0.3-0.5c-0.2,0-0.8,0.7-3.8,1.6c-0.4,0.1-0.7,0.1-0.7,0.5
		c0,0.4,0.4,0.4,0.9,0.5c0.6,0.1,1,0.5,1,1.3v18.1c0,1.7-0.2,2-1.8,2.4c-0.5,0.1-0.7,0.3-0.7,0.5c0,0.3,0.4,0.4,0.7,0.4
		c0.7,0,2-0.1,3-0.1c1.2,0,2.6,0.1,3.6,0.1c0,0,0,0,0,0c0,0,0.1,0,0.1,0c0.7,0,2-0.1,3-0.1c1.2,0,2.6,0.1,3.6,0.1
		c0.4,0,0.5-0.1,0.5-0.3C138.1,121.3,137.8,121.4,137,121.1z"/>
	<path fill="#FFFFFF" d="M117.4,105.3c-3.9,0-6.8,4-6.8,8.6c0,4.6,2.9,8.6,6.8,8.6c3.9,0,6.8-4,6.8-8.6
		C124.2,109.3,121.3,105.3,117.4,105.3z M117.4,121.6c-2.3,0-3.5-4.4-3.5-7.7s1.2-7.7,3.5-7.7c2.3,0,3.5,4.4,3.5,7.7
		S119.7,121.6,117.4,121.6z"/>
	<path fill="#FFFFFF" d="M104,81.4c0-1.4,0.9-2.4,2.4-2.4c3.2,0,2.7,3.5,3.7,3.5c0.5,0,0.6-0.2,0.6-1.3c0-2.1,0-2.3-0.5-2.5
		c-0.6-0.2-2-0.5-3.3-0.5c-2.4,0-5.5,1.6-5.5,4.8c0,4.5,7.5,4.3,7.5,8.5c0,1.7-1,3.1-2.6,3.1c-1.7,0-2.7-1.2-3.3-3
		c-0.5-1.3-0.7-1.6-1-1.6c-0.4,0-0.5,0.2-0.5,0.7v3.7c0,0.6,2.2,1.2,3.7,1.2c3.7,0,6.2-2.3,6.2-5.3C111.5,84.7,104,85.1,104,81.4z"
		/>
	<path fill="#FFFFFF" d="M109.2,114.5c-0.4,0-0.4,0.1-1.2,3.3c-0.7,2.9-2.1,3.7-3.3,3.7c-2.7,0-5.3-3.5-5.3-10.9c0-7.3,1.8-10.5,5-10.5
		c1.2,0,2.1,0.4,3.1,3.3c0.7,2,1,2.3,1.3,2.3c0.6,0,0.7-0.1,0.7-2.8c0-2.5,0-2.6-0.4-2.8c-1.1-0.7-2.6-1-4.4-1c-5,0-9,4.4-9,11.6
		c0,6.2,3.4,11.7,9,11.7c2.3,0,4.3-0.8,4.8-1.2c0.4-0.4,0.5-0.9,0.5-2.7C109.9,114.5,109.9,114.5,109.2,114.5z"/>
	<path fill="#FFFFFF" d="M100.5,94.9c0.5,0,0.6-0.2,0.6-0.4c0-0.2-0.2-0.4-0.8-0.4c-1-0.1-1.3-0.5-1.3-1.6V78.7c0-0.4-0.1-0.5-0.3-0.5
		c-0.3,0-1.1,1-3.8,1.7c-0.4,0.1-0.7,0.1-0.7,0.5c0,0.4,0.3,0.4,0.7,0.5C95.5,81,96,81.1,96,82v10.3c0,1.2-0.3,1.3-1.7,1.7
		c-0.1,0-0.2,0.1-0.4,0.1c-0.2,0-0.5-0.1-0.9-0.2c-1-0.3-1.1-0.5-1.1-1.8c0-5.8-0.4-9.8-0.4-17.6c0-0.8,0-0.9,1.5-1.1
		c0.6-0.1,0.9-0.2,0.9-0.6c0-0.2-0.2-0.4-0.5-0.4c-0.6,0-1.5,0.1-2.2,0.1c-1.6,0-2.3-0.1-2.6-0.1c-0.6,0-0.6,0.2-0.9,0.9L83,87.4H83
		L78.4,74c-0.4-1.3-0.6-1.5-1.3-1.5c-0.3,0-0.9,0.1-2.2,0.1c-1.3,0-1.7-0.1-2.4-0.1c-0.4,0-0.6,0.2-0.6,0.5c0,0.4,0.1,0.5,0.5,0.5
		c1.8,0.1,2,0.3,2,1.2c0,1.4-0.2,9.1-0.6,17.1c-0.1,1.7-0.2,2.1-1,2.2c-1.2,0.2-1.5,0.3-1.5,0.7c0,0.2,0.1,0.3,0.6,0.3
		c0.6,0,1.3-0.1,2.9-0.1c1.8,0,2.3,0.1,2.8,0.1c0.4,0,0.5-0.2,0.5-0.4s-0.2-0.4-1.1-0.5c-1.3-0.2-1.7-0.5-1.7-2.3
		c0-1.5,0.1-10.8,0.3-15h0.1c5.9,17.5,5.5,18.2,6.2,18.2c0.7,0,0.5-1.5,6.2-18.2h0.1c0.2,3,0.3,13,0.3,15.4c0,1.6-0.3,1.7-1.5,1.9
		c-0.9,0.1-1.2,0.2-1.2,0.6c0,0.2,0.1,0.4,0.4,0.4c0.6,0,1.5-0.1,4.2-0.1c2,0,2.5,0.1,3.3,0.1c0.1,0,0.2,0,0.3,0c0.1,0,0.2,0,0.3,0
		c0.6,0,1.7-0.1,3.2-0.1C98.9,94.8,99.8,94.9,100.5,94.9z"/>
	<path fill="#FFFFFF" d="M97.6,76.2c1,0,1.6-0.9,1.6-2s-0.6-2-1.6-2c-1,0-1.6,0.9-1.6,2S96.6,76.2,97.6,76.2z"/>
	<path fill="#FFFFFF" d="M119.7,91.4c0,1.7-1,3.1-2.6,3.1c-1.7,0-2.7-1.2-3.3-3c-0.5-1.3-0.7-1.6-1-1.6c-0.4,0-0.5,0.2-0.5,0.7v3.7
		c0,0.6,2.2,1.2,3.7,1.2c3.7,0,6.2-2.3,6.2-5.3c0-5.4-7.5-4.9-7.5-8.7c0-1.4,0.9-2.4,2.4-2.4c3.2,0,2.7,3.5,3.7,3.5
		c0.5,0,0.6-0.2,0.6-1.3c0-2.1,0-2.3-0.5-2.5c-0.6-0.2-2-0.5-3.3-0.5c-2.4,0-5.5,1.6-5.5,4.8C112.2,87.4,119.7,87.3,119.7,91.4z"/>
	<path fill="#FFFFFF" d="M122.9,80.9c0.7,0.1,1.2,0.2,1.2,1.1v10.3c0,1.2-0.3,1.3-1.7,1.7c-0.4,0.1-0.7,0.2-0.7,0.5
		c0,0.3,0.2,0.4,0.6,0.4c0.6,0,1.7-0.1,3.2-0.1c1.5,0,2.4,0.1,3,0.1c0.5,0,0.6-0.2,0.6-0.4c0-0.2-0.2-0.4-0.8-0.4
		c-1-0.1-1.3-0.5-1.3-1.6V78.7c0-0.4-0.1-0.5-0.3-0.5c-0.3,0-1.1,1-3.8,1.7c-0.4,0.1-0.7,0.1-0.7,0.5
		C122.2,80.8,122.5,80.8,122.9,80.9z"/>
	<path fill="#FFFFFF" d="M125.6,76.2c1,0,1.6-0.9,1.6-2s-0.6-2-1.6-2c-1,0-1.6,0.9-1.6,2S124.6,76.2,125.6,76.2z"/>
	<path fill="#FFFFFF" d="M137.3,91.4c0,1.7-1,3.1-2.6,3.1c-1.7,0-2.7-1.2-3.3-3c-0.5-1.3-0.7-1.6-1-1.6c-0.4,0-0.5,0.2-0.5,0.7v3.7
		c0,0.6,2.2,1.2,3.7,1.2c3.7,0,6.2-2.3,6.2-5.3c0-5.4-7.5-4.9-7.5-8.7c0-1.4,0.9-2.4,2.4-2.4c3.2,0,2.7,3.5,3.7,3.5
		c0.5,0,0.6-0.2,0.6-1.3c0-2.1,0-2.3-0.5-2.5c-0.6-0.2-2-0.5-3.3-0.5c-2.4,0-5.5,1.6-5.5,4.8C129.8,87.4,137.3,87.3,137.3,91.4z"/>
	<path fill="#FFFFFF" d="M148,91.4c0,1.7-1,3.1-2.6,3.1c-1.7,0-2.7-1.2-3.3-3c-0.5-1.3-0.7-1.6-1-1.6c-0.4,0-0.5,0.2-0.5,0.7v3.7
		c0,0.6,2.2,1.2,3.7,1.2c3.7,0,6.2-2.3,6.2-5.3c0-5.4-7.5-4.9-7.5-8.7c0-1.4,0.9-2.4,2.4-2.4c3.2,0,2.7,3.5,3.7,3.5
		c0.5,0,0.6-0.2,0.6-1.3c0-2.1,0-2.3-0.5-2.5c-0.6-0.2-2-0.5-3.3-0.5c-2.4,0-5.5,1.6-5.5,4.8C140.5,87.4,148,87.3,148,91.4z"/>
	<path fill="#FFFFFF" d="M151.3,80.9c0.7,0.1,1.2,0.2,1.2,1.1v10.3c0,1.2-0.3,1.3-1.7,1.7c-0.4,0.1-0.7,0.2-0.7,0.5
		c0,0.3,0.2,0.4,0.6,0.4c0.6,0,1.7-0.1,3.2-0.1c1.5,0,2.4,0.1,3,0.1c0.5,0,0.6-0.2,0.6-0.4c0-0.2-0.2-0.4-0.8-0.4
		c-1-0.1-1.3-0.5-1.3-1.6V78.7c0-0.4-0.1-0.5-0.3-0.5c-0.3,0-1.1,1-3.8,1.7c-0.4,0.1-0.7,0.1-0.7,0.5
		C150.7,80.8,151,80.8,151.3,80.9z"/>
	<path fill="#FFFFFF" d="M154.1,76.2c1,0,1.6-0.9,1.6-2s-0.6-2-1.6-2c-1,0-1.6,0.9-1.6,2S153.1,76.2,154.1,76.2z"/>
	<path fill="#FFFFFF" d="M156.8,81.1c0.8,0.2,1.3,0.2,1.3,1.2v18.1c0,1-0.7,0.9-1.5,1.1c-0.4,0.1-0.8,0-0.8,0.5c0,0.4,0.4,0.4,0.9,0.4
		c1,0,2.1-0.1,3.1-0.1c2,0,2.7,0.1,3.6,0.1c0.5,0,0.6-0.2,0.6-0.4c0-0.2-0.1-0.4-0.8-0.4c-1.8-0.2-2.2-0.6-2.2-2.1v-4.9
		c0-0.4,0-0.5,0.1-0.5c0.1,0,1,0.9,2.9,0.9c3.4,0,6.4-3.3,6.4-8.8c0-4.5-2.3-8-5.4-8c-2.2,0-3.9,2.3-4,2.3c-0.1,0-0.1,0-0.1-1.4
		c0-0.8,0-0.9-0.2-0.9c-0.3,0-0.4,0.3-1.8,1c-2.2,1.1-2.9,0.9-2.9,1.5C156,80.9,156.4,80.9,156.8,81.1z M161.1,82.3
		c0-1.1,1.2-2.3,2.6-2.3c2.2,0,3.6,2.7,3.6,7.2c0,4.3-1.4,7-3.7,7c-1.6,0-2.5-1.3-2.5-3.7V82.3z"/>
	<path fill="#FFFFFF" d="M188.1,76.2c1,0,1.6-0.9,1.6-2s-0.6-2-1.6-2s-1.6,0.9-1.6,2S187.1,76.2,188.1,76.2z"/>
</g>
</svg>