<svg xmlns="http://www.w3.org/2000/svg" width="200" height="200" viewBox="0 0 200 200" fill="white">
<path d="M186.3,101.8l7.1-15.5c-9.8-6.3-20.7-11.8-31.9-16.1h0.4v-3.3l6.7-10.8V42.2h-42.9l-16.5,25.8c-3,0-6.1-0.2-9-0.2
	c-3,0-6.1,0-9,0.2L74.6,42.2H31.7v13.8l6.7,10.8v3.3c-11.4,4.1-22,9.6-31.9,16.1l7.1,15.5L5,129.7c6.7-4.3,13.4-8.3,19.3-11.2v15.3
	c4.5-2.8,9.2-5.1,14.2-7.3v6.5l-6.7,10.4v14.2h45.6v-41.9c1.6-0.2,3.1-0.4,4.9-0.6l17.7,28.1l17.7-28.1c1.6,0.2,3.3,0.4,4.9,0.6
	v42.1h45.6v-14.2l-6.7-10.4v-6.7c4.9,2.2,9.6,4.5,14.2,7.3v-15.3c6.1,3.1,12.8,6.9,19.3,11.2L186.3,101.8z M24.1,87v26.6
	c-3.9,1.8-7.5,3.7-11.2,5.9l5.5-17.9L12.1,88c8.1-5.1,16.5-9.2,26-13h0.2v5.3C34.7,81.7,28.4,84.9,24.1,87z M170.8,126.2
	c-21.6-10.8-47.2-16.9-71-16.9c-23.8,0-49.4,6.1-71,16.9V90c21.6-11.2,47.2-17.5,71-17.5c23.8,0,49.4,6.3,71,17.5V126.2z
	 M175.5,113.6V87c-4.3-2.2-10.6-5.3-14.2-6.7V75h0.2c9.4,3.7,17.9,7.9,26,13l-6.3,13.6l5.5,17.9C183,117.3,179.5,115.3,175.5,113.6z
	 M86.4,85.6c-1.6,0.2-3,0.2-4.5,0.4v-3l-4.7,0.6V101l2.2-0.4v4.5c-3.3,0.4-6.7,1-10,1.8v-4.5l2.2-0.4V84.7l-4.7,1v3
	c-1.4,0.4-3,0.6-4.3,1v-7.5c7.9-2,15.9-3.3,24-3.9L86.4,85.6L86.4,85.6z M58.9,89.6c-1.8,0.6-3.7,1-5.5,1.6v-2l-7.9,2.8v5.9
	c0,0,7.3-2.6,10.2-3.5l3.1,2.2v8.5l-4.5,5.7c-3.5,1-6.9,2.4-10.2,3.5c-1.4-0.8-2.8-1.8-3.9-2.6v-3.1c1.8-0.8,3.5-1.4,5.3-2.2v3.1
	l0.8-0.2c2.2-0.8,7.1-2.6,7.1-2.6V99c0,0-7.3,2.6-10.4,3.7l-3-2v-6.9l4.3-6.1c3.3-1.4,6.9-2.6,10.2-3.5c1.4,1,2.8,1.8,4.1,2.8v2.6
	H58.9z M133.4,89c-1.4-0.4-3-0.6-4.3-1v-3l-4.7-1v17.3l2.2,0.4v4.5c-3.3-0.6-6.7-1.2-10.2-1.6v-4.5l2.2,0.2V83.1l-4.7-0.6v3
	c-1.4-0.2-3-0.2-4.5-0.4v-7.7c8.1,0.6,16.1,1.8,24,3.5V89H133.4z M145.2,89.2v6.5c0,0,5.1,1.8,7.5,2.6v3.9c-2.2-0.8-7.5-2.6-7.5-2.6
	v6.9l7.9,2.8v-2c1.8,0.6,3.5,1.4,5.3,2.2v6.5c-6.9-3-14-5.3-21-7.1v-4.5l2.2,0.6V87.6l-2.2-0.6v-4.5c7.1,1.8,14.2,4.3,21,7.1v6.1
	c-1.8-0.8-3.5-1.4-5.3-2.2v-1.6L145.2,89.2z M97.6,83.1l-3,8.3h5.7L97.6,83.1z M110.8,104.3c-3.1-0.2-6.5-0.4-9.6-0.4v-4.5h2.2
	l-1.4-4.1h-8.7l-1.6,4.1h2.2v4.5c-3.1,0.2-6.1,0.4-9.2,0.6V100l2.2-0.2l7.9-22.2c2,0,4.1,0,6.3,0l7.5,22c0,0,1.6,0.2,2.4,0.2
	L110.8,104.3L110.8,104.3z"/>
</svg>
