<svg xmlns="http://www.w3.org/2000/svg" width="77.28" height="40" viewBox="0 0 77.28 40">
<rect fill="#FFFFFF" width="77.28" height="40"/>
<path fill="#660032" d="M18.05,35.04H0V15.9C6.08,22.34,12.37,28.95,18.05,35.04z M28.34,35.04c8.82-9.45,19.33-20.43,28.34-30.08
	h-19.3c-1.9,2.35-3.7,4.71-5.64,6.95c-1.33,1.53-2.36,2.29-3.4,2.28c-1.04,0.01-2.07-0.75-3.4-2.28C23,9.67,21.2,7.31,19.3,4.96H0
	C9.01,14.61,19.53,25.59,28.34,35.04z M38.64,35.04h19.3c1.9-2.35,3.7-4.71,5.64-6.95c1.33-1.53,2.36-2.29,3.4-2.28
	c1.04-0.01,2.07,0.75,3.4,2.28c1.94,2.24,3.74,4.6,5.64,6.95h1.25V15.9c-3.55-3.76-7.04-7.46-10.29-10.95
	C58.17,14.41,47.65,25.39,38.64,35.04z"/>
</svg>
